<svg xmlns="http://www.w3.org/2000/svg" width="256" height="256" viewBox="0 0 128 128"><style>.ink{fill:#242d2c;stroke:#171d1c;stroke-width:3;stroke-linejoin:round}.paper{fill:#f1e6c8}.accent{fill:#9a793a}.red{fill:#a74632}</style><path class="ink" d="M10 108h108v8H10zM17 100V58h22v42zM50 100V31h24v69zM86 100V48h25v52z"/><path class="ink" d="M22 57V39h12v19M56 30V16h12v15M93 47V29h12v19M35 48h20v7H35zm38-14h18v7H73zm-1 25h16v7H72z"/><path class="paper" d="M24 69h8v12h-8zm32-28h12v8H56zm0 17h12v8H56zm37 20h11v8H93z"/><path class="red" d="M94 19c-7 8-7 13 0 17 7-4 7-9 0-17z"/></svg>
