{
	"asset":{
		"generator":"Khronos glTF Blender I/O v5.2.40",
		"version":"2.0"
	},
	"scene":0,
	"scenes":[
		{
			"name":"Scene",
			"nodes":[
				0
			]
		}
	],
	"nodes":[
		{
			"mesh":0,
			"name":"city_east_1"
		}
	],
	"materials":[
		{
			"doubleSided":true,
			"name":"city_pavement",
			"pbrMetallicRoughness":{
				"baseColorFactor":[
					0.26499998569488525,
					0.2549999952316284,
					0.22499999403953552,
					1
				],
				"metallicFactor":0,
				"roughnessFactor":0.9599999785423279
			}
		},
		{
			"doubleSided":true,
			"name":"City atlas | plaster \u00b7 limestone \u00b7 terracotta \u00b7 slate",
			"normalTexture":{
				"index":0,
				"scale":0.6499999761581421
			},
			"pbrMetallicRoughness":{
				"baseColorTexture":{
					"index":1
				},
				"metallicFactor":0,
				"roughnessFactor":0.8600000143051147
			}
		},
		{
			"doubleSided":true,
			"name":"city_glass",
			"pbrMetallicRoughness":{
				"baseColorFactor":[
					0.10499999672174454,
					0.14499999582767487,
					0.1599999964237213,
					1
				],
				"metallicFactor":0.07999999821186066,
				"roughnessFactor":0.3700000047683716
			}
		},
		{
			"doubleSided":true,
			"name":"city_timber",
			"pbrMetallicRoughness":{
				"baseColorFactor":[
					0.27000001072883606,
					0.14499999582767487,
					0.08500000089406967,
					1
				],
				"metallicFactor":0,
				"roughnessFactor":0.8799999952316284
			}
		},
		{
			"doubleSided":true,
			"name":"city_metal",
			"pbrMetallicRoughness":{
				"baseColorFactor":[
					0.2800000011920929,
					0.3400000035762787,
					0.3149999976158142,
					1
				],
				"metallicFactor":0.20000000298023224,
				"roughnessFactor":0.6800000071525574
			}
		}
	],
	"meshes":[
		{
			"name":"part.1397",
			"primitives":[
				{
					"attributes":{
						"POSITION":0,
						"NORMAL":1,
						"TEXCOORD_0":2,
						"TANGENT":3,
						"COLOR_0":4
					},
					"indices":5,
					"material":0
				},
				{
					"attributes":{
						"POSITION":6,
						"NORMAL":7,
						"TEXCOORD_0":8,
						"TANGENT":9,
						"COLOR_0":10
					},
					"indices":11,
					"material":1
				},
				{
					"attributes":{
						"POSITION":12,
						"NORMAL":13,
						"TEXCOORD_0":14,
						"TANGENT":15,
						"COLOR_0":16
					},
					"indices":17,
					"material":2
				},
				{
					"attributes":{
						"POSITION":18,
						"NORMAL":19,
						"TEXCOORD_0":20,
						"TANGENT":21,
						"COLOR_0":22
					},
					"indices":23,
					"material":3
				},
				{
					"attributes":{
						"POSITION":24,
						"NORMAL":25,
						"TEXCOORD_0":26,
						"TANGENT":27,
						"COLOR_0":28
					},
					"indices":29,
					"material":4
				}
			]
		}
	],
	"textures":[
		{
			"sampler":0,
			"source":0
		},
		{
			"sampler":0,
			"source":1
		}
	],
	"images":[
		{
			"mimeType":"image/png",
			"name":"material_atlas_normal",
			"uri":"textures/material_atlas_normal.png"
		},
		{
			"mimeType":"image/png",
			"name":"material_atlas",
			"uri":"textures/material_atlas.png"
		}
	],
	"accessors":[
		{
			"bufferView":0,
			"componentType":5126,
			"count":314,
			"max":[
				0.4997645914554596,
				0.0016179720405489206,
				0.42411062121391296
			],
			"min":[
				-0.49979934096336365,
				0,
				-0.42388924956321716
			],
			"type":"VEC3"
		},
		{
			"bufferView":1,
			"componentType":5126,
			"count":314,
			"type":"VEC3"
		},
		{
			"bufferView":2,
			"componentType":5126,
			"count":314,
			"type":"VEC2"
		},
		{
			"bufferView":3,
			"componentType":5126,
			"count":314,
			"type":"VEC4"
		},
		{
			"bufferView":4,
			"componentType":5126,
			"count":314,
			"type":"VEC3"
		},
		{
			"bufferView":5,
			"componentType":5123,
			"count":528,
			"type":"SCALAR"
		},
		{
			"bufferView":6,
			"componentType":5126,
			"count":25555,
			"max":[
				0.5,
				0.22004418075084686,
				0.4241422414779663
			],
			"min":[
				-0.5,
				0,
				-0.4241422414779663
			],
			"type":"VEC3"
		},
		{
			"bufferView":7,
			"componentType":5126,
			"count":25555,
			"type":"VEC3"
		},
		{
			"bufferView":8,
			"componentType":5126,
			"count":25555,
			"type":"VEC2"
		},
		{
			"bufferView":9,
			"componentType":5126,
			"count":25555,
			"type":"VEC4"
		},
		{
			"bufferView":10,
			"componentType":5126,
			"count":25555,
			"type":"VEC3"
		},
		{
			"bufferView":11,
			"componentType":5123,
			"count":35160,
			"type":"SCALAR"
		},
		{
			"bufferView":12,
			"componentType":5126,
			"count":1854,
			"max":[
				0.4463077187538147,
				0.20494312047958374,
				0.38623979687690735
			],
			"min":[
				-0.45411553978919983,
				0.020264871418476105,
				-0.4053887724876404
			],
			"type":"VEC3"
		},
		{
			"bufferView":13,
			"componentType":5126,
			"count":1854,
			"type":"VEC3"
		},
		{
			"bufferView":14,
			"componentType":5126,
			"count":1854,
			"type":"VEC2"
		},
		{
			"bufferView":15,
			"componentType":5126,
			"count":1854,
			"type":"VEC4"
		},
		{
			"bufferView":16,
			"componentType":5126,
			"count":1854,
			"type":"VEC3"
		},
		{
			"bufferView":17,
			"componentType":5123,
			"count":2076,
			"type":"SCALAR"
		},
		{
			"bufferView":18,
			"componentType":5126,
			"count":2144,
			"max":[
				0.448247492313385,
				0.11750251799821854,
				0.3881738781929016
			],
			"min":[
				-0.4560562074184418,
				0.0064718881621956825,
				-0.4072962999343872
			],
			"type":"VEC3"
		},
		{
			"bufferView":19,
			"componentType":5126,
			"count":2144,
			"type":"VEC3"
		},
		{
			"bufferView":20,
			"componentType":5126,
			"count":2144,
			"type":"VEC2"
		},
		{
			"bufferView":21,
			"componentType":5126,
			"count":2144,
			"type":"VEC4"
		},
		{
			"bufferView":22,
			"componentType":5126,
			"count":2144,
			"type":"VEC3"
		},
		{
			"bufferView":23,
			"componentType":5123,
			"count":3120,
			"type":"SCALAR"
		},
		{
			"bufferView":24,
			"componentType":5126,
			"count":464,
			"max":[
				0.2724098563194275,
				0.2761338949203491,
				0.3261123597621918
			],
			"min":[
				-0.2662777304649353,
				0.011325803585350513,
				-0.21231883764266968
			],
			"type":"VEC3"
		},
		{
			"bufferView":25,
			"componentType":5126,
			"count":464,
			"type":"VEC3"
		},
		{
			"bufferView":26,
			"componentType":5126,
			"count":464,
			"type":"VEC2"
		},
		{
			"bufferView":27,
			"componentType":5126,
			"count":464,
			"type":"VEC4"
		},
		{
			"bufferView":28,
			"componentType":5126,
			"count":464,
			"type":"VEC3"
		},
		{
			"bufferView":29,
			"componentType":5123,
			"count":690,
			"type":"SCALAR"
		}
	],
	"bufferViews":[
		{
			"buffer":0,
			"byteLength":3768,
			"byteOffset":0,
			"target":34962
		},
		{
			"buffer":0,
			"byteLength":3768,
			"byteOffset":3768,
			"target":34962
		},
		{
			"buffer":0,
			"byteLength":2512,
			"byteOffset":7536,
			"target":34962
		},
		{
			"buffer":0,
			"byteLength":5024,
			"byteOffset":10048,
			"target":34962
		},
		{
			"buffer":0,
			"byteLength":3768,
			"byteOffset":15072,
			"target":34962
		},
		{
			"buffer":0,
			"byteLength":1056,
			"byteOffset":18840,
			"target":34963
		},
		{
			"buffer":0,
			"byteLength":306660,
			"byteOffset":19896,
			"target":34962
		},
		{
			"buffer":0,
			"byteLength":306660,
			"byteOffset":326556,
			"target":34962
		},
		{
			"buffer":0,
			"byteLength":204440,
			"byteOffset":633216,
			"target":34962
		},
		{
			"buffer":0,
			"byteLength":408880,
			"byteOffset":837656,
			"target":34962
		},
		{
			"buffer":0,
			"byteLength":306660,
			"byteOffset":1246536,
			"target":34962
		},
		{
			"buffer":0,
			"byteLength":70320,
			"byteOffset":1553196,
			"target":34963
		},
		{
			"buffer":0,
			"byteLength":22248,
			"byteOffset":1623516,
			"target":34962
		},
		{
			"buffer":0,
			"byteLength":22248,
			"byteOffset":1645764,
			"target":34962
		},
		{
			"buffer":0,
			"byteLength":14832,
			"byteOffset":1668012,
			"target":34962
		},
		{
			"buffer":0,
			"byteLength":29664,
			"byteOffset":1682844,
			"target":34962
		},
		{
			"buffer":0,
			"byteLength":22248,
			"byteOffset":1712508,
			"target":34962
		},
		{
			"buffer":0,
			"byteLength":4152,
			"byteOffset":1734756,
			"target":34963
		},
		{
			"buffer":0,
			"byteLength":25728,
			"byteOffset":1738908,
			"target":34962
		},
		{
			"buffer":0,
			"byteLength":25728,
			"byteOffset":1764636,
			"target":34962
		},
		{
			"buffer":0,
			"byteLength":17152,
			"byteOffset":1790364,
			"target":34962
		},
		{
			"buffer":0,
			"byteLength":34304,
			"byteOffset":1807516,
			"target":34962
		},
		{
			"buffer":0,
			"byteLength":25728,
			"byteOffset":1841820,
			"target":34962
		},
		{
			"buffer":0,
			"byteLength":6240,
			"byteOffset":1867548,
			"target":34963
		},
		{
			"buffer":0,
			"byteLength":5568,
			"byteOffset":1873788,
			"target":34962
		},
		{
			"buffer":0,
			"byteLength":5568,
			"byteOffset":1879356,
			"target":34962
		},
		{
			"buffer":0,
			"byteLength":3712,
			"byteOffset":1884924,
			"target":34962
		},
		{
			"buffer":0,
			"byteLength":7424,
			"byteOffset":1888636,
			"target":34962
		},
		{
			"buffer":0,
			"byteLength":5568,
			"byteOffset":1896060,
			"target":34962
		},
		{
			"buffer":0,
			"byteLength":1380,
			"byteOffset":1901628,
			"target":34963
		}
	],
	"samplers":[
		{
			"magFilter":9729,
			"minFilter":9987,
			"wrapS":33071,
			"wrapT":33071
		}
	],
	"buffers":[
		{
			"byteLength":1903008,
			"uri":"city_east_1.bin"
		}
	]
}
