{
	"asset":{
		"generator":"Khronos glTF Blender I/O v5.2.40",
		"version":"2.0"
	},
	"scene":0,
	"scenes":[
		{
			"name":"Scene",
			"nodes":[
				0
			]
		}
	],
	"nodes":[
		{
			"mesh":0,
			"name":"city_west_1"
		}
	],
	"materials":[
		{
			"doubleSided":true,
			"name":"city_pavement",
			"pbrMetallicRoughness":{
				"baseColorFactor":[
					0.26499998569488525,
					0.2549999952316284,
					0.22499999403953552,
					1
				],
				"metallicFactor":0,
				"roughnessFactor":0.9599999785423279
			}
		},
		{
			"doubleSided":true,
			"name":"City atlas | plaster \u00b7 limestone \u00b7 terracotta \u00b7 slate",
			"normalTexture":{
				"index":0,
				"scale":0.6499999761581421
			},
			"pbrMetallicRoughness":{
				"baseColorTexture":{
					"index":1
				},
				"metallicFactor":0,
				"roughnessFactor":0.8600000143051147
			}
		},
		{
			"doubleSided":true,
			"name":"city_glass",
			"pbrMetallicRoughness":{
				"baseColorFactor":[
					0.10499999672174454,
					0.14499999582767487,
					0.1599999964237213,
					1
				],
				"metallicFactor":0.07999999821186066,
				"roughnessFactor":0.3700000047683716
			}
		},
		{
			"doubleSided":true,
			"name":"city_timber",
			"pbrMetallicRoughness":{
				"baseColorFactor":[
					0.27000001072883606,
					0.14499999582767487,
					0.08500000089406967,
					1
				],
				"metallicFactor":0,
				"roughnessFactor":0.8799999952316284
			}
		},
		{
			"doubleSided":true,
			"name":"city_metal",
			"pbrMetallicRoughness":{
				"baseColorFactor":[
					0.2800000011920929,
					0.3400000035762787,
					0.3149999976158142,
					1
				],
				"metallicFactor":0.20000000298023224,
				"roughnessFactor":0.6800000071525574
			}
		}
	],
	"meshes":[
		{
			"name":"part.456",
			"primitives":[
				{
					"attributes":{
						"POSITION":0,
						"NORMAL":1,
						"TEXCOORD_0":2,
						"TANGENT":3,
						"COLOR_0":4
					},
					"indices":5,
					"material":0
				},
				{
					"attributes":{
						"POSITION":6,
						"NORMAL":7,
						"TEXCOORD_0":8,
						"TANGENT":9,
						"COLOR_0":10
					},
					"indices":11,
					"material":1
				},
				{
					"attributes":{
						"POSITION":12,
						"NORMAL":13,
						"TEXCOORD_0":14,
						"TANGENT":15,
						"COLOR_0":16
					},
					"indices":17,
					"material":2
				},
				{
					"attributes":{
						"POSITION":18,
						"NORMAL":19,
						"TEXCOORD_0":20,
						"TANGENT":21,
						"COLOR_0":22
					},
					"indices":23,
					"material":3
				},
				{
					"attributes":{
						"POSITION":24,
						"NORMAL":25,
						"TEXCOORD_0":26,
						"TANGENT":27,
						"COLOR_0":28
					},
					"indices":29,
					"material":4
				}
			]
		}
	],
	"textures":[
		{
			"sampler":0,
			"source":0
		},
		{
			"sampler":0,
			"source":1
		}
	],
	"images":[
		{
			"mimeType":"image/png",
			"name":"material_atlas_normal",
			"uri":"textures/material_atlas_normal.png"
		},
		{
			"mimeType":"image/png",
			"name":"material_atlas",
			"uri":"textures/material_atlas.png"
		}
	],
	"accessors":[
		{
			"bufferView":0,
			"componentType":5126,
			"count":314,
			"max":[
				0.4997645914554596,
				0.0016179720405489206,
				0.42411062121391296
			],
			"min":[
				-0.49979934096336365,
				0,
				-0.42388924956321716
			],
			"type":"VEC3"
		},
		{
			"bufferView":1,
			"componentType":5126,
			"count":314,
			"type":"VEC3"
		},
		{
			"bufferView":2,
			"componentType":5126,
			"count":314,
			"type":"VEC2"
		},
		{
			"bufferView":3,
			"componentType":5126,
			"count":314,
			"type":"VEC4"
		},
		{
			"bufferView":4,
			"componentType":5126,
			"count":314,
			"type":"VEC3"
		},
		{
			"bufferView":5,
			"componentType":5123,
			"count":528,
			"type":"SCALAR"
		},
		{
			"bufferView":6,
			"componentType":5126,
			"count":25193,
			"max":[
				0.5,
				0.25132498145103455,
				0.4241422414779663
			],
			"min":[
				-0.5,
				0,
				-0.4241422414779663
			],
			"type":"VEC3"
		},
		{
			"bufferView":7,
			"componentType":5126,
			"count":25193,
			"type":"VEC3"
		},
		{
			"bufferView":8,
			"componentType":5126,
			"count":25193,
			"type":"VEC2"
		},
		{
			"bufferView":9,
			"componentType":5126,
			"count":25193,
			"type":"VEC4"
		},
		{
			"bufferView":10,
			"componentType":5126,
			"count":25193,
			"type":"VEC3"
		},
		{
			"bufferView":11,
			"componentType":5123,
			"count":34980,
			"type":"SCALAR"
		},
		{
			"bufferView":12,
			"componentType":5126,
			"count":1840,
			"max":[
				0.4452064335346222,
				0.20494312047958374,
				0.3953515589237213
			],
			"min":[
				-0.4556678831577301,
				0.020400909706950188,
				-0.38327836990356445
			],
			"type":"VEC3"
		},
		{
			"bufferView":13,
			"componentType":5126,
			"count":1840,
			"type":"VEC3"
		},
		{
			"bufferView":14,
			"componentType":5126,
			"count":1840,
			"type":"VEC2"
		},
		{
			"bufferView":15,
			"componentType":5126,
			"count":1840,
			"type":"VEC4"
		},
		{
			"bufferView":16,
			"componentType":5126,
			"count":1840,
			"type":"VEC3"
		},
		{
			"bufferView":17,
			"componentType":5123,
			"count":2064,
			"type":"SCALAR"
		},
		{
			"bufferView":18,
			"componentType":5126,
			"count":2140,
			"max":[
				0.4471472203731537,
				0.11750251799821854,
				0.402122437953949
			],
			"min":[
				-0.45760321617126465,
				0.0064718881621956825,
				-0.385202020406723
			],
			"type":"VEC3"
		},
		{
			"bufferView":19,
			"componentType":5126,
			"count":2140,
			"type":"VEC3"
		},
		{
			"bufferView":20,
			"componentType":5126,
			"count":2140,
			"type":"VEC2"
		},
		{
			"bufferView":21,
			"componentType":5126,
			"count":2140,
			"type":"VEC4"
		},
		{
			"bufferView":22,
			"componentType":5126,
			"count":2140,
			"type":"VEC3"
		},
		{
			"bufferView":23,
			"componentType":5123,
			"count":3096,
			"type":"SCALAR"
		},
		{
			"bufferView":24,
			"componentType":5126,
			"count":144,
			"max":[
				0.2724098563194275,
				0.026426877826452255,
				0.3261123597621918
			],
			"min":[
				-0.2662777304649353,
				0.011325803585350513,
				-0.17330166697502136
			],
			"type":"VEC3"
		},
		{
			"bufferView":25,
			"componentType":5126,
			"count":144,
			"type":"VEC3"
		},
		{
			"bufferView":26,
			"componentType":5126,
			"count":144,
			"type":"VEC2"
		},
		{
			"bufferView":27,
			"componentType":5126,
			"count":144,
			"type":"VEC4"
		},
		{
			"bufferView":28,
			"componentType":5126,
			"count":144,
			"type":"VEC3"
		},
		{
			"bufferView":29,
			"componentType":5123,
			"count":216,
			"type":"SCALAR"
		}
	],
	"bufferViews":[
		{
			"buffer":0,
			"byteLength":3768,
			"byteOffset":0,
			"target":34962
		},
		{
			"buffer":0,
			"byteLength":3768,
			"byteOffset":3768,
			"target":34962
		},
		{
			"buffer":0,
			"byteLength":2512,
			"byteOffset":7536,
			"target":34962
		},
		{
			"buffer":0,
			"byteLength":5024,
			"byteOffset":10048,
			"target":34962
		},
		{
			"buffer":0,
			"byteLength":3768,
			"byteOffset":15072,
			"target":34962
		},
		{
			"buffer":0,
			"byteLength":1056,
			"byteOffset":18840,
			"target":34963
		},
		{
			"buffer":0,
			"byteLength":302316,
			"byteOffset":19896,
			"target":34962
		},
		{
			"buffer":0,
			"byteLength":302316,
			"byteOffset":322212,
			"target":34962
		},
		{
			"buffer":0,
			"byteLength":201544,
			"byteOffset":624528,
			"target":34962
		},
		{
			"buffer":0,
			"byteLength":403088,
			"byteOffset":826072,
			"target":34962
		},
		{
			"buffer":0,
			"byteLength":302316,
			"byteOffset":1229160,
			"target":34962
		},
		{
			"buffer":0,
			"byteLength":69960,
			"byteOffset":1531476,
			"target":34963
		},
		{
			"buffer":0,
			"byteLength":22080,
			"byteOffset":1601436,
			"target":34962
		},
		{
			"buffer":0,
			"byteLength":22080,
			"byteOffset":1623516,
			"target":34962
		},
		{
			"buffer":0,
			"byteLength":14720,
			"byteOffset":1645596,
			"target":34962
		},
		{
			"buffer":0,
			"byteLength":29440,
			"byteOffset":1660316,
			"target":34962
		},
		{
			"buffer":0,
			"byteLength":22080,
			"byteOffset":1689756,
			"target":34962
		},
		{
			"buffer":0,
			"byteLength":4128,
			"byteOffset":1711836,
			"target":34963
		},
		{
			"buffer":0,
			"byteLength":25680,
			"byteOffset":1715964,
			"target":34962
		},
		{
			"buffer":0,
			"byteLength":25680,
			"byteOffset":1741644,
			"target":34962
		},
		{
			"buffer":0,
			"byteLength":17120,
			"byteOffset":1767324,
			"target":34962
		},
		{
			"buffer":0,
			"byteLength":34240,
			"byteOffset":1784444,
			"target":34962
		},
		{
			"buffer":0,
			"byteLength":25680,
			"byteOffset":1818684,
			"target":34962
		},
		{
			"buffer":0,
			"byteLength":6192,
			"byteOffset":1844364,
			"target":34963
		},
		{
			"buffer":0,
			"byteLength":1728,
			"byteOffset":1850556,
			"target":34962
		},
		{
			"buffer":0,
			"byteLength":1728,
			"byteOffset":1852284,
			"target":34962
		},
		{
			"buffer":0,
			"byteLength":1152,
			"byteOffset":1854012,
			"target":34962
		},
		{
			"buffer":0,
			"byteLength":2304,
			"byteOffset":1855164,
			"target":34962
		},
		{
			"buffer":0,
			"byteLength":1728,
			"byteOffset":1857468,
			"target":34962
		},
		{
			"buffer":0,
			"byteLength":432,
			"byteOffset":1859196,
			"target":34963
		}
	],
	"samplers":[
		{
			"magFilter":9729,
			"minFilter":9987,
			"wrapS":33071,
			"wrapT":33071
		}
	],
	"buffers":[
		{
			"byteLength":1859628,
			"uri":"city_west_1.bin"
		}
	]
}
