{
	"asset":{
		"generator":"Khronos glTF Blender I/O v5.2.40",
		"version":"2.0"
	},
	"scene":0,
	"scenes":[
		{
			"name":"Scene",
			"nodes":[
				0
			]
		}
	],
	"nodes":[
		{
			"mesh":0,
			"name":"city_east_0"
		}
	],
	"materials":[
		{
			"doubleSided":true,
			"name":"city_pavement",
			"pbrMetallicRoughness":{
				"baseColorFactor":[
					0.26499998569488525,
					0.2549999952316284,
					0.22499999403953552,
					1
				],
				"metallicFactor":0,
				"roughnessFactor":0.9599999785423279
			}
		},
		{
			"doubleSided":true,
			"name":"City atlas | plaster \u00b7 limestone \u00b7 terracotta \u00b7 slate",
			"normalTexture":{
				"index":0,
				"scale":0.6499999761581421
			},
			"pbrMetallicRoughness":{
				"baseColorTexture":{
					"index":1
				},
				"metallicFactor":0,
				"roughnessFactor":0.8600000143051147
			}
		},
		{
			"doubleSided":true,
			"name":"city_glass",
			"pbrMetallicRoughness":{
				"baseColorFactor":[
					0.10499999672174454,
					0.14499999582767487,
					0.1599999964237213,
					1
				],
				"metallicFactor":0.07999999821186066,
				"roughnessFactor":0.3700000047683716
			}
		},
		{
			"doubleSided":true,
			"name":"city_timber",
			"pbrMetallicRoughness":{
				"baseColorFactor":[
					0.27000001072883606,
					0.14499999582767487,
					0.08500000089406967,
					1
				],
				"metallicFactor":0,
				"roughnessFactor":0.8799999952316284
			}
		},
		{
			"doubleSided":true,
			"name":"city_metal",
			"pbrMetallicRoughness":{
				"baseColorFactor":[
					0.2800000011920929,
					0.3400000035762787,
					0.3149999976158142,
					1
				],
				"metallicFactor":0.20000000298023224,
				"roughnessFactor":0.6800000071525574
			}
		}
	],
	"meshes":[
		{
			"name":"part.941",
			"primitives":[
				{
					"attributes":{
						"POSITION":0,
						"NORMAL":1,
						"TEXCOORD_0":2,
						"TANGENT":3,
						"COLOR_0":4
					},
					"indices":5,
					"material":0
				},
				{
					"attributes":{
						"POSITION":6,
						"NORMAL":7,
						"TEXCOORD_0":8,
						"TANGENT":9,
						"COLOR_0":10
					},
					"indices":11,
					"material":1
				},
				{
					"attributes":{
						"POSITION":12,
						"NORMAL":13,
						"TEXCOORD_0":14,
						"TANGENT":15,
						"COLOR_0":16
					},
					"indices":17,
					"material":2
				},
				{
					"attributes":{
						"POSITION":18,
						"NORMAL":19,
						"TEXCOORD_0":20,
						"TANGENT":21,
						"COLOR_0":22
					},
					"indices":23,
					"material":3
				},
				{
					"attributes":{
						"POSITION":24,
						"NORMAL":25,
						"TEXCOORD_0":26,
						"TANGENT":27,
						"COLOR_0":28
					},
					"indices":29,
					"material":4
				}
			]
		}
	],
	"textures":[
		{
			"sampler":0,
			"source":0
		},
		{
			"sampler":0,
			"source":1
		}
	],
	"images":[
		{
			"mimeType":"image/png",
			"name":"material_atlas_normal",
			"uri":"textures/material_atlas_normal.png"
		},
		{
			"mimeType":"image/png",
			"name":"material_atlas",
			"uri":"textures/material_atlas.png"
		}
	],
	"accessors":[
		{
			"bufferView":0,
			"componentType":5126,
			"count":314,
			"max":[
				0.4997645914554596,
				0.0016179720405489206,
				0.42411062121391296
			],
			"min":[
				-0.49979934096336365,
				0,
				-0.42388924956321716
			],
			"type":"VEC3"
		},
		{
			"bufferView":1,
			"componentType":5126,
			"count":314,
			"type":"VEC3"
		},
		{
			"bufferView":2,
			"componentType":5126,
			"count":314,
			"type":"VEC2"
		},
		{
			"bufferView":3,
			"componentType":5126,
			"count":314,
			"type":"VEC4"
		},
		{
			"bufferView":4,
			"componentType":5126,
			"count":314,
			"type":"VEC3"
		},
		{
			"bufferView":5,
			"componentType":5123,
			"count":528,
			"type":"SCALAR"
		},
		{
			"bufferView":6,
			"componentType":5126,
			"count":23399,
			"max":[
				0.5,
				0.22004418075084686,
				0.4241422414779663
			],
			"min":[
				-0.5,
				0,
				-0.4241422414779663
			],
			"type":"VEC3"
		},
		{
			"bufferView":7,
			"componentType":5126,
			"count":23399,
			"type":"VEC3"
		},
		{
			"bufferView":8,
			"componentType":5126,
			"count":23399,
			"type":"VEC2"
		},
		{
			"bufferView":9,
			"componentType":5126,
			"count":23399,
			"type":"VEC4"
		},
		{
			"bufferView":10,
			"componentType":5126,
			"count":23399,
			"type":"VEC3"
		},
		{
			"bufferView":11,
			"componentType":5123,
			"count":32196,
			"type":"SCALAR"
		},
		{
			"bufferView":12,
			"componentType":5126,
			"count":1672,
			"max":[
				0.44566914439201355,
				0.20494312047958374,
				0.39384400844573975
			],
			"min":[
				-0.45272108912467957,
				0.020268911495804787,
				-0.3974103629589081
			],
			"type":"VEC3"
		},
		{
			"bufferView":13,
			"componentType":5126,
			"count":1672,
			"type":"VEC3"
		},
		{
			"bufferView":14,
			"componentType":5126,
			"count":1672,
			"type":"VEC2"
		},
		{
			"bufferView":15,
			"componentType":5126,
			"count":1672,
			"type":"VEC4"
		},
		{
			"bufferView":16,
			"componentType":5126,
			"count":1672,
			"type":"VEC3"
		},
		{
			"bufferView":17,
			"componentType":5123,
			"count":1908,
			"type":"SCALAR"
		},
		{
			"bufferView":18,
			"componentType":5126,
			"count":1941,
			"max":[
				0.44760099053382874,
				0.11750251799821854,
				0.3957808315753937
			],
			"min":[
				-0.454661101102829,
				0.0064718881621956825,
				-0.3993270993232727
			],
			"type":"VEC3"
		},
		{
			"bufferView":19,
			"componentType":5126,
			"count":1941,
			"type":"VEC3"
		},
		{
			"bufferView":20,
			"componentType":5126,
			"count":1941,
			"type":"VEC2"
		},
		{
			"bufferView":21,
			"componentType":5126,
			"count":1941,
			"type":"VEC4"
		},
		{
			"bufferView":22,
			"componentType":5126,
			"count":1941,
			"type":"VEC3"
		},
		{
			"bufferView":23,
			"componentType":5123,
			"count":2784,
			"type":"SCALAR"
		},
		{
			"bufferView":24,
			"componentType":5126,
			"count":464,
			"max":[
				0.2892259657382965,
				0.2761338949203491,
				0.3261123597621918
			],
			"min":[
				-0.25936359167099,
				0.011325803585350513,
				-0.21080905199050903
			],
			"type":"VEC3"
		},
		{
			"bufferView":25,
			"componentType":5126,
			"count":464,
			"type":"VEC3"
		},
		{
			"bufferView":26,
			"componentType":5126,
			"count":464,
			"type":"VEC2"
		},
		{
			"bufferView":27,
			"componentType":5126,
			"count":464,
			"type":"VEC4"
		},
		{
			"bufferView":28,
			"componentType":5126,
			"count":464,
			"type":"VEC3"
		},
		{
			"bufferView":29,
			"componentType":5123,
			"count":690,
			"type":"SCALAR"
		}
	],
	"bufferViews":[
		{
			"buffer":0,
			"byteLength":3768,
			"byteOffset":0,
			"target":34962
		},
		{
			"buffer":0,
			"byteLength":3768,
			"byteOffset":3768,
			"target":34962
		},
		{
			"buffer":0,
			"byteLength":2512,
			"byteOffset":7536,
			"target":34962
		},
		{
			"buffer":0,
			"byteLength":5024,
			"byteOffset":10048,
			"target":34962
		},
		{
			"buffer":0,
			"byteLength":3768,
			"byteOffset":15072,
			"target":34962
		},
		{
			"buffer":0,
			"byteLength":1056,
			"byteOffset":18840,
			"target":34963
		},
		{
			"buffer":0,
			"byteLength":280788,
			"byteOffset":19896,
			"target":34962
		},
		{
			"buffer":0,
			"byteLength":280788,
			"byteOffset":300684,
			"target":34962
		},
		{
			"buffer":0,
			"byteLength":187192,
			"byteOffset":581472,
			"target":34962
		},
		{
			"buffer":0,
			"byteLength":374384,
			"byteOffset":768664,
			"target":34962
		},
		{
			"buffer":0,
			"byteLength":280788,
			"byteOffset":1143048,
			"target":34962
		},
		{
			"buffer":0,
			"byteLength":64392,
			"byteOffset":1423836,
			"target":34963
		},
		{
			"buffer":0,
			"byteLength":20064,
			"byteOffset":1488228,
			"target":34962
		},
		{
			"buffer":0,
			"byteLength":20064,
			"byteOffset":1508292,
			"target":34962
		},
		{
			"buffer":0,
			"byteLength":13376,
			"byteOffset":1528356,
			"target":34962
		},
		{
			"buffer":0,
			"byteLength":26752,
			"byteOffset":1541732,
			"target":34962
		},
		{
			"buffer":0,
			"byteLength":20064,
			"byteOffset":1568484,
			"target":34962
		},
		{
			"buffer":0,
			"byteLength":3816,
			"byteOffset":1588548,
			"target":34963
		},
		{
			"buffer":0,
			"byteLength":23292,
			"byteOffset":1592364,
			"target":34962
		},
		{
			"buffer":0,
			"byteLength":23292,
			"byteOffset":1615656,
			"target":34962
		},
		{
			"buffer":0,
			"byteLength":15528,
			"byteOffset":1638948,
			"target":34962
		},
		{
			"buffer":0,
			"byteLength":31056,
			"byteOffset":1654476,
			"target":34962
		},
		{
			"buffer":0,
			"byteLength":23292,
			"byteOffset":1685532,
			"target":34962
		},
		{
			"buffer":0,
			"byteLength":5568,
			"byteOffset":1708824,
			"target":34963
		},
		{
			"buffer":0,
			"byteLength":5568,
			"byteOffset":1714392,
			"target":34962
		},
		{
			"buffer":0,
			"byteLength":5568,
			"byteOffset":1719960,
			"target":34962
		},
		{
			"buffer":0,
			"byteLength":3712,
			"byteOffset":1725528,
			"target":34962
		},
		{
			"buffer":0,
			"byteLength":7424,
			"byteOffset":1729240,
			"target":34962
		},
		{
			"buffer":0,
			"byteLength":5568,
			"byteOffset":1736664,
			"target":34962
		},
		{
			"buffer":0,
			"byteLength":1380,
			"byteOffset":1742232,
			"target":34963
		}
	],
	"samplers":[
		{
			"magFilter":9729,
			"minFilter":9987,
			"wrapS":33071,
			"wrapT":33071
		}
	],
	"buffers":[
		{
			"byteLength":1743612,
			"uri":"city_east_0.bin"
		}
	]
}
