{
	"asset":{
		"generator":"Khronos glTF Blender I/O v5.2.40",
		"version":"2.0"
	},
	"scene":0,
	"scenes":[
		{
			"name":"Scene",
			"nodes":[
				0
			]
		}
	],
	"nodes":[
		{
			"mesh":0,
			"name":"city_orient_1"
		}
	],
	"materials":[
		{
			"doubleSided":true,
			"name":"city_pavement",
			"pbrMetallicRoughness":{
				"baseColorFactor":[
					0.26499998569488525,
					0.2549999952316284,
					0.22499999403953552,
					1
				],
				"metallicFactor":0,
				"roughnessFactor":0.9599999785423279
			}
		},
		{
			"doubleSided":true,
			"name":"City atlas | plaster \u00b7 limestone \u00b7 terracotta \u00b7 slate",
			"normalTexture":{
				"index":0,
				"scale":0.6499999761581421
			},
			"pbrMetallicRoughness":{
				"baseColorTexture":{
					"index":1
				},
				"metallicFactor":0,
				"roughnessFactor":0.8600000143051147
			}
		},
		{
			"doubleSided":true,
			"name":"city_glass",
			"pbrMetallicRoughness":{
				"baseColorFactor":[
					0.10499999672174454,
					0.14499999582767487,
					0.1599999964237213,
					1
				],
				"metallicFactor":0.07999999821186066,
				"roughnessFactor":0.3700000047683716
			}
		},
		{
			"doubleSided":true,
			"name":"city_timber",
			"pbrMetallicRoughness":{
				"baseColorFactor":[
					0.27000001072883606,
					0.14499999582767487,
					0.08500000089406967,
					1
				],
				"metallicFactor":0,
				"roughnessFactor":0.8799999952316284
			}
		},
		{
			"doubleSided":true,
			"name":"city_metal",
			"pbrMetallicRoughness":{
				"baseColorFactor":[
					0.2800000011920929,
					0.3400000035762787,
					0.3149999976158142,
					1
				],
				"metallicFactor":0.20000000298023224,
				"roughnessFactor":0.6800000071525574
			}
		}
	],
	"meshes":[
		{
			"name":"part.2348",
			"primitives":[
				{
					"attributes":{
						"POSITION":0,
						"NORMAL":1,
						"TEXCOORD_0":2,
						"TANGENT":3,
						"COLOR_0":4
					},
					"indices":5,
					"material":0
				},
				{
					"attributes":{
						"POSITION":6,
						"NORMAL":7,
						"TEXCOORD_0":8,
						"TANGENT":9,
						"COLOR_0":10
					},
					"indices":11,
					"material":1
				},
				{
					"attributes":{
						"POSITION":12,
						"NORMAL":13,
						"TEXCOORD_0":14,
						"TANGENT":15,
						"COLOR_0":16
					},
					"indices":17,
					"material":2
				},
				{
					"attributes":{
						"POSITION":18,
						"NORMAL":19,
						"TEXCOORD_0":20,
						"TANGENT":21,
						"COLOR_0":22
					},
					"indices":23,
					"material":3
				},
				{
					"attributes":{
						"POSITION":24,
						"NORMAL":25,
						"TEXCOORD_0":26,
						"TANGENT":27,
						"COLOR_0":28
					},
					"indices":29,
					"material":4
				}
			]
		}
	],
	"textures":[
		{
			"sampler":0,
			"source":0
		},
		{
			"sampler":0,
			"source":1
		}
	],
	"images":[
		{
			"mimeType":"image/png",
			"name":"material_atlas_normal",
			"uri":"textures/material_atlas_normal.png"
		},
		{
			"mimeType":"image/png",
			"name":"material_atlas",
			"uri":"textures/material_atlas.png"
		}
	],
	"accessors":[
		{
			"bufferView":0,
			"componentType":5126,
			"count":314,
			"max":[
				0.4997645914554596,
				0.0016179720405489206,
				0.42411062121391296
			],
			"min":[
				-0.49979934096336365,
				0,
				-0.42388924956321716
			],
			"type":"VEC3"
		},
		{
			"bufferView":1,
			"componentType":5126,
			"count":314,
			"type":"VEC3"
		},
		{
			"bufferView":2,
			"componentType":5126,
			"count":314,
			"type":"VEC2"
		},
		{
			"bufferView":3,
			"componentType":5126,
			"count":314,
			"type":"VEC4"
		},
		{
			"bufferView":4,
			"componentType":5126,
			"count":314,
			"type":"VEC3"
		},
		{
			"bufferView":5,
			"componentType":5123,
			"count":528,
			"type":"SCALAR"
		},
		{
			"bufferView":6,
			"componentType":5126,
			"count":25872,
			"max":[
				0.5,
				0.17308226227760315,
				0.4241422414779663
			],
			"min":[
				-0.5,
				0,
				-0.4241422414779663
			],
			"type":"VEC3"
		},
		{
			"bufferView":7,
			"componentType":5126,
			"count":25872,
			"type":"VEC3"
		},
		{
			"bufferView":8,
			"componentType":5126,
			"count":25872,
			"type":"VEC2"
		},
		{
			"bufferView":9,
			"componentType":5126,
			"count":25872,
			"type":"VEC4"
		},
		{
			"bufferView":10,
			"componentType":5126,
			"count":25872,
			"type":"VEC3"
		},
		{
			"bufferView":11,
			"componentType":5123,
			"count":36168,
			"type":"SCALAR"
		},
		{
			"bufferView":12,
			"componentType":5126,
			"count":2016,
			"max":[
				0.44242414832115173,
				0.1712014079093933,
				0.39662298560142517
			],
			"min":[
				-0.45687219500541687,
				0.020159929990768433,
				-0.40907859802246094
			],
			"type":"VEC3"
		},
		{
			"bufferView":13,
			"componentType":5126,
			"count":2016,
			"type":"VEC3"
		},
		{
			"bufferView":14,
			"componentType":5126,
			"count":2016,
			"type":"VEC2"
		},
		{
			"bufferView":15,
			"componentType":5126,
			"count":2016,
			"type":"VEC4"
		},
		{
			"bufferView":16,
			"componentType":5126,
			"count":2016,
			"type":"VEC3"
		},
		{
			"bufferView":17,
			"componentType":5123,
			"count":2292,
			"type":"SCALAR"
		},
		{
			"bufferView":18,
			"componentType":5126,
			"count":2520,
			"max":[
				0.44436460733413696,
				0.1116761863231659,
				0.3985558748245239
			],
			"min":[
				-0.4588024616241455,
				0.0064718881621956825,
				-0.4110020399093628
			],
			"type":"VEC3"
		},
		{
			"bufferView":19,
			"componentType":5126,
			"count":2520,
			"type":"VEC3"
		},
		{
			"bufferView":20,
			"componentType":5126,
			"count":2520,
			"type":"VEC2"
		},
		{
			"bufferView":21,
			"componentType":5126,
			"count":2520,
			"type":"VEC4"
		},
		{
			"bufferView":22,
			"componentType":5126,
			"count":2520,
			"type":"VEC3"
		},
		{
			"bufferView":23,
			"componentType":5123,
			"count":3624,
			"type":"SCALAR"
		},
		{
			"bufferView":24,
			"componentType":5126,
			"count":657,
			"max":[
				0.2724098563194275,
				0.2038644701242447,
				0.3261123597621918
			],
			"min":[
				-0.2662777304649353,
				0.011325803585350513,
				-0.24282556772232056
			],
			"type":"VEC3"
		},
		{
			"bufferView":25,
			"componentType":5126,
			"count":657,
			"type":"VEC3"
		},
		{
			"bufferView":26,
			"componentType":5126,
			"count":657,
			"type":"VEC2"
		},
		{
			"bufferView":27,
			"componentType":5126,
			"count":657,
			"type":"VEC4"
		},
		{
			"bufferView":28,
			"componentType":5126,
			"count":657,
			"type":"VEC3"
		},
		{
			"bufferView":29,
			"componentType":5123,
			"count":1212,
			"type":"SCALAR"
		}
	],
	"bufferViews":[
		{
			"buffer":0,
			"byteLength":3768,
			"byteOffset":0,
			"target":34962
		},
		{
			"buffer":0,
			"byteLength":3768,
			"byteOffset":3768,
			"target":34962
		},
		{
			"buffer":0,
			"byteLength":2512,
			"byteOffset":7536,
			"target":34962
		},
		{
			"buffer":0,
			"byteLength":5024,
			"byteOffset":10048,
			"target":34962
		},
		{
			"buffer":0,
			"byteLength":3768,
			"byteOffset":15072,
			"target":34962
		},
		{
			"buffer":0,
			"byteLength":1056,
			"byteOffset":18840,
			"target":34963
		},
		{
			"buffer":0,
			"byteLength":310464,
			"byteOffset":19896,
			"target":34962
		},
		{
			"buffer":0,
			"byteLength":310464,
			"byteOffset":330360,
			"target":34962
		},
		{
			"buffer":0,
			"byteLength":206976,
			"byteOffset":640824,
			"target":34962
		},
		{
			"buffer":0,
			"byteLength":413952,
			"byteOffset":847800,
			"target":34962
		},
		{
			"buffer":0,
			"byteLength":310464,
			"byteOffset":1261752,
			"target":34962
		},
		{
			"buffer":0,
			"byteLength":72336,
			"byteOffset":1572216,
			"target":34963
		},
		{
			"buffer":0,
			"byteLength":24192,
			"byteOffset":1644552,
			"target":34962
		},
		{
			"buffer":0,
			"byteLength":24192,
			"byteOffset":1668744,
			"target":34962
		},
		{
			"buffer":0,
			"byteLength":16128,
			"byteOffset":1692936,
			"target":34962
		},
		{
			"buffer":0,
			"byteLength":32256,
			"byteOffset":1709064,
			"target":34962
		},
		{
			"buffer":0,
			"byteLength":24192,
			"byteOffset":1741320,
			"target":34962
		},
		{
			"buffer":0,
			"byteLength":4584,
			"byteOffset":1765512,
			"target":34963
		},
		{
			"buffer":0,
			"byteLength":30240,
			"byteOffset":1770096,
			"target":34962
		},
		{
			"buffer":0,
			"byteLength":30240,
			"byteOffset":1800336,
			"target":34962
		},
		{
			"buffer":0,
			"byteLength":20160,
			"byteOffset":1830576,
			"target":34962
		},
		{
			"buffer":0,
			"byteLength":40320,
			"byteOffset":1850736,
			"target":34962
		},
		{
			"buffer":0,
			"byteLength":30240,
			"byteOffset":1891056,
			"target":34962
		},
		{
			"buffer":0,
			"byteLength":7248,
			"byteOffset":1921296,
			"target":34963
		},
		{
			"buffer":0,
			"byteLength":7884,
			"byteOffset":1928544,
			"target":34962
		},
		{
			"buffer":0,
			"byteLength":7884,
			"byteOffset":1936428,
			"target":34962
		},
		{
			"buffer":0,
			"byteLength":5256,
			"byteOffset":1944312,
			"target":34962
		},
		{
			"buffer":0,
			"byteLength":10512,
			"byteOffset":1949568,
			"target":34962
		},
		{
			"buffer":0,
			"byteLength":7884,
			"byteOffset":1960080,
			"target":34962
		},
		{
			"buffer":0,
			"byteLength":2424,
			"byteOffset":1967964,
			"target":34963
		}
	],
	"samplers":[
		{
			"magFilter":9729,
			"minFilter":9987,
			"wrapS":33071,
			"wrapT":33071
		}
	],
	"buffers":[
		{
			"byteLength":1970388,
			"uri":"city_orient_1.bin"
		}
	]
}
