{
	"asset":{
		"generator":"Khronos glTF Blender I/O v5.2.40",
		"version":"2.0"
	},
	"scene":0,
	"scenes":[
		{
			"name":"Scene",
			"nodes":[
				0
			]
		}
	],
	"nodes":[
		{
			"mesh":0,
			"name":"city_nordic_1"
		}
	],
	"materials":[
		{
			"doubleSided":true,
			"name":"city_pavement",
			"pbrMetallicRoughness":{
				"baseColorFactor":[
					0.26499998569488525,
					0.2549999952316284,
					0.22499999403953552,
					1
				],
				"metallicFactor":0,
				"roughnessFactor":0.9599999785423279
			}
		},
		{
			"doubleSided":true,
			"name":"City atlas | plaster \u00b7 limestone \u00b7 terracotta \u00b7 slate",
			"normalTexture":{
				"index":0,
				"scale":0.6499999761581421
			},
			"pbrMetallicRoughness":{
				"baseColorTexture":{
					"index":1
				},
				"metallicFactor":0,
				"roughnessFactor":0.8600000143051147
			}
		},
		{
			"doubleSided":true,
			"name":"city_glass",
			"pbrMetallicRoughness":{
				"baseColorFactor":[
					0.10499999672174454,
					0.14499999582767487,
					0.1599999964237213,
					1
				],
				"metallicFactor":0.07999999821186066,
				"roughnessFactor":0.3700000047683716
			}
		},
		{
			"doubleSided":true,
			"name":"city_timber",
			"pbrMetallicRoughness":{
				"baseColorFactor":[
					0.27000001072883606,
					0.14499999582767487,
					0.08500000089406967,
					1
				],
				"metallicFactor":0,
				"roughnessFactor":0.8799999952316284
			}
		},
		{
			"doubleSided":true,
			"name":"city_brick",
			"pbrMetallicRoughness":{
				"baseColorFactor":[
					0.36000001430511475,
					0.17000000178813934,
					0.11500000208616257,
					1
				],
				"metallicFactor":0,
				"roughnessFactor":0.8999999761581421
			}
		},
		{
			"doubleSided":true,
			"name":"city_metal",
			"pbrMetallicRoughness":{
				"baseColorFactor":[
					0.2800000011920929,
					0.3400000035762787,
					0.3149999976158142,
					1
				],
				"metallicFactor":0.20000000298023224,
				"roughnessFactor":0.6800000071525574
			}
		}
	],
	"meshes":[
		{
			"name":"part.3313",
			"primitives":[
				{
					"attributes":{
						"POSITION":0,
						"NORMAL":1,
						"TEXCOORD_0":2,
						"TANGENT":3,
						"COLOR_0":4
					},
					"indices":5,
					"material":0
				},
				{
					"attributes":{
						"POSITION":6,
						"NORMAL":7,
						"TEXCOORD_0":8,
						"TANGENT":9,
						"COLOR_0":10
					},
					"indices":11,
					"material":1
				},
				{
					"attributes":{
						"POSITION":12,
						"NORMAL":13,
						"TEXCOORD_0":14,
						"TANGENT":15,
						"COLOR_0":16
					},
					"indices":17,
					"material":2
				},
				{
					"attributes":{
						"POSITION":18,
						"NORMAL":19,
						"TEXCOORD_0":20,
						"TANGENT":21,
						"COLOR_0":22
					},
					"indices":23,
					"material":3
				},
				{
					"attributes":{
						"POSITION":24,
						"NORMAL":25,
						"TEXCOORD_0":26,
						"TANGENT":27,
						"COLOR_0":28
					},
					"indices":29,
					"material":4
				},
				{
					"attributes":{
						"POSITION":30,
						"NORMAL":31,
						"TEXCOORD_0":32,
						"TANGENT":33,
						"COLOR_0":34
					},
					"indices":35,
					"material":5
				}
			]
		}
	],
	"textures":[
		{
			"sampler":0,
			"source":0
		},
		{
			"sampler":0,
			"source":1
		}
	],
	"images":[
		{
			"mimeType":"image/png",
			"name":"material_atlas_normal",
			"uri":"textures/material_atlas_normal.png"
		},
		{
			"mimeType":"image/png",
			"name":"material_atlas",
			"uri":"textures/material_atlas.png"
		}
	],
	"accessors":[
		{
			"bufferView":0,
			"componentType":5126,
			"count":314,
			"max":[
				0.4997645914554596,
				0.0016179720405489206,
				0.42411062121391296
			],
			"min":[
				-0.49979934096336365,
				0,
				-0.42388924956321716
			],
			"type":"VEC3"
		},
		{
			"bufferView":1,
			"componentType":5126,
			"count":314,
			"type":"VEC3"
		},
		{
			"bufferView":2,
			"componentType":5126,
			"count":314,
			"type":"VEC2"
		},
		{
			"bufferView":3,
			"componentType":5126,
			"count":314,
			"type":"VEC4"
		},
		{
			"bufferView":4,
			"componentType":5126,
			"count":314,
			"type":"VEC3"
		},
		{
			"bufferView":5,
			"componentType":5123,
			"count":528,
			"type":"SCALAR"
		},
		{
			"bufferView":6,
			"componentType":5126,
			"count":23630,
			"max":[
				0.5,
				0.29339227080345154,
				0.4241422414779663
			],
			"min":[
				-0.5,
				0,
				-0.4241422414779663
			],
			"type":"VEC3"
		},
		{
			"bufferView":7,
			"componentType":5126,
			"count":23630,
			"type":"VEC3"
		},
		{
			"bufferView":8,
			"componentType":5126,
			"count":23630,
			"type":"VEC2"
		},
		{
			"bufferView":9,
			"componentType":5126,
			"count":23630,
			"type":"VEC4"
		},
		{
			"bufferView":10,
			"componentType":5126,
			"count":23630,
			"type":"VEC3"
		},
		{
			"bufferView":11,
			"componentType":5123,
			"count":31110,
			"type":"SCALAR"
		},
		{
			"bufferView":12,
			"componentType":5126,
			"count":1844,
			"max":[
				0.44178661704063416,
				0.22651608288288116,
				0.39950665831565857
			],
			"min":[
				-0.45667052268981934,
				0.020733965560793877,
				-0.40275248885154724
			],
			"type":"VEC3"
		},
		{
			"bufferView":13,
			"componentType":5126,
			"count":1844,
			"type":"VEC3"
		},
		{
			"bufferView":14,
			"componentType":5126,
			"count":1844,
			"type":"VEC2"
		},
		{
			"bufferView":15,
			"componentType":5126,
			"count":1844,
			"type":"VEC4"
		},
		{
			"bufferView":16,
			"componentType":5126,
			"count":1844,
			"type":"VEC3"
		},
		{
			"bufferView":17,
			"componentType":5123,
			"count":2064,
			"type":"SCALAR"
		},
		{
			"bufferView":18,
			"componentType":5126,
			"count":4085,
			"max":[
				0.4464094340801239,
				0.1348309963941574,
				0.4101261794567108
			],
			"min":[
				-0.46066606044769287,
				0.0064718881621956825,
				-0.40637290477752686
			],
			"type":"VEC3"
		},
		{
			"bufferView":19,
			"componentType":5126,
			"count":4085,
			"type":"VEC3"
		},
		{
			"bufferView":20,
			"componentType":5126,
			"count":4085,
			"type":"VEC2"
		},
		{
			"bufferView":21,
			"componentType":5126,
			"count":4085,
			"type":"VEC4"
		},
		{
			"bufferView":22,
			"componentType":5126,
			"count":4085,
			"type":"VEC3"
		},
		{
			"bufferView":23,
			"componentType":5123,
			"count":6834,
			"type":"SCALAR"
		},
		{
			"bufferView":24,
			"componentType":5126,
			"count":98,
			"max":[
				-0.13729599118232727,
				0.24161715805530548,
				-0.1575513333082199
			],
			"min":[
				-0.19077564775943756,
				0.1240445226430893,
				-0.2110310047864914
			],
			"type":"VEC3"
		},
		{
			"bufferView":25,
			"componentType":5126,
			"count":98,
			"type":"VEC3"
		},
		{
			"bufferView":26,
			"componentType":5126,
			"count":98,
			"type":"VEC2"
		},
		{
			"bufferView":27,
			"componentType":5126,
			"count":98,
			"type":"VEC4"
		},
		{
			"bufferView":28,
			"componentType":5126,
			"count":98,
			"type":"VEC3"
		},
		{
			"bufferView":29,
			"componentType":5123,
			"count":132,
			"type":"SCALAR"
		},
		{
			"bufferView":30,
			"componentType":5126,
			"count":144,
			"max":[
				0.2724098563194275,
				0.026426877826452255,
				0.3261123597621918
			],
			"min":[
				-0.2662777304649353,
				0.011325803585350513,
				-0.17330166697502136
			],
			"type":"VEC3"
		},
		{
			"bufferView":31,
			"componentType":5126,
			"count":144,
			"type":"VEC3"
		},
		{
			"bufferView":32,
			"componentType":5126,
			"count":144,
			"type":"VEC2"
		},
		{
			"bufferView":33,
			"componentType":5126,
			"count":144,
			"type":"VEC4"
		},
		{
			"bufferView":34,
			"componentType":5126,
			"count":144,
			"type":"VEC3"
		},
		{
			"bufferView":35,
			"componentType":5123,
			"count":216,
			"type":"SCALAR"
		}
	],
	"bufferViews":[
		{
			"buffer":0,
			"byteLength":3768,
			"byteOffset":0,
			"target":34962
		},
		{
			"buffer":0,
			"byteLength":3768,
			"byteOffset":3768,
			"target":34962
		},
		{
			"buffer":0,
			"byteLength":2512,
			"byteOffset":7536,
			"target":34962
		},
		{
			"buffer":0,
			"byteLength":5024,
			"byteOffset":10048,
			"target":34962
		},
		{
			"buffer":0,
			"byteLength":3768,
			"byteOffset":15072,
			"target":34962
		},
		{
			"buffer":0,
			"byteLength":1056,
			"byteOffset":18840,
			"target":34963
		},
		{
			"buffer":0,
			"byteLength":283560,
			"byteOffset":19896,
			"target":34962
		},
		{
			"buffer":0,
			"byteLength":283560,
			"byteOffset":303456,
			"target":34962
		},
		{
			"buffer":0,
			"byteLength":189040,
			"byteOffset":587016,
			"target":34962
		},
		{
			"buffer":0,
			"byteLength":378080,
			"byteOffset":776056,
			"target":34962
		},
		{
			"buffer":0,
			"byteLength":283560,
			"byteOffset":1154136,
			"target":34962
		},
		{
			"buffer":0,
			"byteLength":62220,
			"byteOffset":1437696,
			"target":34963
		},
		{
			"buffer":0,
			"byteLength":22128,
			"byteOffset":1499916,
			"target":34962
		},
		{
			"buffer":0,
			"byteLength":22128,
			"byteOffset":1522044,
			"target":34962
		},
		{
			"buffer":0,
			"byteLength":14752,
			"byteOffset":1544172,
			"target":34962
		},
		{
			"buffer":0,
			"byteLength":29504,
			"byteOffset":1558924,
			"target":34962
		},
		{
			"buffer":0,
			"byteLength":22128,
			"byteOffset":1588428,
			"target":34962
		},
		{
			"buffer":0,
			"byteLength":4128,
			"byteOffset":1610556,
			"target":34963
		},
		{
			"buffer":0,
			"byteLength":49020,
			"byteOffset":1614684,
			"target":34962
		},
		{
			"buffer":0,
			"byteLength":49020,
			"byteOffset":1663704,
			"target":34962
		},
		{
			"buffer":0,
			"byteLength":32680,
			"byteOffset":1712724,
			"target":34962
		},
		{
			"buffer":0,
			"byteLength":65360,
			"byteOffset":1745404,
			"target":34962
		},
		{
			"buffer":0,
			"byteLength":49020,
			"byteOffset":1810764,
			"target":34962
		},
		{
			"buffer":0,
			"byteLength":13668,
			"byteOffset":1859784,
			"target":34963
		},
		{
			"buffer":0,
			"byteLength":1176,
			"byteOffset":1873452,
			"target":34962
		},
		{
			"buffer":0,
			"byteLength":1176,
			"byteOffset":1874628,
			"target":34962
		},
		{
			"buffer":0,
			"byteLength":784,
			"byteOffset":1875804,
			"target":34962
		},
		{
			"buffer":0,
			"byteLength":1568,
			"byteOffset":1876588,
			"target":34962
		},
		{
			"buffer":0,
			"byteLength":1176,
			"byteOffset":1878156,
			"target":34962
		},
		{
			"buffer":0,
			"byteLength":264,
			"byteOffset":1879332,
			"target":34963
		},
		{
			"buffer":0,
			"byteLength":1728,
			"byteOffset":1879596,
			"target":34962
		},
		{
			"buffer":0,
			"byteLength":1728,
			"byteOffset":1881324,
			"target":34962
		},
		{
			"buffer":0,
			"byteLength":1152,
			"byteOffset":1883052,
			"target":34962
		},
		{
			"buffer":0,
			"byteLength":2304,
			"byteOffset":1884204,
			"target":34962
		},
		{
			"buffer":0,
			"byteLength":1728,
			"byteOffset":1886508,
			"target":34962
		},
		{
			"buffer":0,
			"byteLength":432,
			"byteOffset":1888236,
			"target":34963
		}
	],
	"samplers":[
		{
			"magFilter":9729,
			"minFilter":9987,
			"wrapS":33071,
			"wrapT":33071
		}
	],
	"buffers":[
		{
			"byteLength":1888668,
			"uri":"city_nordic_1.bin"
		}
	]
}
