{
	"asset":{
		"generator":"Khronos glTF Blender I/O v5.2.40",
		"version":"2.0"
	},
	"scene":0,
	"scenes":[
		{
			"name":"Scene",
			"nodes":[
				0
			]
		}
	],
	"nodes":[
		{
			"mesh":0,
			"name":"city_orient_0"
		}
	],
	"materials":[
		{
			"doubleSided":true,
			"name":"city_pavement",
			"pbrMetallicRoughness":{
				"baseColorFactor":[
					0.26499998569488525,
					0.2549999952316284,
					0.22499999403953552,
					1
				],
				"metallicFactor":0,
				"roughnessFactor":0.9599999785423279
			}
		},
		{
			"doubleSided":true,
			"name":"City atlas | plaster \u00b7 limestone \u00b7 terracotta \u00b7 slate",
			"normalTexture":{
				"index":0,
				"scale":0.6499999761581421
			},
			"pbrMetallicRoughness":{
				"baseColorTexture":{
					"index":1
				},
				"metallicFactor":0,
				"roughnessFactor":0.8600000143051147
			}
		},
		{
			"doubleSided":true,
			"name":"city_glass",
			"pbrMetallicRoughness":{
				"baseColorFactor":[
					0.10499999672174454,
					0.14499999582767487,
					0.1599999964237213,
					1
				],
				"metallicFactor":0.07999999821186066,
				"roughnessFactor":0.3700000047683716
			}
		},
		{
			"doubleSided":true,
			"name":"city_timber",
			"pbrMetallicRoughness":{
				"baseColorFactor":[
					0.27000001072883606,
					0.14499999582767487,
					0.08500000089406967,
					1
				],
				"metallicFactor":0,
				"roughnessFactor":0.8799999952316284
			}
		},
		{
			"doubleSided":true,
			"name":"city_metal",
			"pbrMetallicRoughness":{
				"baseColorFactor":[
					0.2800000011920929,
					0.3400000035762787,
					0.3149999976158142,
					1
				],
				"metallicFactor":0.20000000298023224,
				"roughnessFactor":0.6800000071525574
			}
		}
	],
	"meshes":[
		{
			"name":"part.1884",
			"primitives":[
				{
					"attributes":{
						"POSITION":0,
						"NORMAL":1,
						"TEXCOORD_0":2,
						"TANGENT":3,
						"COLOR_0":4
					},
					"indices":5,
					"material":0
				},
				{
					"attributes":{
						"POSITION":6,
						"NORMAL":7,
						"TEXCOORD_0":8,
						"TANGENT":9,
						"COLOR_0":10
					},
					"indices":11,
					"material":1
				},
				{
					"attributes":{
						"POSITION":12,
						"NORMAL":13,
						"TEXCOORD_0":14,
						"TANGENT":15,
						"COLOR_0":16
					},
					"indices":17,
					"material":2
				},
				{
					"attributes":{
						"POSITION":18,
						"NORMAL":19,
						"TEXCOORD_0":20,
						"TANGENT":21,
						"COLOR_0":22
					},
					"indices":23,
					"material":3
				},
				{
					"attributes":{
						"POSITION":24,
						"NORMAL":25,
						"TEXCOORD_0":26,
						"TANGENT":27,
						"COLOR_0":28
					},
					"indices":29,
					"material":4
				}
			]
		}
	],
	"textures":[
		{
			"sampler":0,
			"source":0
		},
		{
			"sampler":0,
			"source":1
		}
	],
	"images":[
		{
			"mimeType":"image/png",
			"name":"material_atlas_normal",
			"uri":"textures/material_atlas_normal.png"
		},
		{
			"mimeType":"image/png",
			"name":"material_atlas",
			"uri":"textures/material_atlas.png"
		}
	],
	"accessors":[
		{
			"bufferView":0,
			"componentType":5126,
			"count":314,
			"max":[
				0.4997645914554596,
				0.0016179720405489206,
				0.42411062121391296
			],
			"min":[
				-0.49979934096336365,
				0,
				-0.42388924956321716
			],
			"type":"VEC3"
		},
		{
			"bufferView":1,
			"componentType":5126,
			"count":314,
			"type":"VEC3"
		},
		{
			"bufferView":2,
			"componentType":5126,
			"count":314,
			"type":"VEC2"
		},
		{
			"bufferView":3,
			"componentType":5126,
			"count":314,
			"type":"VEC4"
		},
		{
			"bufferView":4,
			"componentType":5126,
			"count":314,
			"type":"VEC3"
		},
		{
			"bufferView":5,
			"componentType":5123,
			"count":528,
			"type":"SCALAR"
		},
		{
			"bufferView":6,
			"componentType":5126,
			"count":23488,
			"max":[
				0.5,
				0.16895483434200287,
				0.4241422414779663
			],
			"min":[
				-0.5,
				0,
				-0.4241422414779663
			],
			"type":"VEC3"
		},
		{
			"bufferView":7,
			"componentType":5126,
			"count":23488,
			"type":"VEC3"
		},
		{
			"bufferView":8,
			"componentType":5126,
			"count":23488,
			"type":"VEC2"
		},
		{
			"bufferView":9,
			"componentType":5126,
			"count":23488,
			"type":"VEC4"
		},
		{
			"bufferView":10,
			"componentType":5126,
			"count":23488,
			"type":"VEC3"
		},
		{
			"bufferView":11,
			"componentType":5123,
			"count":32520,
			"type":"SCALAR"
		},
		{
			"bufferView":12,
			"componentType":5126,
			"count":1734,
			"max":[
				0.44566914439201355,
				0.16908375918865204,
				0.39384400844573975
			],
			"min":[
				-0.45272108912467957,
				0.020159929990768433,
				-0.3974103629589081
			],
			"type":"VEC3"
		},
		{
			"bufferView":13,
			"componentType":5126,
			"count":1734,
			"type":"VEC3"
		},
		{
			"bufferView":14,
			"componentType":5126,
			"count":1734,
			"type":"VEC2"
		},
		{
			"bufferView":15,
			"componentType":5126,
			"count":1734,
			"type":"VEC4"
		},
		{
			"bufferView":16,
			"componentType":5126,
			"count":1734,
			"type":"VEC3"
		},
		{
			"bufferView":17,
			"componentType":5123,
			"count":1980,
			"type":"SCALAR"
		},
		{
			"bufferView":18,
			"componentType":5126,
			"count":2167,
			"max":[
				0.44760099053382874,
				0.11154700070619583,
				0.3957808315753937
			],
			"min":[
				-0.454661101102829,
				0.0064718881621956825,
				-0.3993270993232727
			],
			"type":"VEC3"
		},
		{
			"bufferView":19,
			"componentType":5126,
			"count":2167,
			"type":"VEC3"
		},
		{
			"bufferView":20,
			"componentType":5126,
			"count":2167,
			"type":"VEC2"
		},
		{
			"bufferView":21,
			"componentType":5126,
			"count":2167,
			"type":"VEC4"
		},
		{
			"bufferView":22,
			"componentType":5126,
			"count":2167,
			"type":"VEC3"
		},
		{
			"bufferView":23,
			"componentType":5123,
			"count":3108,
			"type":"SCALAR"
		},
		{
			"bufferView":24,
			"componentType":5126,
			"count":657,
			"max":[
				0.2892259657382965,
				0.2038644701242447,
				0.3261123597621918
			],
			"min":[
				-0.25936359167099,
				0.011325803585350513,
				-0.24282556772232056
			],
			"type":"VEC3"
		},
		{
			"bufferView":25,
			"componentType":5126,
			"count":657,
			"type":"VEC3"
		},
		{
			"bufferView":26,
			"componentType":5126,
			"count":657,
			"type":"VEC2"
		},
		{
			"bufferView":27,
			"componentType":5126,
			"count":657,
			"type":"VEC4"
		},
		{
			"bufferView":28,
			"componentType":5126,
			"count":657,
			"type":"VEC3"
		},
		{
			"bufferView":29,
			"componentType":5123,
			"count":1212,
			"type":"SCALAR"
		}
	],
	"bufferViews":[
		{
			"buffer":0,
			"byteLength":3768,
			"byteOffset":0,
			"target":34962
		},
		{
			"buffer":0,
			"byteLength":3768,
			"byteOffset":3768,
			"target":34962
		},
		{
			"buffer":0,
			"byteLength":2512,
			"byteOffset":7536,
			"target":34962
		},
		{
			"buffer":0,
			"byteLength":5024,
			"byteOffset":10048,
			"target":34962
		},
		{
			"buffer":0,
			"byteLength":3768,
			"byteOffset":15072,
			"target":34962
		},
		{
			"buffer":0,
			"byteLength":1056,
			"byteOffset":18840,
			"target":34963
		},
		{
			"buffer":0,
			"byteLength":281856,
			"byteOffset":19896,
			"target":34962
		},
		{
			"buffer":0,
			"byteLength":281856,
			"byteOffset":301752,
			"target":34962
		},
		{
			"buffer":0,
			"byteLength":187904,
			"byteOffset":583608,
			"target":34962
		},
		{
			"buffer":0,
			"byteLength":375808,
			"byteOffset":771512,
			"target":34962
		},
		{
			"buffer":0,
			"byteLength":281856,
			"byteOffset":1147320,
			"target":34962
		},
		{
			"buffer":0,
			"byteLength":65040,
			"byteOffset":1429176,
			"target":34963
		},
		{
			"buffer":0,
			"byteLength":20808,
			"byteOffset":1494216,
			"target":34962
		},
		{
			"buffer":0,
			"byteLength":20808,
			"byteOffset":1515024,
			"target":34962
		},
		{
			"buffer":0,
			"byteLength":13872,
			"byteOffset":1535832,
			"target":34962
		},
		{
			"buffer":0,
			"byteLength":27744,
			"byteOffset":1549704,
			"target":34962
		},
		{
			"buffer":0,
			"byteLength":20808,
			"byteOffset":1577448,
			"target":34962
		},
		{
			"buffer":0,
			"byteLength":3960,
			"byteOffset":1598256,
			"target":34963
		},
		{
			"buffer":0,
			"byteLength":26004,
			"byteOffset":1602216,
			"target":34962
		},
		{
			"buffer":0,
			"byteLength":26004,
			"byteOffset":1628220,
			"target":34962
		},
		{
			"buffer":0,
			"byteLength":17336,
			"byteOffset":1654224,
			"target":34962
		},
		{
			"buffer":0,
			"byteLength":34672,
			"byteOffset":1671560,
			"target":34962
		},
		{
			"buffer":0,
			"byteLength":26004,
			"byteOffset":1706232,
			"target":34962
		},
		{
			"buffer":0,
			"byteLength":6216,
			"byteOffset":1732236,
			"target":34963
		},
		{
			"buffer":0,
			"byteLength":7884,
			"byteOffset":1738452,
			"target":34962
		},
		{
			"buffer":0,
			"byteLength":7884,
			"byteOffset":1746336,
			"target":34962
		},
		{
			"buffer":0,
			"byteLength":5256,
			"byteOffset":1754220,
			"target":34962
		},
		{
			"buffer":0,
			"byteLength":10512,
			"byteOffset":1759476,
			"target":34962
		},
		{
			"buffer":0,
			"byteLength":7884,
			"byteOffset":1769988,
			"target":34962
		},
		{
			"buffer":0,
			"byteLength":2424,
			"byteOffset":1777872,
			"target":34963
		}
	],
	"samplers":[
		{
			"magFilter":9729,
			"minFilter":9987,
			"wrapS":33071,
			"wrapT":33071
		}
	],
	"buffers":[
		{
			"byteLength":1780296,
			"uri":"city_orient_0.bin"
		}
	]
}
