{
	"asset":{
		"generator":"Khronos glTF Blender I/O v5.2.40",
		"version":"2.0"
	},
	"scene":0,
	"scenes":[
		{
			"name":"Scene",
			"nodes":[
				0
			]
		}
	],
	"nodes":[
		{
			"mesh":0,
			"name":"city_nordic_0"
		}
	],
	"materials":[
		{
			"doubleSided":true,
			"name":"city_pavement",
			"pbrMetallicRoughness":{
				"baseColorFactor":[
					0.26499998569488525,
					0.2549999952316284,
					0.22499999403953552,
					1
				],
				"metallicFactor":0,
				"roughnessFactor":0.9599999785423279
			}
		},
		{
			"doubleSided":true,
			"name":"City atlas | plaster \u00b7 limestone \u00b7 terracotta \u00b7 slate",
			"normalTexture":{
				"index":0,
				"scale":0.6499999761581421
			},
			"pbrMetallicRoughness":{
				"baseColorTexture":{
					"index":1
				},
				"metallicFactor":0,
				"roughnessFactor":0.8600000143051147
			}
		},
		{
			"doubleSided":true,
			"name":"city_glass",
			"pbrMetallicRoughness":{
				"baseColorFactor":[
					0.10499999672174454,
					0.14499999582767487,
					0.1599999964237213,
					1
				],
				"metallicFactor":0.07999999821186066,
				"roughnessFactor":0.3700000047683716
			}
		},
		{
			"doubleSided":true,
			"name":"city_timber",
			"pbrMetallicRoughness":{
				"baseColorFactor":[
					0.27000001072883606,
					0.14499999582767487,
					0.08500000089406967,
					1
				],
				"metallicFactor":0,
				"roughnessFactor":0.8799999952316284
			}
		},
		{
			"doubleSided":true,
			"name":"city_brick",
			"pbrMetallicRoughness":{
				"baseColorFactor":[
					0.36000001430511475,
					0.17000000178813934,
					0.11500000208616257,
					1
				],
				"metallicFactor":0,
				"roughnessFactor":0.8999999761581421
			}
		},
		{
			"doubleSided":true,
			"name":"city_metal",
			"pbrMetallicRoughness":{
				"baseColorFactor":[
					0.2800000011920929,
					0.3400000035762787,
					0.3149999976158142,
					1
				],
				"metallicFactor":0.20000000298023224,
				"roughnessFactor":0.6800000071525574
			}
		}
	],
	"meshes":[
		{
			"name":"part.2857",
			"primitives":[
				{
					"attributes":{
						"POSITION":0,
						"NORMAL":1,
						"TEXCOORD_0":2,
						"TANGENT":3,
						"COLOR_0":4
					},
					"indices":5,
					"material":0
				},
				{
					"attributes":{
						"POSITION":6,
						"NORMAL":7,
						"TEXCOORD_0":8,
						"TANGENT":9,
						"COLOR_0":10
					},
					"indices":11,
					"material":1
				},
				{
					"attributes":{
						"POSITION":12,
						"NORMAL":13,
						"TEXCOORD_0":14,
						"TANGENT":15,
						"COLOR_0":16
					},
					"indices":17,
					"material":2
				},
				{
					"attributes":{
						"POSITION":18,
						"NORMAL":19,
						"TEXCOORD_0":20,
						"TANGENT":21,
						"COLOR_0":22
					},
					"indices":23,
					"material":3
				},
				{
					"attributes":{
						"POSITION":24,
						"NORMAL":25,
						"TEXCOORD_0":26,
						"TANGENT":27,
						"COLOR_0":28
					},
					"indices":29,
					"material":4
				},
				{
					"attributes":{
						"POSITION":30,
						"NORMAL":31,
						"TEXCOORD_0":32,
						"TANGENT":33,
						"COLOR_0":34
					},
					"indices":35,
					"material":5
				}
			]
		}
	],
	"textures":[
		{
			"sampler":0,
			"source":0
		},
		{
			"sampler":0,
			"source":1
		}
	],
	"images":[
		{
			"mimeType":"image/png",
			"name":"material_atlas_normal",
			"uri":"textures/material_atlas_normal.png"
		},
		{
			"mimeType":"image/png",
			"name":"material_atlas",
			"uri":"textures/material_atlas.png"
		}
	],
	"accessors":[
		{
			"bufferView":0,
			"componentType":5126,
			"count":314,
			"max":[
				0.4997645914554596,
				0.0016179720405489206,
				0.42411062121391296
			],
			"min":[
				-0.49979934096336365,
				0,
				-0.42388924956321716
			],
			"type":"VEC3"
		},
		{
			"bufferView":1,
			"componentType":5126,
			"count":314,
			"type":"VEC3"
		},
		{
			"bufferView":2,
			"componentType":5126,
			"count":314,
			"type":"VEC2"
		},
		{
			"bufferView":3,
			"componentType":5126,
			"count":314,
			"type":"VEC4"
		},
		{
			"bufferView":4,
			"componentType":5126,
			"count":314,
			"type":"VEC3"
		},
		{
			"bufferView":5,
			"componentType":5123,
			"count":528,
			"type":"SCALAR"
		},
		{
			"bufferView":6,
			"componentType":5126,
			"count":21685,
			"max":[
				0.5,
				0.29339227080345154,
				0.4241422414779663
			],
			"min":[
				-0.5,
				0,
				-0.4241422414779663
			],
			"type":"VEC3"
		},
		{
			"bufferView":7,
			"componentType":5126,
			"count":21685,
			"type":"VEC3"
		},
		{
			"bufferView":8,
			"componentType":5126,
			"count":21685,
			"type":"VEC2"
		},
		{
			"bufferView":9,
			"componentType":5126,
			"count":21685,
			"type":"VEC4"
		},
		{
			"bufferView":10,
			"componentType":5126,
			"count":21685,
			"type":"VEC3"
		},
		{
			"bufferView":11,
			"componentType":5123,
			"count":28830,
			"type":"SCALAR"
		},
		{
			"bufferView":12,
			"componentType":5126,
			"count":1674,
			"max":[
				0.44566914439201355,
				0.22651608288288116,
				0.39384400844573975
			],
			"min":[
				-0.45272108912467957,
				0.020354896783828735,
				-0.3974103629589081
			],
			"type":"VEC3"
		},
		{
			"bufferView":13,
			"componentType":5126,
			"count":1674,
			"type":"VEC3"
		},
		{
			"bufferView":14,
			"componentType":5126,
			"count":1674,
			"type":"VEC2"
		},
		{
			"bufferView":15,
			"componentType":5126,
			"count":1674,
			"type":"VEC4"
		},
		{
			"bufferView":16,
			"componentType":5126,
			"count":1674,
			"type":"VEC3"
		},
		{
			"bufferView":17,
			"componentType":5123,
			"count":1908,
			"type":"SCALAR"
		},
		{
			"bufferView":18,
			"componentType":5126,
			"count":3617,
			"max":[
				0.4510553479194641,
				0.1348309963941574,
				0.3986656069755554
			],
			"min":[
				-0.45692679286003113,
				0.0064718881621956825,
				-0.3993270993232727
			],
			"type":"VEC3"
		},
		{
			"bufferView":19,
			"componentType":5126,
			"count":3617,
			"type":"VEC3"
		},
		{
			"bufferView":20,
			"componentType":5126,
			"count":3617,
			"type":"VEC2"
		},
		{
			"bufferView":21,
			"componentType":5126,
			"count":3617,
			"type":"VEC4"
		},
		{
			"bufferView":22,
			"componentType":5126,
			"count":3617,
			"type":"VEC3"
		},
		{
			"bufferView":23,
			"componentType":5123,
			"count":6042,
			"type":"SCALAR"
		},
		{
			"bufferView":24,
			"componentType":5126,
			"count":98,
			"max":[
				0.13740360736846924,
				0.24161715805530548,
				-0.15604151785373688
			],
			"min":[
				0.08392394334077835,
				0.1240445226430893,
				-0.20952120423316956
			],
			"type":"VEC3"
		},
		{
			"bufferView":25,
			"componentType":5126,
			"count":98,
			"type":"VEC3"
		},
		{
			"bufferView":26,
			"componentType":5126,
			"count":98,
			"type":"VEC2"
		},
		{
			"bufferView":27,
			"componentType":5126,
			"count":98,
			"type":"VEC4"
		},
		{
			"bufferView":28,
			"componentType":5126,
			"count":98,
			"type":"VEC3"
		},
		{
			"bufferView":29,
			"componentType":5123,
			"count":132,
			"type":"SCALAR"
		},
		{
			"bufferView":30,
			"componentType":5126,
			"count":144,
			"max":[
				0.2892259657382965,
				0.026426877826452255,
				0.3261123597621918
			],
			"min":[
				-0.25936359167099,
				0.011325803585350513,
				-0.17330166697502136
			],
			"type":"VEC3"
		},
		{
			"bufferView":31,
			"componentType":5126,
			"count":144,
			"type":"VEC3"
		},
		{
			"bufferView":32,
			"componentType":5126,
			"count":144,
			"type":"VEC2"
		},
		{
			"bufferView":33,
			"componentType":5126,
			"count":144,
			"type":"VEC4"
		},
		{
			"bufferView":34,
			"componentType":5126,
			"count":144,
			"type":"VEC3"
		},
		{
			"bufferView":35,
			"componentType":5123,
			"count":216,
			"type":"SCALAR"
		}
	],
	"bufferViews":[
		{
			"buffer":0,
			"byteLength":3768,
			"byteOffset":0,
			"target":34962
		},
		{
			"buffer":0,
			"byteLength":3768,
			"byteOffset":3768,
			"target":34962
		},
		{
			"buffer":0,
			"byteLength":2512,
			"byteOffset":7536,
			"target":34962
		},
		{
			"buffer":0,
			"byteLength":5024,
			"byteOffset":10048,
			"target":34962
		},
		{
			"buffer":0,
			"byteLength":3768,
			"byteOffset":15072,
			"target":34962
		},
		{
			"buffer":0,
			"byteLength":1056,
			"byteOffset":18840,
			"target":34963
		},
		{
			"buffer":0,
			"byteLength":260220,
			"byteOffset":19896,
			"target":34962
		},
		{
			"buffer":0,
			"byteLength":260220,
			"byteOffset":280116,
			"target":34962
		},
		{
			"buffer":0,
			"byteLength":173480,
			"byteOffset":540336,
			"target":34962
		},
		{
			"buffer":0,
			"byteLength":346960,
			"byteOffset":713816,
			"target":34962
		},
		{
			"buffer":0,
			"byteLength":260220,
			"byteOffset":1060776,
			"target":34962
		},
		{
			"buffer":0,
			"byteLength":57660,
			"byteOffset":1320996,
			"target":34963
		},
		{
			"buffer":0,
			"byteLength":20088,
			"byteOffset":1378656,
			"target":34962
		},
		{
			"buffer":0,
			"byteLength":20088,
			"byteOffset":1398744,
			"target":34962
		},
		{
			"buffer":0,
			"byteLength":13392,
			"byteOffset":1418832,
			"target":34962
		},
		{
			"buffer":0,
			"byteLength":26784,
			"byteOffset":1432224,
			"target":34962
		},
		{
			"buffer":0,
			"byteLength":20088,
			"byteOffset":1459008,
			"target":34962
		},
		{
			"buffer":0,
			"byteLength":3816,
			"byteOffset":1479096,
			"target":34963
		},
		{
			"buffer":0,
			"byteLength":43404,
			"byteOffset":1482912,
			"target":34962
		},
		{
			"buffer":0,
			"byteLength":43404,
			"byteOffset":1526316,
			"target":34962
		},
		{
			"buffer":0,
			"byteLength":28936,
			"byteOffset":1569720,
			"target":34962
		},
		{
			"buffer":0,
			"byteLength":57872,
			"byteOffset":1598656,
			"target":34962
		},
		{
			"buffer":0,
			"byteLength":43404,
			"byteOffset":1656528,
			"target":34962
		},
		{
			"buffer":0,
			"byteLength":12084,
			"byteOffset":1699932,
			"target":34963
		},
		{
			"buffer":0,
			"byteLength":1176,
			"byteOffset":1712016,
			"target":34962
		},
		{
			"buffer":0,
			"byteLength":1176,
			"byteOffset":1713192,
			"target":34962
		},
		{
			"buffer":0,
			"byteLength":784,
			"byteOffset":1714368,
			"target":34962
		},
		{
			"buffer":0,
			"byteLength":1568,
			"byteOffset":1715152,
			"target":34962
		},
		{
			"buffer":0,
			"byteLength":1176,
			"byteOffset":1716720,
			"target":34962
		},
		{
			"buffer":0,
			"byteLength":264,
			"byteOffset":1717896,
			"target":34963
		},
		{
			"buffer":0,
			"byteLength":1728,
			"byteOffset":1718160,
			"target":34962
		},
		{
			"buffer":0,
			"byteLength":1728,
			"byteOffset":1719888,
			"target":34962
		},
		{
			"buffer":0,
			"byteLength":1152,
			"byteOffset":1721616,
			"target":34962
		},
		{
			"buffer":0,
			"byteLength":2304,
			"byteOffset":1722768,
			"target":34962
		},
		{
			"buffer":0,
			"byteLength":1728,
			"byteOffset":1725072,
			"target":34962
		},
		{
			"buffer":0,
			"byteLength":432,
			"byteOffset":1726800,
			"target":34963
		}
	],
	"samplers":[
		{
			"magFilter":9729,
			"minFilter":9987,
			"wrapS":33071,
			"wrapT":33071
		}
	],
	"buffers":[
		{
			"byteLength":1727232,
			"uri":"city_nordic_0.bin"
		}
	]
}
