{
	"asset":{
		"generator":"Khronos glTF Blender I/O v5.2.40",
		"version":"2.0"
	},
	"scene":0,
	"scenes":[
		{
			"name":"Scene",
			"nodes":[
				0
			]
		}
	],
	"nodes":[
		{
			"mesh":0,
			"name":"city_orient_large"
		}
	],
	"materials":[
		{
			"doubleSided":true,
			"name":"garden",
			"normalTexture":{
				"index":0
			},
			"pbrMetallicRoughness":{
				"baseColorTexture":{
					"index":1
				},
				"metallicFactor":0
			}
		},
		{
			"doubleSided":true,
			"name":"ground_dirt",
			"normalTexture":{
				"index":2
			},
			"pbrMetallicRoughness":{
				"baseColorTexture":{
					"index":3
				},
				"metallicFactor":0
			}
		},
		{
			"doubleSided":true,
			"name":"concrete",
			"normalTexture":{
				"index":4
			},
			"pbrMetallicRoughness":{
				"baseColorTexture":{
					"index":5
				},
				"metallicFactor":0,
				"roughnessFactor":0.8999999761581421
			}
		},
		{
			"doubleSided":true,
			"name":"trunk",
			"pbrMetallicRoughness":{
				"baseColorFactor":[
					0.25,
					0.17000000178813934,
					0.10000000149011612,
					1
				],
				"metallicFactor":0,
				"roughnessFactor":0.8999999761581421
			}
		},
		{
			"doubleSided":true,
			"name":"tree",
			"pbrMetallicRoughness":{
				"baseColorFactor":[
					0.12999999523162842,
					0.27000001072883606,
					0.09000000357627869,
					1
				],
				"metallicFactor":0,
				"roughnessFactor":0.8999999761581421
			}
		},
		{
			"doubleSided":true,
			"name":"facade_pink",
			"normalTexture":{
				"index":6
			},
			"pbrMetallicRoughness":{
				"baseColorTexture":{
					"index":7
				},
				"metallicFactor":0,
				"roughnessFactor":0.8500000238418579
			}
		},
		{
			"doubleSided":true,
			"name":"stone_sand",
			"normalTexture":{
				"index":8
			},
			"pbrMetallicRoughness":{
				"baseColorTexture":{
					"index":9
				},
				"metallicFactor":0,
				"roughnessFactor":0.8500000238418579
			}
		},
		{
			"doubleSided":true,
			"name":"wood_red",
			"normalTexture":{
				"index":10
			},
			"pbrMetallicRoughness":{
				"baseColorTexture":{
					"index":11
				},
				"metallicFactor":0,
				"roughnessFactor":0.8500000238418579
			}
		},
		{
			"doubleSided":true,
			"name":"steel",
			"pbrMetallicRoughness":{
				"baseColorFactor":[
					0.2800000011920929,
					0.30000001192092896,
					0.33000001311302185,
					1
				],
				"metallicFactor":0.800000011920929,
				"roughnessFactor":0.4000000059604645
			}
		},
		{
			"doubleSided":true,
			"name":"facade_whitewash",
			"normalTexture":{
				"index":12
			},
			"pbrMetallicRoughness":{
				"baseColorTexture":{
					"index":13
				},
				"metallicFactor":0,
				"roughnessFactor":0.8999999761581421
			}
		},
		{
			"doubleSided":true,
			"name":"glass",
			"pbrMetallicRoughness":{
				"baseColorFactor":[
					0.11999999731779099,
					0.1599999964237213,
					0.20000000298023224,
					1
				],
				"metallicFactor":0.5,
				"roughnessFactor":0.10000000149011612
			}
		},
		{
			"doubleSided":true,
			"name":"facade_beige_flat",
			"normalTexture":{
				"index":14
			},
			"pbrMetallicRoughness":{
				"baseColorTexture":{
					"index":15
				},
				"metallicFactor":0,
				"roughnessFactor":0.8999999761581421
			}
		},
		{
			"doubleSided":true,
			"name":"roof_copper",
			"normalTexture":{
				"index":16
			},
			"pbrMetallicRoughness":{
				"baseColorTexture":{
					"index":17
				},
				"metallicFactor":0.25,
				"roughnessFactor":0.44999998807907104
			}
		},
		{
			"doubleSided":true,
			"name":"stone_light",
			"normalTexture":{
				"index":18
			},
			"pbrMetallicRoughness":{
				"baseColorTexture":{
					"index":19
				},
				"metallicFactor":0,
				"roughnessFactor":0.800000011920929
			}
		},
		{
			"doubleSided":true,
			"name":"facade_ochre",
			"normalTexture":{
				"index":20
			},
			"pbrMetallicRoughness":{
				"baseColorTexture":{
					"index":21
				},
				"metallicFactor":0,
				"roughnessFactor":0.8500000238418579
			}
		},
		{
			"doubleSided":true,
			"name":"roof_terracotta",
			"normalTexture":{
				"index":22
			},
			"pbrMetallicRoughness":{
				"baseColorTexture":{
					"index":23
				},
				"metallicFactor":0,
				"roughnessFactor":0.699999988079071
			}
		},
		{
			"doubleSided":true,
			"name":"brick_red",
			"normalTexture":{
				"index":24
			},
			"pbrMetallicRoughness":{
				"baseColorTexture":{
					"index":25
				},
				"metallicFactor":0,
				"roughnessFactor":0.8999999761581421
			}
		},
		{
			"doubleSided":true,
			"name":"facade_cream",
			"normalTexture":{
				"index":26
			},
			"pbrMetallicRoughness":{
				"baseColorTexture":{
					"index":27
				},
				"metallicFactor":0,
				"roughnessFactor":0.8500000238418579
			}
		},
		{
			"doubleSided":true,
			"name":"city_paving_warm",
			"normalTexture":{
				"index":28
			},
			"pbrMetallicRoughness":{
				"baseColorTexture":{
					"index":29
				},
				"metallicFactor":0,
				"roughnessFactor":0.9200000166893005
			}
		},
		{
			"doubleSided":true,
			"name":"lead",
			"pbrMetallicRoughness":{
				"baseColorFactor":[
					0.46000000834465027,
					0.49000000953674316,
					0.5199999809265137,
					1
				],
				"metallicFactor":0.25,
				"roughnessFactor":0.6200000047683716
			}
		},
		{
			"doubleSided":true,
			"name":"gold",
			"pbrMetallicRoughness":{
				"baseColorFactor":[
					0.8299999833106995,
					0.6200000047683716,
					0.20000000298023224,
					1
				],
				"roughnessFactor":0.30000001192092896
			}
		},
		{
			"doubleSided":true,
			"name":"ground_cobble",
			"normalTexture":{
				"index":30
			},
			"pbrMetallicRoughness":{
				"baseColorTexture":{
					"index":31
				},
				"metallicFactor":0,
				"roughnessFactor":0.949999988079071
			}
		},
		{
			"doubleSided":true,
			"name":"tree_dark",
			"pbrMetallicRoughness":{
				"baseColorFactor":[
					0.07999999821186066,
					0.1899999976158142,
					0.07999999821186066,
					1
				],
				"metallicFactor":0,
				"roughnessFactor":0.8999999761581421
			}
		}
	],
	"meshes":[
		{
			"name":"part.10251",
			"primitives":[
				{
					"attributes":{
						"POSITION":0,
						"NORMAL":1,
						"TEXCOORD_0":2
					},
					"indices":3,
					"material":0
				},
				{
					"attributes":{
						"POSITION":4,
						"NORMAL":5,
						"TEXCOORD_0":6
					},
					"indices":7,
					"material":1
				},
				{
					"attributes":{
						"POSITION":8,
						"NORMAL":9,
						"TEXCOORD_0":10
					},
					"indices":11,
					"material":2
				},
				{
					"attributes":{
						"POSITION":12,
						"NORMAL":13,
						"TEXCOORD_0":14
					},
					"indices":15,
					"material":3
				},
				{
					"attributes":{
						"POSITION":16,
						"NORMAL":17,
						"TEXCOORD_0":18
					},
					"indices":19,
					"material":4
				},
				{
					"attributes":{
						"POSITION":20,
						"NORMAL":21,
						"TEXCOORD_0":22
					},
					"indices":23,
					"material":5
				},
				{
					"attributes":{
						"POSITION":24,
						"NORMAL":25,
						"TEXCOORD_0":26
					},
					"indices":27,
					"material":6
				},
				{
					"attributes":{
						"POSITION":28,
						"NORMAL":29,
						"TEXCOORD_0":30
					},
					"indices":31,
					"material":7
				},
				{
					"attributes":{
						"POSITION":32,
						"NORMAL":33,
						"TEXCOORD_0":34
					},
					"indices":35,
					"material":8
				},
				{
					"attributes":{
						"POSITION":36,
						"NORMAL":37,
						"TEXCOORD_0":38
					},
					"indices":39,
					"material":9
				},
				{
					"attributes":{
						"POSITION":40,
						"NORMAL":41,
						"TEXCOORD_0":42
					},
					"indices":43,
					"material":10
				},
				{
					"attributes":{
						"POSITION":44,
						"NORMAL":45,
						"TEXCOORD_0":46
					},
					"indices":47,
					"material":11
				},
				{
					"attributes":{
						"POSITION":48,
						"NORMAL":49,
						"TEXCOORD_0":50
					},
					"indices":51,
					"material":12
				},
				{
					"attributes":{
						"POSITION":52,
						"NORMAL":53,
						"TEXCOORD_0":54
					},
					"indices":55,
					"material":13
				},
				{
					"attributes":{
						"POSITION":56,
						"NORMAL":57,
						"TEXCOORD_0":58
					},
					"indices":59,
					"material":14
				},
				{
					"attributes":{
						"POSITION":60,
						"NORMAL":61,
						"TEXCOORD_0":62
					},
					"indices":63,
					"material":15
				},
				{
					"attributes":{
						"POSITION":64,
						"NORMAL":65,
						"TEXCOORD_0":66
					},
					"indices":67,
					"material":16
				},
				{
					"attributes":{
						"POSITION":68,
						"NORMAL":69,
						"TEXCOORD_0":70
					},
					"indices":23,
					"material":17
				},
				{
					"attributes":{
						"POSITION":71,
						"NORMAL":72,
						"TEXCOORD_0":73
					},
					"indices":74,
					"material":18
				},
				{
					"attributes":{
						"POSITION":75,
						"NORMAL":76,
						"TEXCOORD_0":77
					},
					"indices":78,
					"material":19
				},
				{
					"attributes":{
						"POSITION":79,
						"NORMAL":80,
						"TEXCOORD_0":81
					},
					"indices":82,
					"material":20
				},
				{
					"attributes":{
						"POSITION":83,
						"NORMAL":84,
						"TEXCOORD_0":85
					},
					"indices":74,
					"material":21
				},
				{
					"attributes":{
						"POSITION":86,
						"NORMAL":87,
						"TEXCOORD_0":88
					},
					"indices":89,
					"material":22
				}
			]
		}
	],
	"textures":[
		{
			"sampler":0,
			"source":0
		},
		{
			"sampler":0,
			"source":1
		},
		{
			"sampler":0,
			"source":2
		},
		{
			"sampler":0,
			"source":3
		},
		{
			"sampler":0,
			"source":4
		},
		{
			"sampler":0,
			"source":5
		},
		{
			"sampler":0,
			"source":6
		},
		{
			"sampler":0,
			"source":7
		},
		{
			"sampler":0,
			"source":8
		},
		{
			"sampler":0,
			"source":9
		},
		{
			"sampler":0,
			"source":10
		},
		{
			"sampler":0,
			"source":11
		},
		{
			"sampler":0,
			"source":12
		},
		{
			"sampler":0,
			"source":13
		},
		{
			"sampler":0,
			"source":14
		},
		{
			"sampler":0,
			"source":15
		},
		{
			"sampler":0,
			"source":16
		},
		{
			"sampler":0,
			"source":17
		},
		{
			"sampler":0,
			"source":18
		},
		{
			"sampler":0,
			"source":19
		},
		{
			"sampler":0,
			"source":20
		},
		{
			"sampler":0,
			"source":21
		},
		{
			"sampler":0,
			"source":22
		},
		{
			"sampler":0,
			"source":23
		},
		{
			"sampler":0,
			"source":24
		},
		{
			"sampler":0,
			"source":25
		},
		{
			"sampler":0,
			"source":26
		},
		{
			"sampler":0,
			"source":27
		},
		{
			"sampler":0,
			"source":28
		},
		{
			"sampler":0,
			"source":29
		},
		{
			"sampler":0,
			"source":30
		},
		{
			"sampler":0,
			"source":31
		}
	],
	"images":[
		{
			"mimeType":"image/png",
			"name":"garden_n",
			"uri":"textures/garden_n.png"
		},
		{
			"mimeType":"image/png",
			"name":"garden",
			"uri":"textures/garden.png"
		},
		{
			"mimeType":"image/png",
			"name":"ground_dirt_n",
			"uri":"textures/ground_dirt_n.png"
		},
		{
			"mimeType":"image/png",
			"name":"ground_dirt",
			"uri":"textures/ground_dirt.png"
		},
		{
			"mimeType":"image/png",
			"name":"concrete_n",
			"uri":"textures/concrete_n.png"
		},
		{
			"mimeType":"image/png",
			"name":"concrete",
			"uri":"textures/concrete.png"
		},
		{
			"mimeType":"image/png",
			"name":"facade_pink_n",
			"uri":"textures/facade_pink_n.png"
		},
		{
			"mimeType":"image/png",
			"name":"facade_pink",
			"uri":"textures/facade_pink.png"
		},
		{
			"mimeType":"image/png",
			"name":"stone_sand_n",
			"uri":"textures/stone_sand_n.png"
		},
		{
			"mimeType":"image/png",
			"name":"stone_sand",
			"uri":"textures/stone_sand.png"
		},
		{
			"mimeType":"image/png",
			"name":"wood_red_n",
			"uri":"textures/wood_red_n.png"
		},
		{
			"mimeType":"image/png",
			"name":"wood_red",
			"uri":"textures/wood_red.png"
		},
		{
			"mimeType":"image/png",
			"name":"facade_whitewash_n",
			"uri":"textures/facade_whitewash_n.png"
		},
		{
			"mimeType":"image/png",
			"name":"facade_whitewash",
			"uri":"textures/facade_whitewash.png"
		},
		{
			"mimeType":"image/png",
			"name":"facade_beige_flat_n",
			"uri":"textures/facade_beige_flat_n.png"
		},
		{
			"mimeType":"image/png",
			"name":"facade_beige_flat",
			"uri":"textures/facade_beige_flat.png"
		},
		{
			"mimeType":"image/png",
			"name":"roof_copper_n",
			"uri":"textures/roof_copper_n.png"
		},
		{
			"mimeType":"image/png",
			"name":"roof_copper",
			"uri":"textures/roof_copper.png"
		},
		{
			"mimeType":"image/png",
			"name":"stone_light_n",
			"uri":"textures/stone_light_n.png"
		},
		{
			"mimeType":"image/png",
			"name":"stone_light",
			"uri":"textures/stone_light.png"
		},
		{
			"mimeType":"image/png",
			"name":"facade_ochre_n",
			"uri":"textures/facade_ochre_n.png"
		},
		{
			"mimeType":"image/png",
			"name":"facade_ochre",
			"uri":"textures/facade_ochre.png"
		},
		{
			"mimeType":"image/png",
			"name":"roof_terracotta_n",
			"uri":"textures/roof_terracotta_n.png"
		},
		{
			"mimeType":"image/png",
			"name":"roof_terracotta",
			"uri":"textures/roof_terracotta.png"
		},
		{
			"mimeType":"image/png",
			"name":"brick_red_n",
			"uri":"textures/brick_red_n.png"
		},
		{
			"mimeType":"image/png",
			"name":"brick_red",
			"uri":"textures/brick_red.png"
		},
		{
			"mimeType":"image/png",
			"name":"facade_cream_n",
			"uri":"textures/facade_cream_n.png"
		},
		{
			"mimeType":"image/png",
			"name":"facade_cream",
			"uri":"textures/facade_cream.png"
		},
		{
			"mimeType":"image/png",
			"name":"city_paving_warm_n",
			"uri":"textures/city_paving_warm_n.png"
		},
		{
			"mimeType":"image/png",
			"name":"city_paving_warm",
			"uri":"textures/city_paving_warm.png"
		},
		{
			"mimeType":"image/png",
			"name":"ground_cobble_n",
			"uri":"textures/ground_cobble_n.png"
		},
		{
			"mimeType":"image/png",
			"name":"ground_cobble",
			"uri":"textures/ground_cobble.png"
		}
	],
	"accessors":[
		{
			"bufferView":0,
			"componentType":5126,
			"count":696,
			"max":[
				2.2870094776153564,
				0.003000000026077032,
				1.9398242235183716
			],
			"min":[
				-2.1450767517089844,
				-0.029999999329447746,
				-1.9589693546295166
			],
			"type":"VEC3"
		},
		{
			"bufferView":1,
			"componentType":5126,
			"count":696,
			"type":"VEC3"
		},
		{
			"bufferView":2,
			"componentType":5126,
			"count":696,
			"type":"VEC2"
		},
		{
			"bufferView":3,
			"componentType":5123,
			"count":1140,
			"type":"SCALAR"
		},
		{
			"bufferView":4,
			"componentType":5126,
			"count":5712,
			"max":[
				1.8450548648834229,
				0.004999999888241291,
				1.5479576587677002
			],
			"min":[
				-1.8450548648834229,
				0.0020000000949949026,
				-1.5479576587677002
			],
			"type":"VEC3"
		},
		{
			"bufferView":5,
			"componentType":5126,
			"count":5712,
			"type":"VEC3"
		},
		{
			"bufferView":6,
			"componentType":5126,
			"count":5712,
			"type":"VEC2"
		},
		{
			"bufferView":7,
			"componentType":5123,
			"count":8568,
			"type":"SCALAR"
		},
		{
			"bufferView":8,
			"componentType":5126,
			"count":12376,
			"max":[
				1.8496811389923096,
				0.6720000505447388,
				1.5632742643356323
			],
			"min":[
				-1.8496811389923096,
				0.0020000000949949026,
				-1.5632742643356323
			],
			"type":"VEC3"
		},
		{
			"bufferView":9,
			"componentType":5126,
			"count":12376,
			"type":"VEC3"
		},
		{
			"bufferView":10,
			"componentType":5126,
			"count":12376,
			"type":"VEC2"
		},
		{
			"bufferView":11,
			"componentType":5123,
			"count":18564,
			"type":"SCALAR"
		},
		{
			"bufferView":12,
			"componentType":5126,
			"count":1653,
			"max":[
				2.1120622158050537,
				0.07364439964294434,
				1.7959586381912231
			],
			"min":[
				-2.011335849761963,
				0,
				-1.738210916519165
			],
			"type":"VEC3"
		},
		{
			"bufferView":13,
			"componentType":5126,
			"count":1653,
			"type":"VEC3"
		},
		{
			"bufferView":14,
			"componentType":5126,
			"count":1653,
			"type":"VEC2"
		},
		{
			"bufferView":15,
			"componentType":5123,
			"count":3198,
			"type":"SCALAR"
		},
		{
			"bufferView":16,
			"componentType":5126,
			"count":6416,
			"max":[
				2.1615090370178223,
				0.19835196435451508,
				1.8425509929656982
			],
			"min":[
				-2.0324530601501465,
				0.026441793888807297,
				-1.7932283878326416
			],
			"type":"VEC3"
		},
		{
			"bufferView":17,
			"componentType":5126,
			"count":6416,
			"type":"VEC3"
		},
		{
			"bufferView":18,
			"componentType":5126,
			"count":6416,
			"type":"VEC2"
		},
		{
			"bufferView":19,
			"componentType":5123,
			"count":6432,
			"type":"SCALAR"
		},
		{
			"bufferView":20,
			"componentType":5126,
			"count":180,
			"max":[
				-0.8206979036331177,
				0.21897487342357635,
				1.170525312423706
			],
			"min":[
				-1.1676723957061768,
				0,
				0.823550820350647
			],
			"type":"VEC3"
		},
		{
			"bufferView":21,
			"componentType":5126,
			"count":180,
			"type":"VEC3"
		},
		{
			"bufferView":22,
			"componentType":5126,
			"count":180,
			"type":"VEC2"
		},
		{
			"bufferView":23,
			"componentType":5123,
			"count":270,
			"type":"SCALAR"
		},
		{
			"bufferView":24,
			"componentType":5126,
			"count":35748,
			"max":[
				1.6023529767990112,
				0.6800000071525574,
				1.4604861736297607
			],
			"min":[
				-1.5425021648406982,
				-0.1599999964237213,
				-1.0830641984939575
			],
			"type":"VEC3"
		},
		{
			"bufferView":25,
			"componentType":5126,
			"count":35748,
			"type":"VEC3"
		},
		{
			"bufferView":26,
			"componentType":5126,
			"count":35748,
			"type":"VEC2"
		},
		{
			"bufferView":27,
			"componentType":5123,
			"count":54810,
			"type":"SCALAR"
		},
		{
			"bufferView":28,
			"componentType":5126,
			"count":1056,
			"max":[
				1.4485681056976318,
				0.09200000017881393,
				1.3989266157150269
			],
			"min":[
				-1.3289246559143066,
				0,
				-0.8214312791824341
			],
			"type":"VEC3"
		},
		{
			"bufferView":29,
			"componentType":5126,
			"count":1056,
			"type":"VEC3"
		},
		{
			"bufferView":30,
			"componentType":5126,
			"count":1056,
			"type":"VEC2"
		},
		{
			"bufferView":31,
			"componentType":5123,
			"count":1584,
			"type":"SCALAR"
		},
		{
			"bufferView":32,
			"componentType":5126,
			"count":1416,
			"max":[
				1.4344758987426758,
				0.5960000157356262,
				1.2551451921463013
			],
			"min":[
				-1.2135833501815796,
				0.1340000033378601,
				-0.5624911189079285
			],
			"type":"VEC3"
		},
		{
			"bufferView":33,
			"componentType":5126,
			"count":1416,
			"type":"VEC3"
		},
		{
			"bufferView":34,
			"componentType":5126,
			"count":1416,
			"type":"VEC2"
		},
		{
			"bufferView":35,
			"componentType":5123,
			"count":2124,
			"type":"SCALAR"
		},
		{
			"bufferView":36,
			"componentType":5126,
			"count":924,
			"max":[
				1.4315515756607056,
				0.658974826335907,
				1.240710973739624
			],
			"min":[
				-1.4370766878128052,
				0,
				-0.5235151648521423
			],
			"type":"VEC3"
		},
		{
			"bufferView":37,
			"componentType":5126,
			"count":924,
			"type":"VEC3"
		},
		{
			"bufferView":38,
			"componentType":5126,
			"count":924,
			"type":"VEC2"
		},
		{
			"bufferView":39,
			"componentType":5123,
			"count":1386,
			"type":"SCALAR"
		},
		{
			"bufferView":40,
			"componentType":5126,
			"count":648,
			"max":[
				1.4240670204162598,
				0.0820000022649765,
				1.0174953937530518
			],
			"min":[
				-1.3220341205596924,
				0.012000000104308128,
				-0.6335252523422241
			],
			"type":"VEC3"
		},
		{
			"bufferView":41,
			"componentType":5126,
			"count":648,
			"type":"VEC3"
		},
		{
			"bufferView":42,
			"componentType":5126,
			"count":648,
			"type":"VEC2"
		},
		{
			"bufferView":43,
			"componentType":5123,
			"count":972,
			"type":"SCALAR"
		},
		{
			"bufferView":44,
			"componentType":5126,
			"count":1104,
			"max":[
				1.567287564277649,
				0.75,
				1.0086101293563843
			],
			"min":[
				-1.155302882194519,
				0,
				-1.0482181310653687
			],
			"type":"VEC3"
		},
		{
			"bufferView":45,
			"componentType":5126,
			"count":1104,
			"type":"VEC3"
		},
		{
			"bufferView":46,
			"componentType":5126,
			"count":1104,
			"type":"VEC2"
		},
		{
			"bufferView":47,
			"componentType":5123,
			"count":1656,
			"type":"SCALAR"
		},
		{
			"bufferView":48,
			"componentType":5126,
			"count":578,
			"max":[
				1.0855228900909424,
				0.7747499942779541,
				1.0818172693252563
			],
			"min":[
				-1.1430259943008423,
				0.29499998688697815,
				0.22780969738960266
			],
			"type":"VEC3"
		},
		{
			"bufferView":49,
			"componentType":5126,
			"count":578,
			"type":"VEC3"
		},
		{
			"bufferView":50,
			"componentType":5126,
			"count":578,
			"type":"VEC2"
		},
		{
			"bufferView":51,
			"componentType":5123,
			"count":1140,
			"type":"SCALAR"
		},
		{
			"bufferView":52,
			"componentType":5126,
			"count":240,
			"max":[
				1.4649879932403564,
				0.0040000081062316895,
				1.057928442955017
			],
			"min":[
				-1.4549273252487183,
				-0.1599999964237213,
				-0.9509038925170898
			],
			"type":"VEC3"
		},
		{
			"bufferView":53,
			"componentType":5126,
			"count":240,
			"type":"VEC3"
		},
		{
			"bufferView":54,
			"componentType":5126,
			"count":240,
			"type":"VEC2"
		},
		{
			"bufferView":55,
			"componentType":5123,
			"count":360,
			"type":"SCALAR"
		},
		{
			"bufferView":56,
			"componentType":5126,
			"count":720,
			"max":[
				0.6109050512313843,
				0.5489749312400818,
				1.422768235206604
			],
			"min":[
				-1.5083041191101074,
				0,
				-0.9233139753341675
			],
			"type":"VEC3"
		},
		{
			"bufferView":57,
			"componentType":5126,
			"count":720,
			"type":"VEC3"
		},
		{
			"bufferView":58,
			"componentType":5126,
			"count":720,
			"type":"VEC2"
		},
		{
			"bufferView":59,
			"componentType":5123,
			"count":1080,
			"type":"SCALAR"
		},
		{
			"bufferView":60,
			"componentType":5126,
			"count":504,
			"max":[
				1.6056922674179077,
				0.6299999952316284,
				1.4611728191375732
			],
			"min":[
				-1.5467088222503662,
				0.10999999940395355,
				-1.086622714996338
			],
			"type":"VEC3"
		},
		{
			"bufferView":61,
			"componentType":5126,
			"count":504,
			"type":"VEC3"
		},
		{
			"bufferView":62,
			"componentType":5126,
			"count":504,
			"type":"VEC2"
		},
		{
			"bufferView":63,
			"componentType":5123,
			"count":672,
			"type":"SCALAR"
		},
		{
			"bufferView":64,
			"componentType":5126,
			"count":336,
			"max":[
				1.354385256767273,
				0.6599999666213989,
				1.3046958446502686
			],
			"min":[
				-1.4218418598175049,
				0.14000000059604645,
				-0.9337411522865295
			],
			"type":"VEC3"
		},
		{
			"bufferView":65,
			"componentType":5126,
			"count":336,
			"type":"VEC3"
		},
		{
			"bufferView":66,
			"componentType":5126,
			"count":336,
			"type":"VEC2"
		},
		{
			"bufferView":67,
			"componentType":5123,
			"count":504,
			"type":"SCALAR"
		},
		{
			"bufferView":68,
			"componentType":5126,
			"count":180,
			"max":[
				0.7901683449745178,
				0.3289748728275299,
				0.04210782051086426
			],
			"min":[
				0.4182654023170471,
				0,
				-0.32979512214660645
			],
			"type":"VEC3"
		},
		{
			"bufferView":69,
			"componentType":5126,
			"count":180,
			"type":"VEC3"
		},
		{
			"bufferView":70,
			"componentType":5126,
			"count":180,
			"type":"VEC2"
		},
		{
			"bufferView":71,
			"componentType":5126,
			"count":24,
			"max":[
				0.4449729919433594,
				0.006000000052154064,
				0.4449729919433594
			],
			"min":[
				-0.4449729919433594,
				0.0020000000949949026,
				-0.4449729919433594
			],
			"type":"VEC3"
		},
		{
			"bufferView":72,
			"componentType":5126,
			"count":24,
			"type":"VEC3"
		},
		{
			"bufferView":73,
			"componentType":5126,
			"count":24,
			"type":"VEC2"
		},
		{
			"bufferView":74,
			"componentType":5123,
			"count":36,
			"type":"SCALAR"
		},
		{
			"bufferView":75,
			"componentType":5126,
			"count":4417,
			"max":[
				0.47298678755760193,
				0.7960799932479858,
				0.7756094336509705
			],
			"min":[
				-0.41088393330574036,
				0.07199999690055847,
				-0.41088393330574036
			],
			"type":"VEC3"
		},
		{
			"bufferView":76,
			"componentType":5126,
			"count":4417,
			"type":"VEC3"
		},
		{
			"bufferView":77,
			"componentType":5126,
			"count":4417,
			"type":"VEC2"
		},
		{
			"bufferView":78,
			"componentType":5123,
			"count":7674,
			"type":"SCALAR"
		},
		{
			"bufferView":79,
			"componentType":5126,
			"count":25,
			"max":[
				0.014399999752640724,
				0.6000000238418579,
				0.014399999752640724
			],
			"min":[
				-0.014399999752640724,
				0.527999997138977,
				-0.014399999752640724
			],
			"type":"VEC3"
		},
		{
			"bufferView":80,
			"componentType":5126,
			"count":25,
			"type":"VEC3"
		},
		{
			"bufferView":81,
			"componentType":5126,
			"count":25,
			"type":"VEC2"
		},
		{
			"bufferView":82,
			"componentType":5123,
			"count":42,
			"type":"SCALAR"
		},
		{
			"bufferView":83,
			"componentType":5126,
			"count":24,
			"max":[
				0.4723884165287018,
				0.012000000104308128,
				0.769048810005188
			],
			"min":[
				-0.18094095587730408,
				0,
				0.19589796662330627
			],
			"type":"VEC3"
		},
		{
			"bufferView":84,
			"componentType":5126,
			"count":24,
			"type":"VEC3"
		},
		{
			"bufferView":85,
			"componentType":5126,
			"count":24,
			"type":"VEC2"
		},
		{
			"bufferView":86,
			"componentType":5126,
			"count":28,
			"max":[
				1.8604168891906738,
				0.09483624994754791,
				-0.5969621539115906
			],
			"min":[
				1.7653684616088867,
				0.033471617847681046,
				-0.6944549679756165
			],
			"type":"VEC3"
		},
		{
			"bufferView":87,
			"componentType":5126,
			"count":28,
			"type":"VEC3"
		},
		{
			"bufferView":88,
			"componentType":5126,
			"count":28,
			"type":"VEC2"
		},
		{
			"bufferView":89,
			"componentType":5123,
			"count":36,
			"type":"SCALAR"
		}
	],
	"bufferViews":[
		{
			"buffer":0,
			"byteLength":8352,
			"byteOffset":0,
			"target":34962
		},
		{
			"buffer":0,
			"byteLength":8352,
			"byteOffset":8352,
			"target":34962
		},
		{
			"buffer":0,
			"byteLength":5568,
			"byteOffset":16704,
			"target":34962
		},
		{
			"buffer":0,
			"byteLength":2280,
			"byteOffset":22272,
			"target":34963
		},
		{
			"buffer":0,
			"byteLength":68544,
			"byteOffset":24552,
			"target":34962
		},
		{
			"buffer":0,
			"byteLength":68544,
			"byteOffset":93096,
			"target":34962
		},
		{
			"buffer":0,
			"byteLength":45696,
			"byteOffset":161640,
			"target":34962
		},
		{
			"buffer":0,
			"byteLength":17136,
			"byteOffset":207336,
			"target":34963
		},
		{
			"buffer":0,
			"byteLength":148512,
			"byteOffset":224472,
			"target":34962
		},
		{
			"buffer":0,
			"byteLength":148512,
			"byteOffset":372984,
			"target":34962
		},
		{
			"buffer":0,
			"byteLength":99008,
			"byteOffset":521496,
			"target":34962
		},
		{
			"buffer":0,
			"byteLength":37128,
			"byteOffset":620504,
			"target":34963
		},
		{
			"buffer":0,
			"byteLength":19836,
			"byteOffset":657632,
			"target":34962
		},
		{
			"buffer":0,
			"byteLength":19836,
			"byteOffset":677468,
			"target":34962
		},
		{
			"buffer":0,
			"byteLength":13224,
			"byteOffset":697304,
			"target":34962
		},
		{
			"buffer":0,
			"byteLength":6396,
			"byteOffset":710528,
			"target":34963
		},
		{
			"buffer":0,
			"byteLength":76992,
			"byteOffset":716924,
			"target":34962
		},
		{
			"buffer":0,
			"byteLength":76992,
			"byteOffset":793916,
			"target":34962
		},
		{
			"buffer":0,
			"byteLength":51328,
			"byteOffset":870908,
			"target":34962
		},
		{
			"buffer":0,
			"byteLength":12864,
			"byteOffset":922236,
			"target":34963
		},
		{
			"buffer":0,
			"byteLength":2160,
			"byteOffset":935100,
			"target":34962
		},
		{
			"buffer":0,
			"byteLength":2160,
			"byteOffset":937260,
			"target":34962
		},
		{
			"buffer":0,
			"byteLength":1440,
			"byteOffset":939420,
			"target":34962
		},
		{
			"buffer":0,
			"byteLength":540,
			"byteOffset":940860,
			"target":34963
		},
		{
			"buffer":0,
			"byteLength":428976,
			"byteOffset":941400,
			"target":34962
		},
		{
			"buffer":0,
			"byteLength":428976,
			"byteOffset":1370376,
			"target":34962
		},
		{
			"buffer":0,
			"byteLength":285984,
			"byteOffset":1799352,
			"target":34962
		},
		{
			"buffer":0,
			"byteLength":109620,
			"byteOffset":2085336,
			"target":34963
		},
		{
			"buffer":0,
			"byteLength":12672,
			"byteOffset":2194956,
			"target":34962
		},
		{
			"buffer":0,
			"byteLength":12672,
			"byteOffset":2207628,
			"target":34962
		},
		{
			"buffer":0,
			"byteLength":8448,
			"byteOffset":2220300,
			"target":34962
		},
		{
			"buffer":0,
			"byteLength":3168,
			"byteOffset":2228748,
			"target":34963
		},
		{
			"buffer":0,
			"byteLength":16992,
			"byteOffset":2231916,
			"target":34962
		},
		{
			"buffer":0,
			"byteLength":16992,
			"byteOffset":2248908,
			"target":34962
		},
		{
			"buffer":0,
			"byteLength":11328,
			"byteOffset":2265900,
			"target":34962
		},
		{
			"buffer":0,
			"byteLength":4248,
			"byteOffset":2277228,
			"target":34963
		},
		{
			"buffer":0,
			"byteLength":11088,
			"byteOffset":2281476,
			"target":34962
		},
		{
			"buffer":0,
			"byteLength":11088,
			"byteOffset":2292564,
			"target":34962
		},
		{
			"buffer":0,
			"byteLength":7392,
			"byteOffset":2303652,
			"target":34962
		},
		{
			"buffer":0,
			"byteLength":2772,
			"byteOffset":2311044,
			"target":34963
		},
		{
			"buffer":0,
			"byteLength":7776,
			"byteOffset":2313816,
			"target":34962
		},
		{
			"buffer":0,
			"byteLength":7776,
			"byteOffset":2321592,
			"target":34962
		},
		{
			"buffer":0,
			"byteLength":5184,
			"byteOffset":2329368,
			"target":34962
		},
		{
			"buffer":0,
			"byteLength":1944,
			"byteOffset":2334552,
			"target":34963
		},
		{
			"buffer":0,
			"byteLength":13248,
			"byteOffset":2336496,
			"target":34962
		},
		{
			"buffer":0,
			"byteLength":13248,
			"byteOffset":2349744,
			"target":34962
		},
		{
			"buffer":0,
			"byteLength":8832,
			"byteOffset":2362992,
			"target":34962
		},
		{
			"buffer":0,
			"byteLength":3312,
			"byteOffset":2371824,
			"target":34963
		},
		{
			"buffer":0,
			"byteLength":6936,
			"byteOffset":2375136,
			"target":34962
		},
		{
			"buffer":0,
			"byteLength":6936,
			"byteOffset":2382072,
			"target":34962
		},
		{
			"buffer":0,
			"byteLength":4624,
			"byteOffset":2389008,
			"target":34962
		},
		{
			"buffer":0,
			"byteLength":2280,
			"byteOffset":2393632,
			"target":34963
		},
		{
			"buffer":0,
			"byteLength":2880,
			"byteOffset":2395912,
			"target":34962
		},
		{
			"buffer":0,
			"byteLength":2880,
			"byteOffset":2398792,
			"target":34962
		},
		{
			"buffer":0,
			"byteLength":1920,
			"byteOffset":2401672,
			"target":34962
		},
		{
			"buffer":0,
			"byteLength":720,
			"byteOffset":2403592,
			"target":34963
		},
		{
			"buffer":0,
			"byteLength":8640,
			"byteOffset":2404312,
			"target":34962
		},
		{
			"buffer":0,
			"byteLength":8640,
			"byteOffset":2412952,
			"target":34962
		},
		{
			"buffer":0,
			"byteLength":5760,
			"byteOffset":2421592,
			"target":34962
		},
		{
			"buffer":0,
			"byteLength":2160,
			"byteOffset":2427352,
			"target":34963
		},
		{
			"buffer":0,
			"byteLength":6048,
			"byteOffset":2429512,
			"target":34962
		},
		{
			"buffer":0,
			"byteLength":6048,
			"byteOffset":2435560,
			"target":34962
		},
		{
			"buffer":0,
			"byteLength":4032,
			"byteOffset":2441608,
			"target":34962
		},
		{
			"buffer":0,
			"byteLength":1344,
			"byteOffset":2445640,
			"target":34963
		},
		{
			"buffer":0,
			"byteLength":4032,
			"byteOffset":2446984,
			"target":34962
		},
		{
			"buffer":0,
			"byteLength":4032,
			"byteOffset":2451016,
			"target":34962
		},
		{
			"buffer":0,
			"byteLength":2688,
			"byteOffset":2455048,
			"target":34962
		},
		{
			"buffer":0,
			"byteLength":1008,
			"byteOffset":2457736,
			"target":34963
		},
		{
			"buffer":0,
			"byteLength":2160,
			"byteOffset":2458744,
			"target":34962
		},
		{
			"buffer":0,
			"byteLength":2160,
			"byteOffset":2460904,
			"target":34962
		},
		{
			"buffer":0,
			"byteLength":1440,
			"byteOffset":2463064,
			"target":34962
		},
		{
			"buffer":0,
			"byteLength":288,
			"byteOffset":2464504,
			"target":34962
		},
		{
			"buffer":0,
			"byteLength":288,
			"byteOffset":2464792,
			"target":34962
		},
		{
			"buffer":0,
			"byteLength":192,
			"byteOffset":2465080,
			"target":34962
		},
		{
			"buffer":0,
			"byteLength":72,
			"byteOffset":2465272,
			"target":34963
		},
		{
			"buffer":0,
			"byteLength":53004,
			"byteOffset":2465344,
			"target":34962
		},
		{
			"buffer":0,
			"byteLength":53004,
			"byteOffset":2518348,
			"target":34962
		},
		{
			"buffer":0,
			"byteLength":35336,
			"byteOffset":2571352,
			"target":34962
		},
		{
			"buffer":0,
			"byteLength":15348,
			"byteOffset":2606688,
			"target":34963
		},
		{
			"buffer":0,
			"byteLength":300,
			"byteOffset":2622036,
			"target":34962
		},
		{
			"buffer":0,
			"byteLength":300,
			"byteOffset":2622336,
			"target":34962
		},
		{
			"buffer":0,
			"byteLength":200,
			"byteOffset":2622636,
			"target":34962
		},
		{
			"buffer":0,
			"byteLength":84,
			"byteOffset":2622836,
			"target":34963
		},
		{
			"buffer":0,
			"byteLength":288,
			"byteOffset":2622920,
			"target":34962
		},
		{
			"buffer":0,
			"byteLength":288,
			"byteOffset":2623208,
			"target":34962
		},
		{
			"buffer":0,
			"byteLength":192,
			"byteOffset":2623496,
			"target":34962
		},
		{
			"buffer":0,
			"byteLength":336,
			"byteOffset":2623688,
			"target":34962
		},
		{
			"buffer":0,
			"byteLength":336,
			"byteOffset":2624024,
			"target":34962
		},
		{
			"buffer":0,
			"byteLength":224,
			"byteOffset":2624360,
			"target":34962
		},
		{
			"buffer":0,
			"byteLength":72,
			"byteOffset":2624584,
			"target":34963
		}
	],
	"samplers":[
		{
			"magFilter":9729,
			"minFilter":9987
		}
	],
	"buffers":[
		{
			"byteLength":2624656,
			"uri":"city_orient_large.bin"
		}
	]
}
