{
	"asset":{
		"generator":"Khronos glTF Blender I/O v5.2.40",
		"version":"2.0"
	},
	"scene":0,
	"scenes":[
		{
			"name":"Scene",
			"nodes":[
				0
			]
		}
	],
	"nodes":[
		{
			"mesh":0,
			"name":"city_east_large"
		}
	],
	"materials":[
		{
			"doubleSided":true,
			"name":"garden",
			"normalTexture":{
				"index":0
			},
			"pbrMetallicRoughness":{
				"baseColorTexture":{
					"index":1
				},
				"metallicFactor":0
			}
		},
		{
			"doubleSided":true,
			"name":"asphalt",
			"normalTexture":{
				"index":2
			},
			"pbrMetallicRoughness":{
				"baseColorTexture":{
					"index":3
				},
				"metallicFactor":0,
				"roughnessFactor":0.8500000238418579
			}
		},
		{
			"doubleSided":true,
			"name":"concrete",
			"normalTexture":{
				"index":4
			},
			"pbrMetallicRoughness":{
				"baseColorTexture":{
					"index":5
				},
				"metallicFactor":0,
				"roughnessFactor":0.8999999761581421
			}
		},
		{
			"doubleSided":true,
			"name":"trunk",
			"pbrMetallicRoughness":{
				"baseColorFactor":[
					0.25,
					0.17000000178813934,
					0.10000000149011612,
					1
				],
				"metallicFactor":0,
				"roughnessFactor":0.8999999761581421
			}
		},
		{
			"doubleSided":true,
			"name":"tree_autumn",
			"pbrMetallicRoughness":{
				"baseColorFactor":[
					0.3199999928474426,
					0.33000001311302185,
					0.10000000149011612,
					1
				],
				"metallicFactor":0,
				"roughnessFactor":0.8999999761581421
			}
		},
		{
			"doubleSided":true,
			"name":"tree_dark",
			"pbrMetallicRoughness":{
				"baseColorFactor":[
					0.07999999821186066,
					0.1899999976158142,
					0.07999999821186066,
					1
				],
				"metallicFactor":0,
				"roughnessFactor":0.8999999761581421
			}
		},
		{
			"doubleSided":true,
			"name":"tree",
			"pbrMetallicRoughness":{
				"baseColorFactor":[
					0.12999999523162842,
					0.27000001072883606,
					0.09000000357627869,
					1
				],
				"metallicFactor":0,
				"roughnessFactor":0.8999999761581421
			}
		},
		{
			"doubleSided":true,
			"name":"facade_white",
			"normalTexture":{
				"index":6
			},
			"pbrMetallicRoughness":{
				"baseColorTexture":{
					"index":7
				},
				"metallicFactor":0,
				"roughnessFactor":0.8500000238418579
			}
		},
		{
			"doubleSided":true,
			"name":"white",
			"pbrMetallicRoughness":{
				"baseColorFactor":[
					0.8999999761581421,
					0.8899999856948853,
					0.8500000238418579,
					1
				],
				"metallicFactor":0,
				"roughnessFactor":0.6000000238418579
			}
		},
		{
			"doubleSided":true,
			"name":"wood_red",
			"normalTexture":{
				"index":8
			},
			"pbrMetallicRoughness":{
				"baseColorTexture":{
					"index":9
				},
				"metallicFactor":0,
				"roughnessFactor":0.8500000238418579
			}
		},
		{
			"doubleSided":true,
			"name":"roof_copper",
			"normalTexture":{
				"index":10
			},
			"pbrMetallicRoughness":{
				"baseColorTexture":{
					"index":11
				},
				"metallicFactor":0.25,
				"roughnessFactor":0.44999998807907104
			}
		},
		{
			"doubleSided":true,
			"name":"brick_red",
			"normalTexture":{
				"index":12
			},
			"pbrMetallicRoughness":{
				"baseColorTexture":{
					"index":13
				},
				"metallicFactor":0,
				"roughnessFactor":0.8999999761581421
			}
		},
		{
			"doubleSided":true,
			"name":"stone_light",
			"normalTexture":{
				"index":14
			},
			"pbrMetallicRoughness":{
				"baseColorTexture":{
					"index":15
				},
				"metallicFactor":0,
				"roughnessFactor":0.800000011920929
			}
		},
		{
			"doubleSided":true,
			"name":"facade_cream",
			"normalTexture":{
				"index":16
			},
			"pbrMetallicRoughness":{
				"baseColorTexture":{
					"index":17
				},
				"metallicFactor":0,
				"roughnessFactor":0.8500000238418579
			}
		},
		{
			"doubleSided":true,
			"name":"steel",
			"pbrMetallicRoughness":{
				"baseColorFactor":[
					0.2800000011920929,
					0.30000001192092896,
					0.33000001311302185,
					1
				],
				"metallicFactor":0.800000011920929,
				"roughnessFactor":0.4000000059604645
			}
		},
		{
			"doubleSided":true,
			"name":"facade_yellow",
			"normalTexture":{
				"index":18
			},
			"pbrMetallicRoughness":{
				"baseColorTexture":{
					"index":19
				},
				"metallicFactor":0,
				"roughnessFactor":0.8500000238418579
			}
		},
		{
			"doubleSided":true,
			"name":"facade_grey",
			"normalTexture":{
				"index":20
			},
			"pbrMetallicRoughness":{
				"baseColorTexture":{
					"index":21
				},
				"metallicFactor":0,
				"roughnessFactor":0.8500000238418579
			}
		},
		{
			"doubleSided":true,
			"name":"glass",
			"pbrMetallicRoughness":{
				"baseColorFactor":[
					0.11999999731779099,
					0.1599999964237213,
					0.20000000298023224,
					1
				],
				"metallicFactor":0.5,
				"roughnessFactor":0.10000000149011612
			}
		},
		{
			"doubleSided":true,
			"name":"roof_slate",
			"normalTexture":{
				"index":22
			},
			"pbrMetallicRoughness":{
				"baseColorTexture":{
					"index":23
				},
				"metallicFactor":0,
				"roughnessFactor":0.550000011920929
			}
		},
		{
			"doubleSided":true,
			"name":"roof_dark",
			"normalTexture":{
				"index":24
			},
			"pbrMetallicRoughness":{
				"baseColorTexture":{
					"index":25
				},
				"metallicFactor":0,
				"roughnessFactor":0.699999988079071
			}
		},
		{
			"doubleSided":true,
			"name":"facade_pink",
			"normalTexture":{
				"index":26
			},
			"pbrMetallicRoughness":{
				"baseColorTexture":{
					"index":27
				},
				"metallicFactor":0,
				"roughnessFactor":0.8500000238418579
			}
		},
		{
			"doubleSided":true,
			"name":"wood_yellow",
			"normalTexture":{
				"index":28
			},
			"pbrMetallicRoughness":{
				"baseColorTexture":{
					"index":29
				},
				"metallicFactor":0,
				"roughnessFactor":0.8500000238418579
			}
		},
		{
			"doubleSided":true,
			"name":"wood_white",
			"normalTexture":{
				"index":30
			},
			"pbrMetallicRoughness":{
				"baseColorTexture":{
					"index":31
				},
				"metallicFactor":0,
				"roughnessFactor":0.8500000238418579
			}
		},
		{
			"doubleSided":true,
			"name":"city_paving_warm",
			"normalTexture":{
				"index":32
			},
			"pbrMetallicRoughness":{
				"baseColorTexture":{
					"index":33
				},
				"metallicFactor":0,
				"roughnessFactor":0.9200000166893005
			}
		},
		{
			"doubleSided":true,
			"name":"facade_whitewash",
			"normalTexture":{
				"index":34
			},
			"pbrMetallicRoughness":{
				"baseColorTexture":{
					"index":35
				},
				"metallicFactor":0,
				"roughnessFactor":0.8999999761581421
			}
		},
		{
			"doubleSided":true,
			"name":"gold",
			"pbrMetallicRoughness":{
				"baseColorFactor":[
					0.8299999833106995,
					0.6200000047683716,
					0.20000000298023224,
					1
				],
				"roughnessFactor":0.30000001192092896
			}
		},
		{
			"doubleSided":true,
			"name":"onion_blue",
			"pbrMetallicRoughness":{
				"baseColorFactor":[
					0.1599999964237213,
					0.3400000035762787,
					0.6200000047683716,
					1
				],
				"metallicFactor":0.20000000298023224,
				"roughnessFactor":0.3499999940395355
			}
		}
	],
	"meshes":[
		{
			"name":"part.5979",
			"primitives":[
				{
					"attributes":{
						"POSITION":0,
						"NORMAL":1,
						"TEXCOORD_0":2
					},
					"indices":3,
					"material":0
				},
				{
					"attributes":{
						"POSITION":4,
						"NORMAL":5,
						"TEXCOORD_0":6
					},
					"indices":7,
					"material":1
				},
				{
					"attributes":{
						"POSITION":8,
						"NORMAL":9,
						"TEXCOORD_0":10
					},
					"indices":11,
					"material":2
				},
				{
					"attributes":{
						"POSITION":12,
						"NORMAL":13,
						"TEXCOORD_0":14
					},
					"indices":15,
					"material":3
				},
				{
					"attributes":{
						"POSITION":16,
						"NORMAL":17,
						"TEXCOORD_0":18
					},
					"indices":19,
					"material":4
				},
				{
					"attributes":{
						"POSITION":20,
						"NORMAL":21,
						"TEXCOORD_0":22
					},
					"indices":23,
					"material":5
				},
				{
					"attributes":{
						"POSITION":24,
						"NORMAL":25,
						"TEXCOORD_0":26
					},
					"indices":27,
					"material":6
				},
				{
					"attributes":{
						"POSITION":28,
						"NORMAL":29,
						"TEXCOORD_0":30
					},
					"indices":31,
					"material":7
				},
				{
					"attributes":{
						"POSITION":32,
						"NORMAL":33,
						"TEXCOORD_0":34
					},
					"indices":35,
					"material":8
				},
				{
					"attributes":{
						"POSITION":36,
						"NORMAL":37,
						"TEXCOORD_0":38
					},
					"indices":39,
					"material":9
				},
				{
					"attributes":{
						"POSITION":40,
						"NORMAL":41,
						"TEXCOORD_0":42
					},
					"indices":43,
					"material":10
				},
				{
					"attributes":{
						"POSITION":44,
						"NORMAL":45,
						"TEXCOORD_0":46
					},
					"indices":47,
					"material":11
				},
				{
					"attributes":{
						"POSITION":48,
						"NORMAL":49,
						"TEXCOORD_0":50
					},
					"indices":51,
					"material":12
				},
				{
					"attributes":{
						"POSITION":52,
						"NORMAL":53,
						"TEXCOORD_0":54
					},
					"indices":55,
					"material":13
				},
				{
					"attributes":{
						"POSITION":56,
						"NORMAL":57,
						"TEXCOORD_0":58
					},
					"indices":59,
					"material":14
				},
				{
					"attributes":{
						"POSITION":60,
						"NORMAL":61,
						"TEXCOORD_0":62
					},
					"indices":63,
					"material":15
				},
				{
					"attributes":{
						"POSITION":64,
						"NORMAL":65,
						"TEXCOORD_0":66
					},
					"indices":55,
					"material":16
				},
				{
					"attributes":{
						"POSITION":67,
						"NORMAL":68,
						"TEXCOORD_0":69
					},
					"indices":70,
					"material":17
				},
				{
					"attributes":{
						"POSITION":71,
						"NORMAL":72,
						"TEXCOORD_0":73
					},
					"indices":74,
					"material":18
				},
				{
					"attributes":{
						"POSITION":75,
						"NORMAL":76,
						"TEXCOORD_0":77
					},
					"indices":78,
					"material":19
				},
				{
					"attributes":{
						"POSITION":79,
						"NORMAL":80,
						"TEXCOORD_0":81
					},
					"indices":82,
					"material":20
				},
				{
					"attributes":{
						"POSITION":83,
						"NORMAL":84,
						"TEXCOORD_0":85
					},
					"indices":86,
					"material":21
				},
				{
					"attributes":{
						"POSITION":87,
						"NORMAL":88,
						"TEXCOORD_0":89
					},
					"indices":86,
					"material":22
				},
				{
					"attributes":{
						"POSITION":90,
						"NORMAL":91,
						"TEXCOORD_0":92
					},
					"indices":93,
					"material":23
				},
				{
					"attributes":{
						"POSITION":94,
						"NORMAL":95,
						"TEXCOORD_0":96
					},
					"indices":97,
					"material":24
				},
				{
					"attributes":{
						"POSITION":98,
						"NORMAL":99,
						"TEXCOORD_0":100
					},
					"indices":101,
					"material":25
				},
				{
					"attributes":{
						"POSITION":102,
						"NORMAL":103,
						"TEXCOORD_0":104
					},
					"indices":105,
					"material":26
				}
			]
		}
	],
	"textures":[
		{
			"sampler":0,
			"source":0
		},
		{
			"sampler":0,
			"source":1
		},
		{
			"sampler":0,
			"source":2
		},
		{
			"sampler":0,
			"source":3
		},
		{
			"sampler":0,
			"source":4
		},
		{
			"sampler":0,
			"source":5
		},
		{
			"sampler":0,
			"source":6
		},
		{
			"sampler":0,
			"source":7
		},
		{
			"sampler":0,
			"source":8
		},
		{
			"sampler":0,
			"source":9
		},
		{
			"sampler":0,
			"source":10
		},
		{
			"sampler":0,
			"source":11
		},
		{
			"sampler":0,
			"source":12
		},
		{
			"sampler":0,
			"source":13
		},
		{
			"sampler":0,
			"source":14
		},
		{
			"sampler":0,
			"source":15
		},
		{
			"sampler":0,
			"source":16
		},
		{
			"sampler":0,
			"source":17
		},
		{
			"sampler":0,
			"source":18
		},
		{
			"sampler":0,
			"source":19
		},
		{
			"sampler":0,
			"source":20
		},
		{
			"sampler":0,
			"source":21
		},
		{
			"sampler":0,
			"source":22
		},
		{
			"sampler":0,
			"source":23
		},
		{
			"sampler":0,
			"source":24
		},
		{
			"sampler":0,
			"source":25
		},
		{
			"sampler":0,
			"source":26
		},
		{
			"sampler":0,
			"source":27
		},
		{
			"sampler":0,
			"source":28
		},
		{
			"sampler":0,
			"source":29
		},
		{
			"sampler":0,
			"source":30
		},
		{
			"sampler":0,
			"source":31
		},
		{
			"sampler":0,
			"source":32
		},
		{
			"sampler":0,
			"source":33
		},
		{
			"sampler":0,
			"source":34
		},
		{
			"sampler":0,
			"source":35
		}
	],
	"images":[
		{
			"mimeType":"image/png",
			"name":"garden_n",
			"uri":"textures/garden_n.png"
		},
		{
			"mimeType":"image/png",
			"name":"garden",
			"uri":"textures/garden.png"
		},
		{
			"mimeType":"image/png",
			"name":"asphalt_n",
			"uri":"textures/asphalt_n.png"
		},
		{
			"mimeType":"image/png",
			"name":"asphalt",
			"uri":"textures/asphalt.png"
		},
		{
			"mimeType":"image/png",
			"name":"concrete_n",
			"uri":"textures/concrete_n.png"
		},
		{
			"mimeType":"image/png",
			"name":"concrete",
			"uri":"textures/concrete.png"
		},
		{
			"mimeType":"image/png",
			"name":"facade_white_n",
			"uri":"textures/facade_white_n.png"
		},
		{
			"mimeType":"image/png",
			"name":"facade_white",
			"uri":"textures/facade_white.png"
		},
		{
			"mimeType":"image/png",
			"name":"wood_red_n",
			"uri":"textures/wood_red_n.png"
		},
		{
			"mimeType":"image/png",
			"name":"wood_red",
			"uri":"textures/wood_red.png"
		},
		{
			"mimeType":"image/png",
			"name":"roof_copper_n",
			"uri":"textures/roof_copper_n.png"
		},
		{
			"mimeType":"image/png",
			"name":"roof_copper",
			"uri":"textures/roof_copper.png"
		},
		{
			"mimeType":"image/png",
			"name":"brick_red_n",
			"uri":"textures/brick_red_n.png"
		},
		{
			"mimeType":"image/png",
			"name":"brick_red",
			"uri":"textures/brick_red.png"
		},
		{
			"mimeType":"image/png",
			"name":"stone_light_n",
			"uri":"textures/stone_light_n.png"
		},
		{
			"mimeType":"image/png",
			"name":"stone_light",
			"uri":"textures/stone_light.png"
		},
		{
			"mimeType":"image/png",
			"name":"facade_cream_n",
			"uri":"textures/facade_cream_n.png"
		},
		{
			"mimeType":"image/png",
			"name":"facade_cream",
			"uri":"textures/facade_cream.png"
		},
		{
			"mimeType":"image/png",
			"name":"facade_yellow_n",
			"uri":"textures/facade_yellow_n.png"
		},
		{
			"mimeType":"image/png",
			"name":"facade_yellow",
			"uri":"textures/facade_yellow.png"
		},
		{
			"mimeType":"image/png",
			"name":"facade_grey_n",
			"uri":"textures/facade_grey_n.png"
		},
		{
			"mimeType":"image/png",
			"name":"facade_grey",
			"uri":"textures/facade_grey.png"
		},
		{
			"mimeType":"image/png",
			"name":"roof_slate_n",
			"uri":"textures/roof_slate_n.png"
		},
		{
			"mimeType":"image/png",
			"name":"roof_slate",
			"uri":"textures/roof_slate.png"
		},
		{
			"mimeType":"image/png",
			"name":"roof_dark_n",
			"uri":"textures/roof_dark_n.png"
		},
		{
			"mimeType":"image/png",
			"name":"roof_dark",
			"uri":"textures/roof_dark.png"
		},
		{
			"mimeType":"image/png",
			"name":"facade_pink_n",
			"uri":"textures/facade_pink_n.png"
		},
		{
			"mimeType":"image/png",
			"name":"facade_pink",
			"uri":"textures/facade_pink.png"
		},
		{
			"mimeType":"image/png",
			"name":"wood_yellow_n",
			"uri":"textures/wood_yellow_n.png"
		},
		{
			"mimeType":"image/png",
			"name":"wood_yellow",
			"uri":"textures/wood_yellow.png"
		},
		{
			"mimeType":"image/png",
			"name":"wood_white_n",
			"uri":"textures/wood_white_n.png"
		},
		{
			"mimeType":"image/png",
			"name":"wood_white",
			"uri":"textures/wood_white.png"
		},
		{
			"mimeType":"image/png",
			"name":"city_paving_warm_n",
			"uri":"textures/city_paving_warm_n.png"
		},
		{
			"mimeType":"image/png",
			"name":"city_paving_warm",
			"uri":"textures/city_paving_warm.png"
		},
		{
			"mimeType":"image/png",
			"name":"facade_whitewash_n",
			"uri":"textures/facade_whitewash_n.png"
		},
		{
			"mimeType":"image/png",
			"name":"facade_whitewash",
			"uri":"textures/facade_whitewash.png"
		}
	],
	"accessors":[
		{
			"bufferView":0,
			"componentType":5126,
			"count":696,
			"max":[
				2.1355533599853516,
				0.003000000026077032,
				1.96868896484375
			],
			"min":[
				-2.2965211868286133,
				-0.029999999329447746,
				-1.9304680824279785
			],
			"type":"VEC3"
		},
		{
			"bufferView":1,
			"componentType":5126,
			"count":696,
			"type":"VEC3"
		},
		{
			"bufferView":2,
			"componentType":5126,
			"count":696,
			"type":"VEC2"
		},
		{
			"bufferView":3,
			"componentType":5123,
			"count":1140,
			"type":"SCALAR"
		},
		{
			"bufferView":4,
			"componentType":5126,
			"count":5520,
			"max":[
				1.8318891525268555,
				0.004999999888241291,
				1.5748080015182495
			],
			"min":[
				-1.8318891525268555,
				0.0020000000949949026,
				-1.5748080015182495
			],
			"type":"VEC3"
		},
		{
			"bufferView":5,
			"componentType":5126,
			"count":5520,
			"type":"VEC3"
		},
		{
			"bufferView":6,
			"componentType":5126,
			"count":5520,
			"type":"VEC2"
		},
		{
			"bufferView":7,
			"componentType":5123,
			"count":8280,
			"type":"SCALAR"
		},
		{
			"bufferView":8,
			"componentType":5126,
			"count":11712,
			"max":[
				1.8322501182556152,
				0.7919999957084656,
				1.5751690864562988
			],
			"min":[
				-1.8322501182556152,
				0.0020000000949949026,
				-1.5751690864562988
			],
			"type":"VEC3"
		},
		{
			"bufferView":9,
			"componentType":5126,
			"count":11712,
			"type":"VEC3"
		},
		{
			"bufferView":10,
			"componentType":5126,
			"count":11712,
			"type":"VEC2"
		},
		{
			"bufferView":11,
			"componentType":5123,
			"count":17568,
			"type":"SCALAR"
		},
		{
			"bufferView":12,
			"componentType":5126,
			"count":1567,
			"max":[
				2.1779589653015137,
				0.06925594806671143,
				1.7126752138137817
			],
			"min":[
				-2.210146427154541,
				0,
				-1.7487796545028687
			],
			"type":"VEC3"
		},
		{
			"bufferView":13,
			"componentType":5126,
			"count":1567,
			"type":"VEC3"
		},
		{
			"bufferView":14,
			"componentType":5126,
			"count":1567,
			"type":"VEC2"
		},
		{
			"bufferView":15,
			"componentType":5123,
			"count":3042,
			"type":"SCALAR"
		},
		{
			"bufferView":16,
			"componentType":5126,
			"count":1020,
			"max":[
				0.9485844969749451,
				0.17795750498771667,
				1.7432427406311035
			],
			"min":[
				-1.9750611782073975,
				0.028523068875074387,
				-1.674875020980835
			],
			"type":"VEC3"
		},
		{
			"bufferView":17,
			"componentType":5126,
			"count":1020,
			"type":"VEC3"
		},
		{
			"bufferView":18,
			"componentType":5126,
			"count":1020,
			"type":"VEC2"
		},
		{
			"bufferView":19,
			"componentType":5123,
			"count":1020,
			"type":"SCALAR"
		},
		{
			"bufferView":20,
			"componentType":5126,
			"count":1976,
			"max":[
				1.8163789510726929,
				0.21591816842556,
				1.6393797397613525
			],
			"min":[
				-1.8537532091140747,
				0.0232604518532753,
				-1.7899175882339478
			],
			"type":"VEC3"
		},
		{
			"bufferView":21,
			"componentType":5126,
			"count":1976,
			"type":"VEC3"
		},
		{
			"bufferView":22,
			"componentType":5126,
			"count":1976,
			"type":"VEC2"
		},
		{
			"bufferView":23,
			"componentType":5123,
			"count":2112,
			"type":"SCALAR"
		},
		{
			"bufferView":24,
			"componentType":5126,
			"count":2188,
			"max":[
				2.2036807537078857,
				0.18662412464618683,
				1.7062684297561646
			],
			"min":[
				-2.256382942199707,
				0.025474268943071365,
				-1.7275930643081665
			],
			"type":"VEC3"
		},
		{
			"bufferView":25,
			"componentType":5126,
			"count":2188,
			"type":"VEC3"
		},
		{
			"bufferView":26,
			"componentType":5126,
			"count":2188,
			"type":"VEC2"
		},
		{
			"bufferView":27,
			"componentType":5123,
			"count":2316,
			"type":"SCALAR"
		},
		{
			"bufferView":28,
			"componentType":5126,
			"count":1148,
			"max":[
				1.3791238069534302,
				0.7269999980926514,
				1.4914969205856323
			],
			"min":[
				-1.40452241897583,
				0,
				-0.7716688513755798
			],
			"type":"VEC3"
		},
		{
			"bufferView":29,
			"componentType":5126,
			"count":1148,
			"type":"VEC3"
		},
		{
			"bufferView":30,
			"componentType":5126,
			"count":1148,
			"type":"VEC2"
		},
		{
			"bufferView":31,
			"componentType":5123,
			"count":1698,
			"type":"SCALAR"
		},
		{
			"bufferView":32,
			"componentType":5126,
			"count":5448,
			"max":[
				1.4152497053146362,
				0.2280000001192093,
				1.4444106817245483
			],
			"min":[
				-1.4220553636550903,
				0.024000000208616257,
				-1.2713797092437744
			],
			"type":"VEC3"
		},
		{
			"bufferView":33,
			"componentType":5126,
			"count":5448,
			"type":"VEC3"
		},
		{
			"bufferView":34,
			"componentType":5126,
			"count":5448,
			"type":"VEC2"
		},
		{
			"bufferView":35,
			"componentType":5123,
			"count":8172,
			"type":"SCALAR"
		},
		{
			"bufferView":36,
			"componentType":5126,
			"count":576,
			"max":[
				1.3155161142349243,
				0.09200000017881393,
				1.4240999221801758
			],
			"min":[
				-1.2711453437805176,
				0,
				-1.0543222427368164
			],
			"type":"VEC3"
		},
		{
			"bufferView":37,
			"componentType":5126,
			"count":576,
			"type":"VEC3"
		},
		{
			"bufferView":38,
			"componentType":5126,
			"count":576,
			"type":"VEC2"
		},
		{
			"bufferView":39,
			"componentType":5123,
			"count":864,
			"type":"SCALAR"
		},
		{
			"bufferView":40,
			"componentType":5126,
			"count":510,
			"max":[
				1.4646360874176025,
				0.7695000171661377,
				1.4914969205856323
			],
			"min":[
				-1.4626284837722778,
				0.10999999940395355,
				-0.7716688513755798
			],
			"type":"VEC3"
		},
		{
			"bufferView":41,
			"componentType":5126,
			"count":510,
			"type":"VEC3"
		},
		{
			"bufferView":42,
			"componentType":5126,
			"count":510,
			"type":"VEC2"
		},
		{
			"bufferView":43,
			"componentType":5123,
			"count":702,
			"type":"SCALAR"
		},
		{
			"bufferView":44,
			"componentType":5126,
			"count":672,
			"max":[
				1.380070686340332,
				0.7799999713897705,
				1.3302370309829712
			],
			"min":[
				-1.3780630826950073,
				0.15000000596046448,
				-1.1684579849243164
			],
			"type":"VEC3"
		},
		{
			"bufferView":45,
			"componentType":5126,
			"count":672,
			"type":"VEC3"
		},
		{
			"bufferView":46,
			"componentType":5126,
			"count":672,
			"type":"VEC2"
		},
		{
			"bufferView":47,
			"componentType":5123,
			"count":1008,
			"type":"SCALAR"
		},
		{
			"bufferView":48,
			"componentType":5126,
			"count":29504,
			"max":[
				1.4616440534591675,
				0.6679999828338623,
				1.4887642860412598
			],
			"min":[
				-1.4596365690231323,
				-0.1599999964237213,
				-1.2798831462860107
			],
			"type":"VEC3"
		},
		{
			"bufferView":49,
			"componentType":5126,
			"count":29504,
			"type":"VEC3"
		},
		{
			"bufferView":50,
			"componentType":5126,
			"count":29504,
			"type":"VEC2"
		},
		{
			"bufferView":51,
			"componentType":5123,
			"count":44328,
			"type":"SCALAR"
		},
		{
			"bufferView":52,
			"componentType":5126,
			"count":432,
			"max":[
				0.19010315835475922,
				0.4399999976158142,
				0.21935491263866425
			],
			"min":[
				-1.4421035051345825,
				0,
				-0.7372459173202515
			],
			"type":"VEC3"
		},
		{
			"bufferView":53,
			"componentType":5126,
			"count":432,
			"type":"VEC3"
		},
		{
			"bufferView":54,
			"componentType":5126,
			"count":432,
			"type":"VEC2"
		},
		{
			"bufferView":55,
			"componentType":5123,
			"count":648,
			"type":"SCALAR"
		},
		{
			"bufferView":56,
			"componentType":5126,
			"count":720,
			"max":[
				0.6766185760498047,
				0.5960000157356262,
				0.8454846739768982
			],
			"min":[
				-1.3219516277313232,
				0.1340000033378601,
				-0.3931303918361664
			],
			"type":"VEC3"
		},
		{
			"bufferView":57,
			"componentType":5126,
			"count":720,
			"type":"VEC3"
		},
		{
			"bufferView":58,
			"componentType":5126,
			"count":720,
			"type":"VEC2"
		},
		{
			"bufferView":59,
			"componentType":5123,
			"count":1080,
			"type":"SCALAR"
		},
		{
			"bufferView":60,
			"componentType":5126,
			"count":1368,
			"max":[
				1.4441111087799072,
				0.4399999976158142,
				1.4775118827819824
			],
			"min":[
				-0.835908055305481,
				0,
				-0.736234724521637
			],
			"type":"VEC3"
		},
		{
			"bufferView":61,
			"componentType":5126,
			"count":1368,
			"type":"VEC3"
		},
		{
			"bufferView":62,
			"componentType":5126,
			"count":1368,
			"type":"VEC2"
		},
		{
			"bufferView":63,
			"componentType":5123,
			"count":2040,
			"type":"SCALAR"
		},
		{
			"bufferView":64,
			"componentType":5126,
			"count":432,
			"max":[
				0.7879282832145691,
				0.550000011920929,
				0.7961140871047974
			],
			"min":[
				-0.7722740173339844,
				0,
				-0.10229073464870453
			],
			"type":"VEC3"
		},
		{
			"bufferView":65,
			"componentType":5126,
			"count":432,
			"type":"VEC3"
		},
		{
			"bufferView":66,
			"componentType":5126,
			"count":432,
			"type":"VEC2"
		},
		{
			"bufferView":67,
			"componentType":5126,
			"count":144,
			"max":[
				0.7757810354232788,
				0.0820000022649765,
				0.8079080581665039
			],
			"min":[
				-0.753089189529419,
				0.012000000104308128,
				0.18486201763153076
			],
			"type":"VEC3"
		},
		{
			"bufferView":68,
			"componentType":5126,
			"count":144,
			"type":"VEC3"
		},
		{
			"bufferView":69,
			"componentType":5126,
			"count":144,
			"type":"VEC2"
		},
		{
			"bufferView":70,
			"componentType":5123,
			"count":216,
			"type":"SCALAR"
		},
		{
			"bufferView":71,
			"componentType":5126,
			"count":144,
			"max":[
				1.4264200925827026,
				0.32999998331069946,
				1.4775118827819824
			],
			"min":[
				-0.10272661596536636,
				0.2199999988079071,
				0.46461403369903564
			],
			"type":"VEC3"
		},
		{
			"bufferView":72,
			"componentType":5126,
			"count":144,
			"type":"VEC3"
		},
		{
			"bufferView":73,
			"componentType":5126,
			"count":144,
			"type":"VEC2"
		},
		{
			"bufferView":74,
			"componentType":5123,
			"count":204,
			"type":"SCALAR"
		},
		{
			"bufferView":75,
			"componentType":5126,
			"count":28,
			"max":[
				0.7250275611877441,
				0.7269999980926514,
				0.6111878156661987
			],
			"min":[
				0.05439605563879013,
				0.10999999940395355,
				-1.2825502157211304
			],
			"type":"VEC3"
		},
		{
			"bufferView":76,
			"componentType":5126,
			"count":28,
			"type":"VEC3"
		},
		{
			"bufferView":77,
			"componentType":5126,
			"count":28,
			"type":"VEC2"
		},
		{
			"bufferView":78,
			"componentType":5123,
			"count":42,
			"type":"SCALAR"
		},
		{
			"bufferView":79,
			"componentType":5126,
			"count":216,
			"max":[
				0.7742815613746643,
				0.33000001311302185,
				0.19126807153224945
			],
			"min":[
				0.46774882078170776,
				0,
				-0.11526466906070709
			],
			"type":"VEC3"
		},
		{
			"bufferView":80,
			"componentType":5126,
			"count":216,
			"type":"VEC3"
		},
		{
			"bufferView":81,
			"componentType":5126,
			"count":216,
			"type":"VEC2"
		},
		{
			"bufferView":82,
			"componentType":5123,
			"count":324,
			"type":"SCALAR"
		},
		{
			"bufferView":83,
			"componentType":5126,
			"count":228,
			"max":[
				0.7250275611877441,
				0.2199999988079071,
				-1.0208408832550049
			],
			"min":[
				0.46331822872161865,
				0,
				-1.2825502157211304
			],
			"type":"VEC3"
		},
		{
			"bufferView":84,
			"componentType":5126,
			"count":228,
			"type":"VEC3"
		},
		{
			"bufferView":85,
			"componentType":5126,
			"count":228,
			"type":"VEC2"
		},
		{
			"bufferView":86,
			"componentType":5123,
			"count":336,
			"type":"SCALAR"
		},
		{
			"bufferView":87,
			"componentType":5126,
			"count":228,
			"max":[
				1.4264200925827026,
				0.32999998331069946,
				0.8081074953079224
			],
			"min":[
				1.082926630973816,
				0,
				0.46461403369903564
			],
			"type":"VEC3"
		},
		{
			"bufferView":88,
			"componentType":5126,
			"count":228,
			"type":"VEC3"
		},
		{
			"bufferView":89,
			"componentType":5126,
			"count":228,
			"type":"VEC2"
		},
		{
			"bufferView":90,
			"componentType":5126,
			"count":24,
			"max":[
				0.3649618327617645,
				0.006000000052154064,
				0.3649618327617645
			],
			"min":[
				-0.3649618327617645,
				0.0020000000949949026,
				-0.3649618327617645
			],
			"type":"VEC3"
		},
		{
			"bufferView":91,
			"componentType":5126,
			"count":24,
			"type":"VEC3"
		},
		{
			"bufferView":92,
			"componentType":5126,
			"count":24,
			"type":"VEC2"
		},
		{
			"bufferView":93,
			"componentType":5123,
			"count":36,
			"type":"SCALAR"
		},
		{
			"bufferView":94,
			"componentType":5126,
			"count":466,
			"max":[
				0.20701617002487183,
				0.6075000166893005,
				0.20701617002487183
			],
			"min":[
				-0.20701617002487183,
				0,
				-0.487703412771225
			],
			"type":"VEC3"
		},
		{
			"bufferView":95,
			"componentType":5126,
			"count":466,
			"type":"VEC3"
		},
		{
			"bufferView":96,
			"componentType":5126,
			"count":466,
			"type":"VEC2"
		},
		{
			"bufferView":97,
			"componentType":5123,
			"count":948,
			"type":"SCALAR"
		},
		{
			"bufferView":98,
			"componentType":5126,
			"count":449,
			"max":[
				0.0992249995470047,
				0.8154000043869019,
				0.0992249995470047
			],
			"min":[
				-0.0992249995470047,
				0.5400000214576721,
				-0.0992249995470047
			],
			"type":"VEC3"
		},
		{
			"bufferView":99,
			"componentType":5126,
			"count":449,
			"type":"VEC3"
		},
		{
			"bufferView":100,
			"componentType":5126,
			"count":449,
			"type":"VEC2"
		},
		{
			"bufferView":101,
			"componentType":5123,
			"count":738,
			"type":"SCALAR"
		},
		{
			"bufferView":102,
			"componentType":5126,
			"count":1784,
			"max":[
				0.1876232922077179,
				0.576449990272522,
				0.1876232922077179
			],
			"min":[
				-0.1876232922077179,
				0.4724999964237213,
				-0.1876232922077179
			],
			"type":"VEC3"
		},
		{
			"bufferView":103,
			"componentType":5126,
			"count":1784,
			"type":"VEC3"
		},
		{
			"bufferView":104,
			"componentType":5126,
			"count":1784,
			"type":"VEC2"
		},
		{
			"bufferView":105,
			"componentType":5123,
			"count":2664,
			"type":"SCALAR"
		}
	],
	"bufferViews":[
		{
			"buffer":0,
			"byteLength":8352,
			"byteOffset":0,
			"target":34962
		},
		{
			"buffer":0,
			"byteLength":8352,
			"byteOffset":8352,
			"target":34962
		},
		{
			"buffer":0,
			"byteLength":5568,
			"byteOffset":16704,
			"target":34962
		},
		{
			"buffer":0,
			"byteLength":2280,
			"byteOffset":22272,
			"target":34963
		},
		{
			"buffer":0,
			"byteLength":66240,
			"byteOffset":24552,
			"target":34962
		},
		{
			"buffer":0,
			"byteLength":66240,
			"byteOffset":90792,
			"target":34962
		},
		{
			"buffer":0,
			"byteLength":44160,
			"byteOffset":157032,
			"target":34962
		},
		{
			"buffer":0,
			"byteLength":16560,
			"byteOffset":201192,
			"target":34963
		},
		{
			"buffer":0,
			"byteLength":140544,
			"byteOffset":217752,
			"target":34962
		},
		{
			"buffer":0,
			"byteLength":140544,
			"byteOffset":358296,
			"target":34962
		},
		{
			"buffer":0,
			"byteLength":93696,
			"byteOffset":498840,
			"target":34962
		},
		{
			"buffer":0,
			"byteLength":35136,
			"byteOffset":592536,
			"target":34963
		},
		{
			"buffer":0,
			"byteLength":18804,
			"byteOffset":627672,
			"target":34962
		},
		{
			"buffer":0,
			"byteLength":18804,
			"byteOffset":646476,
			"target":34962
		},
		{
			"buffer":0,
			"byteLength":12536,
			"byteOffset":665280,
			"target":34962
		},
		{
			"buffer":0,
			"byteLength":6084,
			"byteOffset":677816,
			"target":34963
		},
		{
			"buffer":0,
			"byteLength":12240,
			"byteOffset":683900,
			"target":34962
		},
		{
			"buffer":0,
			"byteLength":12240,
			"byteOffset":696140,
			"target":34962
		},
		{
			"buffer":0,
			"byteLength":8160,
			"byteOffset":708380,
			"target":34962
		},
		{
			"buffer":0,
			"byteLength":2040,
			"byteOffset":716540,
			"target":34963
		},
		{
			"buffer":0,
			"byteLength":23712,
			"byteOffset":718580,
			"target":34962
		},
		{
			"buffer":0,
			"byteLength":23712,
			"byteOffset":742292,
			"target":34962
		},
		{
			"buffer":0,
			"byteLength":15808,
			"byteOffset":766004,
			"target":34962
		},
		{
			"buffer":0,
			"byteLength":4224,
			"byteOffset":781812,
			"target":34963
		},
		{
			"buffer":0,
			"byteLength":26256,
			"byteOffset":786036,
			"target":34962
		},
		{
			"buffer":0,
			"byteLength":26256,
			"byteOffset":812292,
			"target":34962
		},
		{
			"buffer":0,
			"byteLength":17504,
			"byteOffset":838548,
			"target":34962
		},
		{
			"buffer":0,
			"byteLength":4632,
			"byteOffset":856052,
			"target":34963
		},
		{
			"buffer":0,
			"byteLength":13776,
			"byteOffset":860684,
			"target":34962
		},
		{
			"buffer":0,
			"byteLength":13776,
			"byteOffset":874460,
			"target":34962
		},
		{
			"buffer":0,
			"byteLength":9184,
			"byteOffset":888236,
			"target":34962
		},
		{
			"buffer":0,
			"byteLength":3396,
			"byteOffset":897420,
			"target":34963
		},
		{
			"buffer":0,
			"byteLength":65376,
			"byteOffset":900816,
			"target":34962
		},
		{
			"buffer":0,
			"byteLength":65376,
			"byteOffset":966192,
			"target":34962
		},
		{
			"buffer":0,
			"byteLength":43584,
			"byteOffset":1031568,
			"target":34962
		},
		{
			"buffer":0,
			"byteLength":16344,
			"byteOffset":1075152,
			"target":34963
		},
		{
			"buffer":0,
			"byteLength":6912,
			"byteOffset":1091496,
			"target":34962
		},
		{
			"buffer":0,
			"byteLength":6912,
			"byteOffset":1098408,
			"target":34962
		},
		{
			"buffer":0,
			"byteLength":4608,
			"byteOffset":1105320,
			"target":34962
		},
		{
			"buffer":0,
			"byteLength":1728,
			"byteOffset":1109928,
			"target":34963
		},
		{
			"buffer":0,
			"byteLength":6120,
			"byteOffset":1111656,
			"target":34962
		},
		{
			"buffer":0,
			"byteLength":6120,
			"byteOffset":1117776,
			"target":34962
		},
		{
			"buffer":0,
			"byteLength":4080,
			"byteOffset":1123896,
			"target":34962
		},
		{
			"buffer":0,
			"byteLength":1404,
			"byteOffset":1127976,
			"target":34963
		},
		{
			"buffer":0,
			"byteLength":8064,
			"byteOffset":1129380,
			"target":34962
		},
		{
			"buffer":0,
			"byteLength":8064,
			"byteOffset":1137444,
			"target":34962
		},
		{
			"buffer":0,
			"byteLength":5376,
			"byteOffset":1145508,
			"target":34962
		},
		{
			"buffer":0,
			"byteLength":2016,
			"byteOffset":1150884,
			"target":34963
		},
		{
			"buffer":0,
			"byteLength":354048,
			"byteOffset":1152900,
			"target":34962
		},
		{
			"buffer":0,
			"byteLength":354048,
			"byteOffset":1506948,
			"target":34962
		},
		{
			"buffer":0,
			"byteLength":236032,
			"byteOffset":1860996,
			"target":34962
		},
		{
			"buffer":0,
			"byteLength":88656,
			"byteOffset":2097028,
			"target":34963
		},
		{
			"buffer":0,
			"byteLength":5184,
			"byteOffset":2185684,
			"target":34962
		},
		{
			"buffer":0,
			"byteLength":5184,
			"byteOffset":2190868,
			"target":34962
		},
		{
			"buffer":0,
			"byteLength":3456,
			"byteOffset":2196052,
			"target":34962
		},
		{
			"buffer":0,
			"byteLength":1296,
			"byteOffset":2199508,
			"target":34963
		},
		{
			"buffer":0,
			"byteLength":8640,
			"byteOffset":2200804,
			"target":34962
		},
		{
			"buffer":0,
			"byteLength":8640,
			"byteOffset":2209444,
			"target":34962
		},
		{
			"buffer":0,
			"byteLength":5760,
			"byteOffset":2218084,
			"target":34962
		},
		{
			"buffer":0,
			"byteLength":2160,
			"byteOffset":2223844,
			"target":34963
		},
		{
			"buffer":0,
			"byteLength":16416,
			"byteOffset":2226004,
			"target":34962
		},
		{
			"buffer":0,
			"byteLength":16416,
			"byteOffset":2242420,
			"target":34962
		},
		{
			"buffer":0,
			"byteLength":10944,
			"byteOffset":2258836,
			"target":34962
		},
		{
			"buffer":0,
			"byteLength":4080,
			"byteOffset":2269780,
			"target":34963
		},
		{
			"buffer":0,
			"byteLength":5184,
			"byteOffset":2273860,
			"target":34962
		},
		{
			"buffer":0,
			"byteLength":5184,
			"byteOffset":2279044,
			"target":34962
		},
		{
			"buffer":0,
			"byteLength":3456,
			"byteOffset":2284228,
			"target":34962
		},
		{
			"buffer":0,
			"byteLength":1728,
			"byteOffset":2287684,
			"target":34962
		},
		{
			"buffer":0,
			"byteLength":1728,
			"byteOffset":2289412,
			"target":34962
		},
		{
			"buffer":0,
			"byteLength":1152,
			"byteOffset":2291140,
			"target":34962
		},
		{
			"buffer":0,
			"byteLength":432,
			"byteOffset":2292292,
			"target":34963
		},
		{
			"buffer":0,
			"byteLength":1728,
			"byteOffset":2292724,
			"target":34962
		},
		{
			"buffer":0,
			"byteLength":1728,
			"byteOffset":2294452,
			"target":34962
		},
		{
			"buffer":0,
			"byteLength":1152,
			"byteOffset":2296180,
			"target":34962
		},
		{
			"buffer":0,
			"byteLength":408,
			"byteOffset":2297332,
			"target":34963
		},
		{
			"buffer":0,
			"byteLength":336,
			"byteOffset":2297740,
			"target":34962
		},
		{
			"buffer":0,
			"byteLength":336,
			"byteOffset":2298076,
			"target":34962
		},
		{
			"buffer":0,
			"byteLength":224,
			"byteOffset":2298412,
			"target":34962
		},
		{
			"buffer":0,
			"byteLength":84,
			"byteOffset":2298636,
			"target":34963
		},
		{
			"buffer":0,
			"byteLength":2592,
			"byteOffset":2298720,
			"target":34962
		},
		{
			"buffer":0,
			"byteLength":2592,
			"byteOffset":2301312,
			"target":34962
		},
		{
			"buffer":0,
			"byteLength":1728,
			"byteOffset":2303904,
			"target":34962
		},
		{
			"buffer":0,
			"byteLength":648,
			"byteOffset":2305632,
			"target":34963
		},
		{
			"buffer":0,
			"byteLength":2736,
			"byteOffset":2306280,
			"target":34962
		},
		{
			"buffer":0,
			"byteLength":2736,
			"byteOffset":2309016,
			"target":34962
		},
		{
			"buffer":0,
			"byteLength":1824,
			"byteOffset":2311752,
			"target":34962
		},
		{
			"buffer":0,
			"byteLength":672,
			"byteOffset":2313576,
			"target":34963
		},
		{
			"buffer":0,
			"byteLength":2736,
			"byteOffset":2314248,
			"target":34962
		},
		{
			"buffer":0,
			"byteLength":2736,
			"byteOffset":2316984,
			"target":34962
		},
		{
			"buffer":0,
			"byteLength":1824,
			"byteOffset":2319720,
			"target":34962
		},
		{
			"buffer":0,
			"byteLength":288,
			"byteOffset":2321544,
			"target":34962
		},
		{
			"buffer":0,
			"byteLength":288,
			"byteOffset":2321832,
			"target":34962
		},
		{
			"buffer":0,
			"byteLength":192,
			"byteOffset":2322120,
			"target":34962
		},
		{
			"buffer":0,
			"byteLength":72,
			"byteOffset":2322312,
			"target":34963
		},
		{
			"buffer":0,
			"byteLength":5592,
			"byteOffset":2322384,
			"target":34962
		},
		{
			"buffer":0,
			"byteLength":5592,
			"byteOffset":2327976,
			"target":34962
		},
		{
			"buffer":0,
			"byteLength":3728,
			"byteOffset":2333568,
			"target":34962
		},
		{
			"buffer":0,
			"byteLength":1896,
			"byteOffset":2337296,
			"target":34963
		},
		{
			"buffer":0,
			"byteLength":5388,
			"byteOffset":2339192,
			"target":34962
		},
		{
			"buffer":0,
			"byteLength":5388,
			"byteOffset":2344580,
			"target":34962
		},
		{
			"buffer":0,
			"byteLength":3592,
			"byteOffset":2349968,
			"target":34962
		},
		{
			"buffer":0,
			"byteLength":1476,
			"byteOffset":2353560,
			"target":34963
		},
		{
			"buffer":0,
			"byteLength":21408,
			"byteOffset":2355036,
			"target":34962
		},
		{
			"buffer":0,
			"byteLength":21408,
			"byteOffset":2376444,
			"target":34962
		},
		{
			"buffer":0,
			"byteLength":14272,
			"byteOffset":2397852,
			"target":34962
		},
		{
			"buffer":0,
			"byteLength":5328,
			"byteOffset":2412124,
			"target":34963
		}
	],
	"samplers":[
		{
			"magFilter":9729,
			"minFilter":9987
		}
	],
	"buffers":[
		{
			"byteLength":2417452,
			"uri":"city_east_large.bin"
		}
	]
}
