{
	"asset":{
		"generator":"Khronos glTF Blender I/O v5.2.40",
		"version":"2.0"
	},
	"scene":0,
	"scenes":[
		{
			"name":"Scene",
			"nodes":[
				0
			]
		}
	],
	"nodes":[
		{
			"mesh":0,
			"name":"city_west_town"
		}
	],
	"materials":[
		{
			"doubleSided":true,
			"name":"garden",
			"normalTexture":{
				"index":0
			},
			"pbrMetallicRoughness":{
				"baseColorTexture":{
					"index":1
				},
				"metallicFactor":0
			}
		},
		{
			"doubleSided":true,
			"name":"ground_dirt",
			"normalTexture":{
				"index":2
			},
			"pbrMetallicRoughness":{
				"baseColorTexture":{
					"index":3
				},
				"metallicFactor":0
			}
		},
		{
			"doubleSided":true,
			"name":"concrete",
			"normalTexture":{
				"index":4
			},
			"pbrMetallicRoughness":{
				"baseColorTexture":{
					"index":5
				},
				"metallicFactor":0,
				"roughnessFactor":0.8999999761581421
			}
		},
		{
			"doubleSided":true,
			"name":"stone_light",
			"normalTexture":{
				"index":6
			},
			"pbrMetallicRoughness":{
				"baseColorTexture":{
					"index":7
				},
				"metallicFactor":0,
				"roughnessFactor":0.800000011920929
			}
		},
		{
			"doubleSided":true,
			"name":"roof_slate",
			"normalTexture":{
				"index":8
			},
			"pbrMetallicRoughness":{
				"baseColorTexture":{
					"index":9
				},
				"metallicFactor":0,
				"roughnessFactor":0.550000011920929
			}
		},
		{
			"doubleSided":true,
			"name":"gold",
			"pbrMetallicRoughness":{
				"baseColorFactor":[
					0.8299999833106995,
					0.6200000047683716,
					0.20000000298023224,
					1
				],
				"roughnessFactor":0.30000001192092896
			}
		},
		{
			"doubleSided":true,
			"name":"facade_ochre",
			"normalTexture":{
				"index":10
			},
			"pbrMetallicRoughness":{
				"baseColorTexture":{
					"index":11
				},
				"metallicFactor":0,
				"roughnessFactor":0.8500000238418579
			}
		},
		{
			"doubleSided":true,
			"name":"white",
			"pbrMetallicRoughness":{
				"baseColorFactor":[
					0.8999999761581421,
					0.8899999856948853,
					0.8500000238418579,
					1
				],
				"metallicFactor":0,
				"roughnessFactor":0.6000000238418579
			}
		},
		{
			"doubleSided":true,
			"name":"wood_red",
			"normalTexture":{
				"index":12
			},
			"pbrMetallicRoughness":{
				"baseColorTexture":{
					"index":13
				},
				"metallicFactor":0,
				"roughnessFactor":0.8500000238418579
			}
		},
		{
			"doubleSided":true,
			"name":"roof_terracotta",
			"normalTexture":{
				"index":14
			},
			"pbrMetallicRoughness":{
				"baseColorTexture":{
					"index":15
				},
				"metallicFactor":0,
				"roughnessFactor":0.699999988079071
			}
		},
		{
			"doubleSided":true,
			"name":"brick_red",
			"normalTexture":{
				"index":16
			},
			"pbrMetallicRoughness":{
				"baseColorTexture":{
					"index":17
				},
				"metallicFactor":0,
				"roughnessFactor":0.8999999761581421
			}
		},
		{
			"doubleSided":true,
			"name":"facade_grey",
			"normalTexture":{
				"index":18
			},
			"pbrMetallicRoughness":{
				"baseColorTexture":{
					"index":19
				},
				"metallicFactor":0,
				"roughnessFactor":0.8500000238418579
			}
		},
		{
			"doubleSided":true,
			"name":"facade_white",
			"normalTexture":{
				"index":20
			},
			"pbrMetallicRoughness":{
				"baseColorTexture":{
					"index":21
				},
				"metallicFactor":0,
				"roughnessFactor":0.8500000238418579
			}
		},
		{
			"doubleSided":true,
			"name":"trunk",
			"pbrMetallicRoughness":{
				"baseColorFactor":[
					0.25,
					0.17000000178813934,
					0.10000000149011612,
					1
				],
				"metallicFactor":0,
				"roughnessFactor":0.8999999761581421
			}
		},
		{
			"doubleSided":true,
			"name":"tree",
			"pbrMetallicRoughness":{
				"baseColorFactor":[
					0.12999999523162842,
					0.27000001072883606,
					0.09000000357627869,
					1
				],
				"metallicFactor":0,
				"roughnessFactor":0.8999999761581421
			}
		},
		{
			"doubleSided":true,
			"name":"facade_yellow",
			"normalTexture":{
				"index":22
			},
			"pbrMetallicRoughness":{
				"baseColorTexture":{
					"index":23
				},
				"metallicFactor":0,
				"roughnessFactor":0.8500000238418579
			}
		},
		{
			"doubleSided":true,
			"name":"roof_dark",
			"normalTexture":{
				"index":24
			},
			"pbrMetallicRoughness":{
				"baseColorTexture":{
					"index":25
				},
				"metallicFactor":0,
				"roughnessFactor":0.699999988079071
			}
		},
		{
			"doubleSided":true,
			"name":"facade_cream",
			"normalTexture":{
				"index":26
			},
			"pbrMetallicRoughness":{
				"baseColorTexture":{
					"index":27
				},
				"metallicFactor":0,
				"roughnessFactor":0.8500000238418579
			}
		},
		{
			"doubleSided":true,
			"name":"tree_dark",
			"pbrMetallicRoughness":{
				"baseColorFactor":[
					0.07999999821186066,
					0.1899999976158142,
					0.07999999821186066,
					1
				],
				"metallicFactor":0,
				"roughnessFactor":0.8999999761581421
			}
		},
		{
			"doubleSided":true,
			"name":"tree_autumn",
			"pbrMetallicRoughness":{
				"baseColorFactor":[
					0.3199999928474426,
					0.33000001311302185,
					0.10000000149011612,
					1
				],
				"metallicFactor":0,
				"roughnessFactor":0.8999999761581421
			}
		}
	],
	"meshes":[
		{
			"name":"part.1169",
			"primitives":[
				{
					"attributes":{
						"POSITION":0,
						"NORMAL":1,
						"TEXCOORD_0":2
					},
					"indices":3,
					"material":0
				},
				{
					"attributes":{
						"POSITION":4,
						"NORMAL":5,
						"TEXCOORD_0":6
					},
					"indices":7,
					"material":1
				},
				{
					"attributes":{
						"POSITION":8,
						"NORMAL":9,
						"TEXCOORD_0":10
					},
					"indices":11,
					"material":2
				},
				{
					"attributes":{
						"POSITION":12,
						"NORMAL":13,
						"TEXCOORD_0":14
					},
					"indices":15,
					"material":3
				},
				{
					"attributes":{
						"POSITION":16,
						"NORMAL":17,
						"TEXCOORD_0":18
					},
					"indices":19,
					"material":4
				},
				{
					"attributes":{
						"POSITION":20,
						"NORMAL":21,
						"TEXCOORD_0":22
					},
					"indices":23,
					"material":5
				},
				{
					"attributes":{
						"POSITION":24,
						"NORMAL":25,
						"TEXCOORD_0":26
					},
					"indices":27,
					"material":6
				},
				{
					"attributes":{
						"POSITION":28,
						"NORMAL":29,
						"TEXCOORD_0":30
					},
					"indices":31,
					"material":7
				},
				{
					"attributes":{
						"POSITION":32,
						"NORMAL":33,
						"TEXCOORD_0":34
					},
					"indices":35,
					"material":8
				},
				{
					"attributes":{
						"POSITION":36,
						"NORMAL":37,
						"TEXCOORD_0":38
					},
					"indices":39,
					"material":9
				},
				{
					"attributes":{
						"POSITION":40,
						"NORMAL":41,
						"TEXCOORD_0":42
					},
					"indices":35,
					"material":10
				},
				{
					"attributes":{
						"POSITION":43,
						"NORMAL":44,
						"TEXCOORD_0":45
					},
					"indices":46,
					"material":11
				},
				{
					"attributes":{
						"POSITION":47,
						"NORMAL":48,
						"TEXCOORD_0":49
					},
					"indices":50,
					"material":12
				},
				{
					"attributes":{
						"POSITION":51,
						"NORMAL":52,
						"TEXCOORD_0":53
					},
					"indices":54,
					"material":13
				},
				{
					"attributes":{
						"POSITION":55,
						"NORMAL":56,
						"TEXCOORD_0":57
					},
					"indices":58,
					"material":14
				},
				{
					"attributes":{
						"POSITION":59,
						"NORMAL":60,
						"TEXCOORD_0":61
					},
					"indices":62,
					"material":15
				},
				{
					"attributes":{
						"POSITION":63,
						"NORMAL":64,
						"TEXCOORD_0":65
					},
					"indices":66,
					"material":16
				},
				{
					"attributes":{
						"POSITION":67,
						"NORMAL":68,
						"TEXCOORD_0":69
					},
					"indices":70,
					"material":17
				},
				{
					"attributes":{
						"POSITION":71,
						"NORMAL":72,
						"TEXCOORD_0":73
					},
					"indices":74,
					"material":18
				},
				{
					"attributes":{
						"POSITION":75,
						"NORMAL":76,
						"TEXCOORD_0":77
					},
					"indices":78,
					"material":19
				}
			]
		}
	],
	"textures":[
		{
			"sampler":0,
			"source":0
		},
		{
			"sampler":0,
			"source":1
		},
		{
			"sampler":0,
			"source":2
		},
		{
			"sampler":0,
			"source":3
		},
		{
			"sampler":0,
			"source":4
		},
		{
			"sampler":0,
			"source":5
		},
		{
			"sampler":0,
			"source":6
		},
		{
			"sampler":0,
			"source":7
		},
		{
			"sampler":0,
			"source":8
		},
		{
			"sampler":0,
			"source":9
		},
		{
			"sampler":0,
			"source":10
		},
		{
			"sampler":0,
			"source":11
		},
		{
			"sampler":0,
			"source":12
		},
		{
			"sampler":0,
			"source":13
		},
		{
			"sampler":0,
			"source":14
		},
		{
			"sampler":0,
			"source":15
		},
		{
			"sampler":0,
			"source":16
		},
		{
			"sampler":0,
			"source":17
		},
		{
			"sampler":0,
			"source":18
		},
		{
			"sampler":0,
			"source":19
		},
		{
			"sampler":0,
			"source":20
		},
		{
			"sampler":0,
			"source":21
		},
		{
			"sampler":0,
			"source":22
		},
		{
			"sampler":0,
			"source":23
		},
		{
			"sampler":0,
			"source":24
		},
		{
			"sampler":0,
			"source":25
		},
		{
			"sampler":0,
			"source":26
		},
		{
			"sampler":0,
			"source":27
		}
	],
	"images":[
		{
			"mimeType":"image/png",
			"name":"garden_n",
			"uri":"textures/garden_n.png"
		},
		{
			"mimeType":"image/png",
			"name":"garden",
			"uri":"textures/garden.png"
		},
		{
			"mimeType":"image/png",
			"name":"ground_dirt_n",
			"uri":"textures/ground_dirt_n.png"
		},
		{
			"mimeType":"image/png",
			"name":"ground_dirt",
			"uri":"textures/ground_dirt.png"
		},
		{
			"mimeType":"image/png",
			"name":"concrete_n",
			"uri":"textures/concrete_n.png"
		},
		{
			"mimeType":"image/png",
			"name":"concrete",
			"uri":"textures/concrete.png"
		},
		{
			"mimeType":"image/png",
			"name":"stone_light_n",
			"uri":"textures/stone_light_n.png"
		},
		{
			"mimeType":"image/png",
			"name":"stone_light",
			"uri":"textures/stone_light.png"
		},
		{
			"mimeType":"image/png",
			"name":"roof_slate_n",
			"uri":"textures/roof_slate_n.png"
		},
		{
			"mimeType":"image/png",
			"name":"roof_slate",
			"uri":"textures/roof_slate.png"
		},
		{
			"mimeType":"image/png",
			"name":"facade_ochre_n",
			"uri":"textures/facade_ochre_n.png"
		},
		{
			"mimeType":"image/png",
			"name":"facade_ochre",
			"uri":"textures/facade_ochre.png"
		},
		{
			"mimeType":"image/png",
			"name":"wood_red_n",
			"uri":"textures/wood_red_n.png"
		},
		{
			"mimeType":"image/png",
			"name":"wood_red",
			"uri":"textures/wood_red.png"
		},
		{
			"mimeType":"image/png",
			"name":"roof_terracotta_n",
			"uri":"textures/roof_terracotta_n.png"
		},
		{
			"mimeType":"image/png",
			"name":"roof_terracotta",
			"uri":"textures/roof_terracotta.png"
		},
		{
			"mimeType":"image/png",
			"name":"brick_red_n",
			"uri":"textures/brick_red_n.png"
		},
		{
			"mimeType":"image/png",
			"name":"brick_red",
			"uri":"textures/brick_red.png"
		},
		{
			"mimeType":"image/png",
			"name":"facade_grey_n",
			"uri":"textures/facade_grey_n.png"
		},
		{
			"mimeType":"image/png",
			"name":"facade_grey",
			"uri":"textures/facade_grey.png"
		},
		{
			"mimeType":"image/png",
			"name":"facade_white_n",
			"uri":"textures/facade_white_n.png"
		},
		{
			"mimeType":"image/png",
			"name":"facade_white",
			"uri":"textures/facade_white.png"
		},
		{
			"mimeType":"image/png",
			"name":"facade_yellow_n",
			"uri":"textures/facade_yellow_n.png"
		},
		{
			"mimeType":"image/png",
			"name":"facade_yellow",
			"uri":"textures/facade_yellow.png"
		},
		{
			"mimeType":"image/png",
			"name":"roof_dark_n",
			"uri":"textures/roof_dark_n.png"
		},
		{
			"mimeType":"image/png",
			"name":"roof_dark",
			"uri":"textures/roof_dark.png"
		},
		{
			"mimeType":"image/png",
			"name":"facade_cream_n",
			"uri":"textures/facade_cream_n.png"
		},
		{
			"mimeType":"image/png",
			"name":"facade_cream",
			"uri":"textures/facade_cream.png"
		}
	],
	"accessors":[
		{
			"bufferView":0,
			"componentType":5126,
			"count":216,
			"max":[
				1.0205261707305908,
				0.0020000000949949026,
				0.8748563528060913
			],
			"min":[
				-1.0191302299499512,
				-0.029999999329447746,
				-0.8727800846099854
			],
			"type":"VEC3"
		},
		{
			"bufferView":1,
			"componentType":5126,
			"count":216,
			"type":"VEC3"
		},
		{
			"bufferView":2,
			"componentType":5126,
			"count":216,
			"type":"VEC2"
		},
		{
			"bufferView":3,
			"componentType":5123,
			"count":420,
			"type":"SCALAR"
		},
		{
			"bufferView":4,
			"componentType":5126,
			"count":528,
			"max":[
				0.6014391183853149,
				0.004999999888241291,
				0.7515174746513367
			],
			"min":[
				-0.6014391183853149,
				0.0020000000949949026,
				-0.7515174746513367
			],
			"type":"VEC3"
		},
		{
			"bufferView":5,
			"componentType":5126,
			"count":528,
			"type":"VEC3"
		},
		{
			"bufferView":6,
			"componentType":5126,
			"count":528,
			"type":"VEC2"
		},
		{
			"bufferView":7,
			"componentType":5123,
			"count":792,
			"type":"SCALAR"
		},
		{
			"bufferView":8,
			"componentType":5126,
			"count":1248,
			"max":[
				0.6018422245979309,
				0.34200000762939453,
				0.9091569185256958
			],
			"min":[
				-0.6018422245979309,
				0.0020000000949949026,
				-0.9132460951805115
			],
			"type":"VEC3"
		},
		{
			"bufferView":9,
			"componentType":5126,
			"count":1248,
			"type":"VEC3"
		},
		{
			"bufferView":10,
			"componentType":5126,
			"count":1248,
			"type":"VEC2"
		},
		{
			"bufferView":11,
			"componentType":5123,
			"count":1872,
			"type":"SCALAR"
		},
		{
			"bufferView":12,
			"componentType":5126,
			"count":604,
			"max":[
				0.43914806842803955,
				0.5399999618530273,
				0.9854167103767395
			],
			"min":[
				-0.4718664884567261,
				-0.1599999964237213,
				-1.0270072221755981
			],
			"type":"VEC3"
		},
		{
			"bufferView":13,
			"componentType":5126,
			"count":604,
			"type":"VEC3"
		},
		{
			"bufferView":14,
			"componentType":5126,
			"count":604,
			"type":"VEC2"
		},
		{
			"bufferView":15,
			"componentType":5123,
			"count":1044,
			"type":"SCALAR"
		},
		{
			"bufferView":16,
			"componentType":5126,
			"count":157,
			"max":[
				0.15432068705558777,
				0.8600000143051147,
				0.5449245572090149
			],
			"min":[
				-0.4718664884567261,
				0.20000000298023224,
				-0.9904685616493225
			],
			"type":"VEC3"
		},
		{
			"bufferView":17,
			"componentType":5126,
			"count":157,
			"type":"VEC3"
		},
		{
			"bufferView":18,
			"componentType":5126,
			"count":157,
			"type":"VEC2"
		},
		{
			"bufferView":19,
			"componentType":5123,
			"count":222,
			"type":"SCALAR"
		},
		{
			"bufferView":20,
			"componentType":5126,
			"count":48,
			"max":[
				0.11371824890375137,
				0.9100000262260437,
				0.006519689224660397
			],
			"min":[
				0.08621824532747269,
				0.8600000143051147,
				-0.0014803109224885702
			],
			"type":"VEC3"
		},
		{
			"bufferView":21,
			"componentType":5126,
			"count":48,
			"type":"VEC3"
		},
		{
			"bufferView":22,
			"componentType":5126,
			"count":48,
			"type":"VEC2"
		},
		{
			"bufferView":23,
			"componentType":5123,
			"count":72,
			"type":"SCALAR"
		},
		{
			"bufferView":24,
			"componentType":5126,
			"count":456,
			"max":[
				0.32361623644828796,
				0.2199999988079071,
				0.9789142608642578
			],
			"min":[
				0.05051296949386597,
				0,
				0.2906701862812042
			],
			"type":"VEC3"
		},
		{
			"bufferView":25,
			"componentType":5126,
			"count":456,
			"type":"VEC3"
		},
		{
			"bufferView":26,
			"componentType":5126,
			"count":456,
			"type":"VEC2"
		},
		{
			"bufferView":27,
			"componentType":5123,
			"count":672,
			"type":"SCALAR"
		},
		{
			"bufferView":28,
			"componentType":5126,
			"count":6360,
			"max":[
				0.43201345205307007,
				0.2280000001192093,
				0.9774959087371826
			],
			"min":[
				-0.442529559135437,
				0.024000000208616257,
				-1.0278857946395874
			],
			"type":"VEC3"
		},
		{
			"bufferView":29,
			"componentType":5126,
			"count":6360,
			"type":"VEC3"
		},
		{
			"bufferView":30,
			"componentType":5126,
			"count":6360,
			"type":"VEC2"
		},
		{
			"bufferView":31,
			"componentType":5123,
			"count":9540,
			"type":"SCALAR"
		},
		{
			"bufferView":32,
			"componentType":5126,
			"count":192,
			"max":[
				0.13195814192295074,
				0.07500000298023224,
				0.9162126183509827
			],
			"min":[
				-0.1600358635187149,
				0,
				-0.876522958278656
			],
			"type":"VEC3"
		},
		{
			"bufferView":33,
			"componentType":5126,
			"count":192,
			"type":"VEC3"
		},
		{
			"bufferView":34,
			"componentType":5126,
			"count":192,
			"type":"VEC2"
		},
		{
			"bufferView":35,
			"componentType":5123,
			"count":288,
			"type":"SCALAR"
		},
		{
			"bufferView":36,
			"componentType":5126,
			"count":120,
			"max":[
				0.4428165853023529,
				0.32999998331069946,
				0.9882990121841431
			],
			"min":[
				-0.45333266258239746,
				0.10999999940395355,
				-0.971386730670929
			],
			"type":"VEC3"
		},
		{
			"bufferView":37,
			"componentType":5126,
			"count":120,
			"type":"VEC3"
		},
		{
			"bufferView":38,
			"componentType":5126,
			"count":120,
			"type":"VEC2"
		},
		{
			"bufferView":39,
			"componentType":5123,
			"count":180,
			"type":"SCALAR"
		},
		{
			"bufferView":40,
			"componentType":5126,
			"count":192,
			"max":[
				0.290336012840271,
				0.32999998331069946,
				0.9040324687957764
			],
			"min":[
				-0.30085211992263794,
				0.15000000596046448,
				-0.9081217050552368
			],
			"type":"VEC3"
		},
		{
			"bufferView":41,
			"componentType":5126,
			"count":192,
			"type":"VEC3"
		},
		{
			"bufferView":42,
			"componentType":5126,
			"count":192,
			"type":"VEC2"
		},
		{
			"bufferView":43,
			"componentType":5126,
			"count":456,
			"max":[
				0.4428165853023529,
				0.32999998331069946,
				0.9882990121841431
			],
			"min":[
				-0.45333266258239746,
				0,
				-0.5710746049880981
			],
			"type":"VEC3"
		},
		{
			"bufferView":44,
			"componentType":5126,
			"count":456,
			"type":"VEC3"
		},
		{
			"bufferView":45,
			"componentType":5126,
			"count":456,
			"type":"VEC2"
		},
		{
			"bufferView":46,
			"componentType":5123,
			"count":672,
			"type":"SCALAR"
		},
		{
			"bufferView":47,
			"componentType":5126,
			"count":504,
			"max":[
				-0.045283690094947815,
				0.32999998331069946,
				0.5648640394210815
			],
			"min":[
				-0.4396439790725708,
				0,
				-1.0104080438613892
			],
			"type":"VEC3"
		},
		{
			"bufferView":48,
			"componentType":5126,
			"count":504,
			"type":"VEC3"
		},
		{
			"bufferView":49,
			"componentType":5126,
			"count":504,
			"type":"VEC2"
		},
		{
			"bufferView":50,
			"componentType":5123,
			"count":744,
			"type":"SCALAR"
		},
		{
			"bufferView":51,
			"componentType":5126,
			"count":722,
			"max":[
				0.8938703536987305,
				0.0670337826013565,
				0.6755228638648987
			],
			"min":[
				-0.8849779367446899,
				0,
				-0.7083562016487122
			],
			"type":"VEC3"
		},
		{
			"bufferView":52,
			"componentType":5126,
			"count":722,
			"type":"VEC3"
		},
		{
			"bufferView":53,
			"componentType":5126,
			"count":722,
			"type":"VEC2"
		},
		{
			"bufferView":54,
			"componentType":5123,
			"count":1404,
			"type":"SCALAR"
		},
		{
			"bufferView":55,
			"componentType":5126,
			"count":1636,
			"max":[
				0.711041271686554,
				0.2032875269651413,
				0.7223489880561829
			],
			"min":[
				-0.9306392073631287,
				0.033430878072977066,
				-0.7518049478530884
			],
			"type":"VEC3"
		},
		{
			"bufferView":56,
			"componentType":5126,
			"count":1636,
			"type":"VEC3"
		},
		{
			"bufferView":57,
			"componentType":5126,
			"count":1636,
			"type":"VEC2"
		},
		{
			"bufferView":58,
			"componentType":5123,
			"count":1692,
			"type":"SCALAR"
		},
		{
			"bufferView":59,
			"componentType":5126,
			"count":228,
			"max":[
				-0.056213900446891785,
				0.2199999988079071,
				-0.27198565006256104
			],
			"min":[
				-0.4185512661933899,
				0,
				-0.5767533779144287
			],
			"type":"VEC3"
		},
		{
			"bufferView":60,
			"componentType":5126,
			"count":228,
			"type":"VEC3"
		},
		{
			"bufferView":61,
			"componentType":5126,
			"count":228,
			"type":"VEC2"
		},
		{
			"bufferView":62,
			"componentType":5123,
			"count":336,
			"type":"SCALAR"
		},
		{
			"bufferView":63,
			"componentType":5126,
			"count":24,
			"max":[
				-0.056213900446891785,
				0.2199999988079071,
				-0.2919250726699829
			],
			"min":[
				-0.4185512661933899,
				0.10999999940395355,
				-0.5568139553070068
			],
			"type":"VEC3"
		},
		{
			"bufferView":64,
			"componentType":5126,
			"count":24,
			"type":"VEC3"
		},
		{
			"bufferView":65,
			"componentType":5126,
			"count":24,
			"type":"VEC2"
		},
		{
			"bufferView":66,
			"componentType":5123,
			"count":36,
			"type":"SCALAR"
		},
		{
			"bufferView":67,
			"componentType":5126,
			"count":228,
			"max":[
				0.35542625188827515,
				0.32999998331069946,
				-0.7090175747871399
			],
			"min":[
				0.09305711090564728,
				0,
				-0.971386730670929
			],
			"type":"VEC3"
		},
		{
			"bufferView":68,
			"componentType":5126,
			"count":228,
			"type":"VEC3"
		},
		{
			"bufferView":69,
			"componentType":5126,
			"count":228,
			"type":"VEC2"
		},
		{
			"bufferView":70,
			"componentType":5123,
			"count":336,
			"type":"SCALAR"
		},
		{
			"bufferView":71,
			"componentType":5126,
			"count":296,
			"max":[
				0.6732000112533569,
				0.15789039433002472,
				0.58637535572052
			],
			"min":[
				-0.9115975499153137,
				0.04424930363893509,
				-0.6772705316543579
			],
			"type":"VEC3"
		},
		{
			"bufferView":72,
			"componentType":5126,
			"count":296,
			"type":"VEC3"
		},
		{
			"bufferView":73,
			"componentType":5126,
			"count":296,
			"type":"VEC2"
		},
		{
			"bufferView":74,
			"componentType":5123,
			"count":312,
			"type":"SCALAR"
		},
		{
			"bufferView":75,
			"componentType":5126,
			"count":420,
			"max":[
				0.943104088306427,
				0.1920066624879837,
				0.30499133467674255
			],
			"min":[
				-0.9000840187072754,
				0.03171688690781593,
				-0.6492902040481567
			],
			"type":"VEC3"
		},
		{
			"bufferView":76,
			"componentType":5126,
			"count":420,
			"type":"VEC3"
		},
		{
			"bufferView":77,
			"componentType":5126,
			"count":420,
			"type":"VEC2"
		},
		{
			"bufferView":78,
			"componentType":5123,
			"count":420,
			"type":"SCALAR"
		}
	],
	"bufferViews":[
		{
			"buffer":0,
			"byteLength":2592,
			"byteOffset":0,
			"target":34962
		},
		{
			"buffer":0,
			"byteLength":2592,
			"byteOffset":2592,
			"target":34962
		},
		{
			"buffer":0,
			"byteLength":1728,
			"byteOffset":5184,
			"target":34962
		},
		{
			"buffer":0,
			"byteLength":840,
			"byteOffset":6912,
			"target":34963
		},
		{
			"buffer":0,
			"byteLength":6336,
			"byteOffset":7752,
			"target":34962
		},
		{
			"buffer":0,
			"byteLength":6336,
			"byteOffset":14088,
			"target":34962
		},
		{
			"buffer":0,
			"byteLength":4224,
			"byteOffset":20424,
			"target":34962
		},
		{
			"buffer":0,
			"byteLength":1584,
			"byteOffset":24648,
			"target":34963
		},
		{
			"buffer":0,
			"byteLength":14976,
			"byteOffset":26232,
			"target":34962
		},
		{
			"buffer":0,
			"byteLength":14976,
			"byteOffset":41208,
			"target":34962
		},
		{
			"buffer":0,
			"byteLength":9984,
			"byteOffset":56184,
			"target":34962
		},
		{
			"buffer":0,
			"byteLength":3744,
			"byteOffset":66168,
			"target":34963
		},
		{
			"buffer":0,
			"byteLength":7248,
			"byteOffset":69912,
			"target":34962
		},
		{
			"buffer":0,
			"byteLength":7248,
			"byteOffset":77160,
			"target":34962
		},
		{
			"buffer":0,
			"byteLength":4832,
			"byteOffset":84408,
			"target":34962
		},
		{
			"buffer":0,
			"byteLength":2088,
			"byteOffset":89240,
			"target":34963
		},
		{
			"buffer":0,
			"byteLength":1884,
			"byteOffset":91328,
			"target":34962
		},
		{
			"buffer":0,
			"byteLength":1884,
			"byteOffset":93212,
			"target":34962
		},
		{
			"buffer":0,
			"byteLength":1256,
			"byteOffset":95096,
			"target":34962
		},
		{
			"buffer":0,
			"byteLength":444,
			"byteOffset":96352,
			"target":34963
		},
		{
			"buffer":0,
			"byteLength":576,
			"byteOffset":96796,
			"target":34962
		},
		{
			"buffer":0,
			"byteLength":576,
			"byteOffset":97372,
			"target":34962
		},
		{
			"buffer":0,
			"byteLength":384,
			"byteOffset":97948,
			"target":34962
		},
		{
			"buffer":0,
			"byteLength":144,
			"byteOffset":98332,
			"target":34963
		},
		{
			"buffer":0,
			"byteLength":5472,
			"byteOffset":98476,
			"target":34962
		},
		{
			"buffer":0,
			"byteLength":5472,
			"byteOffset":103948,
			"target":34962
		},
		{
			"buffer":0,
			"byteLength":3648,
			"byteOffset":109420,
			"target":34962
		},
		{
			"buffer":0,
			"byteLength":1344,
			"byteOffset":113068,
			"target":34963
		},
		{
			"buffer":0,
			"byteLength":76320,
			"byteOffset":114412,
			"target":34962
		},
		{
			"buffer":0,
			"byteLength":76320,
			"byteOffset":190732,
			"target":34962
		},
		{
			"buffer":0,
			"byteLength":50880,
			"byteOffset":267052,
			"target":34962
		},
		{
			"buffer":0,
			"byteLength":19080,
			"byteOffset":317932,
			"target":34963
		},
		{
			"buffer":0,
			"byteLength":2304,
			"byteOffset":337012,
			"target":34962
		},
		{
			"buffer":0,
			"byteLength":2304,
			"byteOffset":339316,
			"target":34962
		},
		{
			"buffer":0,
			"byteLength":1536,
			"byteOffset":341620,
			"target":34962
		},
		{
			"buffer":0,
			"byteLength":576,
			"byteOffset":343156,
			"target":34963
		},
		{
			"buffer":0,
			"byteLength":1440,
			"byteOffset":343732,
			"target":34962
		},
		{
			"buffer":0,
			"byteLength":1440,
			"byteOffset":345172,
			"target":34962
		},
		{
			"buffer":0,
			"byteLength":960,
			"byteOffset":346612,
			"target":34962
		},
		{
			"buffer":0,
			"byteLength":360,
			"byteOffset":347572,
			"target":34963
		},
		{
			"buffer":0,
			"byteLength":2304,
			"byteOffset":347932,
			"target":34962
		},
		{
			"buffer":0,
			"byteLength":2304,
			"byteOffset":350236,
			"target":34962
		},
		{
			"buffer":0,
			"byteLength":1536,
			"byteOffset":352540,
			"target":34962
		},
		{
			"buffer":0,
			"byteLength":5472,
			"byteOffset":354076,
			"target":34962
		},
		{
			"buffer":0,
			"byteLength":5472,
			"byteOffset":359548,
			"target":34962
		},
		{
			"buffer":0,
			"byteLength":3648,
			"byteOffset":365020,
			"target":34962
		},
		{
			"buffer":0,
			"byteLength":1344,
			"byteOffset":368668,
			"target":34963
		},
		{
			"buffer":0,
			"byteLength":6048,
			"byteOffset":370012,
			"target":34962
		},
		{
			"buffer":0,
			"byteLength":6048,
			"byteOffset":376060,
			"target":34962
		},
		{
			"buffer":0,
			"byteLength":4032,
			"byteOffset":382108,
			"target":34962
		},
		{
			"buffer":0,
			"byteLength":1488,
			"byteOffset":386140,
			"target":34963
		},
		{
			"buffer":0,
			"byteLength":8664,
			"byteOffset":387628,
			"target":34962
		},
		{
			"buffer":0,
			"byteLength":8664,
			"byteOffset":396292,
			"target":34962
		},
		{
			"buffer":0,
			"byteLength":5776,
			"byteOffset":404956,
			"target":34962
		},
		{
			"buffer":0,
			"byteLength":2808,
			"byteOffset":410732,
			"target":34963
		},
		{
			"buffer":0,
			"byteLength":19632,
			"byteOffset":413540,
			"target":34962
		},
		{
			"buffer":0,
			"byteLength":19632,
			"byteOffset":433172,
			"target":34962
		},
		{
			"buffer":0,
			"byteLength":13088,
			"byteOffset":452804,
			"target":34962
		},
		{
			"buffer":0,
			"byteLength":3384,
			"byteOffset":465892,
			"target":34963
		},
		{
			"buffer":0,
			"byteLength":2736,
			"byteOffset":469276,
			"target":34962
		},
		{
			"buffer":0,
			"byteLength":2736,
			"byteOffset":472012,
			"target":34962
		},
		{
			"buffer":0,
			"byteLength":1824,
			"byteOffset":474748,
			"target":34962
		},
		{
			"buffer":0,
			"byteLength":672,
			"byteOffset":476572,
			"target":34963
		},
		{
			"buffer":0,
			"byteLength":288,
			"byteOffset":477244,
			"target":34962
		},
		{
			"buffer":0,
			"byteLength":288,
			"byteOffset":477532,
			"target":34962
		},
		{
			"buffer":0,
			"byteLength":192,
			"byteOffset":477820,
			"target":34962
		},
		{
			"buffer":0,
			"byteLength":72,
			"byteOffset":478012,
			"target":34963
		},
		{
			"buffer":0,
			"byteLength":2736,
			"byteOffset":478084,
			"target":34962
		},
		{
			"buffer":0,
			"byteLength":2736,
			"byteOffset":480820,
			"target":34962
		},
		{
			"buffer":0,
			"byteLength":1824,
			"byteOffset":483556,
			"target":34962
		},
		{
			"buffer":0,
			"byteLength":672,
			"byteOffset":485380,
			"target":34963
		},
		{
			"buffer":0,
			"byteLength":3552,
			"byteOffset":486052,
			"target":34962
		},
		{
			"buffer":0,
			"byteLength":3552,
			"byteOffset":489604,
			"target":34962
		},
		{
			"buffer":0,
			"byteLength":2368,
			"byteOffset":493156,
			"target":34962
		},
		{
			"buffer":0,
			"byteLength":624,
			"byteOffset":495524,
			"target":34963
		},
		{
			"buffer":0,
			"byteLength":5040,
			"byteOffset":496148,
			"target":34962
		},
		{
			"buffer":0,
			"byteLength":5040,
			"byteOffset":501188,
			"target":34962
		},
		{
			"buffer":0,
			"byteLength":3360,
			"byteOffset":506228,
			"target":34962
		},
		{
			"buffer":0,
			"byteLength":840,
			"byteOffset":509588,
			"target":34963
		}
	],
	"samplers":[
		{
			"magFilter":9729,
			"minFilter":9987
		}
	],
	"buffers":[
		{
			"byteLength":510428,
			"uri":"city_west_town.bin"
		}
	]
}
