{
	"asset":{
		"generator":"Khronos glTF Blender I/O v5.2.40",
		"version":"2.0"
	},
	"scene":0,
	"scenes":[
		{
			"name":"Scene",
			"nodes":[
				0
			]
		}
	],
	"nodes":[
		{
			"mesh":0,
			"name":"city_nordic_medium"
		}
	],
	"materials":[
		{
			"doubleSided":true,
			"name":"garden",
			"normalTexture":{
				"index":0
			},
			"pbrMetallicRoughness":{
				"baseColorTexture":{
					"index":1
				},
				"metallicFactor":0
			}
		},
		{
			"doubleSided":true,
			"name":"asphalt",
			"normalTexture":{
				"index":2
			},
			"pbrMetallicRoughness":{
				"baseColorTexture":{
					"index":3
				},
				"metallicFactor":0,
				"roughnessFactor":0.8500000238418579
			}
		},
		{
			"doubleSided":true,
			"name":"concrete",
			"normalTexture":{
				"index":4
			},
			"pbrMetallicRoughness":{
				"baseColorTexture":{
					"index":5
				},
				"metallicFactor":0,
				"roughnessFactor":0.8999999761581421
			}
		},
		{
			"doubleSided":true,
			"name":"trunk",
			"pbrMetallicRoughness":{
				"baseColorFactor":[
					0.25,
					0.17000000178813934,
					0.10000000149011612,
					1
				],
				"metallicFactor":0,
				"roughnessFactor":0.8999999761581421
			}
		},
		{
			"doubleSided":true,
			"name":"tree_dark",
			"pbrMetallicRoughness":{
				"baseColorFactor":[
					0.07999999821186066,
					0.1899999976158142,
					0.07999999821186066,
					1
				],
				"metallicFactor":0,
				"roughnessFactor":0.8999999761581421
			}
		},
		{
			"doubleSided":true,
			"name":"tree",
			"pbrMetallicRoughness":{
				"baseColorFactor":[
					0.12999999523162842,
					0.27000001072883606,
					0.09000000357627869,
					1
				],
				"metallicFactor":0,
				"roughnessFactor":0.8999999761581421
			}
		},
		{
			"doubleSided":true,
			"name":"wood_red",
			"normalTexture":{
				"index":6
			},
			"pbrMetallicRoughness":{
				"baseColorTexture":{
					"index":7
				},
				"metallicFactor":0,
				"roughnessFactor":0.8500000238418579
			}
		},
		{
			"doubleSided":true,
			"name":"white",
			"pbrMetallicRoughness":{
				"baseColorFactor":[
					0.8999999761581421,
					0.8899999856948853,
					0.8500000238418579,
					1
				],
				"metallicFactor":0,
				"roughnessFactor":0.6000000238418579
			}
		},
		{
			"doubleSided":true,
			"name":"roof_dark",
			"normalTexture":{
				"index":8
			},
			"pbrMetallicRoughness":{
				"baseColorTexture":{
					"index":9
				},
				"metallicFactor":0,
				"roughnessFactor":0.699999988079071
			}
		},
		{
			"doubleSided":true,
			"name":"brick_red",
			"normalTexture":{
				"index":10
			},
			"pbrMetallicRoughness":{
				"baseColorTexture":{
					"index":11
				},
				"metallicFactor":0,
				"roughnessFactor":0.8999999761581421
			}
		},
		{
			"doubleSided":true,
			"name":"stone_light",
			"normalTexture":{
				"index":12
			},
			"pbrMetallicRoughness":{
				"baseColorTexture":{
					"index":13
				},
				"metallicFactor":0,
				"roughnessFactor":0.800000011920929
			}
		},
		{
			"doubleSided":true,
			"name":"wood_white",
			"normalTexture":{
				"index":14
			},
			"pbrMetallicRoughness":{
				"baseColorTexture":{
					"index":15
				},
				"metallicFactor":0,
				"roughnessFactor":0.8500000238418579
			}
		},
		{
			"doubleSided":true,
			"name":"roof_slate",
			"normalTexture":{
				"index":16
			},
			"pbrMetallicRoughness":{
				"baseColorTexture":{
					"index":17
				},
				"metallicFactor":0,
				"roughnessFactor":0.550000011920929
			}
		},
		{
			"doubleSided":true,
			"name":"wood_yellow",
			"normalTexture":{
				"index":18
			},
			"pbrMetallicRoughness":{
				"baseColorTexture":{
					"index":19
				},
				"metallicFactor":0,
				"roughnessFactor":0.8500000238418579
			}
		},
		{
			"doubleSided":true,
			"name":"city_paving_warm",
			"normalTexture":{
				"index":20
			},
			"pbrMetallicRoughness":{
				"baseColorTexture":{
					"index":21
				},
				"metallicFactor":0,
				"roughnessFactor":0.9200000166893005
			}
		},
		{
			"doubleSided":true,
			"name":"gold",
			"pbrMetallicRoughness":{
				"baseColorFactor":[
					0.8299999833106995,
					0.6200000047683716,
					0.20000000298023224,
					1
				],
				"roughnessFactor":0.30000001192092896
			}
		},
		{
			"doubleSided":true,
			"name":"tree_autumn",
			"pbrMetallicRoughness":{
				"baseColorFactor":[
					0.3199999928474426,
					0.33000001311302185,
					0.10000000149011612,
					1
				],
				"metallicFactor":0,
				"roughnessFactor":0.8999999761581421
			}
		}
	],
	"meshes":[
		{
			"name":"part.14121",
			"primitives":[
				{
					"attributes":{
						"POSITION":0,
						"NORMAL":1,
						"TEXCOORD_0":2
					},
					"indices":3,
					"material":0
				},
				{
					"attributes":{
						"POSITION":4,
						"NORMAL":5,
						"TEXCOORD_0":6
					},
					"indices":7,
					"material":1
				},
				{
					"attributes":{
						"POSITION":8,
						"NORMAL":9,
						"TEXCOORD_0":10
					},
					"indices":11,
					"material":2
				},
				{
					"attributes":{
						"POSITION":12,
						"NORMAL":13,
						"TEXCOORD_0":14
					},
					"indices":15,
					"material":3
				},
				{
					"attributes":{
						"POSITION":16,
						"NORMAL":17,
						"TEXCOORD_0":18
					},
					"indices":19,
					"material":4
				},
				{
					"attributes":{
						"POSITION":20,
						"NORMAL":21,
						"TEXCOORD_0":22
					},
					"indices":23,
					"material":5
				},
				{
					"attributes":{
						"POSITION":24,
						"NORMAL":25,
						"TEXCOORD_0":26
					},
					"indices":27,
					"material":6
				},
				{
					"attributes":{
						"POSITION":28,
						"NORMAL":29,
						"TEXCOORD_0":30
					},
					"indices":31,
					"material":7
				},
				{
					"attributes":{
						"POSITION":32,
						"NORMAL":33,
						"TEXCOORD_0":34
					},
					"indices":35,
					"material":8
				},
				{
					"attributes":{
						"POSITION":36,
						"NORMAL":37,
						"TEXCOORD_0":38
					},
					"indices":39,
					"material":9
				},
				{
					"attributes":{
						"POSITION":40,
						"NORMAL":41,
						"TEXCOORD_0":42
					},
					"indices":43,
					"material":10
				},
				{
					"attributes":{
						"POSITION":44,
						"NORMAL":45,
						"TEXCOORD_0":46
					},
					"indices":47,
					"material":11
				},
				{
					"attributes":{
						"POSITION":48,
						"NORMAL":49,
						"TEXCOORD_0":50
					},
					"indices":51,
					"material":12
				},
				{
					"attributes":{
						"POSITION":52,
						"NORMAL":53,
						"TEXCOORD_0":54
					},
					"indices":55,
					"material":13
				},
				{
					"attributes":{
						"POSITION":56,
						"NORMAL":57,
						"TEXCOORD_0":58
					},
					"indices":59,
					"material":14
				},
				{
					"attributes":{
						"POSITION":60,
						"NORMAL":61,
						"TEXCOORD_0":62
					},
					"indices":63,
					"material":15
				},
				{
					"attributes":{
						"POSITION":64,
						"NORMAL":65,
						"TEXCOORD_0":66
					},
					"indices":67,
					"material":16
				}
			]
		}
	],
	"textures":[
		{
			"sampler":0,
			"source":0
		},
		{
			"sampler":0,
			"source":1
		},
		{
			"sampler":0,
			"source":2
		},
		{
			"sampler":0,
			"source":3
		},
		{
			"sampler":0,
			"source":4
		},
		{
			"sampler":0,
			"source":5
		},
		{
			"sampler":0,
			"source":6
		},
		{
			"sampler":0,
			"source":7
		},
		{
			"sampler":0,
			"source":8
		},
		{
			"sampler":0,
			"source":9
		},
		{
			"sampler":0,
			"source":10
		},
		{
			"sampler":0,
			"source":11
		},
		{
			"sampler":0,
			"source":12
		},
		{
			"sampler":0,
			"source":13
		},
		{
			"sampler":0,
			"source":14
		},
		{
			"sampler":0,
			"source":15
		},
		{
			"sampler":0,
			"source":16
		},
		{
			"sampler":0,
			"source":17
		},
		{
			"sampler":0,
			"source":18
		},
		{
			"sampler":0,
			"source":19
		},
		{
			"sampler":0,
			"source":20
		},
		{
			"sampler":0,
			"source":21
		}
	],
	"images":[
		{
			"mimeType":"image/png",
			"name":"garden_n",
			"uri":"textures/garden_n.png"
		},
		{
			"mimeType":"image/png",
			"name":"garden",
			"uri":"textures/garden.png"
		},
		{
			"mimeType":"image/png",
			"name":"asphalt_n",
			"uri":"textures/asphalt_n.png"
		},
		{
			"mimeType":"image/png",
			"name":"asphalt",
			"uri":"textures/asphalt.png"
		},
		{
			"mimeType":"image/png",
			"name":"concrete_n",
			"uri":"textures/concrete_n.png"
		},
		{
			"mimeType":"image/png",
			"name":"concrete",
			"uri":"textures/concrete.png"
		},
		{
			"mimeType":"image/png",
			"name":"wood_red_n",
			"uri":"textures/wood_red_n.png"
		},
		{
			"mimeType":"image/png",
			"name":"wood_red",
			"uri":"textures/wood_red.png"
		},
		{
			"mimeType":"image/png",
			"name":"roof_dark_n",
			"uri":"textures/roof_dark_n.png"
		},
		{
			"mimeType":"image/png",
			"name":"roof_dark",
			"uri":"textures/roof_dark.png"
		},
		{
			"mimeType":"image/png",
			"name":"brick_red_n",
			"uri":"textures/brick_red_n.png"
		},
		{
			"mimeType":"image/png",
			"name":"brick_red",
			"uri":"textures/brick_red.png"
		},
		{
			"mimeType":"image/png",
			"name":"stone_light_n",
			"uri":"textures/stone_light_n.png"
		},
		{
			"mimeType":"image/png",
			"name":"stone_light",
			"uri":"textures/stone_light.png"
		},
		{
			"mimeType":"image/png",
			"name":"wood_white_n",
			"uri":"textures/wood_white_n.png"
		},
		{
			"mimeType":"image/png",
			"name":"wood_white",
			"uri":"textures/wood_white.png"
		},
		{
			"mimeType":"image/png",
			"name":"roof_slate_n",
			"uri":"textures/roof_slate_n.png"
		},
		{
			"mimeType":"image/png",
			"name":"roof_slate",
			"uri":"textures/roof_slate.png"
		},
		{
			"mimeType":"image/png",
			"name":"wood_yellow_n",
			"uri":"textures/wood_yellow_n.png"
		},
		{
			"mimeType":"image/png",
			"name":"wood_yellow",
			"uri":"textures/wood_yellow.png"
		},
		{
			"mimeType":"image/png",
			"name":"city_paving_warm_n",
			"uri":"textures/city_paving_warm_n.png"
		},
		{
			"mimeType":"image/png",
			"name":"city_paving_warm",
			"uri":"textures/city_paving_warm.png"
		}
	],
	"accessors":[
		{
			"bufferView":0,
			"componentType":5126,
			"count":408,
			"max":[
				1.5371816158294678,
				0.003000000026077032,
				1.3071566820144653
			],
			"min":[
				-1.5791610479354858,
				-0.029999999329447746,
				-1.356028437614441
			],
			"type":"VEC3"
		},
		{
			"bufferView":1,
			"componentType":5126,
			"count":408,
			"type":"VEC3"
		},
		{
			"bufferView":2,
			"componentType":5126,
			"count":408,
			"type":"VEC2"
		},
		{
			"bufferView":3,
			"componentType":5123,
			"count":708,
			"type":"SCALAR"
		},
		{
			"bufferView":4,
			"componentType":5126,
			"count":2400,
			"max":[
				1.1088517904281616,
				0.004999999888241291,
				0.9861666560173035
			],
			"min":[
				-1.1088517904281616,
				0.0020000000949949026,
				-0.9861666560173035
			],
			"type":"VEC3"
		},
		{
			"bufferView":5,
			"componentType":5126,
			"count":2400,
			"type":"VEC3"
		},
		{
			"bufferView":6,
			"componentType":5126,
			"count":2400,
			"type":"VEC2"
		},
		{
			"bufferView":7,
			"componentType":5123,
			"count":3600,
			"type":"SCALAR"
		},
		{
			"bufferView":8,
			"componentType":5126,
			"count":5040,
			"max":[
				1.1090251207351685,
				0.5720000267028809,
				0.9863400459289551
			],
			"min":[
				-1.1090251207351685,
				0.0020000000949949026,
				-0.9863400459289551
			],
			"type":"VEC3"
		},
		{
			"bufferView":9,
			"componentType":5126,
			"count":5040,
			"type":"VEC3"
		},
		{
			"bufferView":10,
			"componentType":5126,
			"count":5040,
			"type":"VEC2"
		},
		{
			"bufferView":11,
			"componentType":5123,
			"count":7560,
			"type":"SCALAR"
		},
		{
			"bufferView":12,
			"componentType":5126,
			"count":1082,
			"max":[
				1.4728940725326538,
				0.06743790209293365,
				1.3138909339904785
			],
			"min":[
				-1.484705924987793,
				0,
				-1.1744431257247925
			],
			"type":"VEC3"
		},
		{
			"bufferView":13,
			"componentType":5126,
			"count":1082,
			"type":"VEC3"
		},
		{
			"bufferView":14,
			"componentType":5126,
			"count":1082,
			"type":"VEC2"
		},
		{
			"bufferView":15,
			"componentType":5123,
			"count":2106,
			"type":"SCALAR"
		},
		{
			"bufferView":16,
			"componentType":5126,
			"count":1288,
			"max":[
				1.5148940086364746,
				0.20444172620773315,
				1.3428423404693604
			],
			"min":[
				-1.5213569402694702,
				0.022615952417254448,
				-1.2253022193908691
			],
			"type":"VEC3"
		},
		{
			"bufferView":17,
			"componentType":5126,
			"count":1288,
			"type":"VEC3"
		},
		{
			"bufferView":18,
			"componentType":5126,
			"count":1288,
			"type":"VEC2"
		},
		{
			"bufferView":19,
			"componentType":5123,
			"count":1536,
			"type":"SCALAR"
		},
		{
			"bufferView":20,
			"componentType":5126,
			"count":1136,
			"max":[
				1.5023940801620483,
				0.2113054245710373,
				1.3550288677215576
			],
			"min":[
				-1.2531509399414062,
				0.02813868783414364,
				-1.1347174644470215
			],
			"type":"VEC3"
		},
		{
			"bufferView":21,
			"componentType":5126,
			"count":1136,
			"type":"VEC3"
		},
		{
			"bufferView":22,
			"componentType":5126,
			"count":1136,
			"type":"VEC2"
		},
		{
			"bufferView":23,
			"componentType":5123,
			"count":1392,
			"type":"SCALAR"
		},
		{
			"bufferView":24,
			"componentType":5126,
			"count":876,
			"max":[
				0.7541384696960449,
				0.3499999940395355,
				0.8630262017250061
			],
			"min":[
				-0.7636290788650513,
				0,
				-0.6443172693252563
			],
			"type":"VEC3"
		},
		{
			"bufferView":25,
			"componentType":5126,
			"count":876,
			"type":"VEC3"
		},
		{
			"bufferView":26,
			"componentType":5126,
			"count":876,
			"type":"VEC2"
		},
		{
			"bufferView":27,
			"componentType":5123,
			"count":1296,
			"type":"SCALAR"
		},
		{
			"bufferView":28,
			"componentType":5126,
			"count":5976,
			"max":[
				0.8224875330924988,
				0.33799999952316284,
				0.8480657339096069
			],
			"min":[
				-0.7854561805725098,
				0.024000000208616257,
				-0.7464776039123535
			],
			"type":"VEC3"
		},
		{
			"bufferView":29,
			"componentType":5126,
			"count":5976,
			"type":"VEC3"
		},
		{
			"bufferView":30,
			"componentType":5126,
			"count":5976,
			"type":"VEC2"
		},
		{
			"bufferView":31,
			"componentType":5123,
			"count":8964,
			"type":"SCALAR"
		},
		{
			"bufferView":32,
			"componentType":5126,
			"count":205,
			"max":[
				0.842357337474823,
				0.8600000143051147,
				0.8630262017250061
			],
			"min":[
				-0.8412299156188965,
				0.10999999940395355,
				-0.8232454061508179
			],
			"type":"VEC3"
		},
		{
			"bufferView":33,
			"componentType":5126,
			"count":205,
			"type":"VEC3"
		},
		{
			"bufferView":34,
			"componentType":5126,
			"count":205,
			"type":"VEC2"
		},
		{
			"bufferView":35,
			"componentType":5123,
			"count":294,
			"type":"SCALAR"
		},
		{
			"bufferView":36,
			"componentType":5126,
			"count":672,
			"max":[
				0.82210373878479,
				0.5600000023841858,
				0.7333585023880005
			],
			"min":[
				-0.8209763169288635,
				0,
				-0.6235508918762207
			],
			"type":"VEC3"
		},
		{
			"bufferView":37,
			"componentType":5126,
			"count":672,
			"type":"VEC3"
		},
		{
			"bufferView":38,
			"componentType":5126,
			"count":672,
			"type":"VEC2"
		},
		{
			"bufferView":39,
			"componentType":5123,
			"count":1008,
			"type":"SCALAR"
		},
		{
			"bufferView":40,
			"componentType":5126,
			"count":5640,
			"max":[
				0.8398804068565369,
				0.5399999618530273,
				0.8599561452865601
			],
			"min":[
				-0.8387529850006104,
				-0.1599999964237213,
				-0.819583535194397
			],
			"type":"VEC3"
		},
		{
			"bufferView":41,
			"componentType":5126,
			"count":5640,
			"type":"VEC3"
		},
		{
			"bufferView":42,
			"componentType":5126,
			"count":5640,
			"type":"VEC2"
		},
		{
			"bufferView":43,
			"componentType":5123,
			"count":8460,
			"type":"SCALAR"
		},
		{
			"bufferView":44,
			"componentType":5126,
			"count":360,
			"max":[
				0.7483050227165222,
				0.5199999809265137,
				0.3656831979751587
			],
			"min":[
				-0.7929869890213013,
				0,
				-0.7360238432884216
			],
			"type":"VEC3"
		},
		{
			"bufferView":45,
			"componentType":5126,
			"count":360,
			"type":"VEC3"
		},
		{
			"bufferView":46,
			"componentType":5126,
			"count":360,
			"type":"VEC2"
		},
		{
			"bufferView":47,
			"componentType":5123,
			"count":528,
			"type":"SCALAR"
		},
		{
			"bufferView":48,
			"componentType":5126,
			"count":48,
			"max":[
				0.1342615783214569,
				0.3499999940395355,
				0.8563048243522644
			],
			"min":[
				-0.7929869890213013,
				0.2199999988079071,
				-0.7360238432884216
			],
			"type":"VEC3"
		},
		{
			"bufferView":49,
			"componentType":5126,
			"count":48,
			"type":"VEC3"
		},
		{
			"bufferView":50,
			"componentType":5126,
			"count":48,
			"type":"VEC2"
		},
		{
			"bufferView":51,
			"componentType":5123,
			"count":72,
			"type":"SCALAR"
		},
		{
			"bufferView":52,
			"componentType":5126,
			"count":456,
			"max":[
				0.804710865020752,
				0.46000000834465027,
				0.8563048243522644
			],
			"min":[
				-0.14366552233695984,
				0,
				-0.8232454061508179
			],
			"type":"VEC3"
		},
		{
			"bufferView":53,
			"componentType":5126,
			"count":456,
			"type":"VEC3"
		},
		{
			"bufferView":54,
			"componentType":5126,
			"count":456,
			"type":"VEC2"
		},
		{
			"bufferView":55,
			"componentType":5123,
			"count":672,
			"type":"SCALAR"
		},
		{
			"bufferView":56,
			"componentType":5126,
			"count":24,
			"max":[
				0.3092993497848511,
				0.006000000052154064,
				0.3092993497848511
			],
			"min":[
				-0.3092993497848511,
				0.0020000000949949026,
				-0.3092993497848511
			],
			"type":"VEC3"
		},
		{
			"bufferView":57,
			"componentType":5126,
			"count":24,
			"type":"VEC3"
		},
		{
			"bufferView":58,
			"componentType":5126,
			"count":24,
			"type":"VEC2"
		},
		{
			"bufferView":59,
			"componentType":5123,
			"count":36,
			"type":"SCALAR"
		},
		{
			"bufferView":60,
			"componentType":5126,
			"count":48,
			"max":[
				0.017002267763018608,
				0.9100000262260437,
				0.30398237705230713
			],
			"min":[
				-0.010497733019292355,
				0.8600000143051147,
				0.29598236083984375
			],
			"type":"VEC3"
		},
		{
			"bufferView":61,
			"componentType":5126,
			"count":48,
			"type":"VEC3"
		},
		{
			"bufferView":62,
			"componentType":5126,
			"count":48,
			"type":"VEC2"
		},
		{
			"bufferView":63,
			"componentType":5123,
			"count":72,
			"type":"SCALAR"
		},
		{
			"bufferView":64,
			"componentType":5126,
			"count":180,
			"max":[
				1.004891276359558,
				0.1945917010307312,
				0.9516288042068481
			],
			"min":[
				0.910126268863678,
				0.059494659304618835,
				0.8498408794403076
			],
			"type":"VEC3"
		},
		{
			"bufferView":65,
			"componentType":5126,
			"count":180,
			"type":"VEC3"
		},
		{
			"bufferView":66,
			"componentType":5126,
			"count":180,
			"type":"VEC2"
		},
		{
			"bufferView":67,
			"componentType":5123,
			"count":180,
			"type":"SCALAR"
		}
	],
	"bufferViews":[
		{
			"buffer":0,
			"byteLength":4896,
			"byteOffset":0,
			"target":34962
		},
		{
			"buffer":0,
			"byteLength":4896,
			"byteOffset":4896,
			"target":34962
		},
		{
			"buffer":0,
			"byteLength":3264,
			"byteOffset":9792,
			"target":34962
		},
		{
			"buffer":0,
			"byteLength":1416,
			"byteOffset":13056,
			"target":34963
		},
		{
			"buffer":0,
			"byteLength":28800,
			"byteOffset":14472,
			"target":34962
		},
		{
			"buffer":0,
			"byteLength":28800,
			"byteOffset":43272,
			"target":34962
		},
		{
			"buffer":0,
			"byteLength":19200,
			"byteOffset":72072,
			"target":34962
		},
		{
			"buffer":0,
			"byteLength":7200,
			"byteOffset":91272,
			"target":34963
		},
		{
			"buffer":0,
			"byteLength":60480,
			"byteOffset":98472,
			"target":34962
		},
		{
			"buffer":0,
			"byteLength":60480,
			"byteOffset":158952,
			"target":34962
		},
		{
			"buffer":0,
			"byteLength":40320,
			"byteOffset":219432,
			"target":34962
		},
		{
			"buffer":0,
			"byteLength":15120,
			"byteOffset":259752,
			"target":34963
		},
		{
			"buffer":0,
			"byteLength":12984,
			"byteOffset":274872,
			"target":34962
		},
		{
			"buffer":0,
			"byteLength":12984,
			"byteOffset":287856,
			"target":34962
		},
		{
			"buffer":0,
			"byteLength":8656,
			"byteOffset":300840,
			"target":34962
		},
		{
			"buffer":0,
			"byteLength":4212,
			"byteOffset":309496,
			"target":34963
		},
		{
			"buffer":0,
			"byteLength":15456,
			"byteOffset":313708,
			"target":34962
		},
		{
			"buffer":0,
			"byteLength":15456,
			"byteOffset":329164,
			"target":34962
		},
		{
			"buffer":0,
			"byteLength":10304,
			"byteOffset":344620,
			"target":34962
		},
		{
			"buffer":0,
			"byteLength":3072,
			"byteOffset":354924,
			"target":34963
		},
		{
			"buffer":0,
			"byteLength":13632,
			"byteOffset":357996,
			"target":34962
		},
		{
			"buffer":0,
			"byteLength":13632,
			"byteOffset":371628,
			"target":34962
		},
		{
			"buffer":0,
			"byteLength":9088,
			"byteOffset":385260,
			"target":34962
		},
		{
			"buffer":0,
			"byteLength":2784,
			"byteOffset":394348,
			"target":34963
		},
		{
			"buffer":0,
			"byteLength":10512,
			"byteOffset":397132,
			"target":34962
		},
		{
			"buffer":0,
			"byteLength":10512,
			"byteOffset":407644,
			"target":34962
		},
		{
			"buffer":0,
			"byteLength":7008,
			"byteOffset":418156,
			"target":34962
		},
		{
			"buffer":0,
			"byteLength":2592,
			"byteOffset":425164,
			"target":34963
		},
		{
			"buffer":0,
			"byteLength":71712,
			"byteOffset":427756,
			"target":34962
		},
		{
			"buffer":0,
			"byteLength":71712,
			"byteOffset":499468,
			"target":34962
		},
		{
			"buffer":0,
			"byteLength":47808,
			"byteOffset":571180,
			"target":34962
		},
		{
			"buffer":0,
			"byteLength":17928,
			"byteOffset":618988,
			"target":34963
		},
		{
			"buffer":0,
			"byteLength":2460,
			"byteOffset":636916,
			"target":34962
		},
		{
			"buffer":0,
			"byteLength":2460,
			"byteOffset":639376,
			"target":34962
		},
		{
			"buffer":0,
			"byteLength":1640,
			"byteOffset":641836,
			"target":34962
		},
		{
			"buffer":0,
			"byteLength":588,
			"byteOffset":643476,
			"target":34963
		},
		{
			"buffer":0,
			"byteLength":8064,
			"byteOffset":644064,
			"target":34962
		},
		{
			"buffer":0,
			"byteLength":8064,
			"byteOffset":652128,
			"target":34962
		},
		{
			"buffer":0,
			"byteLength":5376,
			"byteOffset":660192,
			"target":34962
		},
		{
			"buffer":0,
			"byteLength":2016,
			"byteOffset":665568,
			"target":34963
		},
		{
			"buffer":0,
			"byteLength":67680,
			"byteOffset":667584,
			"target":34962
		},
		{
			"buffer":0,
			"byteLength":67680,
			"byteOffset":735264,
			"target":34962
		},
		{
			"buffer":0,
			"byteLength":45120,
			"byteOffset":802944,
			"target":34962
		},
		{
			"buffer":0,
			"byteLength":16920,
			"byteOffset":848064,
			"target":34963
		},
		{
			"buffer":0,
			"byteLength":4320,
			"byteOffset":864984,
			"target":34962
		},
		{
			"buffer":0,
			"byteLength":4320,
			"byteOffset":869304,
			"target":34962
		},
		{
			"buffer":0,
			"byteLength":2880,
			"byteOffset":873624,
			"target":34962
		},
		{
			"buffer":0,
			"byteLength":1056,
			"byteOffset":876504,
			"target":34963
		},
		{
			"buffer":0,
			"byteLength":576,
			"byteOffset":877560,
			"target":34962
		},
		{
			"buffer":0,
			"byteLength":576,
			"byteOffset":878136,
			"target":34962
		},
		{
			"buffer":0,
			"byteLength":384,
			"byteOffset":878712,
			"target":34962
		},
		{
			"buffer":0,
			"byteLength":144,
			"byteOffset":879096,
			"target":34963
		},
		{
			"buffer":0,
			"byteLength":5472,
			"byteOffset":879240,
			"target":34962
		},
		{
			"buffer":0,
			"byteLength":5472,
			"byteOffset":884712,
			"target":34962
		},
		{
			"buffer":0,
			"byteLength":3648,
			"byteOffset":890184,
			"target":34962
		},
		{
			"buffer":0,
			"byteLength":1344,
			"byteOffset":893832,
			"target":34963
		},
		{
			"buffer":0,
			"byteLength":288,
			"byteOffset":895176,
			"target":34962
		},
		{
			"buffer":0,
			"byteLength":288,
			"byteOffset":895464,
			"target":34962
		},
		{
			"buffer":0,
			"byteLength":192,
			"byteOffset":895752,
			"target":34962
		},
		{
			"buffer":0,
			"byteLength":72,
			"byteOffset":895944,
			"target":34963
		},
		{
			"buffer":0,
			"byteLength":576,
			"byteOffset":896016,
			"target":34962
		},
		{
			"buffer":0,
			"byteLength":576,
			"byteOffset":896592,
			"target":34962
		},
		{
			"buffer":0,
			"byteLength":384,
			"byteOffset":897168,
			"target":34962
		},
		{
			"buffer":0,
			"byteLength":144,
			"byteOffset":897552,
			"target":34963
		},
		{
			"buffer":0,
			"byteLength":2160,
			"byteOffset":897696,
			"target":34962
		},
		{
			"buffer":0,
			"byteLength":2160,
			"byteOffset":899856,
			"target":34962
		},
		{
			"buffer":0,
			"byteLength":1440,
			"byteOffset":902016,
			"target":34962
		},
		{
			"buffer":0,
			"byteLength":360,
			"byteOffset":903456,
			"target":34963
		}
	],
	"samplers":[
		{
			"magFilter":9729,
			"minFilter":9987
		}
	],
	"buffers":[
		{
			"byteLength":903816,
			"uri":"city_nordic_medium.bin"
		}
	]
}
