{
	"asset":{
		"generator":"Khronos glTF Blender I/O v5.2.40",
		"version":"2.0"
	},
	"scene":0,
	"scenes":[
		{
			"name":"Scene",
			"nodes":[
				0
			]
		}
	],
	"nodes":[
		{
			"mesh":0,
			"name":"city_west_large"
		}
	],
	"materials":[
		{
			"doubleSided":true,
			"name":"garden",
			"normalTexture":{
				"index":0
			},
			"pbrMetallicRoughness":{
				"baseColorTexture":{
					"index":1
				},
				"metallicFactor":0
			}
		},
		{
			"doubleSided":true,
			"name":"asphalt",
			"normalTexture":{
				"index":2
			},
			"pbrMetallicRoughness":{
				"baseColorTexture":{
					"index":3
				},
				"metallicFactor":0,
				"roughnessFactor":0.8500000238418579
			}
		},
		{
			"doubleSided":true,
			"name":"concrete",
			"normalTexture":{
				"index":4
			},
			"pbrMetallicRoughness":{
				"baseColorTexture":{
					"index":5
				},
				"metallicFactor":0,
				"roughnessFactor":0.8999999761581421
			}
		},
		{
			"doubleSided":true,
			"name":"trunk",
			"pbrMetallicRoughness":{
				"baseColorFactor":[
					0.25,
					0.17000000178813934,
					0.10000000149011612,
					1
				],
				"metallicFactor":0,
				"roughnessFactor":0.8999999761581421
			}
		},
		{
			"doubleSided":true,
			"name":"tree",
			"pbrMetallicRoughness":{
				"baseColorFactor":[
					0.12999999523162842,
					0.27000001072883606,
					0.09000000357627869,
					1
				],
				"metallicFactor":0,
				"roughnessFactor":0.8999999761581421
			}
		},
		{
			"doubleSided":true,
			"name":"tree_dark",
			"pbrMetallicRoughness":{
				"baseColorFactor":[
					0.07999999821186066,
					0.1899999976158142,
					0.07999999821186066,
					1
				],
				"metallicFactor":0,
				"roughnessFactor":0.8999999761581421
			}
		},
		{
			"doubleSided":true,
			"name":"facade_yellow",
			"normalTexture":{
				"index":6
			},
			"pbrMetallicRoughness":{
				"baseColorTexture":{
					"index":7
				},
				"metallicFactor":0,
				"roughnessFactor":0.8500000238418579
			}
		},
		{
			"doubleSided":true,
			"name":"white",
			"pbrMetallicRoughness":{
				"baseColorFactor":[
					0.8999999761581421,
					0.8899999856948853,
					0.8500000238418579,
					1
				],
				"metallicFactor":0,
				"roughnessFactor":0.6000000238418579
			}
		},
		{
			"doubleSided":true,
			"name":"wood_red",
			"normalTexture":{
				"index":8
			},
			"pbrMetallicRoughness":{
				"baseColorTexture":{
					"index":9
				},
				"metallicFactor":0,
				"roughnessFactor":0.8500000238418579
			}
		},
		{
			"doubleSided":true,
			"name":"roof_dark",
			"normalTexture":{
				"index":10
			},
			"pbrMetallicRoughness":{
				"baseColorTexture":{
					"index":11
				},
				"metallicFactor":0,
				"roughnessFactor":0.699999988079071
			}
		},
		{
			"doubleSided":true,
			"name":"brick_red",
			"normalTexture":{
				"index":12
			},
			"pbrMetallicRoughness":{
				"baseColorTexture":{
					"index":13
				},
				"metallicFactor":0,
				"roughnessFactor":0.8999999761581421
			}
		},
		{
			"doubleSided":true,
			"name":"stone_light",
			"normalTexture":{
				"index":14
			},
			"pbrMetallicRoughness":{
				"baseColorTexture":{
					"index":15
				},
				"metallicFactor":0,
				"roughnessFactor":0.800000011920929
			}
		},
		{
			"doubleSided":true,
			"name":"facade_grey",
			"normalTexture":{
				"index":16
			},
			"pbrMetallicRoughness":{
				"baseColorTexture":{
					"index":17
				},
				"metallicFactor":0,
				"roughnessFactor":0.8500000238418579
			}
		},
		{
			"doubleSided":true,
			"name":"roof_terracotta",
			"normalTexture":{
				"index":18
			},
			"pbrMetallicRoughness":{
				"baseColorTexture":{
					"index":19
				},
				"metallicFactor":0,
				"roughnessFactor":0.699999988079071
			}
		},
		{
			"doubleSided":true,
			"name":"roof_slate",
			"normalTexture":{
				"index":20
			},
			"pbrMetallicRoughness":{
				"baseColorTexture":{
					"index":21
				},
				"metallicFactor":0,
				"roughnessFactor":0.550000011920929
			}
		},
		{
			"doubleSided":true,
			"name":"facade_white",
			"normalTexture":{
				"index":22
			},
			"pbrMetallicRoughness":{
				"baseColorTexture":{
					"index":23
				},
				"metallicFactor":0,
				"roughnessFactor":0.8500000238418579
			}
		},
		{
			"doubleSided":true,
			"name":"steel",
			"pbrMetallicRoughness":{
				"baseColorFactor":[
					0.2800000011920929,
					0.30000001192092896,
					0.33000001311302185,
					1
				],
				"metallicFactor":0.800000011920929,
				"roughnessFactor":0.4000000059604645
			}
		},
		{
			"doubleSided":true,
			"name":"brick_dark",
			"normalTexture":{
				"index":24
			},
			"pbrMetallicRoughness":{
				"baseColorTexture":{
					"index":25
				},
				"metallicFactor":0,
				"roughnessFactor":0.8999999761581421
			}
		},
		{
			"doubleSided":true,
			"name":"glass",
			"pbrMetallicRoughness":{
				"baseColorFactor":[
					0.11999999731779099,
					0.1599999964237213,
					0.20000000298023224,
					1
				],
				"metallicFactor":0.5,
				"roughnessFactor":0.10000000149011612
			}
		},
		{
			"doubleSided":true,
			"name":"facade_cream",
			"normalTexture":{
				"index":26
			},
			"pbrMetallicRoughness":{
				"baseColorTexture":{
					"index":27
				},
				"metallicFactor":0,
				"roughnessFactor":0.8500000238418579
			}
		},
		{
			"doubleSided":true,
			"name":"facade_ochre",
			"normalTexture":{
				"index":28
			},
			"pbrMetallicRoughness":{
				"baseColorTexture":{
					"index":29
				},
				"metallicFactor":0,
				"roughnessFactor":0.8500000238418579
			}
		},
		{
			"doubleSided":true,
			"name":"city_paving_warm",
			"normalTexture":{
				"index":30
			},
			"pbrMetallicRoughness":{
				"baseColorTexture":{
					"index":31
				},
				"metallicFactor":0,
				"roughnessFactor":0.9200000166893005
			}
		},
		{
			"doubleSided":true,
			"name":"gold",
			"pbrMetallicRoughness":{
				"baseColorFactor":[
					0.8299999833106995,
					0.6200000047683716,
					0.20000000298023224,
					1
				],
				"roughnessFactor":0.30000001192092896
			}
		},
		{
			"doubleSided":true,
			"name":"tree_autumn",
			"pbrMetallicRoughness":{
				"baseColorFactor":[
					0.3199999928474426,
					0.33000001311302185,
					0.10000000149011612,
					1
				],
				"metallicFactor":0,
				"roughnessFactor":0.8999999761581421
			}
		}
	],
	"meshes":[
		{
			"name":"part.1755",
			"primitives":[
				{
					"attributes":{
						"POSITION":0,
						"NORMAL":1,
						"TEXCOORD_0":2
					},
					"indices":3,
					"material":0
				},
				{
					"attributes":{
						"POSITION":4,
						"NORMAL":5,
						"TEXCOORD_0":6
					},
					"indices":7,
					"material":1
				},
				{
					"attributes":{
						"POSITION":8,
						"NORMAL":9,
						"TEXCOORD_0":10
					},
					"indices":11,
					"material":2
				},
				{
					"attributes":{
						"POSITION":12,
						"NORMAL":13,
						"TEXCOORD_0":14
					},
					"indices":15,
					"material":3
				},
				{
					"attributes":{
						"POSITION":16,
						"NORMAL":17,
						"TEXCOORD_0":18
					},
					"indices":19,
					"material":4
				},
				{
					"attributes":{
						"POSITION":20,
						"NORMAL":21,
						"TEXCOORD_0":22
					},
					"indices":23,
					"material":5
				},
				{
					"attributes":{
						"POSITION":24,
						"NORMAL":25,
						"TEXCOORD_0":26
					},
					"indices":27,
					"material":6
				},
				{
					"attributes":{
						"POSITION":28,
						"NORMAL":29,
						"TEXCOORD_0":30
					},
					"indices":31,
					"material":7
				},
				{
					"attributes":{
						"POSITION":32,
						"NORMAL":33,
						"TEXCOORD_0":34
					},
					"indices":35,
					"material":8
				},
				{
					"attributes":{
						"POSITION":36,
						"NORMAL":37,
						"TEXCOORD_0":38
					},
					"indices":39,
					"material":9
				},
				{
					"attributes":{
						"POSITION":40,
						"NORMAL":41,
						"TEXCOORD_0":42
					},
					"indices":43,
					"material":10
				},
				{
					"attributes":{
						"POSITION":44,
						"NORMAL":45,
						"TEXCOORD_0":46
					},
					"indices":47,
					"material":11
				},
				{
					"attributes":{
						"POSITION":48,
						"NORMAL":49,
						"TEXCOORD_0":50
					},
					"indices":51,
					"material":12
				},
				{
					"attributes":{
						"POSITION":52,
						"NORMAL":53,
						"TEXCOORD_0":54
					},
					"indices":55,
					"material":13
				},
				{
					"attributes":{
						"POSITION":56,
						"NORMAL":57,
						"TEXCOORD_0":58
					},
					"indices":59,
					"material":14
				},
				{
					"attributes":{
						"POSITION":60,
						"NORMAL":61,
						"TEXCOORD_0":62
					},
					"indices":51,
					"material":15
				},
				{
					"attributes":{
						"POSITION":63,
						"NORMAL":64,
						"TEXCOORD_0":65
					},
					"indices":66,
					"material":16
				},
				{
					"attributes":{
						"POSITION":67,
						"NORMAL":68,
						"TEXCOORD_0":69
					},
					"indices":70,
					"material":17
				},
				{
					"attributes":{
						"POSITION":71,
						"NORMAL":72,
						"TEXCOORD_0":73
					},
					"indices":74,
					"material":18
				},
				{
					"attributes":{
						"POSITION":75,
						"NORMAL":76,
						"TEXCOORD_0":77
					},
					"indices":78,
					"material":19
				},
				{
					"attributes":{
						"POSITION":79,
						"NORMAL":80,
						"TEXCOORD_0":81
					},
					"indices":27,
					"material":20
				},
				{
					"attributes":{
						"POSITION":82,
						"NORMAL":83,
						"TEXCOORD_0":84
					},
					"indices":85,
					"material":21
				},
				{
					"attributes":{
						"POSITION":86,
						"NORMAL":87,
						"TEXCOORD_0":88
					},
					"indices":89,
					"material":22
				},
				{
					"attributes":{
						"POSITION":90,
						"NORMAL":91,
						"TEXCOORD_0":92
					},
					"indices":93,
					"material":23
				}
			]
		}
	],
	"textures":[
		{
			"sampler":0,
			"source":0
		},
		{
			"sampler":0,
			"source":1
		},
		{
			"sampler":0,
			"source":2
		},
		{
			"sampler":0,
			"source":3
		},
		{
			"sampler":0,
			"source":4
		},
		{
			"sampler":0,
			"source":5
		},
		{
			"sampler":0,
			"source":6
		},
		{
			"sampler":0,
			"source":7
		},
		{
			"sampler":0,
			"source":8
		},
		{
			"sampler":0,
			"source":9
		},
		{
			"sampler":0,
			"source":10
		},
		{
			"sampler":0,
			"source":11
		},
		{
			"sampler":0,
			"source":12
		},
		{
			"sampler":0,
			"source":13
		},
		{
			"sampler":0,
			"source":14
		},
		{
			"sampler":0,
			"source":15
		},
		{
			"sampler":0,
			"source":16
		},
		{
			"sampler":0,
			"source":17
		},
		{
			"sampler":0,
			"source":18
		},
		{
			"sampler":0,
			"source":19
		},
		{
			"sampler":0,
			"source":20
		},
		{
			"sampler":0,
			"source":21
		},
		{
			"sampler":0,
			"source":22
		},
		{
			"sampler":0,
			"source":23
		},
		{
			"sampler":0,
			"source":24
		},
		{
			"sampler":0,
			"source":25
		},
		{
			"sampler":0,
			"source":26
		},
		{
			"sampler":0,
			"source":27
		},
		{
			"sampler":0,
			"source":28
		},
		{
			"sampler":0,
			"source":29
		},
		{
			"sampler":0,
			"source":30
		},
		{
			"sampler":0,
			"source":31
		}
	],
	"images":[
		{
			"mimeType":"image/png",
			"name":"garden_n",
			"uri":"textures/garden_n.png"
		},
		{
			"mimeType":"image/png",
			"name":"garden",
			"uri":"textures/garden.png"
		},
		{
			"mimeType":"image/png",
			"name":"asphalt_n",
			"uri":"textures/asphalt_n.png"
		},
		{
			"mimeType":"image/png",
			"name":"asphalt",
			"uri":"textures/asphalt.png"
		},
		{
			"mimeType":"image/png",
			"name":"concrete_n",
			"uri":"textures/concrete_n.png"
		},
		{
			"mimeType":"image/png",
			"name":"concrete",
			"uri":"textures/concrete.png"
		},
		{
			"mimeType":"image/png",
			"name":"facade_yellow_n",
			"uri":"textures/facade_yellow_n.png"
		},
		{
			"mimeType":"image/png",
			"name":"facade_yellow",
			"uri":"textures/facade_yellow.png"
		},
		{
			"mimeType":"image/png",
			"name":"wood_red_n",
			"uri":"textures/wood_red_n.png"
		},
		{
			"mimeType":"image/png",
			"name":"wood_red",
			"uri":"textures/wood_red.png"
		},
		{
			"mimeType":"image/png",
			"name":"roof_dark_n",
			"uri":"textures/roof_dark_n.png"
		},
		{
			"mimeType":"image/png",
			"name":"roof_dark",
			"uri":"textures/roof_dark.png"
		},
		{
			"mimeType":"image/png",
			"name":"brick_red_n",
			"uri":"textures/brick_red_n.png"
		},
		{
			"mimeType":"image/png",
			"name":"brick_red",
			"uri":"textures/brick_red.png"
		},
		{
			"mimeType":"image/png",
			"name":"stone_light_n",
			"uri":"textures/stone_light_n.png"
		},
		{
			"mimeType":"image/png",
			"name":"stone_light",
			"uri":"textures/stone_light.png"
		},
		{
			"mimeType":"image/png",
			"name":"facade_grey_n",
			"uri":"textures/facade_grey_n.png"
		},
		{
			"mimeType":"image/png",
			"name":"facade_grey",
			"uri":"textures/facade_grey.png"
		},
		{
			"mimeType":"image/png",
			"name":"roof_terracotta_n",
			"uri":"textures/roof_terracotta_n.png"
		},
		{
			"mimeType":"image/png",
			"name":"roof_terracotta",
			"uri":"textures/roof_terracotta.png"
		},
		{
			"mimeType":"image/png",
			"name":"roof_slate_n",
			"uri":"textures/roof_slate_n.png"
		},
		{
			"mimeType":"image/png",
			"name":"roof_slate",
			"uri":"textures/roof_slate.png"
		},
		{
			"mimeType":"image/png",
			"name":"facade_white_n",
			"uri":"textures/facade_white_n.png"
		},
		{
			"mimeType":"image/png",
			"name":"facade_white",
			"uri":"textures/facade_white.png"
		},
		{
			"mimeType":"image/png",
			"name":"brick_dark_n",
			"uri":"textures/brick_dark_n.png"
		},
		{
			"mimeType":"image/png",
			"name":"brick_dark",
			"uri":"textures/brick_dark.png"
		},
		{
			"mimeType":"image/png",
			"name":"facade_cream_n",
			"uri":"textures/facade_cream_n.png"
		},
		{
			"mimeType":"image/png",
			"name":"facade_cream",
			"uri":"textures/facade_cream.png"
		},
		{
			"mimeType":"image/png",
			"name":"facade_ochre_n",
			"uri":"textures/facade_ochre_n.png"
		},
		{
			"mimeType":"image/png",
			"name":"facade_ochre",
			"uri":"textures/facade_ochre.png"
		},
		{
			"mimeType":"image/png",
			"name":"city_paving_warm_n",
			"uri":"textures/city_paving_warm_n.png"
		},
		{
			"mimeType":"image/png",
			"name":"city_paving_warm",
			"uri":"textures/city_paving_warm.png"
		}
	],
	"accessors":[
		{
			"bufferView":0,
			"componentType":5126,
			"count":696,
			"max":[
				2.2081470489501953,
				0.003000000026077032,
				1.9829670190811157
			],
			"min":[
				-2.2484934329986572,
				-0.029999999329447746,
				-1.928750991821289
			],
			"type":"VEC3"
		},
		{
			"bufferView":1,
			"componentType":5126,
			"count":696,
			"type":"VEC3"
		},
		{
			"bufferView":2,
			"componentType":5126,
			"count":696,
			"type":"VEC2"
		},
		{
			"bufferView":3,
			"componentType":5123,
			"count":1140,
			"type":"SCALAR"
		},
		{
			"bufferView":4,
			"componentType":5126,
			"count":5568,
			"max":[
				1.8560081720352173,
				0.004999999888241291,
				1.550661325454712
			],
			"min":[
				-1.8560081720352173,
				0.0020000000949949026,
				-1.550661325454712
			],
			"type":"VEC3"
		},
		{
			"bufferView":5,
			"componentType":5126,
			"count":5568,
			"type":"VEC3"
		},
		{
			"bufferView":6,
			"componentType":5126,
			"count":5568,
			"type":"VEC2"
		},
		{
			"bufferView":7,
			"componentType":5123,
			"count":8352,
			"type":"SCALAR"
		},
		{
			"bufferView":8,
			"componentType":5126,
			"count":11808,
			"max":[
				1.8590872287750244,
				0.7919999957084656,
				1.5663622617721558
			],
			"min":[
				-1.8590872287750244,
				0.0020000000949949026,
				-1.5663622617721558
			],
			"type":"VEC3"
		},
		{
			"bufferView":9,
			"componentType":5126,
			"count":11808,
			"type":"VEC3"
		},
		{
			"bufferView":10,
			"componentType":5126,
			"count":11808,
			"type":"VEC2"
		},
		{
			"bufferView":11,
			"componentType":5123,
			"count":17712,
			"type":"SCALAR"
		},
		{
			"bufferView":12,
			"componentType":5126,
			"count":1561,
			"max":[
				2.0288078784942627,
				0.06949419528245926,
				1.8556519746780396
			],
			"min":[
				-2.0925357341766357,
				0,
				-1.6144468784332275
			],
			"type":"VEC3"
		},
		{
			"bufferView":13,
			"componentType":5126,
			"count":1561,
			"type":"VEC3"
		},
		{
			"bufferView":14,
			"componentType":5126,
			"count":1561,
			"type":"VEC2"
		},
		{
			"bufferView":15,
			"componentType":5123,
			"count":3042,
			"type":"SCALAR"
		},
		{
			"bufferView":16,
			"componentType":5126,
			"count":2756,
			"max":[
				2.070807933807373,
				0.21176128089427948,
				1.899428129196167
			],
			"min":[
				-2.119849920272827,
				0.02412436157464981,
				-1.6555848121643066
			],
			"type":"VEC3"
		},
		{
			"bufferView":17,
			"componentType":5126,
			"count":2756,
			"type":"VEC3"
		},
		{
			"bufferView":18,
			"componentType":5126,
			"count":2756,
			"type":"VEC2"
		},
		{
			"bufferView":19,
			"componentType":5123,
			"count":3012,
			"type":"SCALAR"
		},
		{
			"bufferView":20,
			"componentType":5126,
			"count":1312,
			"max":[
				2.0583078861236572,
				0.19383808970451355,
				1.7572786808013916
			],
			"min":[
				-2.1311120986938477,
				0.031596019864082336,
				-1.6433982849121094
			],
			"type":"VEC3"
		},
		{
			"bufferView":21,
			"componentType":5126,
			"count":1312,
			"type":"VEC3"
		},
		{
			"bufferView":22,
			"componentType":5126,
			"count":1312,
			"type":"VEC2"
		},
		{
			"bufferView":23,
			"componentType":5123,
			"count":1464,
			"type":"SCALAR"
		},
		{
			"bufferView":24,
			"componentType":5126,
			"count":456,
			"max":[
				-0.21499288082122803,
				0.2199999988079071,
				0.6250301599502563
			],
			"min":[
				-1.5128698348999023,
				0,
				-1.4795047044754028
			],
			"type":"VEC3"
		},
		{
			"bufferView":25,
			"componentType":5126,
			"count":456,
			"type":"VEC3"
		},
		{
			"bufferView":26,
			"componentType":5126,
			"count":456,
			"type":"VEC2"
		},
		{
			"bufferView":27,
			"componentType":5123,
			"count":672,
			"type":"SCALAR"
		},
		{
			"bufferView":28,
			"componentType":5126,
			"count":8400,
			"max":[
				1.3166940212249756,
				0.7350000143051147,
				1.5240304470062256
			],
			"min":[
				-1.5265884399414062,
				0.024000000208616257,
				-1.4202412366867065
			],
			"type":"VEC3"
		},
		{
			"bufferView":29,
			"componentType":5126,
			"count":8400,
			"type":"VEC3"
		},
		{
			"bufferView":30,
			"componentType":5126,
			"count":8400,
			"type":"VEC2"
		},
		{
			"bufferView":31,
			"componentType":5123,
			"count":12600,
			"type":"SCALAR"
		},
		{
			"bufferView":32,
			"componentType":5126,
			"count":624,
			"max":[
				1.3229354619979858,
				0.09200000017881393,
				1.498918056488037
			],
			"min":[
				-1.389456033706665,
				0,
				-1.18709135055542
			],
			"type":"VEC3"
		},
		{
			"bufferView":33,
			"componentType":5126,
			"count":624,
			"type":"VEC3"
		},
		{
			"bufferView":34,
			"componentType":5126,
			"count":624,
			"type":"VEC2"
		},
		{
			"bufferView":35,
			"componentType":5123,
			"count":936,
			"type":"SCALAR"
		},
		{
			"bufferView":36,
			"componentType":5126,
			"count":64,
			"max":[
				0.8843376636505127,
				0.7269999980926514,
				0.7475693225860596
			],
			"min":[
				-1.5069645643234253,
				0.10999999940395355,
				-1.4795047044754028
			],
			"type":"VEC3"
		},
		{
			"bufferView":37,
			"componentType":5126,
			"count":64,
			"type":"VEC3"
		},
		{
			"bufferView":38,
			"componentType":5126,
			"count":64,
			"type":"VEC2"
		},
		{
			"bufferView":39,
			"componentType":5123,
			"count":96,
			"type":"SCALAR"
		},
		{
			"bufferView":40,
			"componentType":5126,
			"count":1788,
			"max":[
				1.3850919008255005,
				0.7799999713897705,
				1.5952227115631104
			],
			"min":[
				-1.441241979598999,
				0,
				-1.3151730298995972
			],
			"type":"VEC3"
		},
		{
			"bufferView":41,
			"componentType":5126,
			"count":1788,
			"type":"VEC3"
		},
		{
			"bufferView":42,
			"componentType":5126,
			"count":1788,
			"type":"VEC2"
		},
		{
			"bufferView":43,
			"componentType":5123,
			"count":2664,
			"type":"SCALAR"
		},
		{
			"bufferView":44,
			"componentType":5126,
			"count":35028,
			"max":[
				1.405195713043213,
				0.7290000319480896,
				1.6016898155212402
			],
			"min":[
				-1.5422346591949463,
				-0.1599999964237213,
				-1.4830621480941772
			],
			"type":"VEC3"
		},
		{
			"bufferView":45,
			"componentType":5126,
			"count":35028,
			"type":"VEC3"
		},
		{
			"bufferView":46,
			"componentType":5126,
			"count":35028,
			"type":"VEC2"
		},
		{
			"bufferView":47,
			"componentType":5123,
			"count":52536,
			"type":"SCALAR"
		},
		{
			"bufferView":48,
			"componentType":5126,
			"count":216,
			"max":[
				-1.0023765563964844,
				0.4399999976158142,
				-0.0025830119848251343
			],
			"min":[
				-1.4512842893600464,
				0,
				-0.3726034164428711
			],
			"type":"VEC3"
		},
		{
			"bufferView":49,
			"componentType":5126,
			"count":216,
			"type":"VEC3"
		},
		{
			"bufferView":50,
			"componentType":5126,
			"count":216,
			"type":"VEC2"
		},
		{
			"bufferView":51,
			"componentType":5123,
			"count":324,
			"type":"SCALAR"
		},
		{
			"bufferView":52,
			"componentType":5126,
			"count":180,
			"max":[
				1.4092403650283813,
				0.6480000019073486,
				1.4671567678451538
			],
			"min":[
				-1.4754326343536377,
				0.10999999940395355,
				-1.2669696807861328
			],
			"type":"VEC3"
		},
		{
			"bufferView":53,
			"componentType":5126,
			"count":180,
			"type":"VEC3"
		},
		{
			"bufferView":54,
			"componentType":5126,
			"count":180,
			"type":"VEC2"
		},
		{
			"bufferView":55,
			"componentType":5123,
			"count":252,
			"type":"SCALAR"
		},
		{
			"bufferView":56,
			"componentType":5126,
			"count":277,
			"max":[
				1.2814265489578247,
				1.1610000133514404,
				1.5952227115631104
			],
			"min":[
				-1.0374895334243774,
				0.27000001072883606,
				-0.7451831102371216
			],
			"type":"VEC3"
		},
		{
			"bufferView":57,
			"componentType":5126,
			"count":277,
			"type":"VEC3"
		},
		{
			"bufferView":58,
			"componentType":5126,
			"count":277,
			"type":"VEC2"
		},
		{
			"bufferView":59,
			"componentType":5123,
			"count":414,
			"type":"SCALAR"
		},
		{
			"bufferView":60,
			"componentType":5126,
			"count":216,
			"max":[
				-0.5103887915611267,
				0.4399999976158142,
				0.710419774055481
			],
			"min":[
				-0.959296464920044,
				0,
				0.3403993844985962
			],
			"type":"VEC3"
		},
		{
			"bufferView":61,
			"componentType":5126,
			"count":216,
			"type":"VEC3"
		},
		{
			"bufferView":62,
			"componentType":5126,
			"count":216,
			"type":"VEC2"
		},
		{
			"bufferView":63,
			"componentType":5126,
			"count":1296,
			"max":[
				1.2091699838638306,
				0.5960000157356262,
				0.9812026023864746
			],
			"min":[
				-0.8588096499443054,
				0.1340000033378601,
				-0.5082564353942871
			],
			"type":"VEC3"
		},
		{
			"bufferView":64,
			"componentType":5126,
			"count":1296,
			"type":"VEC3"
		},
		{
			"bufferView":65,
			"componentType":5126,
			"count":1296,
			"type":"VEC2"
		},
		{
			"bufferView":66,
			"componentType":5123,
			"count":1944,
			"type":"SCALAR"
		},
		{
			"bufferView":67,
			"componentType":5126,
			"count":944,
			"max":[
				0.9686285257339478,
				0.7269999980926514,
				0.9396803975105286
			],
			"min":[
				-0.847585916519165,
				0,
				-0.7098909616470337
			],
			"type":"VEC3"
		},
		{
			"bufferView":68,
			"componentType":5126,
			"count":944,
			"type":"VEC3"
		},
		{
			"bufferView":69,
			"componentType":5126,
			"count":944,
			"type":"VEC2"
		},
		{
			"bufferView":70,
			"componentType":5123,
			"count":1416,
			"type":"SCALAR"
		},
		{
			"bufferView":71,
			"componentType":5126,
			"count":192,
			"max":[
				1.3157681226730347,
				0.0820000022649765,
				0.8448720574378967
			],
			"min":[
				-0.6623260974884033,
				0.012000000104308128,
				-0.5706776976585388
			],
			"type":"VEC3"
		},
		{
			"bufferView":72,
			"componentType":5126,
			"count":192,
			"type":"VEC3"
		},
		{
			"bufferView":73,
			"componentType":5126,
			"count":192,
			"type":"VEC2"
		},
		{
			"bufferView":74,
			"componentType":5123,
			"count":288,
			"type":"SCALAR"
		},
		{
			"bufferView":75,
			"componentType":5126,
			"count":660,
			"max":[
				0.28469231724739075,
				0.33000001311302185,
				1.4671567678451538
			],
			"min":[
				-0.40848931670188904,
				0,
				-0.7327721118927002
			],
			"type":"VEC3"
		},
		{
			"bufferView":76,
			"componentType":5126,
			"count":660,
			"type":"VEC3"
		},
		{
			"bufferView":77,
			"componentType":5126,
			"count":660,
			"type":"VEC2"
		},
		{
			"bufferView":78,
			"componentType":5123,
			"count":984,
			"type":"SCALAR"
		},
		{
			"bufferView":79,
			"componentType":5126,
			"count":456,
			"max":[
				0.9776440858840942,
				0.2199999988079071,
				-0.8471800088882446
			],
			"min":[
				0.06875327229499817,
				0,
				-1.2669696807861328
			],
			"type":"VEC3"
		},
		{
			"bufferView":80,
			"componentType":5126,
			"count":456,
			"type":"VEC3"
		},
		{
			"bufferView":81,
			"componentType":5126,
			"count":456,
			"type":"VEC2"
		},
		{
			"bufferView":82,
			"componentType":5126,
			"count":24,
			"max":[
				0.41902732849121094,
				0.006000000052154064,
				0.41902732849121094
			],
			"min":[
				-0.41902732849121094,
				0.0020000000949949026,
				-0.41902732849121094
			],
			"type":"VEC3"
		},
		{
			"bufferView":83,
			"componentType":5126,
			"count":24,
			"type":"VEC3"
		},
		{
			"bufferView":84,
			"componentType":5126,
			"count":24,
			"type":"VEC2"
		},
		{
			"bufferView":85,
			"componentType":5123,
			"count":36,
			"type":"SCALAR"
		},
		{
			"bufferView":86,
			"componentType":5126,
			"count":48,
			"max":[
				-0.05937429144978523,
				1.2285000085830688,
				0.4014303386211395
			],
			"min":[
				-0.09649929404258728,
				1.1610000133514404,
				0.39343032240867615
			],
			"type":"VEC3"
		},
		{
			"bufferView":87,
			"componentType":5126,
			"count":48,
			"type":"VEC3"
		},
		{
			"bufferView":88,
			"componentType":5126,
			"count":48,
			"type":"VEC2"
		},
		{
			"bufferView":89,
			"componentType":5123,
			"count":72,
			"type":"SCALAR"
		},
		{
			"bufferView":90,
			"componentType":5126,
			"count":600,
			"max":[
				2.0207173824310303,
				0.19190402328968048,
				1.7710034847259521
			],
			"min":[
				-0.8058290481567383,
				0.03645585849881172,
				-1.623281717300415
			],
			"type":"VEC3"
		},
		{
			"bufferView":91,
			"componentType":5126,
			"count":600,
			"type":"VEC3"
		},
		{
			"bufferView":92,
			"componentType":5126,
			"count":600,
			"type":"VEC2"
		},
		{
			"bufferView":93,
			"componentType":5123,
			"count":600,
			"type":"SCALAR"
		}
	],
	"bufferViews":[
		{
			"buffer":0,
			"byteLength":8352,
			"byteOffset":0,
			"target":34962
		},
		{
			"buffer":0,
			"byteLength":8352,
			"byteOffset":8352,
			"target":34962
		},
		{
			"buffer":0,
			"byteLength":5568,
			"byteOffset":16704,
			"target":34962
		},
		{
			"buffer":0,
			"byteLength":2280,
			"byteOffset":22272,
			"target":34963
		},
		{
			"buffer":0,
			"byteLength":66816,
			"byteOffset":24552,
			"target":34962
		},
		{
			"buffer":0,
			"byteLength":66816,
			"byteOffset":91368,
			"target":34962
		},
		{
			"buffer":0,
			"byteLength":44544,
			"byteOffset":158184,
			"target":34962
		},
		{
			"buffer":0,
			"byteLength":16704,
			"byteOffset":202728,
			"target":34963
		},
		{
			"buffer":0,
			"byteLength":141696,
			"byteOffset":219432,
			"target":34962
		},
		{
			"buffer":0,
			"byteLength":141696,
			"byteOffset":361128,
			"target":34962
		},
		{
			"buffer":0,
			"byteLength":94464,
			"byteOffset":502824,
			"target":34962
		},
		{
			"buffer":0,
			"byteLength":35424,
			"byteOffset":597288,
			"target":34963
		},
		{
			"buffer":0,
			"byteLength":18732,
			"byteOffset":632712,
			"target":34962
		},
		{
			"buffer":0,
			"byteLength":18732,
			"byteOffset":651444,
			"target":34962
		},
		{
			"buffer":0,
			"byteLength":12488,
			"byteOffset":670176,
			"target":34962
		},
		{
			"buffer":0,
			"byteLength":6084,
			"byteOffset":682664,
			"target":34963
		},
		{
			"buffer":0,
			"byteLength":33072,
			"byteOffset":688748,
			"target":34962
		},
		{
			"buffer":0,
			"byteLength":33072,
			"byteOffset":721820,
			"target":34962
		},
		{
			"buffer":0,
			"byteLength":22048,
			"byteOffset":754892,
			"target":34962
		},
		{
			"buffer":0,
			"byteLength":6024,
			"byteOffset":776940,
			"target":34963
		},
		{
			"buffer":0,
			"byteLength":15744,
			"byteOffset":782964,
			"target":34962
		},
		{
			"buffer":0,
			"byteLength":15744,
			"byteOffset":798708,
			"target":34962
		},
		{
			"buffer":0,
			"byteLength":10496,
			"byteOffset":814452,
			"target":34962
		},
		{
			"buffer":0,
			"byteLength":2928,
			"byteOffset":824948,
			"target":34963
		},
		{
			"buffer":0,
			"byteLength":5472,
			"byteOffset":827876,
			"target":34962
		},
		{
			"buffer":0,
			"byteLength":5472,
			"byteOffset":833348,
			"target":34962
		},
		{
			"buffer":0,
			"byteLength":3648,
			"byteOffset":838820,
			"target":34962
		},
		{
			"buffer":0,
			"byteLength":1344,
			"byteOffset":842468,
			"target":34963
		},
		{
			"buffer":0,
			"byteLength":100800,
			"byteOffset":843812,
			"target":34962
		},
		{
			"buffer":0,
			"byteLength":100800,
			"byteOffset":944612,
			"target":34962
		},
		{
			"buffer":0,
			"byteLength":67200,
			"byteOffset":1045412,
			"target":34962
		},
		{
			"buffer":0,
			"byteLength":25200,
			"byteOffset":1112612,
			"target":34963
		},
		{
			"buffer":0,
			"byteLength":7488,
			"byteOffset":1137812,
			"target":34962
		},
		{
			"buffer":0,
			"byteLength":7488,
			"byteOffset":1145300,
			"target":34962
		},
		{
			"buffer":0,
			"byteLength":4992,
			"byteOffset":1152788,
			"target":34962
		},
		{
			"buffer":0,
			"byteLength":1872,
			"byteOffset":1157780,
			"target":34963
		},
		{
			"buffer":0,
			"byteLength":768,
			"byteOffset":1159652,
			"target":34962
		},
		{
			"buffer":0,
			"byteLength":768,
			"byteOffset":1160420,
			"target":34962
		},
		{
			"buffer":0,
			"byteLength":512,
			"byteOffset":1161188,
			"target":34962
		},
		{
			"buffer":0,
			"byteLength":192,
			"byteOffset":1161700,
			"target":34963
		},
		{
			"buffer":0,
			"byteLength":21456,
			"byteOffset":1161892,
			"target":34962
		},
		{
			"buffer":0,
			"byteLength":21456,
			"byteOffset":1183348,
			"target":34962
		},
		{
			"buffer":0,
			"byteLength":14304,
			"byteOffset":1204804,
			"target":34962
		},
		{
			"buffer":0,
			"byteLength":5328,
			"byteOffset":1219108,
			"target":34963
		},
		{
			"buffer":0,
			"byteLength":420336,
			"byteOffset":1224436,
			"target":34962
		},
		{
			"buffer":0,
			"byteLength":420336,
			"byteOffset":1644772,
			"target":34962
		},
		{
			"buffer":0,
			"byteLength":280224,
			"byteOffset":2065108,
			"target":34962
		},
		{
			"buffer":0,
			"byteLength":105072,
			"byteOffset":2345332,
			"target":34963
		},
		{
			"buffer":0,
			"byteLength":2592,
			"byteOffset":2450404,
			"target":34962
		},
		{
			"buffer":0,
			"byteLength":2592,
			"byteOffset":2452996,
			"target":34962
		},
		{
			"buffer":0,
			"byteLength":1728,
			"byteOffset":2455588,
			"target":34962
		},
		{
			"buffer":0,
			"byteLength":648,
			"byteOffset":2457316,
			"target":34963
		},
		{
			"buffer":0,
			"byteLength":2160,
			"byteOffset":2457964,
			"target":34962
		},
		{
			"buffer":0,
			"byteLength":2160,
			"byteOffset":2460124,
			"target":34962
		},
		{
			"buffer":0,
			"byteLength":1440,
			"byteOffset":2462284,
			"target":34962
		},
		{
			"buffer":0,
			"byteLength":504,
			"byteOffset":2463724,
			"target":34963
		},
		{
			"buffer":0,
			"byteLength":3324,
			"byteOffset":2464228,
			"target":34962
		},
		{
			"buffer":0,
			"byteLength":3324,
			"byteOffset":2467552,
			"target":34962
		},
		{
			"buffer":0,
			"byteLength":2216,
			"byteOffset":2470876,
			"target":34962
		},
		{
			"buffer":0,
			"byteLength":828,
			"byteOffset":2473092,
			"target":34963
		},
		{
			"buffer":0,
			"byteLength":2592,
			"byteOffset":2473920,
			"target":34962
		},
		{
			"buffer":0,
			"byteLength":2592,
			"byteOffset":2476512,
			"target":34962
		},
		{
			"buffer":0,
			"byteLength":1728,
			"byteOffset":2479104,
			"target":34962
		},
		{
			"buffer":0,
			"byteLength":15552,
			"byteOffset":2480832,
			"target":34962
		},
		{
			"buffer":0,
			"byteLength":15552,
			"byteOffset":2496384,
			"target":34962
		},
		{
			"buffer":0,
			"byteLength":10368,
			"byteOffset":2511936,
			"target":34962
		},
		{
			"buffer":0,
			"byteLength":3888,
			"byteOffset":2522304,
			"target":34963
		},
		{
			"buffer":0,
			"byteLength":11328,
			"byteOffset":2526192,
			"target":34962
		},
		{
			"buffer":0,
			"byteLength":11328,
			"byteOffset":2537520,
			"target":34962
		},
		{
			"buffer":0,
			"byteLength":7552,
			"byteOffset":2548848,
			"target":34962
		},
		{
			"buffer":0,
			"byteLength":2832,
			"byteOffset":2556400,
			"target":34963
		},
		{
			"buffer":0,
			"byteLength":2304,
			"byteOffset":2559232,
			"target":34962
		},
		{
			"buffer":0,
			"byteLength":2304,
			"byteOffset":2561536,
			"target":34962
		},
		{
			"buffer":0,
			"byteLength":1536,
			"byteOffset":2563840,
			"target":34962
		},
		{
			"buffer":0,
			"byteLength":576,
			"byteOffset":2565376,
			"target":34963
		},
		{
			"buffer":0,
			"byteLength":7920,
			"byteOffset":2565952,
			"target":34962
		},
		{
			"buffer":0,
			"byteLength":7920,
			"byteOffset":2573872,
			"target":34962
		},
		{
			"buffer":0,
			"byteLength":5280,
			"byteOffset":2581792,
			"target":34962
		},
		{
			"buffer":0,
			"byteLength":1968,
			"byteOffset":2587072,
			"target":34963
		},
		{
			"buffer":0,
			"byteLength":5472,
			"byteOffset":2589040,
			"target":34962
		},
		{
			"buffer":0,
			"byteLength":5472,
			"byteOffset":2594512,
			"target":34962
		},
		{
			"buffer":0,
			"byteLength":3648,
			"byteOffset":2599984,
			"target":34962
		},
		{
			"buffer":0,
			"byteLength":288,
			"byteOffset":2603632,
			"target":34962
		},
		{
			"buffer":0,
			"byteLength":288,
			"byteOffset":2603920,
			"target":34962
		},
		{
			"buffer":0,
			"byteLength":192,
			"byteOffset":2604208,
			"target":34962
		},
		{
			"buffer":0,
			"byteLength":72,
			"byteOffset":2604400,
			"target":34963
		},
		{
			"buffer":0,
			"byteLength":576,
			"byteOffset":2604472,
			"target":34962
		},
		{
			"buffer":0,
			"byteLength":576,
			"byteOffset":2605048,
			"target":34962
		},
		{
			"buffer":0,
			"byteLength":384,
			"byteOffset":2605624,
			"target":34962
		},
		{
			"buffer":0,
			"byteLength":144,
			"byteOffset":2606008,
			"target":34963
		},
		{
			"buffer":0,
			"byteLength":7200,
			"byteOffset":2606152,
			"target":34962
		},
		{
			"buffer":0,
			"byteLength":7200,
			"byteOffset":2613352,
			"target":34962
		},
		{
			"buffer":0,
			"byteLength":4800,
			"byteOffset":2620552,
			"target":34962
		},
		{
			"buffer":0,
			"byteLength":1200,
			"byteOffset":2625352,
			"target":34963
		}
	],
	"samplers":[
		{
			"magFilter":9729,
			"minFilter":9987
		}
	],
	"buffers":[
		{
			"byteLength":2626552,
			"uri":"city_west_large.bin"
		}
	]
}
