{
	"asset":{
		"generator":"Khronos glTF Blender I/O v5.2.40",
		"version":"2.0"
	},
	"scene":0,
	"scenes":[
		{
			"name":"Scene",
			"nodes":[
				0
			]
		}
	],
	"nodes":[
		{
			"mesh":0,
			"name":"city_orient_town"
		}
	],
	"materials":[
		{
			"doubleSided":true,
			"name":"garden",
			"normalTexture":{
				"index":0
			},
			"pbrMetallicRoughness":{
				"baseColorTexture":{
					"index":1
				},
				"metallicFactor":0
			}
		},
		{
			"doubleSided":true,
			"name":"ground_dirt",
			"normalTexture":{
				"index":2
			},
			"pbrMetallicRoughness":{
				"baseColorTexture":{
					"index":3
				},
				"metallicFactor":0
			}
		},
		{
			"doubleSided":true,
			"name":"concrete",
			"normalTexture":{
				"index":4
			},
			"pbrMetallicRoughness":{
				"baseColorTexture":{
					"index":5
				},
				"metallicFactor":0,
				"roughnessFactor":0.8999999761581421
			}
		},
		{
			"doubleSided":true,
			"name":"stone_sand",
			"normalTexture":{
				"index":6
			},
			"pbrMetallicRoughness":{
				"baseColorTexture":{
					"index":7
				},
				"metallicFactor":0,
				"roughnessFactor":0.8500000238418579
			}
		},
		{
			"doubleSided":true,
			"name":"lead",
			"pbrMetallicRoughness":{
				"baseColorFactor":[
					0.46000000834465027,
					0.49000000953674316,
					0.5199999809265137,
					1
				],
				"metallicFactor":0.25,
				"roughnessFactor":0.6200000047683716
			}
		},
		{
			"doubleSided":true,
			"name":"gold",
			"pbrMetallicRoughness":{
				"baseColorFactor":[
					0.8299999833106995,
					0.6200000047683716,
					0.20000000298023224,
					1
				],
				"roughnessFactor":0.30000001192092896
			}
		},
		{
			"doubleSided":true,
			"name":"ground_cobble",
			"normalTexture":{
				"index":8
			},
			"pbrMetallicRoughness":{
				"baseColorTexture":{
					"index":9
				},
				"metallicFactor":0,
				"roughnessFactor":0.949999988079071
			}
		},
		{
			"doubleSided":true,
			"name":"facade_pink",
			"normalTexture":{
				"index":10
			},
			"pbrMetallicRoughness":{
				"baseColorTexture":{
					"index":11
				},
				"metallicFactor":0,
				"roughnessFactor":0.8500000238418579
			}
		},
		{
			"doubleSided":true,
			"name":"wood_red",
			"normalTexture":{
				"index":12
			},
			"pbrMetallicRoughness":{
				"baseColorTexture":{
					"index":13
				},
				"metallicFactor":0,
				"roughnessFactor":0.8500000238418579
			}
		},
		{
			"doubleSided":true,
			"name":"steel",
			"pbrMetallicRoughness":{
				"baseColorFactor":[
					0.2800000011920929,
					0.30000001192092896,
					0.33000001311302185,
					1
				],
				"metallicFactor":0.800000011920929,
				"roughnessFactor":0.4000000059604645
			}
		},
		{
			"doubleSided":true,
			"name":"trunk",
			"pbrMetallicRoughness":{
				"baseColorFactor":[
					0.25,
					0.17000000178813934,
					0.10000000149011612,
					1
				],
				"metallicFactor":0,
				"roughnessFactor":0.8999999761581421
			}
		},
		{
			"doubleSided":true,
			"name":"tree",
			"pbrMetallicRoughness":{
				"baseColorFactor":[
					0.12999999523162842,
					0.27000001072883606,
					0.09000000357627869,
					1
				],
				"metallicFactor":0,
				"roughnessFactor":0.8999999761581421
			}
		},
		{
			"doubleSided":true,
			"name":"facade_whitewash",
			"normalTexture":{
				"index":14
			},
			"pbrMetallicRoughness":{
				"baseColorTexture":{
					"index":15
				},
				"metallicFactor":0,
				"roughnessFactor":0.8999999761581421
			}
		},
		{
			"doubleSided":true,
			"name":"roof_terracotta",
			"normalTexture":{
				"index":16
			},
			"pbrMetallicRoughness":{
				"baseColorTexture":{
					"index":17
				},
				"metallicFactor":0,
				"roughnessFactor":0.699999988079071
			}
		},
		{
			"doubleSided":true,
			"name":"brick_red",
			"normalTexture":{
				"index":18
			},
			"pbrMetallicRoughness":{
				"baseColorTexture":{
					"index":19
				},
				"metallicFactor":0,
				"roughnessFactor":0.8999999761581421
			}
		},
		{
			"doubleSided":true,
			"name":"tree_dark",
			"pbrMetallicRoughness":{
				"baseColorFactor":[
					0.07999999821186066,
					0.1899999976158142,
					0.07999999821186066,
					1
				],
				"metallicFactor":0,
				"roughnessFactor":0.8999999761581421
			}
		}
	],
	"meshes":[
		{
			"name":"part.9569",
			"primitives":[
				{
					"attributes":{
						"POSITION":0,
						"NORMAL":1,
						"TEXCOORD_0":2
					},
					"indices":3,
					"material":0
				},
				{
					"attributes":{
						"POSITION":4,
						"NORMAL":5,
						"TEXCOORD_0":6
					},
					"indices":7,
					"material":1
				},
				{
					"attributes":{
						"POSITION":8,
						"NORMAL":9,
						"TEXCOORD_0":10
					},
					"indices":11,
					"material":2
				},
				{
					"attributes":{
						"POSITION":12,
						"NORMAL":13,
						"TEXCOORD_0":14
					},
					"indices":15,
					"material":3
				},
				{
					"attributes":{
						"POSITION":16,
						"NORMAL":17,
						"TEXCOORD_0":18
					},
					"indices":19,
					"material":4
				},
				{
					"attributes":{
						"POSITION":20,
						"NORMAL":21,
						"TEXCOORD_0":22
					},
					"indices":23,
					"material":5
				},
				{
					"attributes":{
						"POSITION":24,
						"NORMAL":25,
						"TEXCOORD_0":26
					},
					"indices":27,
					"material":6
				},
				{
					"attributes":{
						"POSITION":28,
						"NORMAL":29,
						"TEXCOORD_0":30
					},
					"indices":31,
					"material":7
				},
				{
					"attributes":{
						"POSITION":32,
						"NORMAL":33,
						"TEXCOORD_0":34
					},
					"indices":35,
					"material":8
				},
				{
					"attributes":{
						"POSITION":36,
						"NORMAL":37,
						"TEXCOORD_0":38
					},
					"indices":39,
					"material":9
				},
				{
					"attributes":{
						"POSITION":40,
						"NORMAL":41,
						"TEXCOORD_0":42
					},
					"indices":43,
					"material":10
				},
				{
					"attributes":{
						"POSITION":44,
						"NORMAL":45,
						"TEXCOORD_0":46
					},
					"indices":47,
					"material":11
				},
				{
					"attributes":{
						"POSITION":48,
						"NORMAL":49,
						"TEXCOORD_0":50
					},
					"indices":51,
					"material":12
				},
				{
					"attributes":{
						"POSITION":52,
						"NORMAL":53,
						"TEXCOORD_0":54
					},
					"indices":55,
					"material":13
				},
				{
					"attributes":{
						"POSITION":56,
						"NORMAL":57,
						"TEXCOORD_0":58
					},
					"indices":59,
					"material":14
				},
				{
					"attributes":{
						"POSITION":60,
						"NORMAL":61,
						"TEXCOORD_0":62
					},
					"indices":63,
					"material":15
				}
			]
		}
	],
	"textures":[
		{
			"sampler":0,
			"source":0
		},
		{
			"sampler":0,
			"source":1
		},
		{
			"sampler":0,
			"source":2
		},
		{
			"sampler":0,
			"source":3
		},
		{
			"sampler":0,
			"source":4
		},
		{
			"sampler":0,
			"source":5
		},
		{
			"sampler":0,
			"source":6
		},
		{
			"sampler":0,
			"source":7
		},
		{
			"sampler":0,
			"source":8
		},
		{
			"sampler":0,
			"source":9
		},
		{
			"sampler":0,
			"source":10
		},
		{
			"sampler":0,
			"source":11
		},
		{
			"sampler":0,
			"source":12
		},
		{
			"sampler":0,
			"source":13
		},
		{
			"sampler":0,
			"source":14
		},
		{
			"sampler":0,
			"source":15
		},
		{
			"sampler":0,
			"source":16
		},
		{
			"sampler":0,
			"source":17
		},
		{
			"sampler":0,
			"source":18
		},
		{
			"sampler":0,
			"source":19
		}
	],
	"images":[
		{
			"mimeType":"image/png",
			"name":"garden_n",
			"uri":"textures/garden_n.png"
		},
		{
			"mimeType":"image/png",
			"name":"garden",
			"uri":"textures/garden.png"
		},
		{
			"mimeType":"image/png",
			"name":"ground_dirt_n",
			"uri":"textures/ground_dirt_n.png"
		},
		{
			"mimeType":"image/png",
			"name":"ground_dirt",
			"uri":"textures/ground_dirt.png"
		},
		{
			"mimeType":"image/png",
			"name":"concrete_n",
			"uri":"textures/concrete_n.png"
		},
		{
			"mimeType":"image/png",
			"name":"concrete",
			"uri":"textures/concrete.png"
		},
		{
			"mimeType":"image/png",
			"name":"stone_sand_n",
			"uri":"textures/stone_sand_n.png"
		},
		{
			"mimeType":"image/png",
			"name":"stone_sand",
			"uri":"textures/stone_sand.png"
		},
		{
			"mimeType":"image/png",
			"name":"ground_cobble_n",
			"uri":"textures/ground_cobble_n.png"
		},
		{
			"mimeType":"image/png",
			"name":"ground_cobble",
			"uri":"textures/ground_cobble.png"
		},
		{
			"mimeType":"image/png",
			"name":"facade_pink_n",
			"uri":"textures/facade_pink_n.png"
		},
		{
			"mimeType":"image/png",
			"name":"facade_pink",
			"uri":"textures/facade_pink.png"
		},
		{
			"mimeType":"image/png",
			"name":"wood_red_n",
			"uri":"textures/wood_red_n.png"
		},
		{
			"mimeType":"image/png",
			"name":"wood_red",
			"uri":"textures/wood_red.png"
		},
		{
			"mimeType":"image/png",
			"name":"facade_whitewash_n",
			"uri":"textures/facade_whitewash_n.png"
		},
		{
			"mimeType":"image/png",
			"name":"facade_whitewash",
			"uri":"textures/facade_whitewash.png"
		},
		{
			"mimeType":"image/png",
			"name":"roof_terracotta_n",
			"uri":"textures/roof_terracotta_n.png"
		},
		{
			"mimeType":"image/png",
			"name":"roof_terracotta",
			"uri":"textures/roof_terracotta.png"
		},
		{
			"mimeType":"image/png",
			"name":"brick_red_n",
			"uri":"textures/brick_red_n.png"
		},
		{
			"mimeType":"image/png",
			"name":"brick_red",
			"uri":"textures/brick_red.png"
		}
	],
	"accessors":[
		{
			"bufferView":0,
			"componentType":5126,
			"count":216,
			"max":[
				0.9963454604148865,
				0.0020000000949949026,
				0.8285124897956848
			],
			"min":[
				-1.0172193050384521,
				-0.029999999329447746,
				-0.8790042996406555
			],
			"type":"VEC3"
		},
		{
			"bufferView":1,
			"componentType":5126,
			"count":216,
			"type":"VEC3"
		},
		{
			"bufferView":2,
			"componentType":5126,
			"count":216,
			"type":"VEC2"
		},
		{
			"bufferView":3,
			"componentType":5123,
			"count":420,
			"type":"SCALAR"
		},
		{
			"bufferView":4,
			"componentType":5126,
			"count":528,
			"max":[
				0.5463173985481262,
				0.004999999888241291,
				0.6821044087409973
			],
			"min":[
				-0.5463173985481262,
				0.0020000000949949026,
				-0.6821044087409973
			],
			"type":"VEC3"
		},
		{
			"bufferView":5,
			"componentType":5126,
			"count":528,
			"type":"VEC3"
		},
		{
			"bufferView":6,
			"componentType":5126,
			"count":528,
			"type":"VEC2"
		},
		{
			"bufferView":7,
			"componentType":5123,
			"count":792,
			"type":"SCALAR"
		},
		{
			"bufferView":8,
			"componentType":5126,
			"count":1396,
			"max":[
				0.7973798513412476,
				0.3319999873638153,
				1.0518065690994263
			],
			"min":[
				-0.7990208864212036,
				0.0020000000949949026,
				-0.9875106811523438
			],
			"type":"VEC3"
		},
		{
			"bufferView":9,
			"componentType":5126,
			"count":1396,
			"type":"VEC3"
		},
		{
			"bufferView":10,
			"componentType":5126,
			"count":1396,
			"type":"VEC2"
		},
		{
			"bufferView":11,
			"componentType":5123,
			"count":2094,
			"type":"SCALAR"
		},
		{
			"bufferView":12,
			"componentType":5126,
			"count":12213,
			"max":[
				0.8190771341323853,
				0.4315199851989746,
				1.073634147644043
			],
			"min":[
				-0.8207181096076965,
				-0.1599999964237213,
				-1.0262930393218994
			],
			"type":"VEC3"
		},
		{
			"bufferView":13,
			"componentType":5126,
			"count":12213,
			"type":"VEC3"
		},
		{
			"bufferView":14,
			"componentType":5126,
			"count":12213,
			"type":"VEC2"
		},
		{
			"bufferView":15,
			"componentType":5123,
			"count":19986,
			"type":"SCALAR"
		},
		{
			"bufferView":16,
			"componentType":5126,
			"count":4417,
			"max":[
				0.33591118454933167,
				0.5307199954986572,
				0.3931216299533844
			],
			"min":[
				-0.4799598753452301,
				0.04800000041723251,
				-0.2893849015235901
			],
			"type":"VEC3"
		},
		{
			"bufferView":17,
			"componentType":5126,
			"count":4417,
			"type":"VEC3"
		},
		{
			"bufferView":18,
			"componentType":5126,
			"count":4417,
			"type":"VEC2"
		},
		{
			"bufferView":19,
			"componentType":5123,
			"count":7674,
			"type":"SCALAR"
		},
		{
			"bufferView":20,
			"componentType":5126,
			"count":32,
			"max":[
				-0.1684102863073349,
				0.4000000059604645,
				0.10077203065156937
			],
			"min":[
				-0.18761028349399567,
				0.35199999809265137,
				0.0815720334649086
			],
			"type":"VEC3"
		},
		{
			"bufferView":21,
			"componentType":5126,
			"count":32,
			"type":"VEC3"
		},
		{
			"bufferView":22,
			"componentType":5126,
			"count":32,
			"type":"VEC2"
		},
		{
			"bufferView":23,
			"componentType":5123,
			"count":42,
			"type":"SCALAR"
		},
		{
			"bufferView":24,
			"componentType":5126,
			"count":24,
			"max":[
				0.3330926299095154,
				0.012000000104308128,
				0.16741631925106049
			],
			"min":[
				-0.09099864959716797,
				0,
				-0.29141026735305786
			],
			"type":"VEC3"
		},
		{
			"bufferView":25,
			"componentType":5126,
			"count":24,
			"type":"VEC3"
		},
		{
			"bufferView":26,
			"componentType":5126,
			"count":24,
			"type":"VEC2"
		},
		{
			"bufferView":27,
			"componentType":5123,
			"count":36,
			"type":"SCALAR"
		},
		{
			"bufferView":28,
			"componentType":5126,
			"count":1080,
			"max":[
				0.7979910373687744,
				0.21897487342357635,
				1.0524178743362427
			],
			"min":[
				-0.7996320724487305,
				0,
				-0.8171346187591553
			],
			"type":"VEC3"
		},
		{
			"bufferView":29,
			"componentType":5126,
			"count":1080,
			"type":"VEC3"
		},
		{
			"bufferView":30,
			"componentType":5126,
			"count":1080,
			"type":"VEC2"
		},
		{
			"bufferView":31,
			"componentType":5123,
			"count":1620,
			"type":"SCALAR"
		},
		{
			"bufferView":32,
			"componentType":5126,
			"count":240,
			"max":[
				0.5013576745986938,
				0.22450000047683716,
				0.8117960095405579
			],
			"min":[
				-0.5029987096786499,
				0,
				-0.8631834387779236
			],
			"type":"VEC3"
		},
		{
			"bufferView":33,
			"componentType":5126,
			"count":240,
			"type":"VEC3"
		},
		{
			"bufferView":34,
			"componentType":5126,
			"count":240,
			"type":"VEC2"
		},
		{
			"bufferView":35,
			"componentType":5123,
			"count":360,
			"type":"SCALAR"
		},
		{
			"bufferView":36,
			"componentType":5126,
			"count":144,
			"max":[
				0.4688270688056946,
				0.15600000321865082,
				0.805968165397644
			],
			"min":[
				-0.47046807408332825,
				0.1340000033378601,
				-0.7580658793449402
			],
			"type":"VEC3"
		},
		{
			"bufferView":37,
			"componentType":5126,
			"count":144,
			"type":"VEC3"
		},
		{
			"bufferView":38,
			"componentType":5126,
			"count":144,
			"type":"VEC2"
		},
		{
			"bufferView":39,
			"componentType":5123,
			"count":216,
			"type":"SCALAR"
		},
		{
			"bufferView":40,
			"componentType":5126,
			"count":882,
			"max":[
				0.8913577198982239,
				0.06583623588085175,
				0.9814731478691101
			],
			"min":[
				-0.9686625599861145,
				0,
				-0.958249568939209
			],
			"type":"VEC3"
		},
		{
			"bufferView":41,
			"componentType":5126,
			"count":882,
			"type":"VEC3"
		},
		{
			"bufferView":42,
			"componentType":5126,
			"count":882,
			"type":"VEC2"
		},
		{
			"bufferView":43,
			"componentType":5123,
			"count":1716,
			"type":"SCALAR"
		},
		{
			"bufferView":44,
			"componentType":5126,
			"count":2932,
			"max":[
				0.9208576679229736,
				0.18498197197914124,
				1.022890329360962
			],
			"min":[
				-1.019660472869873,
				0.02912074327468872,
				-0.9954439401626587
			],
			"type":"VEC3"
		},
		{
			"bufferView":45,
			"componentType":5126,
			"count":2932,
			"type":"VEC3"
		},
		{
			"bufferView":46,
			"componentType":5126,
			"count":2932,
			"type":"VEC2"
		},
		{
			"bufferView":47,
			"componentType":5123,
			"count":2964,
			"type":"SCALAR"
		},
		{
			"bufferView":48,
			"componentType":5126,
			"count":408,
			"max":[
				0.15169666707515717,
				0.21897487342357635,
				0.6097402572631836
			],
			"min":[
				-0.3454934358596802,
				0,
				-0.9881218671798706
			],
			"type":"VEC3"
		},
		{
			"bufferView":49,
			"componentType":5126,
			"count":408,
			"type":"VEC3"
		},
		{
			"bufferView":50,
			"componentType":5126,
			"count":408,
			"type":"VEC2"
		},
		{
			"bufferView":51,
			"componentType":5123,
			"count":612,
			"type":"SCALAR"
		},
		{
			"bufferView":52,
			"componentType":5126,
			"count":72,
			"max":[
				0.172980397939682,
				0.28999999165534973,
				0.6514973044395447
			],
			"min":[
				-0.3667771816253662,
				0.2199999988079071,
				-1.0298789739608765
			],
			"type":"VEC3"
		},
		{
			"bufferView":53,
			"componentType":5126,
			"count":72,
			"type":"VEC3"
		},
		{
			"bufferView":54,
			"componentType":5126,
			"count":72,
			"type":"VEC2"
		},
		{
			"bufferView":55,
			"componentType":5123,
			"count":96,
			"type":"SCALAR"
		},
		{
			"bufferView":56,
			"componentType":5126,
			"count":48,
			"max":[
				0.021998731419444084,
				0.3199999928474426,
				0.5448015332221985
			],
			"min":[
				-0.21579553186893463,
				0.25,
				-0.9231832027435303
			],
			"type":"VEC3"
		},
		{
			"bufferView":57,
			"componentType":5126,
			"count":48,
			"type":"VEC3"
		},
		{
			"bufferView":58,
			"componentType":5126,
			"count":48,
			"type":"VEC2"
		},
		{
			"bufferView":59,
			"componentType":5123,
			"count":72,
			"type":"SCALAR"
		},
		{
			"bufferView":60,
			"componentType":5126,
			"count":140,
			"max":[
				0.9333577156066895,
				0.1797409951686859,
				0.6256197094917297
			],
			"min":[
				0.3282434344291687,
				0.030080748721957207,
				-0.34196826815605164
			],
			"type":"VEC3"
		},
		{
			"bufferView":61,
			"componentType":5126,
			"count":140,
			"type":"VEC3"
		},
		{
			"bufferView":62,
			"componentType":5126,
			"count":140,
			"type":"VEC2"
		},
		{
			"bufferView":63,
			"componentType":5123,
			"count":180,
			"type":"SCALAR"
		}
	],
	"bufferViews":[
		{
			"buffer":0,
			"byteLength":2592,
			"byteOffset":0,
			"target":34962
		},
		{
			"buffer":0,
			"byteLength":2592,
			"byteOffset":2592,
			"target":34962
		},
		{
			"buffer":0,
			"byteLength":1728,
			"byteOffset":5184,
			"target":34962
		},
		{
			"buffer":0,
			"byteLength":840,
			"byteOffset":6912,
			"target":34963
		},
		{
			"buffer":0,
			"byteLength":6336,
			"byteOffset":7752,
			"target":34962
		},
		{
			"buffer":0,
			"byteLength":6336,
			"byteOffset":14088,
			"target":34962
		},
		{
			"buffer":0,
			"byteLength":4224,
			"byteOffset":20424,
			"target":34962
		},
		{
			"buffer":0,
			"byteLength":1584,
			"byteOffset":24648,
			"target":34963
		},
		{
			"buffer":0,
			"byteLength":16752,
			"byteOffset":26232,
			"target":34962
		},
		{
			"buffer":0,
			"byteLength":16752,
			"byteOffset":42984,
			"target":34962
		},
		{
			"buffer":0,
			"byteLength":11168,
			"byteOffset":59736,
			"target":34962
		},
		{
			"buffer":0,
			"byteLength":4188,
			"byteOffset":70904,
			"target":34963
		},
		{
			"buffer":0,
			"byteLength":146556,
			"byteOffset":75092,
			"target":34962
		},
		{
			"buffer":0,
			"byteLength":146556,
			"byteOffset":221648,
			"target":34962
		},
		{
			"buffer":0,
			"byteLength":97704,
			"byteOffset":368204,
			"target":34962
		},
		{
			"buffer":0,
			"byteLength":39972,
			"byteOffset":465908,
			"target":34963
		},
		{
			"buffer":0,
			"byteLength":53004,
			"byteOffset":505880,
			"target":34962
		},
		{
			"buffer":0,
			"byteLength":53004,
			"byteOffset":558884,
			"target":34962
		},
		{
			"buffer":0,
			"byteLength":35336,
			"byteOffset":611888,
			"target":34962
		},
		{
			"buffer":0,
			"byteLength":15348,
			"byteOffset":647224,
			"target":34963
		},
		{
			"buffer":0,
			"byteLength":384,
			"byteOffset":662572,
			"target":34962
		},
		{
			"buffer":0,
			"byteLength":384,
			"byteOffset":662956,
			"target":34962
		},
		{
			"buffer":0,
			"byteLength":256,
			"byteOffset":663340,
			"target":34962
		},
		{
			"buffer":0,
			"byteLength":84,
			"byteOffset":663596,
			"target":34963
		},
		{
			"buffer":0,
			"byteLength":288,
			"byteOffset":663680,
			"target":34962
		},
		{
			"buffer":0,
			"byteLength":288,
			"byteOffset":663968,
			"target":34962
		},
		{
			"buffer":0,
			"byteLength":192,
			"byteOffset":664256,
			"target":34962
		},
		{
			"buffer":0,
			"byteLength":72,
			"byteOffset":664448,
			"target":34963
		},
		{
			"buffer":0,
			"byteLength":12960,
			"byteOffset":664520,
			"target":34962
		},
		{
			"buffer":0,
			"byteLength":12960,
			"byteOffset":677480,
			"target":34962
		},
		{
			"buffer":0,
			"byteLength":8640,
			"byteOffset":690440,
			"target":34962
		},
		{
			"buffer":0,
			"byteLength":3240,
			"byteOffset":699080,
			"target":34963
		},
		{
			"buffer":0,
			"byteLength":2880,
			"byteOffset":702320,
			"target":34962
		},
		{
			"buffer":0,
			"byteLength":2880,
			"byteOffset":705200,
			"target":34962
		},
		{
			"buffer":0,
			"byteLength":1920,
			"byteOffset":708080,
			"target":34962
		},
		{
			"buffer":0,
			"byteLength":720,
			"byteOffset":710000,
			"target":34963
		},
		{
			"buffer":0,
			"byteLength":1728,
			"byteOffset":710720,
			"target":34962
		},
		{
			"buffer":0,
			"byteLength":1728,
			"byteOffset":712448,
			"target":34962
		},
		{
			"buffer":0,
			"byteLength":1152,
			"byteOffset":714176,
			"target":34962
		},
		{
			"buffer":0,
			"byteLength":432,
			"byteOffset":715328,
			"target":34963
		},
		{
			"buffer":0,
			"byteLength":10584,
			"byteOffset":715760,
			"target":34962
		},
		{
			"buffer":0,
			"byteLength":10584,
			"byteOffset":726344,
			"target":34962
		},
		{
			"buffer":0,
			"byteLength":7056,
			"byteOffset":736928,
			"target":34962
		},
		{
			"buffer":0,
			"byteLength":3432,
			"byteOffset":743984,
			"target":34963
		},
		{
			"buffer":0,
			"byteLength":35184,
			"byteOffset":747416,
			"target":34962
		},
		{
			"buffer":0,
			"byteLength":35184,
			"byteOffset":782600,
			"target":34962
		},
		{
			"buffer":0,
			"byteLength":23456,
			"byteOffset":817784,
			"target":34962
		},
		{
			"buffer":0,
			"byteLength":5928,
			"byteOffset":841240,
			"target":34963
		},
		{
			"buffer":0,
			"byteLength":4896,
			"byteOffset":847168,
			"target":34962
		},
		{
			"buffer":0,
			"byteLength":4896,
			"byteOffset":852064,
			"target":34962
		},
		{
			"buffer":0,
			"byteLength":3264,
			"byteOffset":856960,
			"target":34962
		},
		{
			"buffer":0,
			"byteLength":1224,
			"byteOffset":860224,
			"target":34963
		},
		{
			"buffer":0,
			"byteLength":864,
			"byteOffset":861448,
			"target":34962
		},
		{
			"buffer":0,
			"byteLength":864,
			"byteOffset":862312,
			"target":34962
		},
		{
			"buffer":0,
			"byteLength":576,
			"byteOffset":863176,
			"target":34962
		},
		{
			"buffer":0,
			"byteLength":192,
			"byteOffset":863752,
			"target":34963
		},
		{
			"buffer":0,
			"byteLength":576,
			"byteOffset":863944,
			"target":34962
		},
		{
			"buffer":0,
			"byteLength":576,
			"byteOffset":864520,
			"target":34962
		},
		{
			"buffer":0,
			"byteLength":384,
			"byteOffset":865096,
			"target":34962
		},
		{
			"buffer":0,
			"byteLength":144,
			"byteOffset":865480,
			"target":34963
		},
		{
			"buffer":0,
			"byteLength":1680,
			"byteOffset":865624,
			"target":34962
		},
		{
			"buffer":0,
			"byteLength":1680,
			"byteOffset":867304,
			"target":34962
		},
		{
			"buffer":0,
			"byteLength":1120,
			"byteOffset":868984,
			"target":34962
		},
		{
			"buffer":0,
			"byteLength":360,
			"byteOffset":870104,
			"target":34963
		}
	],
	"samplers":[
		{
			"magFilter":9729,
			"minFilter":9987
		}
	],
	"buffers":[
		{
			"byteLength":870464,
			"uri":"city_orient_town.bin"
		}
	]
}
