{
	"asset":{
		"generator":"Khronos glTF Blender I/O v5.2.40",
		"version":"2.0"
	},
	"scene":0,
	"scenes":[
		{
			"name":"Scene",
			"nodes":[
				0
			]
		}
	],
	"nodes":[
		{
			"mesh":0,
			"name":"city_orient_medium"
		}
	],
	"materials":[
		{
			"doubleSided":true,
			"name":"garden",
			"normalTexture":{
				"index":0
			},
			"pbrMetallicRoughness":{
				"baseColorTexture":{
					"index":1
				},
				"metallicFactor":0
			}
		},
		{
			"doubleSided":true,
			"name":"ground_dirt",
			"normalTexture":{
				"index":2
			},
			"pbrMetallicRoughness":{
				"baseColorTexture":{
					"index":3
				},
				"metallicFactor":0
			}
		},
		{
			"doubleSided":true,
			"name":"concrete",
			"normalTexture":{
				"index":4
			},
			"pbrMetallicRoughness":{
				"baseColorTexture":{
					"index":5
				},
				"metallicFactor":0,
				"roughnessFactor":0.8999999761581421
			}
		},
		{
			"doubleSided":true,
			"name":"trunk",
			"pbrMetallicRoughness":{
				"baseColorFactor":[
					0.25,
					0.17000000178813934,
					0.10000000149011612,
					1
				],
				"metallicFactor":0,
				"roughnessFactor":0.8999999761581421
			}
		},
		{
			"doubleSided":true,
			"name":"tree",
			"pbrMetallicRoughness":{
				"baseColorFactor":[
					0.12999999523162842,
					0.27000001072883606,
					0.09000000357627869,
					1
				],
				"metallicFactor":0,
				"roughnessFactor":0.8999999761581421
			}
		},
		{
			"doubleSided":true,
			"name":"facade_cream",
			"normalTexture":{
				"index":6
			},
			"pbrMetallicRoughness":{
				"baseColorTexture":{
					"index":7
				},
				"metallicFactor":0,
				"roughnessFactor":0.8500000238418579
			}
		},
		{
			"doubleSided":true,
			"name":"glass",
			"pbrMetallicRoughness":{
				"baseColorFactor":[
					0.11999999731779099,
					0.1599999964237213,
					0.20000000298023224,
					1
				],
				"metallicFactor":0.5,
				"roughnessFactor":0.10000000149011612
			}
		},
		{
			"doubleSided":true,
			"name":"wood_red",
			"normalTexture":{
				"index":8
			},
			"pbrMetallicRoughness":{
				"baseColorTexture":{
					"index":9
				},
				"metallicFactor":0,
				"roughnessFactor":0.8500000238418579
			}
		},
		{
			"doubleSided":true,
			"name":"stone_sand",
			"normalTexture":{
				"index":10
			},
			"pbrMetallicRoughness":{
				"baseColorTexture":{
					"index":11
				},
				"metallicFactor":0,
				"roughnessFactor":0.8500000238418579
			}
		},
		{
			"doubleSided":true,
			"name":"steel",
			"pbrMetallicRoughness":{
				"baseColorFactor":[
					0.2800000011920929,
					0.30000001192092896,
					0.33000001311302185,
					1
				],
				"metallicFactor":0.800000011920929,
				"roughnessFactor":0.4000000059604645
			}
		},
		{
			"doubleSided":true,
			"name":"roof_terracotta",
			"normalTexture":{
				"index":12
			},
			"pbrMetallicRoughness":{
				"baseColorTexture":{
					"index":13
				},
				"metallicFactor":0,
				"roughnessFactor":0.699999988079071
			}
		},
		{
			"doubleSided":true,
			"name":"brick_red",
			"normalTexture":{
				"index":14
			},
			"pbrMetallicRoughness":{
				"baseColorTexture":{
					"index":15
				},
				"metallicFactor":0,
				"roughnessFactor":0.8999999761581421
			}
		},
		{
			"doubleSided":true,
			"name":"stone_light",
			"normalTexture":{
				"index":16
			},
			"pbrMetallicRoughness":{
				"baseColorTexture":{
					"index":17
				},
				"metallicFactor":0,
				"roughnessFactor":0.800000011920929
			}
		},
		{
			"doubleSided":true,
			"name":"facade_whitewash",
			"normalTexture":{
				"index":18
			},
			"pbrMetallicRoughness":{
				"baseColorTexture":{
					"index":19
				},
				"metallicFactor":0,
				"roughnessFactor":0.8999999761581421
			}
		},
		{
			"doubleSided":true,
			"name":"roof_copper",
			"normalTexture":{
				"index":20
			},
			"pbrMetallicRoughness":{
				"baseColorTexture":{
					"index":21
				},
				"metallicFactor":0.25,
				"roughnessFactor":0.44999998807907104
			}
		},
		{
			"doubleSided":true,
			"name":"facade_ochre",
			"normalTexture":{
				"index":22
			},
			"pbrMetallicRoughness":{
				"baseColorTexture":{
					"index":23
				},
				"metallicFactor":0,
				"roughnessFactor":0.8500000238418579
			}
		},
		{
			"doubleSided":true,
			"name":"facade_beige_flat",
			"normalTexture":{
				"index":24
			},
			"pbrMetallicRoughness":{
				"baseColorTexture":{
					"index":25
				},
				"metallicFactor":0,
				"roughnessFactor":0.8999999761581421
			}
		},
		{
			"doubleSided":true,
			"name":"tree_dark",
			"pbrMetallicRoughness":{
				"baseColorFactor":[
					0.07999999821186066,
					0.1899999976158142,
					0.07999999821186066,
					1
				],
				"metallicFactor":0,
				"roughnessFactor":0.8999999761581421
			}
		},
		{
			"doubleSided":true,
			"name":"city_paving_warm",
			"normalTexture":{
				"index":26
			},
			"pbrMetallicRoughness":{
				"baseColorTexture":{
					"index":27
				},
				"metallicFactor":0,
				"roughnessFactor":0.9200000166893005
			}
		},
		{
			"doubleSided":true,
			"name":"lead",
			"pbrMetallicRoughness":{
				"baseColorFactor":[
					0.46000000834465027,
					0.49000000953674316,
					0.5199999809265137,
					1
				],
				"metallicFactor":0.25,
				"roughnessFactor":0.6200000047683716
			}
		},
		{
			"doubleSided":true,
			"name":"gold",
			"pbrMetallicRoughness":{
				"baseColorFactor":[
					0.8299999833106995,
					0.6200000047683716,
					0.20000000298023224,
					1
				],
				"roughnessFactor":0.30000001192092896
			}
		},
		{
			"doubleSided":true,
			"name":"ground_cobble",
			"normalTexture":{
				"index":28
			},
			"pbrMetallicRoughness":{
				"baseColorTexture":{
					"index":29
				},
				"metallicFactor":0,
				"roughnessFactor":0.949999988079071
			}
		}
	],
	"meshes":[
		{
			"name":"part.9769",
			"primitives":[
				{
					"attributes":{
						"POSITION":0,
						"NORMAL":1,
						"TEXCOORD_0":2
					},
					"indices":3,
					"material":0
				},
				{
					"attributes":{
						"POSITION":4,
						"NORMAL":5,
						"TEXCOORD_0":6
					},
					"indices":7,
					"material":1
				},
				{
					"attributes":{
						"POSITION":8,
						"NORMAL":9,
						"TEXCOORD_0":10
					},
					"indices":11,
					"material":2
				},
				{
					"attributes":{
						"POSITION":12,
						"NORMAL":13,
						"TEXCOORD_0":14
					},
					"indices":15,
					"material":3
				},
				{
					"attributes":{
						"POSITION":16,
						"NORMAL":17,
						"TEXCOORD_0":18
					},
					"indices":19,
					"material":4
				},
				{
					"attributes":{
						"POSITION":20,
						"NORMAL":21,
						"TEXCOORD_0":22
					},
					"indices":23,
					"material":5
				},
				{
					"attributes":{
						"POSITION":24,
						"NORMAL":25,
						"TEXCOORD_0":26
					},
					"indices":27,
					"material":6
				},
				{
					"attributes":{
						"POSITION":28,
						"NORMAL":29,
						"TEXCOORD_0":30
					},
					"indices":31,
					"material":7
				},
				{
					"attributes":{
						"POSITION":32,
						"NORMAL":33,
						"TEXCOORD_0":34
					},
					"indices":35,
					"material":8
				},
				{
					"attributes":{
						"POSITION":36,
						"NORMAL":37,
						"TEXCOORD_0":38
					},
					"indices":39,
					"material":9
				},
				{
					"attributes":{
						"POSITION":40,
						"NORMAL":41,
						"TEXCOORD_0":42
					},
					"indices":43,
					"material":10
				},
				{
					"attributes":{
						"POSITION":44,
						"NORMAL":45,
						"TEXCOORD_0":46
					},
					"indices":27,
					"material":11
				},
				{
					"attributes":{
						"POSITION":47,
						"NORMAL":48,
						"TEXCOORD_0":49
					},
					"indices":50,
					"material":12
				},
				{
					"attributes":{
						"POSITION":51,
						"NORMAL":52,
						"TEXCOORD_0":53
					},
					"indices":54,
					"material":13
				},
				{
					"attributes":{
						"POSITION":55,
						"NORMAL":56,
						"TEXCOORD_0":57
					},
					"indices":58,
					"material":14
				},
				{
					"attributes":{
						"POSITION":59,
						"NORMAL":60,
						"TEXCOORD_0":61
					},
					"indices":62,
					"material":15
				},
				{
					"attributes":{
						"POSITION":63,
						"NORMAL":64,
						"TEXCOORD_0":65
					},
					"indices":66,
					"material":16
				},
				{
					"attributes":{
						"POSITION":67,
						"NORMAL":68,
						"TEXCOORD_0":69
					},
					"indices":70,
					"material":17
				},
				{
					"attributes":{
						"POSITION":71,
						"NORMAL":72,
						"TEXCOORD_0":73
					},
					"indices":74,
					"material":18
				},
				{
					"attributes":{
						"POSITION":75,
						"NORMAL":76,
						"TEXCOORD_0":77
					},
					"indices":78,
					"material":19
				},
				{
					"attributes":{
						"POSITION":79,
						"NORMAL":80,
						"TEXCOORD_0":81
					},
					"indices":82,
					"material":20
				},
				{
					"attributes":{
						"POSITION":83,
						"NORMAL":84,
						"TEXCOORD_0":85
					},
					"indices":74,
					"material":21
				}
			]
		}
	],
	"textures":[
		{
			"sampler":0,
			"source":0
		},
		{
			"sampler":0,
			"source":1
		},
		{
			"sampler":0,
			"source":2
		},
		{
			"sampler":0,
			"source":3
		},
		{
			"sampler":0,
			"source":4
		},
		{
			"sampler":0,
			"source":5
		},
		{
			"sampler":0,
			"source":6
		},
		{
			"sampler":0,
			"source":7
		},
		{
			"sampler":0,
			"source":8
		},
		{
			"sampler":0,
			"source":9
		},
		{
			"sampler":0,
			"source":10
		},
		{
			"sampler":0,
			"source":11
		},
		{
			"sampler":0,
			"source":12
		},
		{
			"sampler":0,
			"source":13
		},
		{
			"sampler":0,
			"source":14
		},
		{
			"sampler":0,
			"source":15
		},
		{
			"sampler":0,
			"source":16
		},
		{
			"sampler":0,
			"source":17
		},
		{
			"sampler":0,
			"source":18
		},
		{
			"sampler":0,
			"source":19
		},
		{
			"sampler":0,
			"source":20
		},
		{
			"sampler":0,
			"source":21
		},
		{
			"sampler":0,
			"source":22
		},
		{
			"sampler":0,
			"source":23
		},
		{
			"sampler":0,
			"source":24
		},
		{
			"sampler":0,
			"source":25
		},
		{
			"sampler":0,
			"source":26
		},
		{
			"sampler":0,
			"source":27
		},
		{
			"sampler":0,
			"source":28
		},
		{
			"sampler":0,
			"source":29
		}
	],
	"images":[
		{
			"mimeType":"image/png",
			"name":"garden_n",
			"uri":"textures/garden_n.png"
		},
		{
			"mimeType":"image/png",
			"name":"garden",
			"uri":"textures/garden.png"
		},
		{
			"mimeType":"image/png",
			"name":"ground_dirt_n",
			"uri":"textures/ground_dirt_n.png"
		},
		{
			"mimeType":"image/png",
			"name":"ground_dirt",
			"uri":"textures/ground_dirt.png"
		},
		{
			"mimeType":"image/png",
			"name":"concrete_n",
			"uri":"textures/concrete_n.png"
		},
		{
			"mimeType":"image/png",
			"name":"concrete",
			"uri":"textures/concrete.png"
		},
		{
			"mimeType":"image/png",
			"name":"facade_cream_n",
			"uri":"textures/facade_cream_n.png"
		},
		{
			"mimeType":"image/png",
			"name":"facade_cream",
			"uri":"textures/facade_cream.png"
		},
		{
			"mimeType":"image/png",
			"name":"wood_red_n",
			"uri":"textures/wood_red_n.png"
		},
		{
			"mimeType":"image/png",
			"name":"wood_red",
			"uri":"textures/wood_red.png"
		},
		{
			"mimeType":"image/png",
			"name":"stone_sand_n",
			"uri":"textures/stone_sand_n.png"
		},
		{
			"mimeType":"image/png",
			"name":"stone_sand",
			"uri":"textures/stone_sand.png"
		},
		{
			"mimeType":"image/png",
			"name":"roof_terracotta_n",
			"uri":"textures/roof_terracotta_n.png"
		},
		{
			"mimeType":"image/png",
			"name":"roof_terracotta",
			"uri":"textures/roof_terracotta.png"
		},
		{
			"mimeType":"image/png",
			"name":"brick_red_n",
			"uri":"textures/brick_red_n.png"
		},
		{
			"mimeType":"image/png",
			"name":"brick_red",
			"uri":"textures/brick_red.png"
		},
		{
			"mimeType":"image/png",
			"name":"stone_light_n",
			"uri":"textures/stone_light_n.png"
		},
		{
			"mimeType":"image/png",
			"name":"stone_light",
			"uri":"textures/stone_light.png"
		},
		{
			"mimeType":"image/png",
			"name":"facade_whitewash_n",
			"uri":"textures/facade_whitewash_n.png"
		},
		{
			"mimeType":"image/png",
			"name":"facade_whitewash",
			"uri":"textures/facade_whitewash.png"
		},
		{
			"mimeType":"image/png",
			"name":"roof_copper_n",
			"uri":"textures/roof_copper_n.png"
		},
		{
			"mimeType":"image/png",
			"name":"roof_copper",
			"uri":"textures/roof_copper.png"
		},
		{
			"mimeType":"image/png",
			"name":"facade_ochre_n",
			"uri":"textures/facade_ochre_n.png"
		},
		{
			"mimeType":"image/png",
			"name":"facade_ochre",
			"uri":"textures/facade_ochre.png"
		},
		{
			"mimeType":"image/png",
			"name":"facade_beige_flat_n",
			"uri":"textures/facade_beige_flat_n.png"
		},
		{
			"mimeType":"image/png",
			"name":"facade_beige_flat",
			"uri":"textures/facade_beige_flat.png"
		},
		{
			"mimeType":"image/png",
			"name":"city_paving_warm_n",
			"uri":"textures/city_paving_warm_n.png"
		},
		{
			"mimeType":"image/png",
			"name":"city_paving_warm",
			"uri":"textures/city_paving_warm.png"
		},
		{
			"mimeType":"image/png",
			"name":"ground_cobble_n",
			"uri":"textures/ground_cobble_n.png"
		},
		{
			"mimeType":"image/png",
			"name":"ground_cobble",
			"uri":"textures/ground_cobble.png"
		}
	],
	"accessors":[
		{
			"bufferView":0,
			"componentType":5126,
			"count":408,
			"max":[
				1.5367400646209717,
				0.003000000026077032,
				1.274733304977417
			],
			"min":[
				-1.5283405780792236,
				-0.029999999329447746,
				-1.3667421340942383
			],
			"type":"VEC3"
		},
		{
			"bufferView":1,
			"componentType":5126,
			"count":408,
			"type":"VEC3"
		},
		{
			"bufferView":2,
			"componentType":5126,
			"count":408,
			"type":"VEC2"
		},
		{
			"bufferView":3,
			"componentType":5123,
			"count":708,
			"type":"SCALAR"
		},
		{
			"bufferView":4,
			"componentType":5126,
			"count":2448,
			"max":[
				1.1467519998550415,
				0.004999999888241291,
				1.0258187055587769
			],
			"min":[
				-1.1467519998550415,
				0.0020000000949949026,
				-1.0258187055587769
			],
			"type":"VEC3"
		},
		{
			"bufferView":5,
			"componentType":5126,
			"count":2448,
			"type":"VEC3"
		},
		{
			"bufferView":6,
			"componentType":5126,
			"count":2448,
			"type":"VEC2"
		},
		{
			"bufferView":7,
			"componentType":5123,
			"count":3672,
			"type":"SCALAR"
		},
		{
			"bufferView":8,
			"componentType":5126,
			"count":5272,
			"max":[
				1.1494516134262085,
				0.6600000262260437,
				1.0285183191299438
			],
			"min":[
				-1.1494516134262085,
				0.0020000000949949026,
				-1.0285183191299438
			],
			"type":"VEC3"
		},
		{
			"bufferView":9,
			"componentType":5126,
			"count":5272,
			"type":"VEC3"
		},
		{
			"bufferView":10,
			"componentType":5126,
			"count":5272,
			"type":"VEC2"
		},
		{
			"bufferView":11,
			"componentType":5123,
			"count":7908,
			"type":"SCALAR"
		},
		{
			"bufferView":12,
			"componentType":5126,
			"count":1283,
			"max":[
				1.484595537185669,
				0.06643357872962952,
				1.2696974277496338
			],
			"min":[
				-1.4855901002883911,
				0,
				-1.2338416576385498
			],
			"type":"VEC3"
		},
		{
			"bufferView":13,
			"componentType":5126,
			"count":1283,
			"type":"VEC3"
		},
		{
			"bufferView":14,
			"componentType":5126,
			"count":1283,
			"type":"VEC2"
		},
		{
			"bufferView":15,
			"componentType":5123,
			"count":2496,
			"type":"SCALAR"
		},
		{
			"bufferView":16,
			"componentType":5126,
			"count":4496,
			"max":[
				1.5201791524887085,
				0.2028243988752365,
				1.3222720623016357
			],
			"min":[
				-1.533586025238037,
				0.026986584067344666,
				-1.2806284427642822
			],
			"type":"VEC3"
		},
		{
			"bufferView":17,
			"componentType":5126,
			"count":4496,
			"type":"VEC3"
		},
		{
			"bufferView":18,
			"componentType":5126,
			"count":4496,
			"type":"VEC2"
		},
		{
			"bufferView":19,
			"componentType":5123,
			"count":4512,
			"type":"SCALAR"
		},
		{
			"bufferView":20,
			"componentType":5126,
			"count":360,
			"max":[
				-0.4323002099990845,
				0.3289748728275299,
				0.3136478066444397
			],
			"min":[
				-0.8133596777915955,
				0,
				-0.5208113789558411
			],
			"type":"VEC3"
		},
		{
			"bufferView":21,
			"componentType":5126,
			"count":360,
			"type":"VEC3"
		},
		{
			"bufferView":22,
			"componentType":5126,
			"count":360,
			"type":"VEC2"
		},
		{
			"bufferView":23,
			"componentType":5123,
			"count":540,
			"type":"SCALAR"
		},
		{
			"bufferView":24,
			"componentType":5126,
			"count":120,
			"max":[
				0.8196427226066589,
				0.0820000022649765,
				0.3239572048187256
			],
			"min":[
				-0.7150877714157104,
				0.012000000104308128,
				0.04975958913564682
			],
			"type":"VEC3"
		},
		{
			"bufferView":25,
			"componentType":5126,
			"count":120,
			"type":"VEC3"
		},
		{
			"bufferView":26,
			"componentType":5126,
			"count":120,
			"type":"VEC2"
		},
		{
			"bufferView":27,
			"componentType":5123,
			"count":180,
			"type":"SCALAR"
		},
		{
			"bufferView":28,
			"componentType":5126,
			"count":312,
			"max":[
				0.8302409648895264,
				0.22450000047683716,
				0.8016632795333862
			],
			"min":[
				-0.7223114967346191,
				0,
				-0.545353353023529
			],
			"type":"VEC3"
		},
		{
			"bufferView":29,
			"componentType":5126,
			"count":312,
			"type":"VEC3"
		},
		{
			"bufferView":30,
			"componentType":5126,
			"count":312,
			"type":"VEC2"
		},
		{
			"bufferView":31,
			"componentType":5123,
			"count":468,
			"type":"SCALAR"
		},
		{
			"bufferView":32,
			"componentType":5126,
			"count":12356,
			"max":[
				0.9287992715835571,
				0.6800000071525574,
				0.8741189241409302
			],
			"min":[
				-0.8455754518508911,
				-0.1599999964237213,
				-0.7778363227844238
			],
			"type":"VEC3"
		},
		{
			"bufferView":33,
			"componentType":5126,
			"count":12356,
			"type":"VEC3"
		},
		{
			"bufferView":34,
			"componentType":5126,
			"count":12356,
			"type":"VEC2"
		},
		{
			"bufferView":35,
			"componentType":5123,
			"count":19626,
			"type":"SCALAR"
		},
		{
			"bufferView":36,
			"componentType":5126,
			"count":336,
			"max":[
				0.8257168531417847,
				0.5960000157356262,
				0.8558180928230286
			],
			"min":[
				-0.6090974807739258,
				0.1340000033378601,
				0.0931287482380867
			],
			"type":"VEC3"
		},
		{
			"bufferView":37,
			"componentType":5126,
			"count":336,
			"type":"VEC3"
		},
		{
			"bufferView":38,
			"componentType":5126,
			"count":336,
			"type":"VEC2"
		},
		{
			"bufferView":39,
			"componentType":5123,
			"count":504,
			"type":"SCALAR"
		},
		{
			"bufferView":40,
			"componentType":5126,
			"count":180,
			"max":[
				0.9322852492332458,
				0.4100000262260437,
				0.765545129776001
			],
			"min":[
				-0.8485819101333618,
				0.10999999940395355,
				-0.7810250520706177
			],
			"type":"VEC3"
		},
		{
			"bufferView":41,
			"componentType":5126,
			"count":180,
			"type":"VEC3"
		},
		{
			"bufferView":42,
			"componentType":5126,
			"count":180,
			"type":"VEC2"
		},
		{
			"bufferView":43,
			"componentType":5123,
			"count":240,
			"type":"SCALAR"
		},
		{
			"bufferView":44,
			"componentType":5126,
			"count":120,
			"max":[
				0.6906189918518066,
				0.4399999976158142,
				0.6176503300666809
			],
			"min":[
				-0.7615141868591309,
				0.14000000059604645,
				-0.6641204357147217
			],
			"type":"VEC3"
		},
		{
			"bufferView":45,
			"componentType":5126,
			"count":120,
			"type":"VEC3"
		},
		{
			"bufferView":46,
			"componentType":5126,
			"count":120,
			"type":"VEC2"
		},
		{
			"bufferView":47,
			"componentType":5126,
			"count":48,
			"max":[
				0.8702794909477234,
				0.0040000081062316895,
				0.3615012466907501
			],
			"min":[
				-0.8028070330619812,
				-0.1599999964237213,
				-0.3263733685016632
			],
			"type":"VEC3"
		},
		{
			"bufferView":48,
			"componentType":5126,
			"count":48,
			"type":"VEC3"
		},
		{
			"bufferView":49,
			"componentType":5126,
			"count":48,
			"type":"VEC2"
		},
		{
			"bufferView":50,
			"componentType":5123,
			"count":72,
			"type":"SCALAR"
		},
		{
			"bufferView":51,
			"componentType":5126,
			"count":588,
			"max":[
				0.8490614891052246,
				0.658974826335907,
				0.8268975019454956
			],
			"min":[
				-0.09101752191781998,
				0,
				-0.7458028197288513
			],
			"type":"VEC3"
		},
		{
			"bufferView":52,
			"componentType":5126,
			"count":588,
			"type":"VEC3"
		},
		{
			"bufferView":53,
			"componentType":5126,
			"count":588,
			"type":"VEC2"
		},
		{
			"bufferView":54,
			"componentType":5123,
			"count":882,
			"type":"SCALAR"
		},
		{
			"bufferView":55,
			"componentType":5126,
			"count":578,
			"max":[
				0.7533478140830994,
				0.7747499942779541,
				0.6975430846214294
			],
			"min":[
				0.16381828486919403,
				0.29499998688697815,
				-0.22436147928237915
			],
			"type":"VEC3"
		},
		{
			"bufferView":56,
			"componentType":5126,
			"count":578,
			"type":"VEC3"
		},
		{
			"bufferView":57,
			"componentType":5126,
			"count":578,
			"type":"VEC2"
		},
		{
			"bufferView":58,
			"componentType":5123,
			"count":1140,
			"type":"SCALAR"
		},
		{
			"bufferView":59,
			"componentType":5126,
			"count":180,
			"max":[
				0.07673124223947525,
				0.1089748814702034,
				-0.3872886598110199
			],
			"min":[
				-0.2515318691730499,
				0,
				-0.6338580846786499
			],
			"type":"VEC3"
		},
		{
			"bufferView":60,
			"componentType":5126,
			"count":180,
			"type":"VEC3"
		},
		{
			"bufferView":61,
			"componentType":5126,
			"count":180,
			"type":"VEC2"
		},
		{
			"bufferView":62,
			"componentType":5123,
			"count":270,
			"type":"SCALAR"
		},
		{
			"bufferView":63,
			"componentType":5126,
			"count":204,
			"max":[
				0.8970630168914795,
				0.75,
				0.7303229570388794
			],
			"min":[
				0.5687999129295349,
				0,
				-0.2319541871547699
			],
			"type":"VEC3"
		},
		{
			"bufferView":64,
			"componentType":5126,
			"count":204,
			"type":"VEC3"
		},
		{
			"bufferView":65,
			"componentType":5126,
			"count":204,
			"type":"VEC2"
		},
		{
			"bufferView":66,
			"componentType":5123,
			"count":306,
			"type":"SCALAR"
		},
		{
			"bufferView":67,
			"componentType":5126,
			"count":112,
			"max":[
				0.6943827867507935,
				0.16254721581935883,
				1.0359910726547241
			],
			"min":[
				-0.7438568472862244,
				0.03442750126123428,
				-0.9614958763122559
			],
			"type":"VEC3"
		},
		{
			"bufferView":68,
			"componentType":5126,
			"count":112,
			"type":"VEC3"
		},
		{
			"bufferView":69,
			"componentType":5126,
			"count":112,
			"type":"VEC2"
		},
		{
			"bufferView":70,
			"componentType":5123,
			"count":144,
			"type":"SCALAR"
		},
		{
			"bufferView":71,
			"componentType":5126,
			"count":24,
			"max":[
				0.3532431423664093,
				0.006000000052154064,
				0.3532431423664093
			],
			"min":[
				-0.3532431423664093,
				0.0020000000949949026,
				-0.3532431423664093
			],
			"type":"VEC3"
		},
		{
			"bufferView":72,
			"componentType":5126,
			"count":24,
			"type":"VEC3"
		},
		{
			"bufferView":73,
			"componentType":5126,
			"count":24,
			"type":"VEC2"
		},
		{
			"bufferView":74,
			"componentType":5123,
			"count":36,
			"type":"SCALAR"
		},
		{
			"bufferView":75,
			"componentType":5126,
			"count":4417,
			"max":[
				0.32999393343925476,
				0.6633999943733215,
				0.6387167572975159
			],
			"min":[
				-0.32214123010635376,
				0.05999999865889549,
				-0.32214123010635376
			],
			"type":"VEC3"
		},
		{
			"bufferView":76,
			"componentType":5126,
			"count":4417,
			"type":"VEC3"
		},
		{
			"bufferView":77,
			"componentType":5126,
			"count":4417,
			"type":"VEC2"
		},
		{
			"bufferView":78,
			"componentType":5123,
			"count":7674,
			"type":"SCALAR"
		},
		{
			"bufferView":79,
			"componentType":5126,
			"count":25,
			"max":[
				0.012000000104308128,
				0.5,
				0.012000000104308128
			],
			"min":[
				-0.012000000104308128,
				0.4399999976158142,
				-0.012000000104308128
			],
			"type":"VEC3"
		},
		{
			"bufferView":80,
			"componentType":5126,
			"count":25,
			"type":"VEC3"
		},
		{
			"bufferView":81,
			"componentType":5126,
			"count":25,
			"type":"VEC2"
		},
		{
			"bufferView":82,
			"componentType":5123,
			"count":42,
			"type":"SCALAR"
		},
		{
			"bufferView":83,
			"componentType":5126,
			"count":24,
			"max":[
				0.32793837785720825,
				0.012000000104308128,
				0.6302048563957214
			],
			"min":[
				-0.18620814383029938,
				0,
				0.1977519989013672
			],
			"type":"VEC3"
		},
		{
			"bufferView":84,
			"componentType":5126,
			"count":24,
			"type":"VEC3"
		},
		{
			"bufferView":85,
			"componentType":5126,
			"count":24,
			"type":"VEC2"
		}
	],
	"bufferViews":[
		{
			"buffer":0,
			"byteLength":4896,
			"byteOffset":0,
			"target":34962
		},
		{
			"buffer":0,
			"byteLength":4896,
			"byteOffset":4896,
			"target":34962
		},
		{
			"buffer":0,
			"byteLength":3264,
			"byteOffset":9792,
			"target":34962
		},
		{
			"buffer":0,
			"byteLength":1416,
			"byteOffset":13056,
			"target":34963
		},
		{
			"buffer":0,
			"byteLength":29376,
			"byteOffset":14472,
			"target":34962
		},
		{
			"buffer":0,
			"byteLength":29376,
			"byteOffset":43848,
			"target":34962
		},
		{
			"buffer":0,
			"byteLength":19584,
			"byteOffset":73224,
			"target":34962
		},
		{
			"buffer":0,
			"byteLength":7344,
			"byteOffset":92808,
			"target":34963
		},
		{
			"buffer":0,
			"byteLength":63264,
			"byteOffset":100152,
			"target":34962
		},
		{
			"buffer":0,
			"byteLength":63264,
			"byteOffset":163416,
			"target":34962
		},
		{
			"buffer":0,
			"byteLength":42176,
			"byteOffset":226680,
			"target":34962
		},
		{
			"buffer":0,
			"byteLength":15816,
			"byteOffset":268856,
			"target":34963
		},
		{
			"buffer":0,
			"byteLength":15396,
			"byteOffset":284672,
			"target":34962
		},
		{
			"buffer":0,
			"byteLength":15396,
			"byteOffset":300068,
			"target":34962
		},
		{
			"buffer":0,
			"byteLength":10264,
			"byteOffset":315464,
			"target":34962
		},
		{
			"buffer":0,
			"byteLength":4992,
			"byteOffset":325728,
			"target":34963
		},
		{
			"buffer":0,
			"byteLength":53952,
			"byteOffset":330720,
			"target":34962
		},
		{
			"buffer":0,
			"byteLength":53952,
			"byteOffset":384672,
			"target":34962
		},
		{
			"buffer":0,
			"byteLength":35968,
			"byteOffset":438624,
			"target":34962
		},
		{
			"buffer":0,
			"byteLength":9024,
			"byteOffset":474592,
			"target":34963
		},
		{
			"buffer":0,
			"byteLength":4320,
			"byteOffset":483616,
			"target":34962
		},
		{
			"buffer":0,
			"byteLength":4320,
			"byteOffset":487936,
			"target":34962
		},
		{
			"buffer":0,
			"byteLength":2880,
			"byteOffset":492256,
			"target":34962
		},
		{
			"buffer":0,
			"byteLength":1080,
			"byteOffset":495136,
			"target":34963
		},
		{
			"buffer":0,
			"byteLength":1440,
			"byteOffset":496216,
			"target":34962
		},
		{
			"buffer":0,
			"byteLength":1440,
			"byteOffset":497656,
			"target":34962
		},
		{
			"buffer":0,
			"byteLength":960,
			"byteOffset":499096,
			"target":34962
		},
		{
			"buffer":0,
			"byteLength":360,
			"byteOffset":500056,
			"target":34963
		},
		{
			"buffer":0,
			"byteLength":3744,
			"byteOffset":500416,
			"target":34962
		},
		{
			"buffer":0,
			"byteLength":3744,
			"byteOffset":504160,
			"target":34962
		},
		{
			"buffer":0,
			"byteLength":2496,
			"byteOffset":507904,
			"target":34962
		},
		{
			"buffer":0,
			"byteLength":936,
			"byteOffset":510400,
			"target":34963
		},
		{
			"buffer":0,
			"byteLength":148272,
			"byteOffset":511336,
			"target":34962
		},
		{
			"buffer":0,
			"byteLength":148272,
			"byteOffset":659608,
			"target":34962
		},
		{
			"buffer":0,
			"byteLength":98848,
			"byteOffset":807880,
			"target":34962
		},
		{
			"buffer":0,
			"byteLength":39252,
			"byteOffset":906728,
			"target":34963
		},
		{
			"buffer":0,
			"byteLength":4032,
			"byteOffset":945980,
			"target":34962
		},
		{
			"buffer":0,
			"byteLength":4032,
			"byteOffset":950012,
			"target":34962
		},
		{
			"buffer":0,
			"byteLength":2688,
			"byteOffset":954044,
			"target":34962
		},
		{
			"buffer":0,
			"byteLength":1008,
			"byteOffset":956732,
			"target":34963
		},
		{
			"buffer":0,
			"byteLength":2160,
			"byteOffset":957740,
			"target":34962
		},
		{
			"buffer":0,
			"byteLength":2160,
			"byteOffset":959900,
			"target":34962
		},
		{
			"buffer":0,
			"byteLength":1440,
			"byteOffset":962060,
			"target":34962
		},
		{
			"buffer":0,
			"byteLength":480,
			"byteOffset":963500,
			"target":34963
		},
		{
			"buffer":0,
			"byteLength":1440,
			"byteOffset":963980,
			"target":34962
		},
		{
			"buffer":0,
			"byteLength":1440,
			"byteOffset":965420,
			"target":34962
		},
		{
			"buffer":0,
			"byteLength":960,
			"byteOffset":966860,
			"target":34962
		},
		{
			"buffer":0,
			"byteLength":576,
			"byteOffset":967820,
			"target":34962
		},
		{
			"buffer":0,
			"byteLength":576,
			"byteOffset":968396,
			"target":34962
		},
		{
			"buffer":0,
			"byteLength":384,
			"byteOffset":968972,
			"target":34962
		},
		{
			"buffer":0,
			"byteLength":144,
			"byteOffset":969356,
			"target":34963
		},
		{
			"buffer":0,
			"byteLength":7056,
			"byteOffset":969500,
			"target":34962
		},
		{
			"buffer":0,
			"byteLength":7056,
			"byteOffset":976556,
			"target":34962
		},
		{
			"buffer":0,
			"byteLength":4704,
			"byteOffset":983612,
			"target":34962
		},
		{
			"buffer":0,
			"byteLength":1764,
			"byteOffset":988316,
			"target":34963
		},
		{
			"buffer":0,
			"byteLength":6936,
			"byteOffset":990080,
			"target":34962
		},
		{
			"buffer":0,
			"byteLength":6936,
			"byteOffset":997016,
			"target":34962
		},
		{
			"buffer":0,
			"byteLength":4624,
			"byteOffset":1003952,
			"target":34962
		},
		{
			"buffer":0,
			"byteLength":2280,
			"byteOffset":1008576,
			"target":34963
		},
		{
			"buffer":0,
			"byteLength":2160,
			"byteOffset":1010856,
			"target":34962
		},
		{
			"buffer":0,
			"byteLength":2160,
			"byteOffset":1013016,
			"target":34962
		},
		{
			"buffer":0,
			"byteLength":1440,
			"byteOffset":1015176,
			"target":34962
		},
		{
			"buffer":0,
			"byteLength":540,
			"byteOffset":1016616,
			"target":34963
		},
		{
			"buffer":0,
			"byteLength":2448,
			"byteOffset":1017156,
			"target":34962
		},
		{
			"buffer":0,
			"byteLength":2448,
			"byteOffset":1019604,
			"target":34962
		},
		{
			"buffer":0,
			"byteLength":1632,
			"byteOffset":1022052,
			"target":34962
		},
		{
			"buffer":0,
			"byteLength":612,
			"byteOffset":1023684,
			"target":34963
		},
		{
			"buffer":0,
			"byteLength":1344,
			"byteOffset":1024296,
			"target":34962
		},
		{
			"buffer":0,
			"byteLength":1344,
			"byteOffset":1025640,
			"target":34962
		},
		{
			"buffer":0,
			"byteLength":896,
			"byteOffset":1026984,
			"target":34962
		},
		{
			"buffer":0,
			"byteLength":288,
			"byteOffset":1027880,
			"target":34963
		},
		{
			"buffer":0,
			"byteLength":288,
			"byteOffset":1028168,
			"target":34962
		},
		{
			"buffer":0,
			"byteLength":288,
			"byteOffset":1028456,
			"target":34962
		},
		{
			"buffer":0,
			"byteLength":192,
			"byteOffset":1028744,
			"target":34962
		},
		{
			"buffer":0,
			"byteLength":72,
			"byteOffset":1028936,
			"target":34963
		},
		{
			"buffer":0,
			"byteLength":53004,
			"byteOffset":1029008,
			"target":34962
		},
		{
			"buffer":0,
			"byteLength":53004,
			"byteOffset":1082012,
			"target":34962
		},
		{
			"buffer":0,
			"byteLength":35336,
			"byteOffset":1135016,
			"target":34962
		},
		{
			"buffer":0,
			"byteLength":15348,
			"byteOffset":1170352,
			"target":34963
		},
		{
			"buffer":0,
			"byteLength":300,
			"byteOffset":1185700,
			"target":34962
		},
		{
			"buffer":0,
			"byteLength":300,
			"byteOffset":1186000,
			"target":34962
		},
		{
			"buffer":0,
			"byteLength":200,
			"byteOffset":1186300,
			"target":34962
		},
		{
			"buffer":0,
			"byteLength":84,
			"byteOffset":1186500,
			"target":34963
		},
		{
			"buffer":0,
			"byteLength":288,
			"byteOffset":1186584,
			"target":34962
		},
		{
			"buffer":0,
			"byteLength":288,
			"byteOffset":1186872,
			"target":34962
		},
		{
			"buffer":0,
			"byteLength":192,
			"byteOffset":1187160,
			"target":34962
		}
	],
	"samplers":[
		{
			"magFilter":9729,
			"minFilter":9987
		}
	],
	"buffers":[
		{
			"byteLength":1187352,
			"uri":"city_orient_medium.bin"
		}
	]
}
