{
	"asset":{
		"generator":"Khronos glTF Blender I/O v5.2.40",
		"version":"2.0"
	},
	"scene":0,
	"scenes":[
		{
			"name":"Scene",
			"nodes":[
				0
			]
		}
	],
	"nodes":[
		{
			"mesh":0,
			"name":"city_east_town"
		}
	],
	"materials":[
		{
			"doubleSided":true,
			"name":"garden",
			"normalTexture":{
				"index":0
			},
			"pbrMetallicRoughness":{
				"baseColorTexture":{
					"index":1
				},
				"metallicFactor":0
			}
		},
		{
			"doubleSided":true,
			"name":"ground_dirt",
			"normalTexture":{
				"index":2
			},
			"pbrMetallicRoughness":{
				"baseColorTexture":{
					"index":3
				},
				"metallicFactor":0
			}
		},
		{
			"doubleSided":true,
			"name":"concrete",
			"normalTexture":{
				"index":4
			},
			"pbrMetallicRoughness":{
				"baseColorTexture":{
					"index":5
				},
				"metallicFactor":0,
				"roughnessFactor":0.8999999761581421
			}
		},
		{
			"doubleSided":true,
			"name":"facade_whitewash",
			"normalTexture":{
				"index":6
			},
			"pbrMetallicRoughness":{
				"baseColorTexture":{
					"index":7
				},
				"metallicFactor":0,
				"roughnessFactor":0.8999999761581421
			}
		},
		{
			"doubleSided":true,
			"name":"roof_copper",
			"normalTexture":{
				"index":8
			},
			"pbrMetallicRoughness":{
				"baseColorTexture":{
					"index":9
				},
				"metallicFactor":0.25,
				"roughnessFactor":0.44999998807907104
			}
		},
		{
			"doubleSided":true,
			"name":"gold",
			"pbrMetallicRoughness":{
				"baseColorFactor":[
					0.8299999833106995,
					0.6200000047683716,
					0.20000000298023224,
					1
				],
				"roughnessFactor":0.30000001192092896
			}
		},
		{
			"doubleSided":true,
			"name":"onion_blue",
			"pbrMetallicRoughness":{
				"baseColorFactor":[
					0.1599999964237213,
					0.3400000035762787,
					0.6200000047683716,
					1
				],
				"metallicFactor":0.20000000298023224,
				"roughnessFactor":0.3499999940395355
			}
		},
		{
			"doubleSided":true,
			"name":"wood_white",
			"normalTexture":{
				"index":10
			},
			"pbrMetallicRoughness":{
				"baseColorTexture":{
					"index":11
				},
				"metallicFactor":0,
				"roughnessFactor":0.8500000238418579
			}
		},
		{
			"doubleSided":true,
			"name":"white",
			"pbrMetallicRoughness":{
				"baseColorFactor":[
					0.8999999761581421,
					0.8899999856948853,
					0.8500000238418579,
					1
				],
				"metallicFactor":0,
				"roughnessFactor":0.6000000238418579
			}
		},
		{
			"doubleSided":true,
			"name":"wood_red",
			"normalTexture":{
				"index":12
			},
			"pbrMetallicRoughness":{
				"baseColorTexture":{
					"index":13
				},
				"metallicFactor":0,
				"roughnessFactor":0.8500000238418579
			}
		},
		{
			"doubleSided":true,
			"name":"roof_slate",
			"normalTexture":{
				"index":14
			},
			"pbrMetallicRoughness":{
				"baseColorTexture":{
					"index":15
				},
				"metallicFactor":0,
				"roughnessFactor":0.550000011920929
			}
		},
		{
			"doubleSided":true,
			"name":"brick_red",
			"normalTexture":{
				"index":16
			},
			"pbrMetallicRoughness":{
				"baseColorTexture":{
					"index":17
				},
				"metallicFactor":0,
				"roughnessFactor":0.8999999761581421
			}
		},
		{
			"doubleSided":true,
			"name":"stone_light",
			"normalTexture":{
				"index":18
			},
			"pbrMetallicRoughness":{
				"baseColorTexture":{
					"index":19
				},
				"metallicFactor":0,
				"roughnessFactor":0.800000011920929
			}
		},
		{
			"doubleSided":true,
			"name":"trunk",
			"pbrMetallicRoughness":{
				"baseColorFactor":[
					0.25,
					0.17000000178813934,
					0.10000000149011612,
					1
				],
				"metallicFactor":0,
				"roughnessFactor":0.8999999761581421
			}
		},
		{
			"doubleSided":true,
			"name":"tree_autumn",
			"pbrMetallicRoughness":{
				"baseColorFactor":[
					0.3199999928474426,
					0.33000001311302185,
					0.10000000149011612,
					1
				],
				"metallicFactor":0,
				"roughnessFactor":0.8999999761581421
			}
		},
		{
			"doubleSided":true,
			"name":"wood_yellow",
			"normalTexture":{
				"index":20
			},
			"pbrMetallicRoughness":{
				"baseColorTexture":{
					"index":21
				},
				"metallicFactor":0,
				"roughnessFactor":0.8500000238418579
			}
		},
		{
			"doubleSided":true,
			"name":"roof_dark",
			"normalTexture":{
				"index":22
			},
			"pbrMetallicRoughness":{
				"baseColorTexture":{
					"index":23
				},
				"metallicFactor":0,
				"roughnessFactor":0.699999988079071
			}
		},
		{
			"doubleSided":true,
			"name":"tree_dark",
			"pbrMetallicRoughness":{
				"baseColorFactor":[
					0.07999999821186066,
					0.1899999976158142,
					0.07999999821186066,
					1
				],
				"metallicFactor":0,
				"roughnessFactor":0.8999999761581421
			}
		},
		{
			"doubleSided":true,
			"name":"tree",
			"pbrMetallicRoughness":{
				"baseColorFactor":[
					0.12999999523162842,
					0.27000001072883606,
					0.09000000357627869,
					1
				],
				"metallicFactor":0,
				"roughnessFactor":0.8999999761581421
			}
		},
		{
			"doubleSided":true,
			"name":"facade_yellow",
			"normalTexture":{
				"index":24
			},
			"pbrMetallicRoughness":{
				"baseColorTexture":{
					"index":25
				},
				"metallicFactor":0,
				"roughnessFactor":0.8500000238418579
			}
		}
	],
	"meshes":[
		{
			"name":"part.5361",
			"primitives":[
				{
					"attributes":{
						"POSITION":0,
						"NORMAL":1,
						"TEXCOORD_0":2
					},
					"indices":3,
					"material":0
				},
				{
					"attributes":{
						"POSITION":4,
						"NORMAL":5,
						"TEXCOORD_0":6
					},
					"indices":7,
					"material":1
				},
				{
					"attributes":{
						"POSITION":8,
						"NORMAL":9,
						"TEXCOORD_0":10
					},
					"indices":11,
					"material":2
				},
				{
					"attributes":{
						"POSITION":12,
						"NORMAL":13,
						"TEXCOORD_0":14
					},
					"indices":15,
					"material":3
				},
				{
					"attributes":{
						"POSITION":16,
						"NORMAL":17,
						"TEXCOORD_0":18
					},
					"indices":19,
					"material":4
				},
				{
					"attributes":{
						"POSITION":20,
						"NORMAL":21,
						"TEXCOORD_0":22
					},
					"indices":23,
					"material":5
				},
				{
					"attributes":{
						"POSITION":24,
						"NORMAL":25,
						"TEXCOORD_0":26
					},
					"indices":27,
					"material":6
				},
				{
					"attributes":{
						"POSITION":28,
						"NORMAL":29,
						"TEXCOORD_0":30
					},
					"indices":31,
					"material":7
				},
				{
					"attributes":{
						"POSITION":32,
						"NORMAL":33,
						"TEXCOORD_0":34
					},
					"indices":35,
					"material":8
				},
				{
					"attributes":{
						"POSITION":36,
						"NORMAL":37,
						"TEXCOORD_0":38
					},
					"indices":39,
					"material":9
				},
				{
					"attributes":{
						"POSITION":40,
						"NORMAL":41,
						"TEXCOORD_0":42
					},
					"indices":43,
					"material":10
				},
				{
					"attributes":{
						"POSITION":44,
						"NORMAL":45,
						"TEXCOORD_0":46
					},
					"indices":39,
					"material":11
				},
				{
					"attributes":{
						"POSITION":47,
						"NORMAL":48,
						"TEXCOORD_0":49
					},
					"indices":50,
					"material":12
				},
				{
					"attributes":{
						"POSITION":51,
						"NORMAL":52,
						"TEXCOORD_0":53
					},
					"indices":54,
					"material":13
				},
				{
					"attributes":{
						"POSITION":55,
						"NORMAL":56,
						"TEXCOORD_0":57
					},
					"indices":58,
					"material":14
				},
				{
					"attributes":{
						"POSITION":59,
						"NORMAL":60,
						"TEXCOORD_0":61
					},
					"indices":62,
					"material":15
				},
				{
					"attributes":{
						"POSITION":63,
						"NORMAL":64,
						"TEXCOORD_0":65
					},
					"indices":66,
					"material":16
				},
				{
					"attributes":{
						"POSITION":67,
						"NORMAL":68,
						"TEXCOORD_0":69
					},
					"indices":70,
					"material":17
				},
				{
					"attributes":{
						"POSITION":71,
						"NORMAL":72,
						"TEXCOORD_0":73
					},
					"indices":74,
					"material":18
				},
				{
					"attributes":{
						"POSITION":75,
						"NORMAL":76,
						"TEXCOORD_0":77
					},
					"indices":78,
					"material":19
				}
			]
		}
	],
	"textures":[
		{
			"sampler":0,
			"source":0
		},
		{
			"sampler":0,
			"source":1
		},
		{
			"sampler":0,
			"source":2
		},
		{
			"sampler":0,
			"source":3
		},
		{
			"sampler":0,
			"source":4
		},
		{
			"sampler":0,
			"source":5
		},
		{
			"sampler":0,
			"source":6
		},
		{
			"sampler":0,
			"source":7
		},
		{
			"sampler":0,
			"source":8
		},
		{
			"sampler":0,
			"source":9
		},
		{
			"sampler":0,
			"source":10
		},
		{
			"sampler":0,
			"source":11
		},
		{
			"sampler":0,
			"source":12
		},
		{
			"sampler":0,
			"source":13
		},
		{
			"sampler":0,
			"source":14
		},
		{
			"sampler":0,
			"source":15
		},
		{
			"sampler":0,
			"source":16
		},
		{
			"sampler":0,
			"source":17
		},
		{
			"sampler":0,
			"source":18
		},
		{
			"sampler":0,
			"source":19
		},
		{
			"sampler":0,
			"source":20
		},
		{
			"sampler":0,
			"source":21
		},
		{
			"sampler":0,
			"source":22
		},
		{
			"sampler":0,
			"source":23
		},
		{
			"sampler":0,
			"source":24
		},
		{
			"sampler":0,
			"source":25
		}
	],
	"images":[
		{
			"mimeType":"image/png",
			"name":"garden_n",
			"uri":"textures/garden_n.png"
		},
		{
			"mimeType":"image/png",
			"name":"garden",
			"uri":"textures/garden.png"
		},
		{
			"mimeType":"image/png",
			"name":"ground_dirt_n",
			"uri":"textures/ground_dirt_n.png"
		},
		{
			"mimeType":"image/png",
			"name":"ground_dirt",
			"uri":"textures/ground_dirt.png"
		},
		{
			"mimeType":"image/png",
			"name":"concrete_n",
			"uri":"textures/concrete_n.png"
		},
		{
			"mimeType":"image/png",
			"name":"concrete",
			"uri":"textures/concrete.png"
		},
		{
			"mimeType":"image/png",
			"name":"facade_whitewash_n",
			"uri":"textures/facade_whitewash_n.png"
		},
		{
			"mimeType":"image/png",
			"name":"facade_whitewash",
			"uri":"textures/facade_whitewash.png"
		},
		{
			"mimeType":"image/png",
			"name":"roof_copper_n",
			"uri":"textures/roof_copper_n.png"
		},
		{
			"mimeType":"image/png",
			"name":"roof_copper",
			"uri":"textures/roof_copper.png"
		},
		{
			"mimeType":"image/png",
			"name":"wood_white_n",
			"uri":"textures/wood_white_n.png"
		},
		{
			"mimeType":"image/png",
			"name":"wood_white",
			"uri":"textures/wood_white.png"
		},
		{
			"mimeType":"image/png",
			"name":"wood_red_n",
			"uri":"textures/wood_red_n.png"
		},
		{
			"mimeType":"image/png",
			"name":"wood_red",
			"uri":"textures/wood_red.png"
		},
		{
			"mimeType":"image/png",
			"name":"roof_slate_n",
			"uri":"textures/roof_slate_n.png"
		},
		{
			"mimeType":"image/png",
			"name":"roof_slate",
			"uri":"textures/roof_slate.png"
		},
		{
			"mimeType":"image/png",
			"name":"brick_red_n",
			"uri":"textures/brick_red_n.png"
		},
		{
			"mimeType":"image/png",
			"name":"brick_red",
			"uri":"textures/brick_red.png"
		},
		{
			"mimeType":"image/png",
			"name":"stone_light_n",
			"uri":"textures/stone_light_n.png"
		},
		{
			"mimeType":"image/png",
			"name":"stone_light",
			"uri":"textures/stone_light.png"
		},
		{
			"mimeType":"image/png",
			"name":"wood_yellow_n",
			"uri":"textures/wood_yellow_n.png"
		},
		{
			"mimeType":"image/png",
			"name":"wood_yellow",
			"uri":"textures/wood_yellow.png"
		},
		{
			"mimeType":"image/png",
			"name":"roof_dark_n",
			"uri":"textures/roof_dark_n.png"
		},
		{
			"mimeType":"image/png",
			"name":"roof_dark",
			"uri":"textures/roof_dark.png"
		},
		{
			"mimeType":"image/png",
			"name":"facade_yellow_n",
			"uri":"textures/facade_yellow_n.png"
		},
		{
			"mimeType":"image/png",
			"name":"facade_yellow",
			"uri":"textures/facade_yellow.png"
		}
	],
	"accessors":[
		{
			"bufferView":0,
			"componentType":5126,
			"count":216,
			"max":[
				1.0226082801818848,
				0.0020000000949949026,
				0.8368959426879883
			],
			"min":[
				-0.9702900052070618,
				-0.029999999329447746,
				-0.853164792060852
			],
			"type":"VEC3"
		},
		{
			"bufferView":1,
			"componentType":5126,
			"count":216,
			"type":"VEC3"
		},
		{
			"bufferView":2,
			"componentType":5126,
			"count":216,
			"type":"VEC2"
		},
		{
			"bufferView":3,
			"componentType":5123,
			"count":420,
			"type":"SCALAR"
		},
		{
			"bufferView":4,
			"componentType":5126,
			"count":528,
			"max":[
				0.5961308479309082,
				0.004999999888241291,
				0.7446991205215454
			],
			"min":[
				-0.5961308479309082,
				0.0020000000949949026,
				-0.7446991205215454
			],
			"type":"VEC3"
		},
		{
			"bufferView":5,
			"componentType":5126,
			"count":528,
			"type":"VEC3"
		},
		{
			"bufferView":6,
			"componentType":5126,
			"count":528,
			"type":"VEC2"
		},
		{
			"bufferView":7,
			"componentType":5123,
			"count":792,
			"type":"SCALAR"
		},
		{
			"bufferView":8,
			"componentType":5126,
			"count":1248,
			"max":[
				0.5989248752593994,
				0.34200000762939453,
				0.9349762201309204
			],
			"min":[
				-0.5989248752593994,
				0.0020000000949949026,
				-0.9673880338668823
			],
			"type":"VEC3"
		},
		{
			"bufferView":9,
			"componentType":5126,
			"count":1248,
			"type":"VEC3"
		},
		{
			"bufferView":10,
			"componentType":5126,
			"count":1248,
			"type":"VEC2"
		},
		{
			"bufferView":11,
			"componentType":5123,
			"count":1872,
			"type":"SCALAR"
		},
		{
			"bufferView":12,
			"componentType":5126,
			"count":466,
			"max":[
				-0.0230371356010437,
				0.44999998807907104,
				0.2088157832622528
			],
			"min":[
				-0.5618728995323181,
				0,
				-0.13896355032920837
			],
			"type":"VEC3"
		},
		{
			"bufferView":13,
			"componentType":5126,
			"count":466,
			"type":"VEC3"
		},
		{
			"bufferView":14,
			"componentType":5126,
			"count":466,
			"type":"VEC2"
		},
		{
			"bufferView":15,
			"componentType":5123,
			"count":948,
			"type":"SCALAR"
		},
		{
			"bufferView":16,
			"componentType":5126,
			"count":54,
			"max":[
				0.0001481473445892334,
				0.5699999928474426,
				0.23200106620788574
			],
			"min":[
				-0.5423170328140259,
				0.2800000011920929,
				-0.1621488332748413
			],
			"type":"VEC3"
		},
		{
			"bufferView":17,
			"componentType":5126,
			"count":54,
			"type":"VEC3"
		},
		{
			"bufferView":18,
			"componentType":5126,
			"count":54,
			"type":"VEC2"
		},
		{
			"bufferView":19,
			"componentType":5123,
			"count":78,
			"type":"SCALAR"
		},
		{
			"bufferView":20,
			"componentType":5126,
			"count":488,
			"max":[
				-0.12342680245637894,
				0.6040000319480896,
				0.10842612385749817
			],
			"min":[
				-0.27042680978775024,
				0.4000000059604645,
				-0.03857387974858284
			],
			"type":"VEC3"
		},
		{
			"bufferView":21,
			"componentType":5126,
			"count":488,
			"type":"VEC3"
		},
		{
			"bufferView":22,
			"componentType":5126,
			"count":488,
			"type":"VEC2"
		},
		{
			"bufferView":23,
			"componentType":5123,
			"count":738,
			"type":"SCALAR"
		},
		{
			"bufferView":24,
			"componentType":5126,
			"count":1780,
			"max":[
				-0.04425034299492836,
				0.4269999861717224,
				0.18760257959365845
			],
			"min":[
				-0.3496032655239105,
				0.3499999940395355,
				-0.11775033921003342
			],
			"type":"VEC3"
		},
		{
			"bufferView":25,
			"componentType":5126,
			"count":1780,
			"type":"VEC3"
		},
		{
			"bufferView":26,
			"componentType":5126,
			"count":1780,
			"type":"VEC2"
		},
		{
			"bufferView":27,
			"componentType":5123,
			"count":2664,
			"type":"SCALAR"
		},
		{
			"bufferView":28,
			"componentType":5126,
			"count":456,
			"max":[
				0.5945073366165161,
				0.32999998331069946,
				0.9569842219352722
			],
			"min":[
				0.13528920710086823,
				0,
				0.17444683611392975
			],
			"type":"VEC3"
		},
		{
			"bufferView":29,
			"componentType":5126,
			"count":456,
			"type":"VEC3"
		},
		{
			"bufferView":30,
			"componentType":5126,
			"count":456,
			"type":"VEC2"
		},
		{
			"bufferView":31,
			"componentType":5123,
			"count":672,
			"type":"SCALAR"
		},
		{
			"bufferView":32,
			"componentType":5126,
			"count":5856,
			"max":[
				0.5755801796913147,
				0.2280000001192093,
				0.9891197681427002
			],
			"min":[
				-0.47588878870010376,
				0.024000000208616257,
				-1.0461474657058716
			],
			"type":"VEC3"
		},
		{
			"bufferView":33,
			"componentType":5126,
			"count":5856,
			"type":"VEC3"
		},
		{
			"bufferView":34,
			"componentType":5126,
			"count":5856,
			"type":"VEC2"
		},
		{
			"bufferView":35,
			"componentType":5123,
			"count":8784,
			"type":"SCALAR"
		},
		{
			"bufferView":36,
			"componentType":5126,
			"count":192,
			"max":[
				0.26830029487609863,
				0.07500000298023224,
				0.8194698691368103
			],
			"min":[
				-0.2613500654697418,
				0,
				-0.8804936408996582
			],
			"type":"VEC3"
		},
		{
			"bufferView":37,
			"componentType":5126,
			"count":192,
			"type":"VEC3"
		},
		{
			"bufferView":38,
			"componentType":5126,
			"count":192,
			"type":"VEC2"
		},
		{
			"bufferView":39,
			"componentType":5123,
			"count":288,
			"type":"SCALAR"
		},
		{
			"bufferView":40,
			"componentType":5126,
			"count":168,
			"max":[
				0.5945073366165161,
				0.32999998331069946,
				0.9569842219352722
			],
			"min":[
				-0.3698350191116333,
				0.2199999988079071,
				-1.0245743989944458
			],
			"type":"VEC3"
		},
		{
			"bufferView":41,
			"componentType":5126,
			"count":168,
			"type":"VEC3"
		},
		{
			"bufferView":42,
			"componentType":5126,
			"count":168,
			"type":"VEC2"
		},
		{
			"bufferView":43,
			"componentType":5123,
			"count":240,
			"type":"SCALAR"
		},
		{
			"bufferView":44,
			"componentType":5126,
			"count":192,
			"max":[
				0.4078138470649719,
				0.32999998331069946,
				0.9291799068450928
			],
			"min":[
				-0.3579857051372528,
				0.15000000596046448,
				-0.9615917205810547
			],
			"type":"VEC3"
		},
		{
			"bufferView":45,
			"componentType":5126,
			"count":192,
			"type":"VEC3"
		},
		{
			"bufferView":46,
			"componentType":5126,
			"count":192,
			"type":"VEC2"
		},
		{
			"bufferView":47,
			"componentType":5126,
			"count":496,
			"max":[
				0.590390682220459,
				0.07699999958276749,
				1.005070447921753
			],
			"min":[
				-0.491798996925354,
				-0.1599999964237213,
				-1.0600297451019287
			],
			"type":"VEC3"
		},
		{
			"bufferView":48,
			"componentType":5126,
			"count":496,
			"type":"VEC3"
		},
		{
			"bufferView":49,
			"componentType":5126,
			"count":496,
			"type":"VEC2"
		},
		{
			"bufferView":50,
			"componentType":5123,
			"count":888,
			"type":"SCALAR"
		},
		{
			"bufferView":51,
			"componentType":5126,
			"count":844,
			"max":[
				0.8896898031234741,
				0.06525992602109909,
				0.9035927057266235
			],
			"min":[
				-0.936309814453125,
				0,
				-0.9201201796531677
			],
			"type":"VEC3"
		},
		{
			"bufferView":52,
			"componentType":5126,
			"count":844,
			"type":"VEC3"
		},
		{
			"bufferView":53,
			"componentType":5126,
			"count":844,
			"type":"VEC2"
		},
		{
			"bufferView":54,
			"componentType":5123,
			"count":1638,
			"type":"SCALAR"
		},
		{
			"bufferView":55,
			"componentType":5126,
			"count":1140,
			"max":[
				0.9450150728225708,
				0.19182729721069336,
				0.7720340490341187
			],
			"min":[
				-0.6179603934288025,
				0.02880099043250084,
				-0.7956386804580688
			],
			"type":"VEC3"
		},
		{
			"bufferView":56,
			"componentType":5126,
			"count":1140,
			"type":"VEC3"
		},
		{
			"bufferView":57,
			"componentType":5126,
			"count":1140,
			"type":"VEC2"
		},
		{
			"bufferView":58,
			"componentType":5123,
			"count":1140,
			"type":"SCALAR"
		},
		{
			"bufferView":59,
			"componentType":5126,
			"count":912,
			"max":[
				0.27711808681488037,
				0.2199999988079071,
				1.0080468654632568
			],
			"min":[
				-0.4948159456253052,
				0,
				-0.9392372369766235
			],
			"type":"VEC3"
		},
		{
			"bufferView":60,
			"componentType":5126,
			"count":912,
			"type":"VEC3"
		},
		{
			"bufferView":61,
			"componentType":5126,
			"count":912,
			"type":"VEC2"
		},
		{
			"bufferView":62,
			"componentType":5123,
			"count":1344,
			"type":"SCALAR"
		},
		{
			"bufferView":63,
			"componentType":5126,
			"count":96,
			"max":[
				0.27711808681488037,
				0.2199999988079071,
				1.0080468654632568
			],
			"min":[
				-0.4948159456253052,
				0.10999999940395355,
				-0.9392372369766235
			],
			"type":"VEC3"
		},
		{
			"bufferView":64,
			"componentType":5126,
			"count":96,
			"type":"VEC3"
		},
		{
			"bufferView":65,
			"componentType":5126,
			"count":96,
			"type":"VEC2"
		},
		{
			"bufferView":66,
			"componentType":5123,
			"count":144,
			"type":"SCALAR"
		},
		{
			"bufferView":67,
			"componentType":5126,
			"count":692,
			"max":[
				0.9315151572227478,
				0.2044811099767685,
				0.9447306394577026
			],
			"min":[
				-0.5242862105369568,
				0.02702317386865616,
				-0.9612581133842468
			],
			"type":"VEC3"
		},
		{
			"bufferView":68,
			"componentType":5126,
			"count":692,
			"type":"VEC3"
		},
		{
			"bufferView":69,
			"componentType":5126,
			"count":692,
			"type":"VEC2"
		},
		{
			"bufferView":70,
			"componentType":5123,
			"count":804,
			"type":"SCALAR"
		},
		{
			"bufferView":71,
			"componentType":5126,
			"count":700,
			"max":[
				0.9190151691436768,
				0.19047600030899048,
				0.9325440526008606
			],
			"min":[
				-0.9748861193656921,
				0.03535260260105133,
				-0.5820662379264832
			],
			"type":"VEC3"
		},
		{
			"bufferView":72,
			"componentType":5126,
			"count":700,
			"type":"VEC3"
		},
		{
			"bufferView":73,
			"componentType":5126,
			"count":700,
			"type":"VEC2"
		},
		{
			"bufferView":74,
			"componentType":5123,
			"count":780,
			"type":"SCALAR"
		},
		{
			"bufferView":75,
			"componentType":5126,
			"count":504,
			"max":[
				0.2956392467021942,
				0.32999998331069946,
				0.613659679889679
			],
			"min":[
				-0.3698350191116333,
				0,
				-1.0320039987564087
			],
			"type":"VEC3"
		},
		{
			"bufferView":76,
			"componentType":5126,
			"count":504,
			"type":"VEC3"
		},
		{
			"bufferView":77,
			"componentType":5126,
			"count":504,
			"type":"VEC2"
		},
		{
			"bufferView":78,
			"componentType":5123,
			"count":744,
			"type":"SCALAR"
		}
	],
	"bufferViews":[
		{
			"buffer":0,
			"byteLength":2592,
			"byteOffset":0,
			"target":34962
		},
		{
			"buffer":0,
			"byteLength":2592,
			"byteOffset":2592,
			"target":34962
		},
		{
			"buffer":0,
			"byteLength":1728,
			"byteOffset":5184,
			"target":34962
		},
		{
			"buffer":0,
			"byteLength":840,
			"byteOffset":6912,
			"target":34963
		},
		{
			"buffer":0,
			"byteLength":6336,
			"byteOffset":7752,
			"target":34962
		},
		{
			"buffer":0,
			"byteLength":6336,
			"byteOffset":14088,
			"target":34962
		},
		{
			"buffer":0,
			"byteLength":4224,
			"byteOffset":20424,
			"target":34962
		},
		{
			"buffer":0,
			"byteLength":1584,
			"byteOffset":24648,
			"target":34963
		},
		{
			"buffer":0,
			"byteLength":14976,
			"byteOffset":26232,
			"target":34962
		},
		{
			"buffer":0,
			"byteLength":14976,
			"byteOffset":41208,
			"target":34962
		},
		{
			"buffer":0,
			"byteLength":9984,
			"byteOffset":56184,
			"target":34962
		},
		{
			"buffer":0,
			"byteLength":3744,
			"byteOffset":66168,
			"target":34963
		},
		{
			"buffer":0,
			"byteLength":5592,
			"byteOffset":69912,
			"target":34962
		},
		{
			"buffer":0,
			"byteLength":5592,
			"byteOffset":75504,
			"target":34962
		},
		{
			"buffer":0,
			"byteLength":3728,
			"byteOffset":81096,
			"target":34962
		},
		{
			"buffer":0,
			"byteLength":1896,
			"byteOffset":84824,
			"target":34963
		},
		{
			"buffer":0,
			"byteLength":648,
			"byteOffset":86720,
			"target":34962
		},
		{
			"buffer":0,
			"byteLength":648,
			"byteOffset":87368,
			"target":34962
		},
		{
			"buffer":0,
			"byteLength":432,
			"byteOffset":88016,
			"target":34962
		},
		{
			"buffer":0,
			"byteLength":156,
			"byteOffset":88448,
			"target":34963
		},
		{
			"buffer":0,
			"byteLength":5856,
			"byteOffset":88604,
			"target":34962
		},
		{
			"buffer":0,
			"byteLength":5856,
			"byteOffset":94460,
			"target":34962
		},
		{
			"buffer":0,
			"byteLength":3904,
			"byteOffset":100316,
			"target":34962
		},
		{
			"buffer":0,
			"byteLength":1476,
			"byteOffset":104220,
			"target":34963
		},
		{
			"buffer":0,
			"byteLength":21360,
			"byteOffset":105696,
			"target":34962
		},
		{
			"buffer":0,
			"byteLength":21360,
			"byteOffset":127056,
			"target":34962
		},
		{
			"buffer":0,
			"byteLength":14240,
			"byteOffset":148416,
			"target":34962
		},
		{
			"buffer":0,
			"byteLength":5328,
			"byteOffset":162656,
			"target":34963
		},
		{
			"buffer":0,
			"byteLength":5472,
			"byteOffset":167984,
			"target":34962
		},
		{
			"buffer":0,
			"byteLength":5472,
			"byteOffset":173456,
			"target":34962
		},
		{
			"buffer":0,
			"byteLength":3648,
			"byteOffset":178928,
			"target":34962
		},
		{
			"buffer":0,
			"byteLength":1344,
			"byteOffset":182576,
			"target":34963
		},
		{
			"buffer":0,
			"byteLength":70272,
			"byteOffset":183920,
			"target":34962
		},
		{
			"buffer":0,
			"byteLength":70272,
			"byteOffset":254192,
			"target":34962
		},
		{
			"buffer":0,
			"byteLength":46848,
			"byteOffset":324464,
			"target":34962
		},
		{
			"buffer":0,
			"byteLength":17568,
			"byteOffset":371312,
			"target":34963
		},
		{
			"buffer":0,
			"byteLength":2304,
			"byteOffset":388880,
			"target":34962
		},
		{
			"buffer":0,
			"byteLength":2304,
			"byteOffset":391184,
			"target":34962
		},
		{
			"buffer":0,
			"byteLength":1536,
			"byteOffset":393488,
			"target":34962
		},
		{
			"buffer":0,
			"byteLength":576,
			"byteOffset":395024,
			"target":34963
		},
		{
			"buffer":0,
			"byteLength":2016,
			"byteOffset":395600,
			"target":34962
		},
		{
			"buffer":0,
			"byteLength":2016,
			"byteOffset":397616,
			"target":34962
		},
		{
			"buffer":0,
			"byteLength":1344,
			"byteOffset":399632,
			"target":34962
		},
		{
			"buffer":0,
			"byteLength":480,
			"byteOffset":400976,
			"target":34963
		},
		{
			"buffer":0,
			"byteLength":2304,
			"byteOffset":401456,
			"target":34962
		},
		{
			"buffer":0,
			"byteLength":2304,
			"byteOffset":403760,
			"target":34962
		},
		{
			"buffer":0,
			"byteLength":1536,
			"byteOffset":406064,
			"target":34962
		},
		{
			"buffer":0,
			"byteLength":5952,
			"byteOffset":407600,
			"target":34962
		},
		{
			"buffer":0,
			"byteLength":5952,
			"byteOffset":413552,
			"target":34962
		},
		{
			"buffer":0,
			"byteLength":3968,
			"byteOffset":419504,
			"target":34962
		},
		{
			"buffer":0,
			"byteLength":1776,
			"byteOffset":423472,
			"target":34963
		},
		{
			"buffer":0,
			"byteLength":10128,
			"byteOffset":425248,
			"target":34962
		},
		{
			"buffer":0,
			"byteLength":10128,
			"byteOffset":435376,
			"target":34962
		},
		{
			"buffer":0,
			"byteLength":6752,
			"byteOffset":445504,
			"target":34962
		},
		{
			"buffer":0,
			"byteLength":3276,
			"byteOffset":452256,
			"target":34963
		},
		{
			"buffer":0,
			"byteLength":13680,
			"byteOffset":455532,
			"target":34962
		},
		{
			"buffer":0,
			"byteLength":13680,
			"byteOffset":469212,
			"target":34962
		},
		{
			"buffer":0,
			"byteLength":9120,
			"byteOffset":482892,
			"target":34962
		},
		{
			"buffer":0,
			"byteLength":2280,
			"byteOffset":492012,
			"target":34963
		},
		{
			"buffer":0,
			"byteLength":10944,
			"byteOffset":494292,
			"target":34962
		},
		{
			"buffer":0,
			"byteLength":10944,
			"byteOffset":505236,
			"target":34962
		},
		{
			"buffer":0,
			"byteLength":7296,
			"byteOffset":516180,
			"target":34962
		},
		{
			"buffer":0,
			"byteLength":2688,
			"byteOffset":523476,
			"target":34963
		},
		{
			"buffer":0,
			"byteLength":1152,
			"byteOffset":526164,
			"target":34962
		},
		{
			"buffer":0,
			"byteLength":1152,
			"byteOffset":527316,
			"target":34962
		},
		{
			"buffer":0,
			"byteLength":768,
			"byteOffset":528468,
			"target":34962
		},
		{
			"buffer":0,
			"byteLength":288,
			"byteOffset":529236,
			"target":34963
		},
		{
			"buffer":0,
			"byteLength":8304,
			"byteOffset":529524,
			"target":34962
		},
		{
			"buffer":0,
			"byteLength":8304,
			"byteOffset":537828,
			"target":34962
		},
		{
			"buffer":0,
			"byteLength":5536,
			"byteOffset":546132,
			"target":34962
		},
		{
			"buffer":0,
			"byteLength":1608,
			"byteOffset":551668,
			"target":34963
		},
		{
			"buffer":0,
			"byteLength":8400,
			"byteOffset":553276,
			"target":34962
		},
		{
			"buffer":0,
			"byteLength":8400,
			"byteOffset":561676,
			"target":34962
		},
		{
			"buffer":0,
			"byteLength":5600,
			"byteOffset":570076,
			"target":34962
		},
		{
			"buffer":0,
			"byteLength":1560,
			"byteOffset":575676,
			"target":34963
		},
		{
			"buffer":0,
			"byteLength":6048,
			"byteOffset":577236,
			"target":34962
		},
		{
			"buffer":0,
			"byteLength":6048,
			"byteOffset":583284,
			"target":34962
		},
		{
			"buffer":0,
			"byteLength":4032,
			"byteOffset":589332,
			"target":34962
		},
		{
			"buffer":0,
			"byteLength":1488,
			"byteOffset":593364,
			"target":34963
		}
	],
	"samplers":[
		{
			"magFilter":9729,
			"minFilter":9987
		}
	],
	"buffers":[
		{
			"byteLength":594852,
			"uri":"city_east_town.bin"
		}
	]
}
