{
	"asset":{
		"generator":"Khronos glTF Blender I/O v5.2.40",
		"version":"2.0"
	},
	"scene":0,
	"scenes":[
		{
			"name":"Scene",
			"nodes":[
				0
			]
		}
	],
	"nodes":[
		{
			"mesh":0,
			"name":"city_east_medium"
		}
	],
	"materials":[
		{
			"doubleSided":true,
			"name":"garden",
			"normalTexture":{
				"index":0
			},
			"pbrMetallicRoughness":{
				"baseColorTexture":{
					"index":1
				},
				"metallicFactor":0
			}
		},
		{
			"doubleSided":true,
			"name":"asphalt",
			"normalTexture":{
				"index":2
			},
			"pbrMetallicRoughness":{
				"baseColorTexture":{
					"index":3
				},
				"metallicFactor":0,
				"roughnessFactor":0.8500000238418579
			}
		},
		{
			"doubleSided":true,
			"name":"concrete",
			"normalTexture":{
				"index":4
			},
			"pbrMetallicRoughness":{
				"baseColorTexture":{
					"index":5
				},
				"metallicFactor":0,
				"roughnessFactor":0.8999999761581421
			}
		},
		{
			"doubleSided":true,
			"name":"trunk",
			"pbrMetallicRoughness":{
				"baseColorFactor":[
					0.25,
					0.17000000178813934,
					0.10000000149011612,
					1
				],
				"metallicFactor":0,
				"roughnessFactor":0.8999999761581421
			}
		},
		{
			"doubleSided":true,
			"name":"tree_dark",
			"pbrMetallicRoughness":{
				"baseColorFactor":[
					0.07999999821186066,
					0.1899999976158142,
					0.07999999821186066,
					1
				],
				"metallicFactor":0,
				"roughnessFactor":0.8999999761581421
			}
		},
		{
			"doubleSided":true,
			"name":"tree_autumn",
			"pbrMetallicRoughness":{
				"baseColorFactor":[
					0.3199999928474426,
					0.33000001311302185,
					0.10000000149011612,
					1
				],
				"metallicFactor":0,
				"roughnessFactor":0.8999999761581421
			}
		},
		{
			"doubleSided":true,
			"name":"tree",
			"pbrMetallicRoughness":{
				"baseColorFactor":[
					0.12999999523162842,
					0.27000001072883606,
					0.09000000357627869,
					1
				],
				"metallicFactor":0,
				"roughnessFactor":0.8999999761581421
			}
		},
		{
			"doubleSided":true,
			"name":"facade_cream",
			"normalTexture":{
				"index":6
			},
			"pbrMetallicRoughness":{
				"baseColorTexture":{
					"index":7
				},
				"metallicFactor":0,
				"roughnessFactor":0.8500000238418579
			}
		},
		{
			"doubleSided":true,
			"name":"stone_light",
			"normalTexture":{
				"index":8
			},
			"pbrMetallicRoughness":{
				"baseColorTexture":{
					"index":9
				},
				"metallicFactor":0,
				"roughnessFactor":0.800000011920929
			}
		},
		{
			"doubleSided":true,
			"name":"steel",
			"pbrMetallicRoughness":{
				"baseColorFactor":[
					0.2800000011920929,
					0.30000001192092896,
					0.33000001311302185,
					1
				],
				"metallicFactor":0.800000011920929,
				"roughnessFactor":0.4000000059604645
			}
		},
		{
			"doubleSided":true,
			"name":"wood_red",
			"normalTexture":{
				"index":10
			},
			"pbrMetallicRoughness":{
				"baseColorTexture":{
					"index":11
				},
				"metallicFactor":0,
				"roughnessFactor":0.8500000238418579
			}
		},
		{
			"doubleSided":true,
			"name":"roof_copper",
			"normalTexture":{
				"index":12
			},
			"pbrMetallicRoughness":{
				"baseColorTexture":{
					"index":13
				},
				"metallicFactor":0.25,
				"roughnessFactor":0.44999998807907104
			}
		},
		{
			"doubleSided":true,
			"name":"brick_red",
			"normalTexture":{
				"index":14
			},
			"pbrMetallicRoughness":{
				"baseColorTexture":{
					"index":15
				},
				"metallicFactor":0,
				"roughnessFactor":0.8999999761581421
			}
		},
		{
			"doubleSided":true,
			"name":"facade_yellow",
			"normalTexture":{
				"index":16
			},
			"pbrMetallicRoughness":{
				"baseColorTexture":{
					"index":17
				},
				"metallicFactor":0,
				"roughnessFactor":0.8500000238418579
			}
		},
		{
			"doubleSided":true,
			"name":"white",
			"pbrMetallicRoughness":{
				"baseColorFactor":[
					0.8999999761581421,
					0.8899999856948853,
					0.8500000238418579,
					1
				],
				"metallicFactor":0,
				"roughnessFactor":0.6000000238418579
			}
		},
		{
			"doubleSided":true,
			"name":"roof_slate",
			"normalTexture":{
				"index":18
			},
			"pbrMetallicRoughness":{
				"baseColorTexture":{
					"index":19
				},
				"metallicFactor":0,
				"roughnessFactor":0.550000011920929
			}
		},
		{
			"doubleSided":true,
			"name":"wood_white",
			"normalTexture":{
				"index":20
			},
			"pbrMetallicRoughness":{
				"baseColorTexture":{
					"index":21
				},
				"metallicFactor":0,
				"roughnessFactor":0.8500000238418579
			}
		},
		{
			"doubleSided":true,
			"name":"city_paving_warm",
			"normalTexture":{
				"index":22
			},
			"pbrMetallicRoughness":{
				"baseColorTexture":{
					"index":23
				},
				"metallicFactor":0,
				"roughnessFactor":0.9200000166893005
			}
		},
		{
			"doubleSided":true,
			"name":"facade_whitewash",
			"normalTexture":{
				"index":24
			},
			"pbrMetallicRoughness":{
				"baseColorTexture":{
					"index":25
				},
				"metallicFactor":0,
				"roughnessFactor":0.8999999761581421
			}
		},
		{
			"doubleSided":true,
			"name":"gold",
			"pbrMetallicRoughness":{
				"baseColorFactor":[
					0.8299999833106995,
					0.6200000047683716,
					0.20000000298023224,
					1
				],
				"roughnessFactor":0.30000001192092896
			}
		},
		{
			"doubleSided":true,
			"name":"onion_blue",
			"pbrMetallicRoughness":{
				"baseColorFactor":[
					0.1599999964237213,
					0.3400000035762787,
					0.6200000047683716,
					1
				],
				"metallicFactor":0.20000000298023224,
				"roughnessFactor":0.3499999940395355
			}
		}
	],
	"meshes":[
		{
			"name":"part.5528",
			"primitives":[
				{
					"attributes":{
						"POSITION":0,
						"NORMAL":1,
						"TEXCOORD_0":2
					},
					"indices":3,
					"material":0
				},
				{
					"attributes":{
						"POSITION":4,
						"NORMAL":5,
						"TEXCOORD_0":6
					},
					"indices":7,
					"material":1
				},
				{
					"attributes":{
						"POSITION":8,
						"NORMAL":9,
						"TEXCOORD_0":10
					},
					"indices":11,
					"material":2
				},
				{
					"attributes":{
						"POSITION":12,
						"NORMAL":13,
						"TEXCOORD_0":14
					},
					"indices":15,
					"material":3
				},
				{
					"attributes":{
						"POSITION":16,
						"NORMAL":17,
						"TEXCOORD_0":18
					},
					"indices":19,
					"material":4
				},
				{
					"attributes":{
						"POSITION":20,
						"NORMAL":21,
						"TEXCOORD_0":22
					},
					"indices":23,
					"material":5
				},
				{
					"attributes":{
						"POSITION":24,
						"NORMAL":25,
						"TEXCOORD_0":26
					},
					"indices":27,
					"material":6
				},
				{
					"attributes":{
						"POSITION":28,
						"NORMAL":29,
						"TEXCOORD_0":30
					},
					"indices":31,
					"material":7
				},
				{
					"attributes":{
						"POSITION":32,
						"NORMAL":33,
						"TEXCOORD_0":34
					},
					"indices":35,
					"material":8
				},
				{
					"attributes":{
						"POSITION":36,
						"NORMAL":37,
						"TEXCOORD_0":38
					},
					"indices":39,
					"material":9
				},
				{
					"attributes":{
						"POSITION":40,
						"NORMAL":41,
						"TEXCOORD_0":42
					},
					"indices":43,
					"material":10
				},
				{
					"attributes":{
						"POSITION":44,
						"NORMAL":45,
						"TEXCOORD_0":46
					},
					"indices":47,
					"material":11
				},
				{
					"attributes":{
						"POSITION":48,
						"NORMAL":49,
						"TEXCOORD_0":50
					},
					"indices":51,
					"material":12
				},
				{
					"attributes":{
						"POSITION":52,
						"NORMAL":53,
						"TEXCOORD_0":54
					},
					"indices":55,
					"material":13
				},
				{
					"attributes":{
						"POSITION":56,
						"NORMAL":57,
						"TEXCOORD_0":58
					},
					"indices":59,
					"material":14
				},
				{
					"attributes":{
						"POSITION":60,
						"NORMAL":61,
						"TEXCOORD_0":62
					},
					"indices":63,
					"material":15
				},
				{
					"attributes":{
						"POSITION":64,
						"NORMAL":65,
						"TEXCOORD_0":66
					},
					"indices":67,
					"material":16
				},
				{
					"attributes":{
						"POSITION":68,
						"NORMAL":69,
						"TEXCOORD_0":70
					},
					"indices":71,
					"material":17
				},
				{
					"attributes":{
						"POSITION":72,
						"NORMAL":73,
						"TEXCOORD_0":74
					},
					"indices":75,
					"material":18
				},
				{
					"attributes":{
						"POSITION":76,
						"NORMAL":77,
						"TEXCOORD_0":78
					},
					"indices":79,
					"material":19
				},
				{
					"attributes":{
						"POSITION":80,
						"NORMAL":81,
						"TEXCOORD_0":82
					},
					"indices":83,
					"material":20
				}
			]
		}
	],
	"textures":[
		{
			"sampler":0,
			"source":0
		},
		{
			"sampler":0,
			"source":1
		},
		{
			"sampler":0,
			"source":2
		},
		{
			"sampler":0,
			"source":3
		},
		{
			"sampler":0,
			"source":4
		},
		{
			"sampler":0,
			"source":5
		},
		{
			"sampler":0,
			"source":6
		},
		{
			"sampler":0,
			"source":7
		},
		{
			"sampler":0,
			"source":8
		},
		{
			"sampler":0,
			"source":9
		},
		{
			"sampler":0,
			"source":10
		},
		{
			"sampler":0,
			"source":11
		},
		{
			"sampler":0,
			"source":12
		},
		{
			"sampler":0,
			"source":13
		},
		{
			"sampler":0,
			"source":14
		},
		{
			"sampler":0,
			"source":15
		},
		{
			"sampler":0,
			"source":16
		},
		{
			"sampler":0,
			"source":17
		},
		{
			"sampler":0,
			"source":18
		},
		{
			"sampler":0,
			"source":19
		},
		{
			"sampler":0,
			"source":20
		},
		{
			"sampler":0,
			"source":21
		},
		{
			"sampler":0,
			"source":22
		},
		{
			"sampler":0,
			"source":23
		},
		{
			"sampler":0,
			"source":24
		},
		{
			"sampler":0,
			"source":25
		}
	],
	"images":[
		{
			"mimeType":"image/png",
			"name":"garden_n",
			"uri":"textures/garden_n.png"
		},
		{
			"mimeType":"image/png",
			"name":"garden",
			"uri":"textures/garden.png"
		},
		{
			"mimeType":"image/png",
			"name":"asphalt_n",
			"uri":"textures/asphalt_n.png"
		},
		{
			"mimeType":"image/png",
			"name":"asphalt",
			"uri":"textures/asphalt.png"
		},
		{
			"mimeType":"image/png",
			"name":"concrete_n",
			"uri":"textures/concrete_n.png"
		},
		{
			"mimeType":"image/png",
			"name":"concrete",
			"uri":"textures/concrete.png"
		},
		{
			"mimeType":"image/png",
			"name":"facade_cream_n",
			"uri":"textures/facade_cream_n.png"
		},
		{
			"mimeType":"image/png",
			"name":"facade_cream",
			"uri":"textures/facade_cream.png"
		},
		{
			"mimeType":"image/png",
			"name":"stone_light_n",
			"uri":"textures/stone_light_n.png"
		},
		{
			"mimeType":"image/png",
			"name":"stone_light",
			"uri":"textures/stone_light.png"
		},
		{
			"mimeType":"image/png",
			"name":"wood_red_n",
			"uri":"textures/wood_red_n.png"
		},
		{
			"mimeType":"image/png",
			"name":"wood_red",
			"uri":"textures/wood_red.png"
		},
		{
			"mimeType":"image/png",
			"name":"roof_copper_n",
			"uri":"textures/roof_copper_n.png"
		},
		{
			"mimeType":"image/png",
			"name":"roof_copper",
			"uri":"textures/roof_copper.png"
		},
		{
			"mimeType":"image/png",
			"name":"brick_red_n",
			"uri":"textures/brick_red_n.png"
		},
		{
			"mimeType":"image/png",
			"name":"brick_red",
			"uri":"textures/brick_red.png"
		},
		{
			"mimeType":"image/png",
			"name":"facade_yellow_n",
			"uri":"textures/facade_yellow_n.png"
		},
		{
			"mimeType":"image/png",
			"name":"facade_yellow",
			"uri":"textures/facade_yellow.png"
		},
		{
			"mimeType":"image/png",
			"name":"roof_slate_n",
			"uri":"textures/roof_slate_n.png"
		},
		{
			"mimeType":"image/png",
			"name":"roof_slate",
			"uri":"textures/roof_slate.png"
		},
		{
			"mimeType":"image/png",
			"name":"wood_white_n",
			"uri":"textures/wood_white_n.png"
		},
		{
			"mimeType":"image/png",
			"name":"wood_white",
			"uri":"textures/wood_white.png"
		},
		{
			"mimeType":"image/png",
			"name":"city_paving_warm_n",
			"uri":"textures/city_paving_warm_n.png"
		},
		{
			"mimeType":"image/png",
			"name":"city_paving_warm",
			"uri":"textures/city_paving_warm.png"
		},
		{
			"mimeType":"image/png",
			"name":"facade_whitewash_n",
			"uri":"textures/facade_whitewash_n.png"
		},
		{
			"mimeType":"image/png",
			"name":"facade_whitewash",
			"uri":"textures/facade_whitewash.png"
		}
	],
	"accessors":[
		{
			"bufferView":0,
			"componentType":5126,
			"count":408,
			"max":[
				1.563423752784729,
				0.003000000026077032,
				1.348336935043335
			],
			"min":[
				-1.5138674974441528,
				-0.029999999329447746,
				-1.2493488788604736
			],
			"type":"VEC3"
		},
		{
			"bufferView":1,
			"componentType":5126,
			"count":408,
			"type":"VEC3"
		},
		{
			"bufferView":2,
			"componentType":5126,
			"count":408,
			"type":"VEC2"
		},
		{
			"bufferView":3,
			"componentType":5123,
			"count":708,
			"type":"SCALAR"
		},
		{
			"bufferView":4,
			"componentType":5126,
			"count":2448,
			"max":[
				1.1558477878570557,
				0.004999999888241291,
				1.0375710725784302
			],
			"min":[
				-1.1558477878570557,
				0.0020000000949949026,
				-1.0375710725784302
			],
			"type":"VEC3"
		},
		{
			"bufferView":5,
			"componentType":5126,
			"count":2448,
			"type":"VEC3"
		},
		{
			"bufferView":6,
			"componentType":5126,
			"count":2448,
			"type":"VEC2"
		},
		{
			"bufferView":7,
			"componentType":5123,
			"count":3672,
			"type":"SCALAR"
		},
		{
			"bufferView":8,
			"componentType":5126,
			"count":5064,
			"max":[
				1.1601015329360962,
				0.5720000267028809,
				1.0418248176574707
			],
			"min":[
				-1.1601015329360962,
				0.0020000000949949026,
				-1.0418248176574707
			],
			"type":"VEC3"
		},
		{
			"bufferView":9,
			"componentType":5126,
			"count":5064,
			"type":"VEC3"
		},
		{
			"bufferView":10,
			"componentType":5126,
			"count":5064,
			"type":"VEC2"
		},
		{
			"bufferView":11,
			"componentType":5123,
			"count":7596,
			"type":"SCALAR"
		},
		{
			"bufferView":12,
			"componentType":5126,
			"count":1242,
			"max":[
				1.5273092985153198,
				0.07316785305738449,
				1.2757960557937622
			],
			"min":[
				-1.4925923347473145,
				0,
				-1.1725749969482422
			],
			"type":"VEC3"
		},
		{
			"bufferView":13,
			"componentType":5126,
			"count":1242,
			"type":"VEC3"
		},
		{
			"bufferView":14,
			"componentType":5126,
			"count":1242,
			"type":"VEC2"
		},
		{
			"bufferView":15,
			"componentType":5123,
			"count":2418,
			"type":"SCALAR"
		},
		{
			"bufferView":16,
			"componentType":5126,
			"count":1396,
			"max":[
				1.5693093538284302,
				0.21398372948169708,
				1.3169339895248413
			],
			"min":[
				-1.4028033018112183,
				0.02795918844640255,
				-1.2015262842178345
			],
			"type":"VEC3"
		},
		{
			"bufferView":17,
			"componentType":5126,
			"count":1396,
			"type":"VEC3"
		},
		{
			"bufferView":18,
			"componentType":5126,
			"count":1396,
			"type":"VEC2"
		},
		{
			"bufferView":19,
			"componentType":5123,
			"count":1572,
			"type":"SCALAR"
		},
		{
			"bufferView":20,
			"componentType":5126,
			"count":240,
			"max":[
				-1.3803694248199463,
				0.15205013751983643,
				0.19849728047847748
			],
			"min":[
				-1.5355031490325928,
				0.037030018866062164,
				-0.2939341366291046
			],
			"type":"VEC3"
		},
		{
			"bufferView":21,
			"componentType":5126,
			"count":240,
			"type":"VEC3"
		},
		{
			"bufferView":22,
			"componentType":5126,
			"count":240,
			"type":"VEC2"
		},
		{
			"bufferView":23,
			"componentType":5123,
			"count":240,
			"type":"SCALAR"
		},
		{
			"bufferView":24,
			"componentType":5126,
			"count":2288,
			"max":[
				1.5443092584609985,
				0.19135449826717377,
				1.2659183740615845
			],
			"min":[
				-1.418869137763977,
				0.029768291860818863,
				-1.2137129306793213
			],
			"type":"VEC3"
		},
		{
			"bufferView":25,
			"componentType":5126,
			"count":2288,
			"type":"VEC3"
		},
		{
			"bufferView":26,
			"componentType":5126,
			"count":2288,
			"type":"VEC2"
		},
		{
			"bufferView":27,
			"componentType":5123,
			"count":2376,
			"type":"SCALAR"
		},
		{
			"bufferView":28,
			"componentType":5126,
			"count":660,
			"max":[
				0.8392747640609741,
				0.4399999976158142,
				0.8635770678520203
			],
			"min":[
				-0.8196010589599609,
				0,
				-0.32600927352905273
			],
			"type":"VEC3"
		},
		{
			"bufferView":29,
			"componentType":5126,
			"count":660,
			"type":"VEC3"
		},
		{
			"bufferView":30,
			"componentType":5126,
			"count":660,
			"type":"VEC2"
		},
		{
			"bufferView":31,
			"componentType":5123,
			"count":984,
			"type":"SCALAR"
		},
		{
			"bufferView":32,
			"componentType":5126,
			"count":6056,
			"max":[
				0.8670268058776855,
				0.4479999840259552,
				0.8742197155952454
			],
			"min":[
				-0.9524587392807007,
				-0.1599999964237213,
				-0.9218920469284058
			],
			"type":"VEC3"
		},
		{
			"bufferView":33,
			"componentType":5126,
			"count":6056,
			"type":"VEC3"
		},
		{
			"bufferView":34,
			"componentType":5126,
			"count":6056,
			"type":"VEC2"
		},
		{
			"bufferView":35,
			"componentType":5123,
			"count":9156,
			"type":"SCALAR"
		},
		{
			"bufferView":36,
			"componentType":5126,
			"count":288,
			"max":[
				0.8409164547920227,
				0.37599998712539673,
				0.4146397113800049
			],
			"min":[
				-0.6206239461898804,
				0.1340000033378601,
				0.008003339171409607
			],
			"type":"VEC3"
		},
		{
			"bufferView":37,
			"componentType":5126,
			"count":288,
			"type":"VEC3"
		},
		{
			"bufferView":38,
			"componentType":5126,
			"count":288,
			"type":"VEC2"
		},
		{
			"bufferView":39,
			"componentType":5123,
			"count":432,
			"type":"SCALAR"
		},
		{
			"bufferView":40,
			"componentType":5126,
			"count":120,
			"max":[
				0.7193040251731873,
				0.07500000298023224,
				0.7319200038909912
			],
			"min":[
				-0.7412909865379333,
				0,
				-0.5938668251037598
			],
			"type":"VEC3"
		},
		{
			"bufferView":41,
			"componentType":5126,
			"count":120,
			"type":"VEC3"
		},
		{
			"bufferView":42,
			"componentType":5126,
			"count":120,
			"type":"VEC2"
		},
		{
			"bufferView":43,
			"componentType":5123,
			"count":180,
			"type":"SCALAR"
		},
		{
			"bufferView":44,
			"componentType":5126,
			"count":150,
			"max":[
				0.8648027181625366,
				0.5699999928474426,
				0.8635770678520203
			],
			"min":[
				-0.8451290130615234,
				0.2800000011920929,
				-0.3515372574329376
			],
			"type":"VEC3"
		},
		{
			"bufferView":45,
			"componentType":5126,
			"count":150,
			"type":"VEC3"
		},
		{
			"bufferView":46,
			"componentType":5126,
			"count":150,
			"type":"VEC2"
		},
		{
			"bufferView":47,
			"componentType":5123,
			"count":210,
			"type":"SCALAR"
		},
		{
			"bufferView":48,
			"componentType":5126,
			"count":168,
			"max":[
				0.7606796026229858,
				0.5600000023841858,
				0.6608547568321228
			],
			"min":[
				-0.8411906361579895,
				0.25999999046325684,
				-0.7225351333618164
			],
			"type":"VEC3"
		},
		{
			"bufferView":49,
			"componentType":5126,
			"count":168,
			"type":"VEC3"
		},
		{
			"bufferView":50,
			"componentType":5126,
			"count":168,
			"type":"VEC2"
		},
		{
			"bufferView":51,
			"componentType":5123,
			"count":252,
			"type":"SCALAR"
		},
		{
			"bufferView":52,
			"componentType":5126,
			"count":252,
			"max":[
				-0.5766502618789673,
				0.32999998331069946,
				-0.17227984964847565
			],
			"min":[
				-0.9180837869644165,
				0,
				-0.5835283994674683
			],
			"type":"VEC3"
		},
		{
			"bufferView":53,
			"componentType":5126,
			"count":252,
			"type":"VEC3"
		},
		{
			"bufferView":54,
			"componentType":5126,
			"count":252,
			"type":"VEC2"
		},
		{
			"bufferView":55,
			"componentType":5123,
			"count":372,
			"type":"SCALAR"
		},
		{
			"bufferView":56,
			"componentType":5126,
			"count":3912,
			"max":[
				0.6303943991661072,
				0.33799999952316284,
				0.7937988042831421
			],
			"min":[
				-0.9320834875106812,
				0.024000000208616257,
				-0.9053334593772888
			],
			"type":"VEC3"
		},
		{
			"bufferView":57,
			"componentType":5126,
			"count":3912,
			"type":"VEC3"
		},
		{
			"bufferView":58,
			"componentType":5126,
			"count":3912,
			"type":"VEC2"
		},
		{
			"bufferView":59,
			"componentType":5123,
			"count":5868,
			"type":"SCALAR"
		},
		{
			"bufferView":60,
			"componentType":5126,
			"count":84,
			"max":[
				0.6513022184371948,
				0.32999998331069946,
				-0.17227984964847565
			],
			"min":[
				-0.9180837869644165,
				0.2199999988079071,
				-0.9262412786483765
			],
			"type":"VEC3"
		},
		{
			"bufferView":61,
			"componentType":5126,
			"count":84,
			"type":"VEC3"
		},
		{
			"bufferView":62,
			"componentType":5126,
			"count":84,
			"type":"VEC2"
		},
		{
			"bufferView":63,
			"componentType":5123,
			"count":120,
			"type":"SCALAR"
		},
		{
			"bufferView":64,
			"componentType":5126,
			"count":228,
			"max":[
				0.6513022184371948,
				0.32999998331069946,
				-0.5130040645599365
			],
			"min":[
				0.2380649745464325,
				0,
				-0.9262412786483765
			],
			"type":"VEC3"
		},
		{
			"bufferView":65,
			"componentType":5126,
			"count":228,
			"type":"VEC3"
		},
		{
			"bufferView":66,
			"componentType":5126,
			"count":228,
			"type":"VEC2"
		},
		{
			"bufferView":67,
			"componentType":5123,
			"count":336,
			"type":"SCALAR"
		},
		{
			"bufferView":68,
			"componentType":5126,
			"count":24,
			"max":[
				0.3763410449028015,
				0.006000000052154064,
				0.3763410449028015
			],
			"min":[
				-0.3763410449028015,
				0.0020000000949949026,
				-0.3763410449028015
			],
			"type":"VEC3"
		},
		{
			"bufferView":69,
			"componentType":5126,
			"count":24,
			"type":"VEC3"
		},
		{
			"bufferView":70,
			"componentType":5126,
			"count":24,
			"type":"VEC2"
		},
		{
			"bufferView":71,
			"componentType":5123,
			"count":36,
			"type":"SCALAR"
		},
		{
			"bufferView":72,
			"componentType":5126,
			"count":464,
			"max":[
				0.1844809353351593,
				0.44999998807907104,
				0.1844809353351593
			],
			"min":[
				-0.1844809353351593,
				0,
				-0.3629957437515259
			],
			"type":"VEC3"
		},
		{
			"bufferView":73,
			"componentType":5126,
			"count":464,
			"type":"VEC3"
		},
		{
			"bufferView":74,
			"componentType":5126,
			"count":464,
			"type":"VEC2"
		},
		{
			"bufferView":75,
			"componentType":5123,
			"count":948,
			"type":"SCALAR"
		},
		{
			"bufferView":76,
			"componentType":5126,
			"count":449,
			"max":[
				0.07349999994039536,
				0.6040000319480896,
				0.07349999994039536
			],
			"min":[
				-0.07349999994039536,
				0.4000000059604645,
				-0.07349999994039536
			],
			"type":"VEC3"
		},
		{
			"bufferView":77,
			"componentType":5126,
			"count":449,
			"type":"VEC3"
		},
		{
			"bufferView":78,
			"componentType":5126,
			"count":449,
			"type":"VEC2"
		},
		{
			"bufferView":79,
			"componentType":5123,
			"count":738,
			"type":"SCALAR"
		},
		{
			"bufferView":80,
			"componentType":5126,
			"count":1768,
			"max":[
				0.15973728895187378,
				0.4269999861717224,
				0.15973728895187378
			],
			"min":[
				-0.15973728895187378,
				0.3499999940395355,
				-0.15973728895187378
			],
			"type":"VEC3"
		},
		{
			"bufferView":81,
			"componentType":5126,
			"count":1768,
			"type":"VEC3"
		},
		{
			"bufferView":82,
			"componentType":5126,
			"count":1768,
			"type":"VEC2"
		},
		{
			"bufferView":83,
			"componentType":5123,
			"count":2664,
			"type":"SCALAR"
		}
	],
	"bufferViews":[
		{
			"buffer":0,
			"byteLength":4896,
			"byteOffset":0,
			"target":34962
		},
		{
			"buffer":0,
			"byteLength":4896,
			"byteOffset":4896,
			"target":34962
		},
		{
			"buffer":0,
			"byteLength":3264,
			"byteOffset":9792,
			"target":34962
		},
		{
			"buffer":0,
			"byteLength":1416,
			"byteOffset":13056,
			"target":34963
		},
		{
			"buffer":0,
			"byteLength":29376,
			"byteOffset":14472,
			"target":34962
		},
		{
			"buffer":0,
			"byteLength":29376,
			"byteOffset":43848,
			"target":34962
		},
		{
			"buffer":0,
			"byteLength":19584,
			"byteOffset":73224,
			"target":34962
		},
		{
			"buffer":0,
			"byteLength":7344,
			"byteOffset":92808,
			"target":34963
		},
		{
			"buffer":0,
			"byteLength":60768,
			"byteOffset":100152,
			"target":34962
		},
		{
			"buffer":0,
			"byteLength":60768,
			"byteOffset":160920,
			"target":34962
		},
		{
			"buffer":0,
			"byteLength":40512,
			"byteOffset":221688,
			"target":34962
		},
		{
			"buffer":0,
			"byteLength":15192,
			"byteOffset":262200,
			"target":34963
		},
		{
			"buffer":0,
			"byteLength":14904,
			"byteOffset":277392,
			"target":34962
		},
		{
			"buffer":0,
			"byteLength":14904,
			"byteOffset":292296,
			"target":34962
		},
		{
			"buffer":0,
			"byteLength":9936,
			"byteOffset":307200,
			"target":34962
		},
		{
			"buffer":0,
			"byteLength":4836,
			"byteOffset":317136,
			"target":34963
		},
		{
			"buffer":0,
			"byteLength":16752,
			"byteOffset":321972,
			"target":34962
		},
		{
			"buffer":0,
			"byteLength":16752,
			"byteOffset":338724,
			"target":34962
		},
		{
			"buffer":0,
			"byteLength":11168,
			"byteOffset":355476,
			"target":34962
		},
		{
			"buffer":0,
			"byteLength":3144,
			"byteOffset":366644,
			"target":34963
		},
		{
			"buffer":0,
			"byteLength":2880,
			"byteOffset":369788,
			"target":34962
		},
		{
			"buffer":0,
			"byteLength":2880,
			"byteOffset":372668,
			"target":34962
		},
		{
			"buffer":0,
			"byteLength":1920,
			"byteOffset":375548,
			"target":34962
		},
		{
			"buffer":0,
			"byteLength":480,
			"byteOffset":377468,
			"target":34963
		},
		{
			"buffer":0,
			"byteLength":27456,
			"byteOffset":377948,
			"target":34962
		},
		{
			"buffer":0,
			"byteLength":27456,
			"byteOffset":405404,
			"target":34962
		},
		{
			"buffer":0,
			"byteLength":18304,
			"byteOffset":432860,
			"target":34962
		},
		{
			"buffer":0,
			"byteLength":4752,
			"byteOffset":451164,
			"target":34963
		},
		{
			"buffer":0,
			"byteLength":7920,
			"byteOffset":455916,
			"target":34962
		},
		{
			"buffer":0,
			"byteLength":7920,
			"byteOffset":463836,
			"target":34962
		},
		{
			"buffer":0,
			"byteLength":5280,
			"byteOffset":471756,
			"target":34962
		},
		{
			"buffer":0,
			"byteLength":1968,
			"byteOffset":477036,
			"target":34963
		},
		{
			"buffer":0,
			"byteLength":72672,
			"byteOffset":479004,
			"target":34962
		},
		{
			"buffer":0,
			"byteLength":72672,
			"byteOffset":551676,
			"target":34962
		},
		{
			"buffer":0,
			"byteLength":48448,
			"byteOffset":624348,
			"target":34962
		},
		{
			"buffer":0,
			"byteLength":18312,
			"byteOffset":672796,
			"target":34963
		},
		{
			"buffer":0,
			"byteLength":3456,
			"byteOffset":691108,
			"target":34962
		},
		{
			"buffer":0,
			"byteLength":3456,
			"byteOffset":694564,
			"target":34962
		},
		{
			"buffer":0,
			"byteLength":2304,
			"byteOffset":698020,
			"target":34962
		},
		{
			"buffer":0,
			"byteLength":864,
			"byteOffset":700324,
			"target":34963
		},
		{
			"buffer":0,
			"byteLength":1440,
			"byteOffset":701188,
			"target":34962
		},
		{
			"buffer":0,
			"byteLength":1440,
			"byteOffset":702628,
			"target":34962
		},
		{
			"buffer":0,
			"byteLength":960,
			"byteOffset":704068,
			"target":34962
		},
		{
			"buffer":0,
			"byteLength":360,
			"byteOffset":705028,
			"target":34963
		},
		{
			"buffer":0,
			"byteLength":1800,
			"byteOffset":705388,
			"target":34962
		},
		{
			"buffer":0,
			"byteLength":1800,
			"byteOffset":707188,
			"target":34962
		},
		{
			"buffer":0,
			"byteLength":1200,
			"byteOffset":708988,
			"target":34962
		},
		{
			"buffer":0,
			"byteLength":420,
			"byteOffset":710188,
			"target":34963
		},
		{
			"buffer":0,
			"byteLength":2016,
			"byteOffset":710608,
			"target":34962
		},
		{
			"buffer":0,
			"byteLength":2016,
			"byteOffset":712624,
			"target":34962
		},
		{
			"buffer":0,
			"byteLength":1344,
			"byteOffset":714640,
			"target":34962
		},
		{
			"buffer":0,
			"byteLength":504,
			"byteOffset":715984,
			"target":34963
		},
		{
			"buffer":0,
			"byteLength":3024,
			"byteOffset":716488,
			"target":34962
		},
		{
			"buffer":0,
			"byteLength":3024,
			"byteOffset":719512,
			"target":34962
		},
		{
			"buffer":0,
			"byteLength":2016,
			"byteOffset":722536,
			"target":34962
		},
		{
			"buffer":0,
			"byteLength":744,
			"byteOffset":724552,
			"target":34963
		},
		{
			"buffer":0,
			"byteLength":46944,
			"byteOffset":725296,
			"target":34962
		},
		{
			"buffer":0,
			"byteLength":46944,
			"byteOffset":772240,
			"target":34962
		},
		{
			"buffer":0,
			"byteLength":31296,
			"byteOffset":819184,
			"target":34962
		},
		{
			"buffer":0,
			"byteLength":11736,
			"byteOffset":850480,
			"target":34963
		},
		{
			"buffer":0,
			"byteLength":1008,
			"byteOffset":862216,
			"target":34962
		},
		{
			"buffer":0,
			"byteLength":1008,
			"byteOffset":863224,
			"target":34962
		},
		{
			"buffer":0,
			"byteLength":672,
			"byteOffset":864232,
			"target":34962
		},
		{
			"buffer":0,
			"byteLength":240,
			"byteOffset":864904,
			"target":34963
		},
		{
			"buffer":0,
			"byteLength":2736,
			"byteOffset":865144,
			"target":34962
		},
		{
			"buffer":0,
			"byteLength":2736,
			"byteOffset":867880,
			"target":34962
		},
		{
			"buffer":0,
			"byteLength":1824,
			"byteOffset":870616,
			"target":34962
		},
		{
			"buffer":0,
			"byteLength":672,
			"byteOffset":872440,
			"target":34963
		},
		{
			"buffer":0,
			"byteLength":288,
			"byteOffset":873112,
			"target":34962
		},
		{
			"buffer":0,
			"byteLength":288,
			"byteOffset":873400,
			"target":34962
		},
		{
			"buffer":0,
			"byteLength":192,
			"byteOffset":873688,
			"target":34962
		},
		{
			"buffer":0,
			"byteLength":72,
			"byteOffset":873880,
			"target":34963
		},
		{
			"buffer":0,
			"byteLength":5568,
			"byteOffset":873952,
			"target":34962
		},
		{
			"buffer":0,
			"byteLength":5568,
			"byteOffset":879520,
			"target":34962
		},
		{
			"buffer":0,
			"byteLength":3712,
			"byteOffset":885088,
			"target":34962
		},
		{
			"buffer":0,
			"byteLength":1896,
			"byteOffset":888800,
			"target":34963
		},
		{
			"buffer":0,
			"byteLength":5388,
			"byteOffset":890696,
			"target":34962
		},
		{
			"buffer":0,
			"byteLength":5388,
			"byteOffset":896084,
			"target":34962
		},
		{
			"buffer":0,
			"byteLength":3592,
			"byteOffset":901472,
			"target":34962
		},
		{
			"buffer":0,
			"byteLength":1476,
			"byteOffset":905064,
			"target":34963
		},
		{
			"buffer":0,
			"byteLength":21216,
			"byteOffset":906540,
			"target":34962
		},
		{
			"buffer":0,
			"byteLength":21216,
			"byteOffset":927756,
			"target":34962
		},
		{
			"buffer":0,
			"byteLength":14144,
			"byteOffset":948972,
			"target":34962
		},
		{
			"buffer":0,
			"byteLength":5328,
			"byteOffset":963116,
			"target":34963
		}
	],
	"samplers":[
		{
			"magFilter":9729,
			"minFilter":9987
		}
	],
	"buffers":[
		{
			"byteLength":968444,
			"uri":"city_east_medium.bin"
		}
	]
}
