{
	"asset":{
		"generator":"Khronos glTF Blender I/O v5.2.40",
		"version":"2.0"
	},
	"scene":0,
	"scenes":[
		{
			"name":"Scene",
			"nodes":[
				0
			]
		}
	],
	"nodes":[
		{
			"mesh":0,
			"name":"city_nordic_large"
		}
	],
	"materials":[
		{
			"doubleSided":true,
			"name":"garden",
			"normalTexture":{
				"index":0
			},
			"pbrMetallicRoughness":{
				"baseColorTexture":{
					"index":1
				},
				"metallicFactor":0
			}
		},
		{
			"doubleSided":true,
			"name":"asphalt",
			"normalTexture":{
				"index":2
			},
			"pbrMetallicRoughness":{
				"baseColorTexture":{
					"index":3
				},
				"metallicFactor":0,
				"roughnessFactor":0.8500000238418579
			}
		},
		{
			"doubleSided":true,
			"name":"concrete",
			"normalTexture":{
				"index":4
			},
			"pbrMetallicRoughness":{
				"baseColorTexture":{
					"index":5
				},
				"metallicFactor":0,
				"roughnessFactor":0.8999999761581421
			}
		},
		{
			"doubleSided":true,
			"name":"trunk",
			"pbrMetallicRoughness":{
				"baseColorFactor":[
					0.25,
					0.17000000178813934,
					0.10000000149011612,
					1
				],
				"metallicFactor":0,
				"roughnessFactor":0.8999999761581421
			}
		},
		{
			"doubleSided":true,
			"name":"tree_dark",
			"pbrMetallicRoughness":{
				"baseColorFactor":[
					0.07999999821186066,
					0.1899999976158142,
					0.07999999821186066,
					1
				],
				"metallicFactor":0,
				"roughnessFactor":0.8999999761581421
			}
		},
		{
			"doubleSided":true,
			"name":"wood_white",
			"normalTexture":{
				"index":6
			},
			"pbrMetallicRoughness":{
				"baseColorTexture":{
					"index":7
				},
				"metallicFactor":0,
				"roughnessFactor":0.8500000238418579
			}
		},
		{
			"doubleSided":true,
			"name":"white",
			"pbrMetallicRoughness":{
				"baseColorFactor":[
					0.8999999761581421,
					0.8899999856948853,
					0.8500000238418579,
					1
				],
				"metallicFactor":0,
				"roughnessFactor":0.6000000238418579
			}
		},
		{
			"doubleSided":true,
			"name":"wood_red",
			"normalTexture":{
				"index":8
			},
			"pbrMetallicRoughness":{
				"baseColorTexture":{
					"index":9
				},
				"metallicFactor":0,
				"roughnessFactor":0.8500000238418579
			}
		},
		{
			"doubleSided":true,
			"name":"roof_slate",
			"normalTexture":{
				"index":10
			},
			"pbrMetallicRoughness":{
				"baseColorTexture":{
					"index":11
				},
				"metallicFactor":0,
				"roughnessFactor":0.550000011920929
			}
		},
		{
			"doubleSided":true,
			"name":"brick_red",
			"normalTexture":{
				"index":12
			},
			"pbrMetallicRoughness":{
				"baseColorTexture":{
					"index":13
				},
				"metallicFactor":0,
				"roughnessFactor":0.8999999761581421
			}
		},
		{
			"doubleSided":true,
			"name":"stone_light",
			"normalTexture":{
				"index":14
			},
			"pbrMetallicRoughness":{
				"baseColorTexture":{
					"index":15
				},
				"metallicFactor":0,
				"roughnessFactor":0.800000011920929
			}
		},
		{
			"doubleSided":true,
			"name":"facade_yellow",
			"normalTexture":{
				"index":16
			},
			"pbrMetallicRoughness":{
				"baseColorTexture":{
					"index":17
				},
				"metallicFactor":0,
				"roughnessFactor":0.8500000238418579
			}
		},
		{
			"doubleSided":true,
			"name":"glass",
			"pbrMetallicRoughness":{
				"baseColorFactor":[
					0.11999999731779099,
					0.1599999964237213,
					0.20000000298023224,
					1
				],
				"metallicFactor":0.5,
				"roughnessFactor":0.10000000149011612
			}
		},
		{
			"doubleSided":true,
			"name":"roof_dark",
			"normalTexture":{
				"index":18
			},
			"pbrMetallicRoughness":{
				"baseColorTexture":{
					"index":19
				},
				"metallicFactor":0,
				"roughnessFactor":0.699999988079071
			}
		},
		{
			"doubleSided":true,
			"name":"facade_white",
			"normalTexture":{
				"index":20
			},
			"pbrMetallicRoughness":{
				"baseColorTexture":{
					"index":21
				},
				"metallicFactor":0,
				"roughnessFactor":0.8500000238418579
			}
		},
		{
			"doubleSided":true,
			"name":"steel",
			"pbrMetallicRoughness":{
				"baseColorFactor":[
					0.2800000011920929,
					0.30000001192092896,
					0.33000001311302185,
					1
				],
				"metallicFactor":0.800000011920929,
				"roughnessFactor":0.4000000059604645
			}
		},
		{
			"doubleSided":true,
			"name":"facade_ochre",
			"normalTexture":{
				"index":22
			},
			"pbrMetallicRoughness":{
				"baseColorTexture":{
					"index":23
				},
				"metallicFactor":0,
				"roughnessFactor":0.8500000238418579
			}
		},
		{
			"doubleSided":true,
			"name":"facade_cream",
			"normalTexture":{
				"index":24
			},
			"pbrMetallicRoughness":{
				"baseColorTexture":{
					"index":25
				},
				"metallicFactor":0,
				"roughnessFactor":0.8500000238418579
			}
		},
		{
			"doubleSided":true,
			"name":"wood_yellow",
			"normalTexture":{
				"index":26
			},
			"pbrMetallicRoughness":{
				"baseColorTexture":{
					"index":27
				},
				"metallicFactor":0,
				"roughnessFactor":0.8500000238418579
			}
		},
		{
			"doubleSided":true,
			"name":"tree",
			"pbrMetallicRoughness":{
				"baseColorFactor":[
					0.12999999523162842,
					0.27000001072883606,
					0.09000000357627869,
					1
				],
				"metallicFactor":0,
				"roughnessFactor":0.8999999761581421
			}
		},
		{
			"doubleSided":true,
			"name":"city_paving_warm",
			"normalTexture":{
				"index":28
			},
			"pbrMetallicRoughness":{
				"baseColorTexture":{
					"index":29
				},
				"metallicFactor":0,
				"roughnessFactor":0.9200000166893005
			}
		},
		{
			"doubleSided":true,
			"name":"gold",
			"pbrMetallicRoughness":{
				"baseColorFactor":[
					0.8299999833106995,
					0.6200000047683716,
					0.20000000298023224,
					1
				],
				"roughnessFactor":0.30000001192092896
			}
		},
		{
			"doubleSided":true,
			"name":"tree_autumn",
			"pbrMetallicRoughness":{
				"baseColorFactor":[
					0.3199999928474426,
					0.33000001311302185,
					0.10000000149011612,
					1
				],
				"metallicFactor":0,
				"roughnessFactor":0.8999999761581421
			}
		}
	],
	"meshes":[
		{
			"name":"part.14552",
			"primitives":[
				{
					"attributes":{
						"POSITION":0,
						"NORMAL":1,
						"TEXCOORD_0":2
					},
					"indices":3,
					"material":0
				},
				{
					"attributes":{
						"POSITION":4,
						"NORMAL":5,
						"TEXCOORD_0":6
					},
					"indices":7,
					"material":1
				},
				{
					"attributes":{
						"POSITION":8,
						"NORMAL":9,
						"TEXCOORD_0":10
					},
					"indices":11,
					"material":2
				},
				{
					"attributes":{
						"POSITION":12,
						"NORMAL":13,
						"TEXCOORD_0":14
					},
					"indices":15,
					"material":3
				},
				{
					"attributes":{
						"POSITION":16,
						"NORMAL":17,
						"TEXCOORD_0":18
					},
					"indices":19,
					"material":4
				},
				{
					"attributes":{
						"POSITION":20,
						"NORMAL":21,
						"TEXCOORD_0":22
					},
					"indices":23,
					"material":5
				},
				{
					"attributes":{
						"POSITION":24,
						"NORMAL":25,
						"TEXCOORD_0":26
					},
					"indices":27,
					"material":6
				},
				{
					"attributes":{
						"POSITION":28,
						"NORMAL":29,
						"TEXCOORD_0":30
					},
					"indices":31,
					"material":7
				},
				{
					"attributes":{
						"POSITION":32,
						"NORMAL":33,
						"TEXCOORD_0":34
					},
					"indices":35,
					"material":8
				},
				{
					"attributes":{
						"POSITION":36,
						"NORMAL":37,
						"TEXCOORD_0":38
					},
					"indices":39,
					"material":9
				},
				{
					"attributes":{
						"POSITION":40,
						"NORMAL":41,
						"TEXCOORD_0":42
					},
					"indices":43,
					"material":10
				},
				{
					"attributes":{
						"POSITION":44,
						"NORMAL":45,
						"TEXCOORD_0":46
					},
					"indices":47,
					"material":11
				},
				{
					"attributes":{
						"POSITION":48,
						"NORMAL":49,
						"TEXCOORD_0":50
					},
					"indices":51,
					"material":12
				},
				{
					"attributes":{
						"POSITION":52,
						"NORMAL":53,
						"TEXCOORD_0":54
					},
					"indices":55,
					"material":13
				},
				{
					"attributes":{
						"POSITION":56,
						"NORMAL":57,
						"TEXCOORD_0":58
					},
					"indices":59,
					"material":14
				},
				{
					"attributes":{
						"POSITION":60,
						"NORMAL":61,
						"TEXCOORD_0":62
					},
					"indices":63,
					"material":15
				},
				{
					"attributes":{
						"POSITION":64,
						"NORMAL":65,
						"TEXCOORD_0":66
					},
					"indices":67,
					"material":16
				},
				{
					"attributes":{
						"POSITION":68,
						"NORMAL":69,
						"TEXCOORD_0":70
					},
					"indices":71,
					"material":17
				},
				{
					"attributes":{
						"POSITION":72,
						"NORMAL":73,
						"TEXCOORD_0":74
					},
					"indices":75,
					"material":18
				},
				{
					"attributes":{
						"POSITION":76,
						"NORMAL":77,
						"TEXCOORD_0":78
					},
					"indices":79,
					"material":19
				},
				{
					"attributes":{
						"POSITION":80,
						"NORMAL":81,
						"TEXCOORD_0":82
					},
					"indices":83,
					"material":20
				},
				{
					"attributes":{
						"POSITION":84,
						"NORMAL":85,
						"TEXCOORD_0":86
					},
					"indices":87,
					"material":21
				},
				{
					"attributes":{
						"POSITION":88,
						"NORMAL":89,
						"TEXCOORD_0":90
					},
					"indices":91,
					"material":22
				}
			]
		}
	],
	"textures":[
		{
			"sampler":0,
			"source":0
		},
		{
			"sampler":0,
			"source":1
		},
		{
			"sampler":0,
			"source":2
		},
		{
			"sampler":0,
			"source":3
		},
		{
			"sampler":0,
			"source":4
		},
		{
			"sampler":0,
			"source":5
		},
		{
			"sampler":0,
			"source":6
		},
		{
			"sampler":0,
			"source":7
		},
		{
			"sampler":0,
			"source":8
		},
		{
			"sampler":0,
			"source":9
		},
		{
			"sampler":0,
			"source":10
		},
		{
			"sampler":0,
			"source":11
		},
		{
			"sampler":0,
			"source":12
		},
		{
			"sampler":0,
			"source":13
		},
		{
			"sampler":0,
			"source":14
		},
		{
			"sampler":0,
			"source":15
		},
		{
			"sampler":0,
			"source":16
		},
		{
			"sampler":0,
			"source":17
		},
		{
			"sampler":0,
			"source":18
		},
		{
			"sampler":0,
			"source":19
		},
		{
			"sampler":0,
			"source":20
		},
		{
			"sampler":0,
			"source":21
		},
		{
			"sampler":0,
			"source":22
		},
		{
			"sampler":0,
			"source":23
		},
		{
			"sampler":0,
			"source":24
		},
		{
			"sampler":0,
			"source":25
		},
		{
			"sampler":0,
			"source":26
		},
		{
			"sampler":0,
			"source":27
		},
		{
			"sampler":0,
			"source":28
		},
		{
			"sampler":0,
			"source":29
		}
	],
	"images":[
		{
			"mimeType":"image/png",
			"name":"garden_n",
			"uri":"textures/garden_n.png"
		},
		{
			"mimeType":"image/png",
			"name":"garden",
			"uri":"textures/garden.png"
		},
		{
			"mimeType":"image/png",
			"name":"asphalt_n",
			"uri":"textures/asphalt_n.png"
		},
		{
			"mimeType":"image/png",
			"name":"asphalt",
			"uri":"textures/asphalt.png"
		},
		{
			"mimeType":"image/png",
			"name":"concrete_n",
			"uri":"textures/concrete_n.png"
		},
		{
			"mimeType":"image/png",
			"name":"concrete",
			"uri":"textures/concrete.png"
		},
		{
			"mimeType":"image/png",
			"name":"wood_white_n",
			"uri":"textures/wood_white_n.png"
		},
		{
			"mimeType":"image/png",
			"name":"wood_white",
			"uri":"textures/wood_white.png"
		},
		{
			"mimeType":"image/png",
			"name":"wood_red_n",
			"uri":"textures/wood_red_n.png"
		},
		{
			"mimeType":"image/png",
			"name":"wood_red",
			"uri":"textures/wood_red.png"
		},
		{
			"mimeType":"image/png",
			"name":"roof_slate_n",
			"uri":"textures/roof_slate_n.png"
		},
		{
			"mimeType":"image/png",
			"name":"roof_slate",
			"uri":"textures/roof_slate.png"
		},
		{
			"mimeType":"image/png",
			"name":"brick_red_n",
			"uri":"textures/brick_red_n.png"
		},
		{
			"mimeType":"image/png",
			"name":"brick_red",
			"uri":"textures/brick_red.png"
		},
		{
			"mimeType":"image/png",
			"name":"stone_light_n",
			"uri":"textures/stone_light_n.png"
		},
		{
			"mimeType":"image/png",
			"name":"stone_light",
			"uri":"textures/stone_light.png"
		},
		{
			"mimeType":"image/png",
			"name":"facade_yellow_n",
			"uri":"textures/facade_yellow_n.png"
		},
		{
			"mimeType":"image/png",
			"name":"facade_yellow",
			"uri":"textures/facade_yellow.png"
		},
		{
			"mimeType":"image/png",
			"name":"roof_dark_n",
			"uri":"textures/roof_dark_n.png"
		},
		{
			"mimeType":"image/png",
			"name":"roof_dark",
			"uri":"textures/roof_dark.png"
		},
		{
			"mimeType":"image/png",
			"name":"facade_white_n",
			"uri":"textures/facade_white_n.png"
		},
		{
			"mimeType":"image/png",
			"name":"facade_white",
			"uri":"textures/facade_white.png"
		},
		{
			"mimeType":"image/png",
			"name":"facade_ochre_n",
			"uri":"textures/facade_ochre_n.png"
		},
		{
			"mimeType":"image/png",
			"name":"facade_ochre",
			"uri":"textures/facade_ochre.png"
		},
		{
			"mimeType":"image/png",
			"name":"facade_cream_n",
			"uri":"textures/facade_cream_n.png"
		},
		{
			"mimeType":"image/png",
			"name":"facade_cream",
			"uri":"textures/facade_cream.png"
		},
		{
			"mimeType":"image/png",
			"name":"wood_yellow_n",
			"uri":"textures/wood_yellow_n.png"
		},
		{
			"mimeType":"image/png",
			"name":"wood_yellow",
			"uri":"textures/wood_yellow.png"
		},
		{
			"mimeType":"image/png",
			"name":"city_paving_warm_n",
			"uri":"textures/city_paving_warm_n.png"
		},
		{
			"mimeType":"image/png",
			"name":"city_paving_warm",
			"uri":"textures/city_paving_warm.png"
		}
	],
	"accessors":[
		{
			"bufferView":0,
			"componentType":5126,
			"count":696,
			"max":[
				2.2391176223754883,
				0.003000000026077032,
				1.9481170177459717
			],
			"min":[
				-2.153191566467285,
				-0.029999999329447746,
				-1.933786392211914
			],
			"type":"VEC3"
		},
		{
			"bufferView":1,
			"componentType":5126,
			"count":696,
			"type":"VEC3"
		},
		{
			"bufferView":2,
			"componentType":5126,
			"count":696,
			"type":"VEC2"
		},
		{
			"bufferView":3,
			"componentType":5123,
			"count":1140,
			"type":"SCALAR"
		},
		{
			"bufferView":4,
			"componentType":5126,
			"count":5520,
			"max":[
				1.83676278591156,
				0.004999999888241291,
				1.5691388845443726
			],
			"min":[
				-1.83676278591156,
				0.0020000000949949026,
				-1.5691388845443726
			],
			"type":"VEC3"
		},
		{
			"bufferView":5,
			"componentType":5126,
			"count":5520,
			"type":"VEC3"
		},
		{
			"bufferView":6,
			"componentType":5126,
			"count":5520,
			"type":"VEC2"
		},
		{
			"bufferView":7,
			"componentType":5123,
			"count":8280,
			"type":"SCALAR"
		},
		{
			"bufferView":8,
			"componentType":5126,
			"count":11688,
			"max":[
				1.8373992443084717,
				0.7919999957084656,
				1.5697753429412842
			],
			"min":[
				-1.8373992443084717,
				0.0020000000949949026,
				-1.5697753429412842
			],
			"type":"VEC3"
		},
		{
			"bufferView":9,
			"componentType":5126,
			"count":11688,
			"type":"VEC3"
		},
		{
			"bufferView":10,
			"componentType":5126,
			"count":11688,
			"type":"VEC2"
		},
		{
			"bufferView":11,
			"componentType":5123,
			"count":17532,
			"type":"SCALAR"
		},
		{
			"bufferView":12,
			"componentType":5126,
			"count":1482,
			"max":[
				2.0573177337646484,
				0.0734611451625824,
				1.7965079545974731
			],
			"min":[
				-1.9713242053985596,
				0,
				-1.7850286960601807
			],
			"type":"VEC3"
		},
		{
			"bufferView":13,
			"componentType":5126,
			"count":1482,
			"type":"VEC3"
		},
		{
			"bufferView":14,
			"componentType":5126,
			"count":1482,
			"type":"VEC2"
		},
		{
			"bufferView":15,
			"componentType":5123,
			"count":2886,
			"type":"SCALAR"
		},
		{
			"bufferView":16,
			"componentType":5126,
			"count":1600,
			"max":[
				2.1087570190429688,
				0.1933756023645401,
				1.825459361076355
			],
			"min":[
				-1.9634580612182617,
				0.027083517983555794,
				-1.813979983329773
			],
			"type":"VEC3"
		},
		{
			"bufferView":17,
			"componentType":5126,
			"count":1600,
			"type":"VEC3"
		},
		{
			"bufferView":18,
			"componentType":5126,
			"count":1600,
			"type":"VEC2"
		},
		{
			"bufferView":19,
			"componentType":5123,
			"count":1920,
			"type":"SCALAR"
		},
		{
			"bufferView":20,
			"componentType":5126,
			"count":1092,
			"max":[
				1.3894932270050049,
				0.7020000219345093,
				1.4530720710754395
			],
			"min":[
				-1.436859130859375,
				0,
				-1.0987458229064941
			],
			"type":"VEC3"
		},
		{
			"bufferView":21,
			"componentType":5126,
			"count":1092,
			"type":"VEC3"
		},
		{
			"bufferView":22,
			"componentType":5126,
			"count":1092,
			"type":"VEC2"
		},
		{
			"bufferView":23,
			"componentType":5123,
			"count":1608,
			"type":"SCALAR"
		},
		{
			"bufferView":24,
			"componentType":5126,
			"count":6936,
			"max":[
				1.3805499076843262,
				0.33799999952316284,
				1.4332581758499146
			],
			"min":[
				-1.4287112951278687,
				0.024000000208616257,
				-1.3396646976470947
			],
			"type":"VEC3"
		},
		{
			"bufferView":25,
			"componentType":5126,
			"count":6936,
			"type":"VEC3"
		},
		{
			"bufferView":26,
			"componentType":5126,
			"count":6936,
			"type":"VEC2"
		},
		{
			"bufferView":27,
			"componentType":5123,
			"count":10404,
			"type":"SCALAR"
		},
		{
			"bufferView":28,
			"componentType":5126,
			"count":1104,
			"max":[
				1.3266270160675049,
				0.3499999940395355,
				1.478804349899292
			],
			"min":[
				-1.393170952796936,
				0,
				-1.073919415473938
			],
			"type":"VEC3"
		},
		{
			"bufferView":29,
			"componentType":5126,
			"count":1104,
			"type":"VEC3"
		},
		{
			"bufferView":30,
			"componentType":5126,
			"count":1104,
			"type":"VEC2"
		},
		{
			"bufferView":31,
			"componentType":5123,
			"count":1644,
			"type":"SCALAR"
		},
		{
			"bufferView":32,
			"componentType":5126,
			"count":72,
			"max":[
				1.3840422630310059,
				0.3499999940395355,
				1.4297573566436768
			],
			"min":[
				-1.436859130859375,
				0.2199999988079071,
				0.4427260160446167
			],
			"type":"VEC3"
		},
		{
			"bufferView":33,
			"componentType":5126,
			"count":72,
			"type":"VEC3"
		},
		{
			"bufferView":34,
			"componentType":5126,
			"count":72,
			"type":"VEC2"
		},
		{
			"bufferView":35,
			"componentType":5123,
			"count":108,
			"type":"SCALAR"
		},
		{
			"bufferView":36,
			"componentType":5126,
			"count":1080,
			"max":[
				1.3732483386993408,
				0.7799999713897705,
				1.3147672414779663
			],
			"min":[
				-1.3468116521835327,
				0,
				-1.2155811786651611
			],
			"type":"VEC3"
		},
		{
			"bufferView":37,
			"componentType":5126,
			"count":1080,
			"type":"VEC3"
		},
		{
			"bufferView":38,
			"componentType":5126,
			"count":1080,
			"type":"VEC2"
		},
		{
			"bufferView":39,
			"componentType":5123,
			"count":1620,
			"type":"SCALAR"
		},
		{
			"bufferView":40,
			"componentType":5126,
			"count":25992,
			"max":[
				1.460386037826538,
				0.7290000319480896,
				1.4768837690353394
			],
			"min":[
				-1.4344542026519775,
				-0.1599999964237213,
				-1.413016676902771
			],
			"type":"VEC3"
		},
		{
			"bufferView":41,
			"componentType":5126,
			"count":25992,
			"type":"VEC3"
		},
		{
			"bufferView":42,
			"componentType":5126,
			"count":25992,
			"type":"VEC2"
		},
		{
			"bufferView":43,
			"componentType":5123,
			"count":38988,
			"type":"SCALAR"
		},
		{
			"bufferView":44,
			"componentType":5126,
			"count":864,
			"max":[
				0.7978076338768005,
				0.33000001311302185,
				0.8271762132644653
			],
			"min":[
				-1.3967949151992798,
				0,
				-0.6985999941825867
			],
			"type":"VEC3"
		},
		{
			"bufferView":45,
			"componentType":5126,
			"count":864,
			"type":"VEC3"
		},
		{
			"bufferView":46,
			"componentType":5126,
			"count":864,
			"type":"VEC2"
		},
		{
			"bufferView":47,
			"componentType":5123,
			"count":1296,
			"type":"SCALAR"
		},
		{
			"bufferView":48,
			"componentType":5126,
			"count":240,
			"max":[
				0.7735252380371094,
				0.0820000022649765,
				0.8484790325164795
			],
			"min":[
				-1.3849211931228638,
				0.012000000104308128,
				-0.3984794020652771
			],
			"type":"VEC3"
		},
		{
			"bufferView":49,
			"componentType":5126,
			"count":240,
			"type":"VEC3"
		},
		{
			"bufferView":50,
			"componentType":5126,
			"count":240,
			"type":"VEC2"
		},
		{
			"bufferView":51,
			"componentType":5123,
			"count":360,
			"type":"SCALAR"
		},
		{
			"bufferView":52,
			"componentType":5126,
			"count":497,
			"max":[
				1.4641344547271729,
				1.1610000133514404,
				1.478804349899292
			],
			"min":[
				-1.4177136421203613,
				0.10999999940395355,
				-1.4149731397628784
			],
			"type":"VEC3"
		},
		{
			"bufferView":53,
			"componentType":5126,
			"count":497,
			"type":"VEC3"
		},
		{
			"bufferView":54,
			"componentType":5126,
			"count":497,
			"type":"VEC2"
		},
		{
			"bufferView":55,
			"componentType":5123,
			"count":684,
			"type":"SCALAR"
		},
		{
			"bufferView":56,
			"componentType":5126,
			"count":236,
			"max":[
				-0.3778185248374939,
				0.7269999980926514,
				-0.46059393882751465
			],
			"min":[
				-0.8115255832672119,
				0,
				-0.8367347717285156
			],
			"type":"VEC3"
		},
		{
			"bufferView":57,
			"componentType":5126,
			"count":236,
			"type":"VEC3"
		},
		{
			"bufferView":58,
			"componentType":5126,
			"count":236,
			"type":"VEC2"
		},
		{
			"bufferView":59,
			"componentType":5123,
			"count":354,
			"type":"SCALAR"
		},
		{
			"bufferView":60,
			"componentType":5126,
			"count":624,
			"max":[
				1.41718327999115,
				0.5960000157356262,
				0.8804733753204346
			],
			"min":[
				-0.7011628150939941,
				0.1340000033378601,
				-0.42871931195259094
			],
			"type":"VEC3"
		},
		{
			"bufferView":61,
			"componentType":5126,
			"count":624,
			"type":"VEC3"
		},
		{
			"bufferView":62,
			"componentType":5126,
			"count":624,
			"type":"VEC2"
		},
		{
			"bufferView":63,
			"componentType":5123,
			"count":936,
			"type":"SCALAR"
		},
		{
			"bufferView":64,
			"componentType":5126,
			"count":216,
			"max":[
				0.7490873336791992,
				0.550000011920929,
				0.8368464708328247
			],
			"min":[
				0.43767160177230835,
				0,
				0.5254307389259338
			],
			"type":"VEC3"
		},
		{
			"bufferView":65,
			"componentType":5126,
			"count":216,
			"type":"VEC3"
		},
		{
			"bufferView":66,
			"componentType":5126,
			"count":216,
			"type":"VEC2"
		},
		{
			"bufferView":67,
			"componentType":5123,
			"count":324,
			"type":"SCALAR"
		},
		{
			"bufferView":68,
			"componentType":5126,
			"count":432,
			"max":[
				1.4432156085968018,
				0.4399999976158142,
				0.24398399889469147
			],
			"min":[
				0.41236960887908936,
				0,
				-0.09606729447841644
			],
			"type":"VEC3"
		},
		{
			"bufferView":69,
			"componentType":5126,
			"count":432,
			"type":"VEC3"
		},
		{
			"bufferView":70,
			"componentType":5126,
			"count":432,
			"type":"VEC2"
		},
		{
			"bufferView":71,
			"componentType":5123,
			"count":648,
			"type":"SCALAR"
		},
		{
			"bufferView":72,
			"componentType":5126,
			"count":228,
			"max":[
				0.8625138998031616,
				0.46000000834465027,
				-0.973779559135437
			],
			"min":[
				0.4735478162765503,
				0,
				-1.4149731397628784
			],
			"type":"VEC3"
		},
		{
			"bufferView":73,
			"componentType":5126,
			"count":228,
			"type":"VEC3"
		},
		{
			"bufferView":74,
			"componentType":5126,
			"count":228,
			"type":"VEC2"
		},
		{
			"bufferView":75,
			"componentType":5123,
			"count":336,
			"type":"SCALAR"
		},
		{
			"bufferView":76,
			"componentType":5126,
			"count":1568,
			"max":[
				2.026811122894287,
				0.2031172811985016,
				1.8376458883285522
			],
			"min":[
				-2.0099005699157715,
				0.027042170986533165,
				-1.8261666297912598
			],
			"type":"VEC3"
		},
		{
			"bufferView":77,
			"componentType":5126,
			"count":1568,
			"type":"VEC3"
		},
		{
			"bufferView":78,
			"componentType":5126,
			"count":1568,
			"type":"VEC2"
		},
		{
			"bufferView":79,
			"componentType":5123,
			"count":1896,
			"type":"SCALAR"
		},
		{
			"bufferView":80,
			"componentType":5126,
			"count":24,
			"max":[
				0.3709159791469574,
				0.006000000052154064,
				0.3709159791469574
			],
			"min":[
				-0.3709159791469574,
				0.0020000000949949026,
				-0.3709159791469574
			],
			"type":"VEC3"
		},
		{
			"bufferView":81,
			"componentType":5126,
			"count":24,
			"type":"VEC3"
		},
		{
			"bufferView":82,
			"componentType":5126,
			"count":24,
			"type":"VEC2"
		},
		{
			"bufferView":83,
			"componentType":5123,
			"count":36,
			"type":"SCALAR"
		},
		{
			"bufferView":84,
			"componentType":5126,
			"count":48,
			"max":[
				0.0024549774825572968,
				1.2285000085830688,
				0.4086795747280121
			],
			"min":[
				-0.03467002138495445,
				1.1610000133514404,
				0.4006795585155487
			],
			"type":"VEC3"
		},
		{
			"bufferView":85,
			"componentType":5126,
			"count":48,
			"type":"VEC3"
		},
		{
			"bufferView":86,
			"componentType":5126,
			"count":48,
			"type":"VEC2"
		},
		{
			"bufferView":87,
			"componentType":5123,
			"count":72,
			"type":"SCALAR"
		},
		{
			"bufferView":88,
			"componentType":5126,
			"count":420,
			"max":[
				2.018752336502075,
				0.17326712608337402,
				0.7157638669013977
			],
			"min":[
				-1.838247299194336,
				0.04354649782180786,
				-0.5998446345329285
			],
			"type":"VEC3"
		},
		{
			"bufferView":89,
			"componentType":5126,
			"count":420,
			"type":"VEC3"
		},
		{
			"bufferView":90,
			"componentType":5126,
			"count":420,
			"type":"VEC2"
		},
		{
			"bufferView":91,
			"componentType":5123,
			"count":420,
			"type":"SCALAR"
		}
	],
	"bufferViews":[
		{
			"buffer":0,
			"byteLength":8352,
			"byteOffset":0,
			"target":34962
		},
		{
			"buffer":0,
			"byteLength":8352,
			"byteOffset":8352,
			"target":34962
		},
		{
			"buffer":0,
			"byteLength":5568,
			"byteOffset":16704,
			"target":34962
		},
		{
			"buffer":0,
			"byteLength":2280,
			"byteOffset":22272,
			"target":34963
		},
		{
			"buffer":0,
			"byteLength":66240,
			"byteOffset":24552,
			"target":34962
		},
		{
			"buffer":0,
			"byteLength":66240,
			"byteOffset":90792,
			"target":34962
		},
		{
			"buffer":0,
			"byteLength":44160,
			"byteOffset":157032,
			"target":34962
		},
		{
			"buffer":0,
			"byteLength":16560,
			"byteOffset":201192,
			"target":34963
		},
		{
			"buffer":0,
			"byteLength":140256,
			"byteOffset":217752,
			"target":34962
		},
		{
			"buffer":0,
			"byteLength":140256,
			"byteOffset":358008,
			"target":34962
		},
		{
			"buffer":0,
			"byteLength":93504,
			"byteOffset":498264,
			"target":34962
		},
		{
			"buffer":0,
			"byteLength":35064,
			"byteOffset":591768,
			"target":34963
		},
		{
			"buffer":0,
			"byteLength":17784,
			"byteOffset":626832,
			"target":34962
		},
		{
			"buffer":0,
			"byteLength":17784,
			"byteOffset":644616,
			"target":34962
		},
		{
			"buffer":0,
			"byteLength":11856,
			"byteOffset":662400,
			"target":34962
		},
		{
			"buffer":0,
			"byteLength":5772,
			"byteOffset":674256,
			"target":34963
		},
		{
			"buffer":0,
			"byteLength":19200,
			"byteOffset":680028,
			"target":34962
		},
		{
			"buffer":0,
			"byteLength":19200,
			"byteOffset":699228,
			"target":34962
		},
		{
			"buffer":0,
			"byteLength":12800,
			"byteOffset":718428,
			"target":34962
		},
		{
			"buffer":0,
			"byteLength":3840,
			"byteOffset":731228,
			"target":34963
		},
		{
			"buffer":0,
			"byteLength":13104,
			"byteOffset":735068,
			"target":34962
		},
		{
			"buffer":0,
			"byteLength":13104,
			"byteOffset":748172,
			"target":34962
		},
		{
			"buffer":0,
			"byteLength":8736,
			"byteOffset":761276,
			"target":34962
		},
		{
			"buffer":0,
			"byteLength":3216,
			"byteOffset":770012,
			"target":34963
		},
		{
			"buffer":0,
			"byteLength":83232,
			"byteOffset":773228,
			"target":34962
		},
		{
			"buffer":0,
			"byteLength":83232,
			"byteOffset":856460,
			"target":34962
		},
		{
			"buffer":0,
			"byteLength":55488,
			"byteOffset":939692,
			"target":34962
		},
		{
			"buffer":0,
			"byteLength":20808,
			"byteOffset":995180,
			"target":34963
		},
		{
			"buffer":0,
			"byteLength":13248,
			"byteOffset":1015988,
			"target":34962
		},
		{
			"buffer":0,
			"byteLength":13248,
			"byteOffset":1029236,
			"target":34962
		},
		{
			"buffer":0,
			"byteLength":8832,
			"byteOffset":1042484,
			"target":34962
		},
		{
			"buffer":0,
			"byteLength":3288,
			"byteOffset":1051316,
			"target":34963
		},
		{
			"buffer":0,
			"byteLength":864,
			"byteOffset":1054604,
			"target":34962
		},
		{
			"buffer":0,
			"byteLength":864,
			"byteOffset":1055468,
			"target":34962
		},
		{
			"buffer":0,
			"byteLength":576,
			"byteOffset":1056332,
			"target":34962
		},
		{
			"buffer":0,
			"byteLength":216,
			"byteOffset":1056908,
			"target":34963
		},
		{
			"buffer":0,
			"byteLength":12960,
			"byteOffset":1057124,
			"target":34962
		},
		{
			"buffer":0,
			"byteLength":12960,
			"byteOffset":1070084,
			"target":34962
		},
		{
			"buffer":0,
			"byteLength":8640,
			"byteOffset":1083044,
			"target":34962
		},
		{
			"buffer":0,
			"byteLength":3240,
			"byteOffset":1091684,
			"target":34963
		},
		{
			"buffer":0,
			"byteLength":311904,
			"byteOffset":1094924,
			"target":34962
		},
		{
			"buffer":0,
			"byteLength":311904,
			"byteOffset":1406828,
			"target":34962
		},
		{
			"buffer":0,
			"byteLength":207936,
			"byteOffset":1718732,
			"target":34962
		},
		{
			"buffer":0,
			"byteLength":77976,
			"byteOffset":1926668,
			"target":34963
		},
		{
			"buffer":0,
			"byteLength":10368,
			"byteOffset":2004644,
			"target":34962
		},
		{
			"buffer":0,
			"byteLength":10368,
			"byteOffset":2015012,
			"target":34962
		},
		{
			"buffer":0,
			"byteLength":6912,
			"byteOffset":2025380,
			"target":34962
		},
		{
			"buffer":0,
			"byteLength":2592,
			"byteOffset":2032292,
			"target":34963
		},
		{
			"buffer":0,
			"byteLength":2880,
			"byteOffset":2034884,
			"target":34962
		},
		{
			"buffer":0,
			"byteLength":2880,
			"byteOffset":2037764,
			"target":34962
		},
		{
			"buffer":0,
			"byteLength":1920,
			"byteOffset":2040644,
			"target":34962
		},
		{
			"buffer":0,
			"byteLength":720,
			"byteOffset":2042564,
			"target":34963
		},
		{
			"buffer":0,
			"byteLength":5964,
			"byteOffset":2043284,
			"target":34962
		},
		{
			"buffer":0,
			"byteLength":5964,
			"byteOffset":2049248,
			"target":34962
		},
		{
			"buffer":0,
			"byteLength":3976,
			"byteOffset":2055212,
			"target":34962
		},
		{
			"buffer":0,
			"byteLength":1368,
			"byteOffset":2059188,
			"target":34963
		},
		{
			"buffer":0,
			"byteLength":2832,
			"byteOffset":2060556,
			"target":34962
		},
		{
			"buffer":0,
			"byteLength":2832,
			"byteOffset":2063388,
			"target":34962
		},
		{
			"buffer":0,
			"byteLength":1888,
			"byteOffset":2066220,
			"target":34962
		},
		{
			"buffer":0,
			"byteLength":708,
			"byteOffset":2068108,
			"target":34963
		},
		{
			"buffer":0,
			"byteLength":7488,
			"byteOffset":2068816,
			"target":34962
		},
		{
			"buffer":0,
			"byteLength":7488,
			"byteOffset":2076304,
			"target":34962
		},
		{
			"buffer":0,
			"byteLength":4992,
			"byteOffset":2083792,
			"target":34962
		},
		{
			"buffer":0,
			"byteLength":1872,
			"byteOffset":2088784,
			"target":34963
		},
		{
			"buffer":0,
			"byteLength":2592,
			"byteOffset":2090656,
			"target":34962
		},
		{
			"buffer":0,
			"byteLength":2592,
			"byteOffset":2093248,
			"target":34962
		},
		{
			"buffer":0,
			"byteLength":1728,
			"byteOffset":2095840,
			"target":34962
		},
		{
			"buffer":0,
			"byteLength":648,
			"byteOffset":2097568,
			"target":34963
		},
		{
			"buffer":0,
			"byteLength":5184,
			"byteOffset":2098216,
			"target":34962
		},
		{
			"buffer":0,
			"byteLength":5184,
			"byteOffset":2103400,
			"target":34962
		},
		{
			"buffer":0,
			"byteLength":3456,
			"byteOffset":2108584,
			"target":34962
		},
		{
			"buffer":0,
			"byteLength":1296,
			"byteOffset":2112040,
			"target":34963
		},
		{
			"buffer":0,
			"byteLength":2736,
			"byteOffset":2113336,
			"target":34962
		},
		{
			"buffer":0,
			"byteLength":2736,
			"byteOffset":2116072,
			"target":34962
		},
		{
			"buffer":0,
			"byteLength":1824,
			"byteOffset":2118808,
			"target":34962
		},
		{
			"buffer":0,
			"byteLength":672,
			"byteOffset":2120632,
			"target":34963
		},
		{
			"buffer":0,
			"byteLength":18816,
			"byteOffset":2121304,
			"target":34962
		},
		{
			"buffer":0,
			"byteLength":18816,
			"byteOffset":2140120,
			"target":34962
		},
		{
			"buffer":0,
			"byteLength":12544,
			"byteOffset":2158936,
			"target":34962
		},
		{
			"buffer":0,
			"byteLength":3792,
			"byteOffset":2171480,
			"target":34963
		},
		{
			"buffer":0,
			"byteLength":288,
			"byteOffset":2175272,
			"target":34962
		},
		{
			"buffer":0,
			"byteLength":288,
			"byteOffset":2175560,
			"target":34962
		},
		{
			"buffer":0,
			"byteLength":192,
			"byteOffset":2175848,
			"target":34962
		},
		{
			"buffer":0,
			"byteLength":72,
			"byteOffset":2176040,
			"target":34963
		},
		{
			"buffer":0,
			"byteLength":576,
			"byteOffset":2176112,
			"target":34962
		},
		{
			"buffer":0,
			"byteLength":576,
			"byteOffset":2176688,
			"target":34962
		},
		{
			"buffer":0,
			"byteLength":384,
			"byteOffset":2177264,
			"target":34962
		},
		{
			"buffer":0,
			"byteLength":144,
			"byteOffset":2177648,
			"target":34963
		},
		{
			"buffer":0,
			"byteLength":5040,
			"byteOffset":2177792,
			"target":34962
		},
		{
			"buffer":0,
			"byteLength":5040,
			"byteOffset":2182832,
			"target":34962
		},
		{
			"buffer":0,
			"byteLength":3360,
			"byteOffset":2187872,
			"target":34962
		},
		{
			"buffer":0,
			"byteLength":840,
			"byteOffset":2191232,
			"target":34963
		}
	],
	"samplers":[
		{
			"magFilter":9729,
			"minFilter":9987
		}
	],
	"buffers":[
		{
			"byteLength":2192072,
			"uri":"city_nordic_large.bin"
		}
	]
}
