{
	"asset":{
		"generator":"Khronos glTF Blender I/O v5.2.40",
		"version":"2.0"
	},
	"scene":0,
	"scenes":[
		{
			"name":"Scene",
			"nodes":[
				0
			]
		}
	],
	"nodes":[
		{
			"mesh":0,
			"name":"city_west_capital"
		}
	],
	"materials":[
		{
			"doubleSided":true,
			"name":"garden",
			"normalTexture":{
				"index":0
			},
			"pbrMetallicRoughness":{
				"baseColorTexture":{
					"index":1
				},
				"metallicFactor":0
			}
		},
		{
			"doubleSided":true,
			"name":"asphalt",
			"normalTexture":{
				"index":2
			},
			"pbrMetallicRoughness":{
				"baseColorTexture":{
					"index":3
				},
				"metallicFactor":0,
				"roughnessFactor":0.8500000238418579
			}
		},
		{
			"doubleSided":true,
			"name":"concrete",
			"normalTexture":{
				"index":4
			},
			"pbrMetallicRoughness":{
				"baseColorTexture":{
					"index":5
				},
				"metallicFactor":0,
				"roughnessFactor":0.8999999761581421
			}
		},
		{
			"doubleSided":true,
			"name":"trunk",
			"pbrMetallicRoughness":{
				"baseColorFactor":[
					0.25,
					0.17000000178813934,
					0.10000000149011612,
					1
				],
				"metallicFactor":0,
				"roughnessFactor":0.8999999761581421
			}
		},
		{
			"doubleSided":true,
			"name":"tree",
			"pbrMetallicRoughness":{
				"baseColorFactor":[
					0.12999999523162842,
					0.27000001072883606,
					0.09000000357627869,
					1
				],
				"metallicFactor":0,
				"roughnessFactor":0.8999999761581421
			}
		},
		{
			"doubleSided":true,
			"name":"facade_cream",
			"normalTexture":{
				"index":6
			},
			"pbrMetallicRoughness":{
				"baseColorTexture":{
					"index":7
				},
				"metallicFactor":0,
				"roughnessFactor":0.8500000238418579
			}
		},
		{
			"doubleSided":true,
			"name":"white",
			"pbrMetallicRoughness":{
				"baseColorFactor":[
					0.8999999761581421,
					0.8899999856948853,
					0.8500000238418579,
					1
				],
				"metallicFactor":0,
				"roughnessFactor":0.6000000238418579
			}
		},
		{
			"doubleSided":true,
			"name":"wood_red",
			"normalTexture":{
				"index":8
			},
			"pbrMetallicRoughness":{
				"baseColorTexture":{
					"index":9
				},
				"metallicFactor":0,
				"roughnessFactor":0.8500000238418579
			}
		},
		{
			"doubleSided":true,
			"name":"roof_terracotta",
			"normalTexture":{
				"index":10
			},
			"pbrMetallicRoughness":{
				"baseColorTexture":{
					"index":11
				},
				"metallicFactor":0,
				"roughnessFactor":0.699999988079071
			}
		},
		{
			"doubleSided":true,
			"name":"brick_red",
			"normalTexture":{
				"index":12
			},
			"pbrMetallicRoughness":{
				"baseColorTexture":{
					"index":13
				},
				"metallicFactor":0,
				"roughnessFactor":0.8999999761581421
			}
		},
		{
			"doubleSided":true,
			"name":"stone_light",
			"normalTexture":{
				"index":14
			},
			"pbrMetallicRoughness":{
				"baseColorTexture":{
					"index":15
				},
				"metallicFactor":0,
				"roughnessFactor":0.800000011920929
			}
		},
		{
			"doubleSided":true,
			"name":"tree_autumn",
			"pbrMetallicRoughness":{
				"baseColorFactor":[
					0.3199999928474426,
					0.33000001311302185,
					0.10000000149011612,
					1
				],
				"metallicFactor":0,
				"roughnessFactor":0.8999999761581421
			}
		},
		{
			"doubleSided":true,
			"name":"roof_slate",
			"normalTexture":{
				"index":16
			},
			"pbrMetallicRoughness":{
				"baseColorTexture":{
					"index":17
				},
				"metallicFactor":0,
				"roughnessFactor":0.550000011920929
			}
		},
		{
			"doubleSided":true,
			"name":"facade_yellow",
			"normalTexture":{
				"index":18
			},
			"pbrMetallicRoughness":{
				"baseColorTexture":{
					"index":19
				},
				"metallicFactor":0,
				"roughnessFactor":0.8500000238418579
			}
		},
		{
			"doubleSided":true,
			"name":"roof_dark",
			"normalTexture":{
				"index":20
			},
			"pbrMetallicRoughness":{
				"baseColorTexture":{
					"index":21
				},
				"metallicFactor":0,
				"roughnessFactor":0.699999988079071
			}
		},
		{
			"doubleSided":true,
			"name":"facade_grey",
			"normalTexture":{
				"index":22
			},
			"pbrMetallicRoughness":{
				"baseColorTexture":{
					"index":23
				},
				"metallicFactor":0,
				"roughnessFactor":0.8500000238418579
			}
		},
		{
			"doubleSided":true,
			"name":"glass",
			"pbrMetallicRoughness":{
				"baseColorFactor":[
					0.11999999731779099,
					0.1599999964237213,
					0.20000000298023224,
					1
				],
				"metallicFactor":0.5,
				"roughnessFactor":0.10000000149011612
			}
		},
		{
			"doubleSided":true,
			"name":"steel",
			"pbrMetallicRoughness":{
				"baseColorFactor":[
					0.2800000011920929,
					0.30000001192092896,
					0.33000001311302185,
					1
				],
				"metallicFactor":0.800000011920929,
				"roughnessFactor":0.4000000059604645
			}
		},
		{
			"doubleSided":true,
			"name":"facade_ochre",
			"normalTexture":{
				"index":24
			},
			"pbrMetallicRoughness":{
				"baseColorTexture":{
					"index":25
				},
				"metallicFactor":0,
				"roughnessFactor":0.8500000238418579
			}
		},
		{
			"doubleSided":true,
			"name":"facade_white",
			"normalTexture":{
				"index":26
			},
			"pbrMetallicRoughness":{
				"baseColorTexture":{
					"index":27
				},
				"metallicFactor":0,
				"roughnessFactor":0.8500000238418579
			}
		},
		{
			"doubleSided":true,
			"name":"brick_dark",
			"normalTexture":{
				"index":28
			},
			"pbrMetallicRoughness":{
				"baseColorTexture":{
					"index":29
				},
				"metallicFactor":0,
				"roughnessFactor":0.8999999761581421
			}
		},
		{
			"doubleSided":true,
			"name":"tree_dark",
			"pbrMetallicRoughness":{
				"baseColorFactor":[
					0.07999999821186066,
					0.1899999976158142,
					0.07999999821186066,
					1
				],
				"metallicFactor":0,
				"roughnessFactor":0.8999999761581421
			}
		},
		{
			"doubleSided":true,
			"name":"city_paving_warm",
			"normalTexture":{
				"index":30
			},
			"pbrMetallicRoughness":{
				"baseColorTexture":{
					"index":31
				},
				"metallicFactor":0,
				"roughnessFactor":0.9200000166893005
			}
		},
		{
			"doubleSided":true,
			"name":"roof_copper",
			"normalTexture":{
				"index":32
			},
			"pbrMetallicRoughness":{
				"baseColorTexture":{
					"index":33
				},
				"metallicFactor":0.25,
				"roughnessFactor":0.44999998807907104
			}
		},
		{
			"doubleSided":true,
			"name":"gold",
			"pbrMetallicRoughness":{
				"baseColorFactor":[
					0.8299999833106995,
					0.6200000047683716,
					0.20000000298023224,
					1
				],
				"roughnessFactor":0.30000001192092896
			}
		},
		{
			"doubleSided":true,
			"name":"flag_red",
			"pbrMetallicRoughness":{
				"baseColorFactor":[
					0.75,
					0.07999999821186066,
					0.07999999821186066,
					1
				],
				"metallicFactor":0,
				"roughnessFactor":0.699999988079071
			}
		}
	],
	"meshes":[
		{
			"name":"part.2644",
			"primitives":[
				{
					"attributes":{
						"POSITION":0,
						"NORMAL":1,
						"TEXCOORD_0":2
					},
					"indices":3,
					"material":0
				},
				{
					"attributes":{
						"POSITION":4,
						"NORMAL":5,
						"TEXCOORD_0":6
					},
					"indices":7,
					"material":1
				},
				{
					"attributes":{
						"POSITION":8,
						"NORMAL":9,
						"TEXCOORD_0":10
					},
					"indices":11,
					"material":2
				},
				{
					"attributes":{
						"POSITION":12,
						"NORMAL":13,
						"TEXCOORD_0":14
					},
					"indices":15,
					"material":3
				},
				{
					"attributes":{
						"POSITION":16,
						"NORMAL":17,
						"TEXCOORD_0":18
					},
					"indices":19,
					"material":4
				},
				{
					"attributes":{
						"POSITION":20,
						"NORMAL":21,
						"TEXCOORD_0":22
					},
					"indices":23,
					"material":5
				},
				{
					"attributes":{
						"POSITION":24,
						"NORMAL":25,
						"TEXCOORD_0":26
					},
					"indices":27,
					"material":6
				},
				{
					"attributes":{
						"POSITION":28,
						"NORMAL":29,
						"TEXCOORD_0":30
					},
					"indices":31,
					"material":7
				},
				{
					"attributes":{
						"POSITION":32,
						"NORMAL":33,
						"TEXCOORD_0":34
					},
					"indices":35,
					"material":8
				},
				{
					"attributes":{
						"POSITION":36,
						"NORMAL":37,
						"TEXCOORD_0":38
					},
					"indices":39,
					"material":9
				},
				{
					"attributes":{
						"POSITION":40,
						"NORMAL":41,
						"TEXCOORD_0":42
					},
					"indices":43,
					"material":10
				},
				{
					"attributes":{
						"POSITION":44,
						"NORMAL":45,
						"TEXCOORD_0":46
					},
					"indices":47,
					"material":11
				},
				{
					"attributes":{
						"POSITION":48,
						"NORMAL":49,
						"TEXCOORD_0":50
					},
					"indices":51,
					"material":12
				},
				{
					"attributes":{
						"POSITION":52,
						"NORMAL":53,
						"TEXCOORD_0":54
					},
					"indices":55,
					"material":13
				},
				{
					"attributes":{
						"POSITION":56,
						"NORMAL":57,
						"TEXCOORD_0":58
					},
					"indices":59,
					"material":14
				},
				{
					"attributes":{
						"POSITION":60,
						"NORMAL":61,
						"TEXCOORD_0":62
					},
					"indices":63,
					"material":15
				},
				{
					"attributes":{
						"POSITION":64,
						"NORMAL":65,
						"TEXCOORD_0":66
					},
					"indices":67,
					"material":16
				},
				{
					"attributes":{
						"POSITION":68,
						"NORMAL":69,
						"TEXCOORD_0":70
					},
					"indices":71,
					"material":17
				},
				{
					"attributes":{
						"POSITION":72,
						"NORMAL":73,
						"TEXCOORD_0":74
					},
					"indices":75,
					"material":18
				},
				{
					"attributes":{
						"POSITION":76,
						"NORMAL":77,
						"TEXCOORD_0":78
					},
					"indices":79,
					"material":19
				},
				{
					"attributes":{
						"POSITION":80,
						"NORMAL":81,
						"TEXCOORD_0":82
					},
					"indices":83,
					"material":20
				},
				{
					"attributes":{
						"POSITION":84,
						"NORMAL":85,
						"TEXCOORD_0":86
					},
					"indices":87,
					"material":21
				},
				{
					"attributes":{
						"POSITION":88,
						"NORMAL":89,
						"TEXCOORD_0":90
					},
					"indices":91,
					"material":22
				},
				{
					"attributes":{
						"POSITION":92,
						"NORMAL":93,
						"TEXCOORD_0":94
					},
					"indices":95,
					"material":23
				},
				{
					"attributes":{
						"POSITION":96,
						"NORMAL":97,
						"TEXCOORD_0":98
					},
					"indices":99,
					"material":24
				},
				{
					"attributes":{
						"POSITION":100,
						"NORMAL":101,
						"TEXCOORD_0":102
					},
					"indices":103,
					"material":25
				}
			]
		}
	],
	"textures":[
		{
			"sampler":0,
			"source":0
		},
		{
			"sampler":0,
			"source":1
		},
		{
			"sampler":0,
			"source":2
		},
		{
			"sampler":0,
			"source":3
		},
		{
			"sampler":0,
			"source":4
		},
		{
			"sampler":0,
			"source":5
		},
		{
			"sampler":0,
			"source":6
		},
		{
			"sampler":0,
			"source":7
		},
		{
			"sampler":0,
			"source":8
		},
		{
			"sampler":0,
			"source":9
		},
		{
			"sampler":0,
			"source":10
		},
		{
			"sampler":0,
			"source":11
		},
		{
			"sampler":0,
			"source":12
		},
		{
			"sampler":0,
			"source":13
		},
		{
			"sampler":0,
			"source":14
		},
		{
			"sampler":0,
			"source":15
		},
		{
			"sampler":0,
			"source":16
		},
		{
			"sampler":0,
			"source":17
		},
		{
			"sampler":0,
			"source":18
		},
		{
			"sampler":0,
			"source":19
		},
		{
			"sampler":0,
			"source":20
		},
		{
			"sampler":0,
			"source":21
		},
		{
			"sampler":0,
			"source":22
		},
		{
			"sampler":0,
			"source":23
		},
		{
			"sampler":0,
			"source":24
		},
		{
			"sampler":0,
			"source":25
		},
		{
			"sampler":0,
			"source":26
		},
		{
			"sampler":0,
			"source":27
		},
		{
			"sampler":0,
			"source":28
		},
		{
			"sampler":0,
			"source":29
		},
		{
			"sampler":0,
			"source":30
		},
		{
			"sampler":0,
			"source":31
		},
		{
			"sampler":0,
			"source":32
		},
		{
			"sampler":0,
			"source":33
		}
	],
	"images":[
		{
			"mimeType":"image/png",
			"name":"garden_n",
			"uri":"textures/garden_n.png"
		},
		{
			"mimeType":"image/png",
			"name":"garden",
			"uri":"textures/garden.png"
		},
		{
			"mimeType":"image/png",
			"name":"asphalt_n",
			"uri":"textures/asphalt_n.png"
		},
		{
			"mimeType":"image/png",
			"name":"asphalt",
			"uri":"textures/asphalt.png"
		},
		{
			"mimeType":"image/png",
			"name":"concrete_n",
			"uri":"textures/concrete_n.png"
		},
		{
			"mimeType":"image/png",
			"name":"concrete",
			"uri":"textures/concrete.png"
		},
		{
			"mimeType":"image/png",
			"name":"facade_cream_n",
			"uri":"textures/facade_cream_n.png"
		},
		{
			"mimeType":"image/png",
			"name":"facade_cream",
			"uri":"textures/facade_cream.png"
		},
		{
			"mimeType":"image/png",
			"name":"wood_red_n",
			"uri":"textures/wood_red_n.png"
		},
		{
			"mimeType":"image/png",
			"name":"wood_red",
			"uri":"textures/wood_red.png"
		},
		{
			"mimeType":"image/png",
			"name":"roof_terracotta_n",
			"uri":"textures/roof_terracotta_n.png"
		},
		{
			"mimeType":"image/png",
			"name":"roof_terracotta",
			"uri":"textures/roof_terracotta.png"
		},
		{
			"mimeType":"image/png",
			"name":"brick_red_n",
			"uri":"textures/brick_red_n.png"
		},
		{
			"mimeType":"image/png",
			"name":"brick_red",
			"uri":"textures/brick_red.png"
		},
		{
			"mimeType":"image/png",
			"name":"stone_light_n",
			"uri":"textures/stone_light_n.png"
		},
		{
			"mimeType":"image/png",
			"name":"stone_light",
			"uri":"textures/stone_light.png"
		},
		{
			"mimeType":"image/png",
			"name":"roof_slate_n",
			"uri":"textures/roof_slate_n.png"
		},
		{
			"mimeType":"image/png",
			"name":"roof_slate",
			"uri":"textures/roof_slate.png"
		},
		{
			"mimeType":"image/png",
			"name":"facade_yellow_n",
			"uri":"textures/facade_yellow_n.png"
		},
		{
			"mimeType":"image/png",
			"name":"facade_yellow",
			"uri":"textures/facade_yellow.png"
		},
		{
			"mimeType":"image/png",
			"name":"roof_dark_n",
			"uri":"textures/roof_dark_n.png"
		},
		{
			"mimeType":"image/png",
			"name":"roof_dark",
			"uri":"textures/roof_dark.png"
		},
		{
			"mimeType":"image/png",
			"name":"facade_grey_n",
			"uri":"textures/facade_grey_n.png"
		},
		{
			"mimeType":"image/png",
			"name":"facade_grey",
			"uri":"textures/facade_grey.png"
		},
		{
			"mimeType":"image/png",
			"name":"facade_ochre_n",
			"uri":"textures/facade_ochre_n.png"
		},
		{
			"mimeType":"image/png",
			"name":"facade_ochre",
			"uri":"textures/facade_ochre.png"
		},
		{
			"mimeType":"image/png",
			"name":"facade_white_n",
			"uri":"textures/facade_white_n.png"
		},
		{
			"mimeType":"image/png",
			"name":"facade_white",
			"uri":"textures/facade_white.png"
		},
		{
			"mimeType":"image/png",
			"name":"brick_dark_n",
			"uri":"textures/brick_dark_n.png"
		},
		{
			"mimeType":"image/png",
			"name":"brick_dark",
			"uri":"textures/brick_dark.png"
		},
		{
			"mimeType":"image/png",
			"name":"city_paving_warm_n",
			"uri":"textures/city_paving_warm_n.png"
		},
		{
			"mimeType":"image/png",
			"name":"city_paving_warm",
			"uri":"textures/city_paving_warm.png"
		},
		{
			"mimeType":"image/png",
			"name":"roof_copper_n",
			"uri":"textures/roof_copper_n.png"
		},
		{
			"mimeType":"image/png",
			"name":"roof_copper",
			"uri":"textures/roof_copper.png"
		}
	],
	"accessors":[
		{
			"bufferView":0,
			"componentType":5126,
			"count":1128,
			"max":[
				2.8681752681732178,
				0.003000000026077032,
				2.525796413421631
			],
			"min":[
				-2.905985116958618,
				-0.029999999329447746,
				-2.4849131107330322
			],
			"type":"VEC3"
		},
		{
			"bufferView":1,
			"componentType":5126,
			"count":1128,
			"type":"VEC3"
		},
		{
			"bufferView":2,
			"componentType":5126,
			"count":1128,
			"type":"VEC2"
		},
		{
			"bufferView":3,
			"componentType":5123,
			"count":1788,
			"type":"SCALAR"
		},
		{
			"bufferView":4,
			"componentType":5126,
			"count":9936,
			"max":[
				2.383262872695923,
				0.004999999888241291,
				2.0205397605895996
			],
			"min":[
				-2.383262872695923,
				0.0020000000949949026,
				-2.0205397605895996
			],
			"type":"VEC3"
		},
		{
			"bufferView":5,
			"componentType":5126,
			"count":9936,
			"type":"VEC3"
		},
		{
			"bufferView":6,
			"componentType":5126,
			"count":9936,
			"type":"VEC2"
		},
		{
			"bufferView":7,
			"componentType":5123,
			"count":14904,
			"type":"SCALAR"
		},
		{
			"bufferView":8,
			"componentType":5126,
			"count":21144,
			"max":[
				2.3844187259674072,
				0.7919999957084656,
				2.021695852279663
			],
			"min":[
				-2.3844187259674072,
				0.0020000000949949026,
				-2.021695852279663
			],
			"type":"VEC3"
		},
		{
			"bufferView":9,
			"componentType":5126,
			"count":21144,
			"type":"VEC3"
		},
		{
			"bufferView":10,
			"componentType":5126,
			"count":21144,
			"type":"VEC2"
		},
		{
			"bufferView":11,
			"componentType":5123,
			"count":31716,
			"type":"SCALAR"
		},
		{
			"bufferView":12,
			"componentType":5126,
			"count":2164,
			"max":[
				2.747135877609253,
				0.0702817514538765,
				2.3980660438537598
			],
			"min":[
				-2.784662961959839,
				0,
				-2.2991936206817627
			],
			"type":"VEC3"
		},
		{
			"bufferView":13,
			"componentType":5126,
			"count":2164,
			"type":"VEC3"
		},
		{
			"bufferView":14,
			"componentType":5126,
			"count":2164,
			"type":"VEC2"
		},
		{
			"bufferView":15,
			"componentType":5123,
			"count":4212,
			"type":"SCALAR"
		},
		{
			"bufferView":16,
			"componentType":5126,
			"count":3152,
			"max":[
				2.5176568031311035,
				0.21469993889331818,
				2.439203977584839
			],
			"min":[
				-2.823239326477051,
				0.030797941610217094,
				-2.340331554412842
			],
			"type":"VEC3"
		},
		{
			"bufferView":17,
			"componentType":5126,
			"count":3152,
			"type":"VEC3"
		},
		{
			"bufferView":18,
			"componentType":5126,
			"count":3152,
			"type":"VEC2"
		},
		{
			"bufferView":19,
			"componentType":5123,
			"count":3384,
			"type":"SCALAR"
		},
		{
			"bufferView":20,
			"componentType":5126,
			"count":1560,
			"max":[
				1.984682559967041,
				0.33000001311302185,
				1.5650007724761963
			],
			"min":[
				-2.0890166759490967,
				0,
				-1.3615339994430542
			],
			"type":"VEC3"
		},
		{
			"bufferView":21,
			"componentType":5126,
			"count":1560,
			"type":"VEC3"
		},
		{
			"bufferView":22,
			"componentType":5126,
			"count":1560,
			"type":"VEC2"
		},
		{
			"bufferView":23,
			"componentType":5123,
			"count":2316,
			"type":"SCALAR"
		},
		{
			"bufferView":24,
			"componentType":5126,
			"count":15457,
			"max":[
				2.108931303024292,
				1.2599999904632568,
				2.1201186180114746
			],
			"min":[
				-2.0752856731414795,
				0.024000000208616257,
				-1.9781683683395386
			],
			"type":"VEC3"
		},
		{
			"bufferView":25,
			"componentType":5126,
			"count":15457,
			"type":"VEC3"
		},
		{
			"bufferView":26,
			"componentType":5126,
			"count":15457,
			"type":"VEC2"
		},
		{
			"bufferView":27,
			"componentType":5123,
			"count":24084,
			"type":"SCALAR"
		},
		{
			"bufferView":28,
			"componentType":5126,
			"count":1128,
			"max":[
				1.9623934030532837,
				0.09200000017881393,
				2.0991594791412354
			],
			"min":[
				-1.9313433170318604,
				0,
				-1.7458608150482178
			],
			"type":"VEC3"
		},
		{
			"bufferView":29,
			"componentType":5126,
			"count":1128,
			"type":"VEC3"
		},
		{
			"bufferView":30,
			"componentType":5126,
			"count":1128,
			"type":"VEC2"
		},
		{
			"bufferView":31,
			"componentType":5123,
			"count":1692,
			"type":"SCALAR"
		},
		{
			"bufferView":32,
			"componentType":5126,
			"count":408,
			"max":[
				2.1212172508239746,
				0.6480000019073486,
				2.124018907546997
			],
			"min":[
				-2.0890166759490967,
				0.10999999940395355,
				-1.9904543161392212
			],
			"type":"VEC3"
		},
		{
			"bufferView":33,
			"componentType":5126,
			"count":408,
			"type":"VEC3"
		},
		{
			"bufferView":34,
			"componentType":5126,
			"count":408,
			"type":"VEC2"
		},
		{
			"bufferView":35,
			"componentType":5123,
			"count":576,
			"type":"SCALAR"
		},
		{
			"bufferView":36,
			"componentType":5126,
			"count":2592,
			"max":[
				1.890419363975525,
				0.7799999713897705,
				1.9579803943634033
			],
			"min":[
				-2.054287910461426,
				0,
				-1.8672224283218384
			],
			"type":"VEC3"
		},
		{
			"bufferView":37,
			"componentType":5126,
			"count":2592,
			"type":"VEC3"
		},
		{
			"bufferView":38,
			"componentType":5126,
			"count":2592,
			"type":"VEC2"
		},
		{
			"bufferView":39,
			"componentType":5123,
			"count":3876,
			"type":"SCALAR"
		},
		{
			"bufferView":40,
			"componentType":5126,
			"count":71418,
			"max":[
				2.1176068782806396,
				0.8550000190734863,
				2.14264178276062
			],
			"min":[
				-2.0866360664367676,
				-0.1599999964237213,
				-2.0289645195007324
			],
			"type":"VEC3"
		},
		{
			"bufferView":41,
			"componentType":5126,
			"count":71418,
			"type":"VEC3"
		},
		{
			"bufferView":42,
			"componentType":5126,
			"count":71418,
			"type":"VEC2"
		},
		{
			"bufferView":43,
			"componentType":5125,
			"count":107472,
			"type":"SCALAR"
		},
		{
			"bufferView":44,
			"componentType":5126,
			"count":1200,
			"max":[
				2.310274124145508,
				0.19407685101032257,
				2.0352189540863037
			],
			"min":[
				-1.9558404684066772,
				0.03655976802110672,
				-1.7685072422027588
			],
			"type":"VEC3"
		},
		{
			"bufferView":45,
			"componentType":5126,
			"count":1200,
			"type":"VEC3"
		},
		{
			"bufferView":46,
			"componentType":5126,
			"count":1200,
			"type":"VEC2"
		},
		{
			"bufferView":47,
			"componentType":5123,
			"count":1200,
			"type":"SCALAR"
		},
		{
			"bufferView":48,
			"componentType":5126,
			"count":448,
			"max":[
				1.4702372550964355,
				0.7615000009536743,
				1.4824671745300293
			],
			"min":[
				-2.019731283187866,
				0.2199999988079071,
				-2.0298678874969482
			],
			"type":"VEC3"
		},
		{
			"bufferView":49,
			"componentType":5126,
			"count":448,
			"type":"VEC3"
		},
		{
			"bufferView":50,
			"componentType":5126,
			"count":448,
			"type":"VEC2"
		},
		{
			"bufferView":51,
			"componentType":5123,
			"count":666,
			"type":"SCALAR"
		},
		{
			"bufferView":52,
			"componentType":5126,
			"count":456,
			"max":[
				2.0523977279663086,
				0.2199999988079071,
				-0.2403535693883896
			],
			"min":[
				-1.97104012966156,
				0,
				-0.882703423500061
			],
			"type":"VEC3"
		},
		{
			"bufferView":53,
			"componentType":5126,
			"count":456,
			"type":"VEC3"
		},
		{
			"bufferView":54,
			"componentType":5126,
			"count":456,
			"type":"VEC2"
		},
		{
			"bufferView":55,
			"componentType":5123,
			"count":672,
			"type":"SCALAR"
		},
		{
			"bufferView":56,
			"componentType":5126,
			"count":80,
			"max":[
				2.036343812942505,
				0.7269999980926514,
				1.2841652631759644
			],
			"min":[
				-1.954986333847046,
				0.10999999940395355,
				-1.3211662769317627
			],
			"type":"VEC3"
		},
		{
			"bufferView":57,
			"componentType":5126,
			"count":80,
			"type":"VEC3"
		},
		{
			"bufferView":58,
			"componentType":5126,
			"count":80,
			"type":"VEC2"
		},
		{
			"bufferView":59,
			"componentType":5123,
			"count":120,
			"type":"SCALAR"
		},
		{
			"bufferView":60,
			"componentType":5126,
			"count":1116,
			"max":[
				2.1212172508239746,
				0.4399999976158142,
				2.124018907546997
			],
			"min":[
				-1.4953758716583252,
				0,
				-1.9904543161392212
			],
			"type":"VEC3"
		},
		{
			"bufferView":61,
			"componentType":5126,
			"count":1116,
			"type":"VEC3"
		},
		{
			"bufferView":62,
			"componentType":5126,
			"count":1116,
			"type":"VEC2"
		},
		{
			"bufferView":63,
			"componentType":5123,
			"count":1656,
			"type":"SCALAR"
		},
		{
			"bufferView":64,
			"componentType":5126,
			"count":336,
			"max":[
				1.405185341835022,
				0.0820000022649765,
				0.931349515914917
			],
			"min":[
				-1.3882781267166138,
				0.012000000104308128,
				-1.1049798727035522
			],
			"type":"VEC3"
		},
		{
			"bufferView":65,
			"componentType":5126,
			"count":336,
			"type":"VEC3"
		},
		{
			"bufferView":66,
			"componentType":5126,
			"count":336,
			"type":"VEC2"
		},
		{
			"bufferView":67,
			"componentType":5123,
			"count":504,
			"type":"SCALAR"
		},
		{
			"bufferView":68,
			"componentType":5126,
			"count":2784,
			"max":[
				1.4329999685287476,
				0.699999988079071,
				1.5172970294952393
			],
			"min":[
				-1.2911405563354492,
				0,
				-1.0538694858551025
			],
			"type":"VEC3"
		},
		{
			"bufferView":69,
			"componentType":5126,
			"count":2784,
			"type":"VEC3"
		},
		{
			"bufferView":70,
			"componentType":5126,
			"count":2784,
			"type":"VEC2"
		},
		{
			"bufferView":71,
			"componentType":5123,
			"count":4200,
			"type":"SCALAR"
		},
		{
			"bufferView":72,
			"componentType":5126,
			"count":228,
			"max":[
				-0.6232271194458008,
				0.2199999988079071,
				2.0489885807037354
			],
			"min":[
				-0.8970549702644348,
				0,
				1.775160789489746
			],
			"type":"VEC3"
		},
		{
			"bufferView":73,
			"componentType":5126,
			"count":228,
			"type":"VEC3"
		},
		{
			"bufferView":74,
			"componentType":5126,
			"count":228,
			"type":"VEC2"
		},
		{
			"bufferView":75,
			"componentType":5123,
			"count":336,
			"type":"SCALAR"
		},
		{
			"bufferView":76,
			"componentType":5126,
			"count":924,
			"max":[
				0.9153630137443542,
				0.5249999761581421,
				0.7742913961410522
			],
			"min":[
				-0.8759124875068665,
				0,
				-2.0298678874969482
			],
			"type":"VEC3"
		},
		{
			"bufferView":77,
			"componentType":5126,
			"count":924,
			"type":"VEC3"
		},
		{
			"bufferView":78,
			"componentType":5126,
			"count":924,
			"type":"VEC2"
		},
		{
			"bufferView":79,
			"componentType":5123,
			"count":1380,
			"type":"SCALAR"
		},
		{
			"bufferView":80,
			"componentType":5126,
			"count":1888,
			"max":[
				1.4592880010604858,
				0.7269999980926514,
				1.47151780128479
			],
			"min":[
				-0.7954609990119934,
				0,
				-1.4356971979141235
			],
			"type":"VEC3"
		},
		{
			"bufferView":81,
			"componentType":5126,
			"count":1888,
			"type":"VEC3"
		},
		{
			"bufferView":82,
			"componentType":5126,
			"count":1888,
			"type":"VEC2"
		},
		{
			"bufferView":83,
			"componentType":5123,
			"count":2832,
			"type":"SCALAR"
		},
		{
			"bufferView":84,
			"componentType":5126,
			"count":2752,
			"max":[
				2.7757468223571777,
				0.1925623118877411,
				2.4148306846618652
			],
			"min":[
				-2.7121336460113525,
				0.02273435890674591,
				-2.3341434001922607
			],
			"type":"VEC3"
		},
		{
			"bufferView":85,
			"componentType":5126,
			"count":2752,
			"type":"VEC3"
		},
		{
			"bufferView":86,
			"componentType":5126,
			"count":2752,
			"type":"VEC2"
		},
		{
			"bufferView":87,
			"componentType":5123,
			"count":3024,
			"type":"SCALAR"
		},
		{
			"bufferView":88,
			"componentType":5126,
			"count":24,
			"max":[
				0.563700258731842,
				0.006000000052154064,
				0.563700258731842
			],
			"min":[
				-0.563700258731842,
				0.0020000000949949026,
				-0.563700258731842
			],
			"type":"VEC3"
		},
		{
			"bufferView":89,
			"componentType":5126,
			"count":24,
			"type":"VEC3"
		},
		{
			"bufferView":90,
			"componentType":5126,
			"count":24,
			"type":"VEC2"
		},
		{
			"bufferView":91,
			"componentType":5123,
			"count":36,
			"type":"SCALAR"
		},
		{
			"bufferView":92,
			"componentType":5126,
			"count":669,
			"max":[
				0.8725000023841858,
				1.1655000448226929,
				0.42250001430511475
			],
			"min":[
				-0.8725000023841858,
				0.5550000071525574,
				-0.42250001430511475
			],
			"type":"VEC3"
		},
		{
			"bufferView":93,
			"componentType":5126,
			"count":669,
			"type":"VEC3"
		},
		{
			"bufferView":94,
			"componentType":5126,
			"count":669,
			"type":"VEC2"
		},
		{
			"bufferView":95,
			"componentType":5123,
			"count":1176,
			"type":"SCALAR"
		},
		{
			"bufferView":96,
			"componentType":5126,
			"count":40,
			"max":[
				0.05249999836087227,
				1.3350000381469727,
				-0.02506953291594982
			],
			"min":[
				-0.05249999836087227,
				1.2599999904632568,
				-0.12493046373128891
			],
			"type":"VEC3"
		},
		{
			"bufferView":97,
			"componentType":5126,
			"count":40,
			"type":"VEC3"
		},
		{
			"bufferView":98,
			"componentType":5126,
			"count":40,
			"type":"VEC2"
		},
		{
			"bufferView":99,
			"componentType":5123,
			"count":54,
			"type":"SCALAR"
		},
		{
			"bufferView":100,
			"componentType":5126,
			"count":24,
			"max":[
				1.565000057220459,
				0.690000057220459,
				-0.2970000207424164
			],
			"min":[
				1.4249999523162842,
				0.6000000238418579,
				-0.30300000309944153
			],
			"type":"VEC3"
		},
		{
			"bufferView":101,
			"componentType":5126,
			"count":24,
			"type":"VEC3"
		},
		{
			"bufferView":102,
			"componentType":5126,
			"count":24,
			"type":"VEC2"
		},
		{
			"bufferView":103,
			"componentType":5123,
			"count":36,
			"type":"SCALAR"
		}
	],
	"bufferViews":[
		{
			"buffer":0,
			"byteLength":13536,
			"byteOffset":0,
			"target":34962
		},
		{
			"buffer":0,
			"byteLength":13536,
			"byteOffset":13536,
			"target":34962
		},
		{
			"buffer":0,
			"byteLength":9024,
			"byteOffset":27072,
			"target":34962
		},
		{
			"buffer":0,
			"byteLength":3576,
			"byteOffset":36096,
			"target":34963
		},
		{
			"buffer":0,
			"byteLength":119232,
			"byteOffset":39672,
			"target":34962
		},
		{
			"buffer":0,
			"byteLength":119232,
			"byteOffset":158904,
			"target":34962
		},
		{
			"buffer":0,
			"byteLength":79488,
			"byteOffset":278136,
			"target":34962
		},
		{
			"buffer":0,
			"byteLength":29808,
			"byteOffset":357624,
			"target":34963
		},
		{
			"buffer":0,
			"byteLength":253728,
			"byteOffset":387432,
			"target":34962
		},
		{
			"buffer":0,
			"byteLength":253728,
			"byteOffset":641160,
			"target":34962
		},
		{
			"buffer":0,
			"byteLength":169152,
			"byteOffset":894888,
			"target":34962
		},
		{
			"buffer":0,
			"byteLength":63432,
			"byteOffset":1064040,
			"target":34963
		},
		{
			"buffer":0,
			"byteLength":25968,
			"byteOffset":1127472,
			"target":34962
		},
		{
			"buffer":0,
			"byteLength":25968,
			"byteOffset":1153440,
			"target":34962
		},
		{
			"buffer":0,
			"byteLength":17312,
			"byteOffset":1179408,
			"target":34962
		},
		{
			"buffer":0,
			"byteLength":8424,
			"byteOffset":1196720,
			"target":34963
		},
		{
			"buffer":0,
			"byteLength":37824,
			"byteOffset":1205144,
			"target":34962
		},
		{
			"buffer":0,
			"byteLength":37824,
			"byteOffset":1242968,
			"target":34962
		},
		{
			"buffer":0,
			"byteLength":25216,
			"byteOffset":1280792,
			"target":34962
		},
		{
			"buffer":0,
			"byteLength":6768,
			"byteOffset":1306008,
			"target":34963
		},
		{
			"buffer":0,
			"byteLength":18720,
			"byteOffset":1312776,
			"target":34962
		},
		{
			"buffer":0,
			"byteLength":18720,
			"byteOffset":1331496,
			"target":34962
		},
		{
			"buffer":0,
			"byteLength":12480,
			"byteOffset":1350216,
			"target":34962
		},
		{
			"buffer":0,
			"byteLength":4632,
			"byteOffset":1362696,
			"target":34963
		},
		{
			"buffer":0,
			"byteLength":185484,
			"byteOffset":1367328,
			"target":34962
		},
		{
			"buffer":0,
			"byteLength":185484,
			"byteOffset":1552812,
			"target":34962
		},
		{
			"buffer":0,
			"byteLength":123656,
			"byteOffset":1738296,
			"target":34962
		},
		{
			"buffer":0,
			"byteLength":48168,
			"byteOffset":1861952,
			"target":34963
		},
		{
			"buffer":0,
			"byteLength":13536,
			"byteOffset":1910120,
			"target":34962
		},
		{
			"buffer":0,
			"byteLength":13536,
			"byteOffset":1923656,
			"target":34962
		},
		{
			"buffer":0,
			"byteLength":9024,
			"byteOffset":1937192,
			"target":34962
		},
		{
			"buffer":0,
			"byteLength":3384,
			"byteOffset":1946216,
			"target":34963
		},
		{
			"buffer":0,
			"byteLength":4896,
			"byteOffset":1949600,
			"target":34962
		},
		{
			"buffer":0,
			"byteLength":4896,
			"byteOffset":1954496,
			"target":34962
		},
		{
			"buffer":0,
			"byteLength":3264,
			"byteOffset":1959392,
			"target":34962
		},
		{
			"buffer":0,
			"byteLength":1152,
			"byteOffset":1962656,
			"target":34963
		},
		{
			"buffer":0,
			"byteLength":31104,
			"byteOffset":1963808,
			"target":34962
		},
		{
			"buffer":0,
			"byteLength":31104,
			"byteOffset":1994912,
			"target":34962
		},
		{
			"buffer":0,
			"byteLength":20736,
			"byteOffset":2026016,
			"target":34962
		},
		{
			"buffer":0,
			"byteLength":7752,
			"byteOffset":2046752,
			"target":34963
		},
		{
			"buffer":0,
			"byteLength":857016,
			"byteOffset":2054504,
			"target":34962
		},
		{
			"buffer":0,
			"byteLength":857016,
			"byteOffset":2911520,
			"target":34962
		},
		{
			"buffer":0,
			"byteLength":571344,
			"byteOffset":3768536,
			"target":34962
		},
		{
			"buffer":0,
			"byteLength":429888,
			"byteOffset":4339880,
			"target":34963
		},
		{
			"buffer":0,
			"byteLength":14400,
			"byteOffset":4769768,
			"target":34962
		},
		{
			"buffer":0,
			"byteLength":14400,
			"byteOffset":4784168,
			"target":34962
		},
		{
			"buffer":0,
			"byteLength":9600,
			"byteOffset":4798568,
			"target":34962
		},
		{
			"buffer":0,
			"byteLength":2400,
			"byteOffset":4808168,
			"target":34963
		},
		{
			"buffer":0,
			"byteLength":5376,
			"byteOffset":4810568,
			"target":34962
		},
		{
			"buffer":0,
			"byteLength":5376,
			"byteOffset":4815944,
			"target":34962
		},
		{
			"buffer":0,
			"byteLength":3584,
			"byteOffset":4821320,
			"target":34962
		},
		{
			"buffer":0,
			"byteLength":1332,
			"byteOffset":4824904,
			"target":34963
		},
		{
			"buffer":0,
			"byteLength":5472,
			"byteOffset":4826236,
			"target":34962
		},
		{
			"buffer":0,
			"byteLength":5472,
			"byteOffset":4831708,
			"target":34962
		},
		{
			"buffer":0,
			"byteLength":3648,
			"byteOffset":4837180,
			"target":34962
		},
		{
			"buffer":0,
			"byteLength":1344,
			"byteOffset":4840828,
			"target":34963
		},
		{
			"buffer":0,
			"byteLength":960,
			"byteOffset":4842172,
			"target":34962
		},
		{
			"buffer":0,
			"byteLength":960,
			"byteOffset":4843132,
			"target":34962
		},
		{
			"buffer":0,
			"byteLength":640,
			"byteOffset":4844092,
			"target":34962
		},
		{
			"buffer":0,
			"byteLength":240,
			"byteOffset":4844732,
			"target":34963
		},
		{
			"buffer":0,
			"byteLength":13392,
			"byteOffset":4844972,
			"target":34962
		},
		{
			"buffer":0,
			"byteLength":13392,
			"byteOffset":4858364,
			"target":34962
		},
		{
			"buffer":0,
			"byteLength":8928,
			"byteOffset":4871756,
			"target":34962
		},
		{
			"buffer":0,
			"byteLength":3312,
			"byteOffset":4880684,
			"target":34963
		},
		{
			"buffer":0,
			"byteLength":4032,
			"byteOffset":4883996,
			"target":34962
		},
		{
			"buffer":0,
			"byteLength":4032,
			"byteOffset":4888028,
			"target":34962
		},
		{
			"buffer":0,
			"byteLength":2688,
			"byteOffset":4892060,
			"target":34962
		},
		{
			"buffer":0,
			"byteLength":1008,
			"byteOffset":4894748,
			"target":34963
		},
		{
			"buffer":0,
			"byteLength":33408,
			"byteOffset":4895756,
			"target":34962
		},
		{
			"buffer":0,
			"byteLength":33408,
			"byteOffset":4929164,
			"target":34962
		},
		{
			"buffer":0,
			"byteLength":22272,
			"byteOffset":4962572,
			"target":34962
		},
		{
			"buffer":0,
			"byteLength":8400,
			"byteOffset":4984844,
			"target":34963
		},
		{
			"buffer":0,
			"byteLength":2736,
			"byteOffset":4993244,
			"target":34962
		},
		{
			"buffer":0,
			"byteLength":2736,
			"byteOffset":4995980,
			"target":34962
		},
		{
			"buffer":0,
			"byteLength":1824,
			"byteOffset":4998716,
			"target":34962
		},
		{
			"buffer":0,
			"byteLength":672,
			"byteOffset":5000540,
			"target":34963
		},
		{
			"buffer":0,
			"byteLength":11088,
			"byteOffset":5001212,
			"target":34962
		},
		{
			"buffer":0,
			"byteLength":11088,
			"byteOffset":5012300,
			"target":34962
		},
		{
			"buffer":0,
			"byteLength":7392,
			"byteOffset":5023388,
			"target":34962
		},
		{
			"buffer":0,
			"byteLength":2760,
			"byteOffset":5030780,
			"target":34963
		},
		{
			"buffer":0,
			"byteLength":22656,
			"byteOffset":5033540,
			"target":34962
		},
		{
			"buffer":0,
			"byteLength":22656,
			"byteOffset":5056196,
			"target":34962
		},
		{
			"buffer":0,
			"byteLength":15104,
			"byteOffset":5078852,
			"target":34962
		},
		{
			"buffer":0,
			"byteLength":5664,
			"byteOffset":5093956,
			"target":34963
		},
		{
			"buffer":0,
			"byteLength":33024,
			"byteOffset":5099620,
			"target":34962
		},
		{
			"buffer":0,
			"byteLength":33024,
			"byteOffset":5132644,
			"target":34962
		},
		{
			"buffer":0,
			"byteLength":22016,
			"byteOffset":5165668,
			"target":34962
		},
		{
			"buffer":0,
			"byteLength":6048,
			"byteOffset":5187684,
			"target":34963
		},
		{
			"buffer":0,
			"byteLength":288,
			"byteOffset":5193732,
			"target":34962
		},
		{
			"buffer":0,
			"byteLength":288,
			"byteOffset":5194020,
			"target":34962
		},
		{
			"buffer":0,
			"byteLength":192,
			"byteOffset":5194308,
			"target":34962
		},
		{
			"buffer":0,
			"byteLength":72,
			"byteOffset":5194500,
			"target":34963
		},
		{
			"buffer":0,
			"byteLength":8028,
			"byteOffset":5194572,
			"target":34962
		},
		{
			"buffer":0,
			"byteLength":8028,
			"byteOffset":5202600,
			"target":34962
		},
		{
			"buffer":0,
			"byteLength":5352,
			"byteOffset":5210628,
			"target":34962
		},
		{
			"buffer":0,
			"byteLength":2352,
			"byteOffset":5215980,
			"target":34963
		},
		{
			"buffer":0,
			"byteLength":480,
			"byteOffset":5218332,
			"target":34962
		},
		{
			"buffer":0,
			"byteLength":480,
			"byteOffset":5218812,
			"target":34962
		},
		{
			"buffer":0,
			"byteLength":320,
			"byteOffset":5219292,
			"target":34962
		},
		{
			"buffer":0,
			"byteLength":108,
			"byteOffset":5219612,
			"target":34963
		},
		{
			"buffer":0,
			"byteLength":288,
			"byteOffset":5219720,
			"target":34962
		},
		{
			"buffer":0,
			"byteLength":288,
			"byteOffset":5220008,
			"target":34962
		},
		{
			"buffer":0,
			"byteLength":192,
			"byteOffset":5220296,
			"target":34962
		},
		{
			"buffer":0,
			"byteLength":72,
			"byteOffset":5220488,
			"target":34963
		}
	],
	"samplers":[
		{
			"magFilter":9729,
			"minFilter":9987
		}
	],
	"buffers":[
		{
			"byteLength":5220560,
			"uri":"city_west_capital.bin"
		}
	]
}
