{
	"asset":{
		"generator":"Khronos glTF Blender I/O v5.2.40",
		"version":"2.0"
	},
	"scene":0,
	"scenes":[
		{
			"name":"Scene",
			"nodes":[
				0
			]
		}
	],
	"nodes":[
		{
			"mesh":0,
			"name":"city_orient_capital"
		}
	],
	"materials":[
		{
			"doubleSided":true,
			"name":"garden",
			"normalTexture":{
				"index":0
			},
			"pbrMetallicRoughness":{
				"baseColorTexture":{
					"index":1
				},
				"metallicFactor":0
			}
		},
		{
			"doubleSided":true,
			"name":"ground_dirt",
			"normalTexture":{
				"index":2
			},
			"pbrMetallicRoughness":{
				"baseColorTexture":{
					"index":3
				},
				"metallicFactor":0
			}
		},
		{
			"doubleSided":true,
			"name":"concrete",
			"normalTexture":{
				"index":4
			},
			"pbrMetallicRoughness":{
				"baseColorTexture":{
					"index":5
				},
				"metallicFactor":0,
				"roughnessFactor":0.8999999761581421
			}
		},
		{
			"doubleSided":true,
			"name":"trunk",
			"pbrMetallicRoughness":{
				"baseColorFactor":[
					0.25,
					0.17000000178813934,
					0.10000000149011612,
					1
				],
				"metallicFactor":0,
				"roughnessFactor":0.8999999761581421
			}
		},
		{
			"doubleSided":true,
			"name":"tree",
			"pbrMetallicRoughness":{
				"baseColorFactor":[
					0.12999999523162842,
					0.27000001072883606,
					0.09000000357627869,
					1
				],
				"metallicFactor":0,
				"roughnessFactor":0.8999999761581421
			}
		},
		{
			"doubleSided":true,
			"name":"facade_cream",
			"normalTexture":{
				"index":6
			},
			"pbrMetallicRoughness":{
				"baseColorTexture":{
					"index":7
				},
				"metallicFactor":0,
				"roughnessFactor":0.8500000238418579
			}
		},
		{
			"doubleSided":true,
			"name":"stone_sand",
			"normalTexture":{
				"index":8
			},
			"pbrMetallicRoughness":{
				"baseColorTexture":{
					"index":9
				},
				"metallicFactor":0,
				"roughnessFactor":0.8500000238418579
			}
		},
		{
			"doubleSided":true,
			"name":"wood_red",
			"normalTexture":{
				"index":10
			},
			"pbrMetallicRoughness":{
				"baseColorTexture":{
					"index":11
				},
				"metallicFactor":0,
				"roughnessFactor":0.8500000238418579
			}
		},
		{
			"doubleSided":true,
			"name":"roof_terracotta",
			"normalTexture":{
				"index":12
			},
			"pbrMetallicRoughness":{
				"baseColorTexture":{
					"index":13
				},
				"metallicFactor":0,
				"roughnessFactor":0.699999988079071
			}
		},
		{
			"doubleSided":true,
			"name":"brick_red",
			"normalTexture":{
				"index":14
			},
			"pbrMetallicRoughness":{
				"baseColorTexture":{
					"index":15
				},
				"metallicFactor":0,
				"roughnessFactor":0.8999999761581421
			}
		},
		{
			"doubleSided":true,
			"name":"facade_whitewash",
			"normalTexture":{
				"index":16
			},
			"pbrMetallicRoughness":{
				"baseColorTexture":{
					"index":17
				},
				"metallicFactor":0,
				"roughnessFactor":0.8999999761581421
			}
		},
		{
			"doubleSided":true,
			"name":"steel",
			"pbrMetallicRoughness":{
				"baseColorFactor":[
					0.2800000011920929,
					0.30000001192092896,
					0.33000001311302185,
					1
				],
				"metallicFactor":0.800000011920929,
				"roughnessFactor":0.4000000059604645
			}
		},
		{
			"doubleSided":true,
			"name":"roof_copper",
			"normalTexture":{
				"index":18
			},
			"pbrMetallicRoughness":{
				"baseColorTexture":{
					"index":19
				},
				"metallicFactor":0.25,
				"roughnessFactor":0.44999998807907104
			}
		},
		{
			"doubleSided":true,
			"name":"glass",
			"pbrMetallicRoughness":{
				"baseColorFactor":[
					0.11999999731779099,
					0.1599999964237213,
					0.20000000298023224,
					1
				],
				"metallicFactor":0.5,
				"roughnessFactor":0.10000000149011612
			}
		},
		{
			"doubleSided":true,
			"name":"stone_light",
			"normalTexture":{
				"index":20
			},
			"pbrMetallicRoughness":{
				"baseColorTexture":{
					"index":21
				},
				"metallicFactor":0,
				"roughnessFactor":0.800000011920929
			}
		},
		{
			"doubleSided":true,
			"name":"facade_beige_flat",
			"normalTexture":{
				"index":22
			},
			"pbrMetallicRoughness":{
				"baseColorTexture":{
					"index":23
				},
				"metallicFactor":0,
				"roughnessFactor":0.8999999761581421
			}
		},
		{
			"doubleSided":true,
			"name":"facade_ochre",
			"normalTexture":{
				"index":24
			},
			"pbrMetallicRoughness":{
				"baseColorTexture":{
					"index":25
				},
				"metallicFactor":0,
				"roughnessFactor":0.8500000238418579
			}
		},
		{
			"doubleSided":true,
			"name":"facade_pink",
			"normalTexture":{
				"index":26
			},
			"pbrMetallicRoughness":{
				"baseColorTexture":{
					"index":27
				},
				"metallicFactor":0,
				"roughnessFactor":0.8500000238418579
			}
		},
		{
			"doubleSided":true,
			"name":"city_paving_warm",
			"normalTexture":{
				"index":28
			},
			"pbrMetallicRoughness":{
				"baseColorTexture":{
					"index":29
				},
				"metallicFactor":0,
				"roughnessFactor":0.9200000166893005
			}
		},
		{
			"doubleSided":true,
			"name":"lead",
			"pbrMetallicRoughness":{
				"baseColorFactor":[
					0.46000000834465027,
					0.49000000953674316,
					0.5199999809265137,
					1
				],
				"metallicFactor":0.25,
				"roughnessFactor":0.6200000047683716
			}
		},
		{
			"doubleSided":true,
			"name":"gold",
			"pbrMetallicRoughness":{
				"baseColorFactor":[
					0.8299999833106995,
					0.6200000047683716,
					0.20000000298023224,
					1
				],
				"roughnessFactor":0.30000001192092896
			}
		},
		{
			"doubleSided":true,
			"name":"ground_cobble",
			"normalTexture":{
				"index":30
			},
			"pbrMetallicRoughness":{
				"baseColorTexture":{
					"index":31
				},
				"metallicFactor":0,
				"roughnessFactor":0.949999988079071
			}
		},
		{
			"doubleSided":true,
			"name":"tree_dark",
			"pbrMetallicRoughness":{
				"baseColorFactor":[
					0.07999999821186066,
					0.1899999976158142,
					0.07999999821186066,
					1
				],
				"metallicFactor":0,
				"roughnessFactor":0.8999999761581421
			}
		}
	],
	"meshes":[
		{
			"name":"part.11201",
			"primitives":[
				{
					"attributes":{
						"POSITION":0,
						"NORMAL":1,
						"TEXCOORD_0":2
					},
					"indices":3,
					"material":0
				},
				{
					"attributes":{
						"POSITION":4,
						"NORMAL":5,
						"TEXCOORD_0":6
					},
					"indices":7,
					"material":1
				},
				{
					"attributes":{
						"POSITION":8,
						"NORMAL":9,
						"TEXCOORD_0":10
					},
					"indices":11,
					"material":2
				},
				{
					"attributes":{
						"POSITION":12,
						"NORMAL":13,
						"TEXCOORD_0":14
					},
					"indices":15,
					"material":3
				},
				{
					"attributes":{
						"POSITION":16,
						"NORMAL":17,
						"TEXCOORD_0":18
					},
					"indices":19,
					"material":4
				},
				{
					"attributes":{
						"POSITION":20,
						"NORMAL":21,
						"TEXCOORD_0":22
					},
					"indices":23,
					"material":5
				},
				{
					"attributes":{
						"POSITION":24,
						"NORMAL":25,
						"TEXCOORD_0":26
					},
					"indices":27,
					"material":6
				},
				{
					"attributes":{
						"POSITION":28,
						"NORMAL":29,
						"TEXCOORD_0":30
					},
					"indices":31,
					"material":7
				},
				{
					"attributes":{
						"POSITION":32,
						"NORMAL":33,
						"TEXCOORD_0":34
					},
					"indices":35,
					"material":8
				},
				{
					"attributes":{
						"POSITION":36,
						"NORMAL":37,
						"TEXCOORD_0":38
					},
					"indices":39,
					"material":9
				},
				{
					"attributes":{
						"POSITION":40,
						"NORMAL":41,
						"TEXCOORD_0":42
					},
					"indices":43,
					"material":10
				},
				{
					"attributes":{
						"POSITION":44,
						"NORMAL":45,
						"TEXCOORD_0":46
					},
					"indices":47,
					"material":11
				},
				{
					"attributes":{
						"POSITION":48,
						"NORMAL":49,
						"TEXCOORD_0":50
					},
					"indices":51,
					"material":12
				},
				{
					"attributes":{
						"POSITION":52,
						"NORMAL":53,
						"TEXCOORD_0":54
					},
					"indices":55,
					"material":13
				},
				{
					"attributes":{
						"POSITION":56,
						"NORMAL":57,
						"TEXCOORD_0":58
					},
					"indices":59,
					"material":14
				},
				{
					"attributes":{
						"POSITION":60,
						"NORMAL":61,
						"TEXCOORD_0":62
					},
					"indices":63,
					"material":15
				},
				{
					"attributes":{
						"POSITION":64,
						"NORMAL":65,
						"TEXCOORD_0":66
					},
					"indices":23,
					"material":16
				},
				{
					"attributes":{
						"POSITION":67,
						"NORMAL":68,
						"TEXCOORD_0":69
					},
					"indices":70,
					"material":17
				},
				{
					"attributes":{
						"POSITION":71,
						"NORMAL":72,
						"TEXCOORD_0":73
					},
					"indices":74,
					"material":18
				},
				{
					"attributes":{
						"POSITION":75,
						"NORMAL":76,
						"TEXCOORD_0":77
					},
					"indices":78,
					"material":19
				},
				{
					"attributes":{
						"POSITION":79,
						"NORMAL":80,
						"TEXCOORD_0":81
					},
					"indices":82,
					"material":20
				},
				{
					"attributes":{
						"POSITION":83,
						"NORMAL":84,
						"TEXCOORD_0":85
					},
					"indices":74,
					"material":21
				},
				{
					"attributes":{
						"POSITION":86,
						"NORMAL":87,
						"TEXCOORD_0":88
					},
					"indices":89,
					"material":22
				}
			]
		}
	],
	"textures":[
		{
			"sampler":0,
			"source":0
		},
		{
			"sampler":0,
			"source":1
		},
		{
			"sampler":0,
			"source":2
		},
		{
			"sampler":0,
			"source":3
		},
		{
			"sampler":0,
			"source":4
		},
		{
			"sampler":0,
			"source":5
		},
		{
			"sampler":0,
			"source":6
		},
		{
			"sampler":0,
			"source":7
		},
		{
			"sampler":0,
			"source":8
		},
		{
			"sampler":0,
			"source":9
		},
		{
			"sampler":0,
			"source":10
		},
		{
			"sampler":0,
			"source":11
		},
		{
			"sampler":0,
			"source":12
		},
		{
			"sampler":0,
			"source":13
		},
		{
			"sampler":0,
			"source":14
		},
		{
			"sampler":0,
			"source":15
		},
		{
			"sampler":0,
			"source":16
		},
		{
			"sampler":0,
			"source":17
		},
		{
			"sampler":0,
			"source":18
		},
		{
			"sampler":0,
			"source":19
		},
		{
			"sampler":0,
			"source":20
		},
		{
			"sampler":0,
			"source":21
		},
		{
			"sampler":0,
			"source":22
		},
		{
			"sampler":0,
			"source":23
		},
		{
			"sampler":0,
			"source":24
		},
		{
			"sampler":0,
			"source":25
		},
		{
			"sampler":0,
			"source":26
		},
		{
			"sampler":0,
			"source":27
		},
		{
			"sampler":0,
			"source":28
		},
		{
			"sampler":0,
			"source":29
		},
		{
			"sampler":0,
			"source":30
		},
		{
			"sampler":0,
			"source":31
		}
	],
	"images":[
		{
			"mimeType":"image/png",
			"name":"garden_n",
			"uri":"textures/garden_n.png"
		},
		{
			"mimeType":"image/png",
			"name":"garden",
			"uri":"textures/garden.png"
		},
		{
			"mimeType":"image/png",
			"name":"ground_dirt_n",
			"uri":"textures/ground_dirt_n.png"
		},
		{
			"mimeType":"image/png",
			"name":"ground_dirt",
			"uri":"textures/ground_dirt.png"
		},
		{
			"mimeType":"image/png",
			"name":"concrete_n",
			"uri":"textures/concrete_n.png"
		},
		{
			"mimeType":"image/png",
			"name":"concrete",
			"uri":"textures/concrete.png"
		},
		{
			"mimeType":"image/png",
			"name":"facade_cream_n",
			"uri":"textures/facade_cream_n.png"
		},
		{
			"mimeType":"image/png",
			"name":"facade_cream",
			"uri":"textures/facade_cream.png"
		},
		{
			"mimeType":"image/png",
			"name":"stone_sand_n",
			"uri":"textures/stone_sand_n.png"
		},
		{
			"mimeType":"image/png",
			"name":"stone_sand",
			"uri":"textures/stone_sand.png"
		},
		{
			"mimeType":"image/png",
			"name":"wood_red_n",
			"uri":"textures/wood_red_n.png"
		},
		{
			"mimeType":"image/png",
			"name":"wood_red",
			"uri":"textures/wood_red.png"
		},
		{
			"mimeType":"image/png",
			"name":"roof_terracotta_n",
			"uri":"textures/roof_terracotta_n.png"
		},
		{
			"mimeType":"image/png",
			"name":"roof_terracotta",
			"uri":"textures/roof_terracotta.png"
		},
		{
			"mimeType":"image/png",
			"name":"brick_red_n",
			"uri":"textures/brick_red_n.png"
		},
		{
			"mimeType":"image/png",
			"name":"brick_red",
			"uri":"textures/brick_red.png"
		},
		{
			"mimeType":"image/png",
			"name":"facade_whitewash_n",
			"uri":"textures/facade_whitewash_n.png"
		},
		{
			"mimeType":"image/png",
			"name":"facade_whitewash",
			"uri":"textures/facade_whitewash.png"
		},
		{
			"mimeType":"image/png",
			"name":"roof_copper_n",
			"uri":"textures/roof_copper_n.png"
		},
		{
			"mimeType":"image/png",
			"name":"roof_copper",
			"uri":"textures/roof_copper.png"
		},
		{
			"mimeType":"image/png",
			"name":"stone_light_n",
			"uri":"textures/stone_light_n.png"
		},
		{
			"mimeType":"image/png",
			"name":"stone_light",
			"uri":"textures/stone_light.png"
		},
		{
			"mimeType":"image/png",
			"name":"facade_beige_flat_n",
			"uri":"textures/facade_beige_flat_n.png"
		},
		{
			"mimeType":"image/png",
			"name":"facade_beige_flat",
			"uri":"textures/facade_beige_flat.png"
		},
		{
			"mimeType":"image/png",
			"name":"facade_ochre_n",
			"uri":"textures/facade_ochre_n.png"
		},
		{
			"mimeType":"image/png",
			"name":"facade_ochre",
			"uri":"textures/facade_ochre.png"
		},
		{
			"mimeType":"image/png",
			"name":"facade_pink_n",
			"uri":"textures/facade_pink_n.png"
		},
		{
			"mimeType":"image/png",
			"name":"facade_pink",
			"uri":"textures/facade_pink.png"
		},
		{
			"mimeType":"image/png",
			"name":"city_paving_warm_n",
			"uri":"textures/city_paving_warm_n.png"
		},
		{
			"mimeType":"image/png",
			"name":"city_paving_warm",
			"uri":"textures/city_paving_warm.png"
		},
		{
			"mimeType":"image/png",
			"name":"ground_cobble_n",
			"uri":"textures/ground_cobble_n.png"
		},
		{
			"mimeType":"image/png",
			"name":"ground_cobble",
			"uri":"textures/ground_cobble.png"
		}
	],
	"accessors":[
		{
			"bufferView":0,
			"componentType":5126,
			"count":1176,
			"max":[
				2.864866018295288,
				0.003000000026077032,
				2.357170581817627
			],
			"min":[
				-2.867051124572754,
				-0.029999999329447746,
				-2.5207884311676025
			],
			"type":"VEC3"
		},
		{
			"bufferView":1,
			"componentType":5126,
			"count":1176,
			"type":"VEC3"
		},
		{
			"bufferView":2,
			"componentType":5126,
			"count":1176,
			"type":"VEC2"
		},
		{
			"bufferView":3,
			"componentType":5123,
			"count":1860,
			"type":"SCALAR"
		},
		{
			"bufferView":4,
			"componentType":5126,
			"count":9888,
			"max":[
				2.36846923828125,
				0.004999999888241291,
				2.004817485809326
			],
			"min":[
				-2.36846923828125,
				0.0020000000949949026,
				-2.004817485809326
			],
			"type":"VEC3"
		},
		{
			"bufferView":5,
			"componentType":5126,
			"count":9888,
			"type":"VEC3"
		},
		{
			"bufferView":6,
			"componentType":5126,
			"count":9888,
			"type":"VEC2"
		},
		{
			"bufferView":7,
			"componentType":5123,
			"count":14832,
			"type":"SCALAR"
		},
		{
			"bufferView":8,
			"componentType":5126,
			"count":21640,
			"max":[
				2.3686447143554688,
				0.6720000505447388,
				2.055100917816162
			],
			"min":[
				-2.3686447143554688,
				0.0020000000949949026,
				-2.004993200302124
			],
			"type":"VEC3"
		},
		{
			"bufferView":9,
			"componentType":5126,
			"count":21640,
			"type":"VEC3"
		},
		{
			"bufferView":10,
			"componentType":5126,
			"count":21640,
			"type":"VEC2"
		},
		{
			"bufferView":11,
			"componentType":5123,
			"count":32460,
			"type":"SCALAR"
		},
		{
			"bufferView":12,
			"componentType":5126,
			"count":2613,
			"max":[
				2.7601261138916016,
				0.06687276810407639,
				2.155228853225708
			],
			"min":[
				-2.6015586853027344,
				0,
				-2.2942047119140625
			],
			"type":"VEC3"
		},
		{
			"bufferView":13,
			"componentType":5126,
			"count":2613,
			"type":"VEC3"
		},
		{
			"bufferView":14,
			"componentType":5126,
			"count":2613,
			"type":"VEC2"
		},
		{
			"bufferView":15,
			"componentType":5123,
			"count":5070,
			"type":"SCALAR"
		},
		{
			"bufferView":16,
			"componentType":5126,
			"count":9132,
			"max":[
				2.8041605949401855,
				0.2119714617729187,
				2.2060840129852295
			],
			"min":[
				-2.64703631401062,
				0.027609705924987793,
				-2.3423309326171875
			],
			"type":"VEC3"
		},
		{
			"bufferView":17,
			"componentType":5126,
			"count":9132,
			"type":"VEC3"
		},
		{
			"bufferView":18,
			"componentType":5126,
			"count":9132,
			"type":"VEC2"
		},
		{
			"bufferView":19,
			"componentType":5123,
			"count":9204,
			"type":"SCALAR"
		},
		{
			"bufferView":20,
			"componentType":5126,
			"count":1260,
			"max":[
				1.3262399435043335,
				0.3289748728275299,
				2.056126117706299
			],
			"min":[
				-1.9756805896759033,
				0,
				-1.85894775390625
			],
			"type":"VEC3"
		},
		{
			"bufferView":21,
			"componentType":5126,
			"count":1260,
			"type":"VEC3"
		},
		{
			"bufferView":22,
			"componentType":5126,
			"count":1260,
			"type":"VEC2"
		},
		{
			"bufferView":23,
			"componentType":5123,
			"count":1890,
			"type":"SCALAR"
		},
		{
			"bufferView":24,
			"componentType":5126,
			"count":80876,
			"max":[
				2.07456374168396,
				0.9709200263023376,
				2.0889978408813477
			],
			"min":[
				-2.076035499572754,
				-0.1599999964237213,
				-1.9655654430389404
			],
			"type":"VEC3"
		},
		{
			"bufferView":25,
			"componentType":5126,
			"count":80876,
			"type":"VEC3"
		},
		{
			"bufferView":26,
			"componentType":5126,
			"count":80876,
			"type":"VEC2"
		},
		{
			"bufferView":27,
			"componentType":5125,
			"count":122574,
			"type":"SCALAR"
		},
		{
			"bufferView":28,
			"componentType":5126,
			"count":2184,
			"max":[
				1.94564950466156,
				0.22450000047683716,
				2.068845272064209
			],
			"min":[
				-1.9224650859832764,
				0,
				-1.6672104597091675
			],
			"type":"VEC3"
		},
		{
			"bufferView":29,
			"componentType":5126,
			"count":2184,
			"type":"VEC3"
		},
		{
			"bufferView":30,
			"componentType":5126,
			"count":2184,
			"type":"VEC2"
		},
		{
			"bufferView":31,
			"componentType":5123,
			"count":3276,
			"type":"SCALAR"
		},
		{
			"bufferView":32,
			"componentType":5126,
			"count":900,
			"max":[
				2.040184497833252,
				0.6299999952316284,
				2.0864920616149902
			],
			"min":[
				-2.006046772003174,
				0.10999999940395355,
				-1.8966723680496216
			],
			"type":"VEC3"
		},
		{
			"bufferView":33,
			"componentType":5126,
			"count":900,
			"type":"VEC3"
		},
		{
			"bufferView":34,
			"componentType":5126,
			"count":900,
			"type":"VEC2"
		},
		{
			"bufferView":35,
			"componentType":5123,
			"count":1200,
			"type":"SCALAR"
		},
		{
			"bufferView":36,
			"componentType":5126,
			"count":600,
			"max":[
				1.816681981086731,
				0.6599999666213989,
				1.9523253440856934
			],
			"min":[
				-1.9320958852767944,
				0.14000000059604645,
				-1.8030521869659424
			],
			"type":"VEC3"
		},
		{
			"bufferView":37,
			"componentType":5126,
			"count":600,
			"type":"VEC3"
		},
		{
			"bufferView":38,
			"componentType":5126,
			"count":600,
			"type":"VEC2"
		},
		{
			"bufferView":39,
			"componentType":5123,
			"count":900,
			"type":"SCALAR"
		},
		{
			"bufferView":40,
			"componentType":5126,
			"count":2820,
			"max":[
				2.0572292804718018,
				0.658974826335907,
				1.4573966264724731
			],
			"min":[
				-2.0587010383605957,
				0,
				-1.4219921827316284
			],
			"type":"VEC3"
		},
		{
			"bufferView":41,
			"componentType":5126,
			"count":2820,
			"type":"VEC3"
		},
		{
			"bufferView":42,
			"componentType":5126,
			"count":2820,
			"type":"VEC2"
		},
		{
			"bufferView":43,
			"componentType":5123,
			"count":4230,
			"type":"SCALAR"
		},
		{
			"bufferView":44,
			"componentType":5126,
			"count":3168,
			"max":[
				2.06164813041687,
				0.5960000157356262,
				1.4958609342575073
			],
			"min":[
				-1.9467735290527344,
				0.1340000033378601,
				-1.622394323348999
			],
			"type":"VEC3"
		},
		{
			"bufferView":45,
			"componentType":5126,
			"count":3168,
			"type":"VEC3"
		},
		{
			"bufferView":46,
			"componentType":5126,
			"count":3168,
			"type":"VEC2"
		},
		{
			"bufferView":47,
			"componentType":5123,
			"count":4752,
			"type":"SCALAR"
		},
		{
			"bufferView":48,
			"componentType":5126,
			"count":2312,
			"max":[
				1.9845541715621948,
				0.7747499942779541,
				1.228325366973877
			],
			"min":[
				-1.818835973739624,
				0.29499998688697815,
				-1.3483290672302246
			],
			"type":"VEC3"
		},
		{
			"bufferView":49,
			"componentType":5126,
			"count":2312,
			"type":"VEC3"
		},
		{
			"bufferView":50,
			"componentType":5126,
			"count":2312,
			"type":"VEC2"
		},
		{
			"bufferView":51,
			"componentType":5123,
			"count":4560,
			"type":"SCALAR"
		},
		{
			"bufferView":52,
			"componentType":5126,
			"count":1272,
			"max":[
				1.4321694374084473,
				0.0820000022649765,
				1.447232723236084
			],
			"min":[
				-1.4364088773727417,
				0.012000000104308128,
				-1.0619150400161743
			],
			"type":"VEC3"
		},
		{
			"bufferView":53,
			"componentType":5126,
			"count":1272,
			"type":"VEC3"
		},
		{
			"bufferView":54,
			"componentType":5126,
			"count":1272,
			"type":"VEC2"
		},
		{
			"bufferView":55,
			"componentType":5123,
			"count":1908,
			"type":"SCALAR"
		},
		{
			"bufferView":56,
			"componentType":5126,
			"count":480,
			"max":[
				1.468695878982544,
				0.0040000081062316895,
				1.4798742532730103
			],
			"min":[
				-1.4697612524032593,
				-0.1599999964237213,
				-1.4359173774719238
			],
			"type":"VEC3"
		},
		{
			"bufferView":57,
			"componentType":5126,
			"count":480,
			"type":"VEC3"
		},
		{
			"bufferView":58,
			"componentType":5126,
			"count":480,
			"type":"VEC2"
		},
		{
			"bufferView":59,
			"componentType":5123,
			"count":720,
			"type":"SCALAR"
		},
		{
			"bufferView":60,
			"componentType":5126,
			"count":864,
			"max":[
				1.447925090789795,
				0.75,
				1.2288196086883545
			],
			"min":[
				-1.1687791347503662,
				0,
				-1.866306185722351
			],
			"type":"VEC3"
		},
		{
			"bufferView":61,
			"componentType":5126,
			"count":864,
			"type":"VEC3"
		},
		{
			"bufferView":62,
			"componentType":5126,
			"count":864,
			"type":"VEC2"
		},
		{
			"bufferView":63,
			"componentType":5123,
			"count":1296,
			"type":"SCALAR"
		},
		{
			"bufferView":64,
			"componentType":5126,
			"count":1260,
			"max":[
				2.0098183155059814,
				0.5489749312400818,
				1.4353322982788086
			],
			"min":[
				-1.3784775733947754,
				0,
				-1.354527473449707
			],
			"type":"VEC3"
		},
		{
			"bufferView":65,
			"componentType":5126,
			"count":1260,
			"type":"VEC3"
		},
		{
			"bufferView":66,
			"componentType":5126,
			"count":1260,
			"type":"VEC2"
		},
		{
			"bufferView":67,
			"componentType":5126,
			"count":360,
			"max":[
				1.9872435331344604,
				0.21897487342357635,
				1.4488413333892822
			],
			"min":[
				0.49838387966156006,
				0,
				-1.9475719928741455
			],
			"type":"VEC3"
		},
		{
			"bufferView":68,
			"componentType":5126,
			"count":360,
			"type":"VEC3"
		},
		{
			"bufferView":69,
			"componentType":5126,
			"count":360,
			"type":"VEC2"
		},
		{
			"bufferView":70,
			"componentType":5123,
			"count":540,
			"type":"SCALAR"
		},
		{
			"bufferView":71,
			"componentType":5126,
			"count":24,
			"max":[
				0.5327561497688293,
				0.006000000052154064,
				0.5327561497688293
			],
			"min":[
				-0.5327561497688293,
				0.0020000000949949026,
				-0.5327561497688293
			],
			"type":"VEC3"
		},
		{
			"bufferView":72,
			"componentType":5126,
			"count":24,
			"type":"VEC3"
		},
		{
			"bufferView":73,
			"componentType":5126,
			"count":24,
			"type":"VEC2"
		},
		{
			"bufferView":74,
			"componentType":5123,
			"count":36,
			"type":"SCALAR"
		},
		{
			"bufferView":75,
			"componentType":5126,
			"count":4417,
			"max":[
				0.5579771995544434,
				1.1941200494766235,
				1.1078073978424072
			],
			"min":[
				-0.5579771995544434,
				0.1080000028014183,
				-0.49511176347732544
			],
			"type":"VEC3"
		},
		{
			"bufferView":76,
			"componentType":5126,
			"count":4417,
			"type":"VEC3"
		},
		{
			"bufferView":77,
			"componentType":5126,
			"count":4417,
			"type":"VEC2"
		},
		{
			"bufferView":78,
			"componentType":5123,
			"count":7674,
			"type":"SCALAR"
		},
		{
			"bufferView":79,
			"componentType":5126,
			"count":25,
			"max":[
				0.02160000056028366,
				0.8999999761581421,
				0.02160000056028366
			],
			"min":[
				-0.02160000056028366,
				0.7919999957084656,
				-0.02160000056028366
			],
			"type":"VEC3"
		},
		{
			"bufferView":80,
			"componentType":5126,
			"count":25,
			"type":"VEC3"
		},
		{
			"bufferView":81,
			"componentType":5126,
			"count":25,
			"type":"VEC2"
		},
		{
			"bufferView":82,
			"componentType":5123,
			"count":42,
			"type":"SCALAR"
		},
		{
			"bufferView":83,
			"componentType":5126,
			"count":24,
			"max":[
				0.40923041105270386,
				0.012000000104308128,
				1.0844817161560059
			],
			"min":[
				-0.4258365035057068,
				0,
				0.4274270534515381
			],
			"type":"VEC3"
		},
		{
			"bufferView":84,
			"componentType":5126,
			"count":24,
			"type":"VEC3"
		},
		{
			"bufferView":85,
			"componentType":5126,
			"count":24,
			"type":"VEC2"
		},
		{
			"bufferView":86,
			"componentType":5126,
			"count":252,
			"max":[
				2.540120840072632,
				0.20805418491363525,
				2.1839752197265625
			],
			"min":[
				-0.7408228516578674,
				0.030521638691425323,
				-1.785457968711853
			],
			"type":"VEC3"
		},
		{
			"bufferView":87,
			"componentType":5126,
			"count":252,
			"type":"VEC3"
		},
		{
			"bufferView":88,
			"componentType":5126,
			"count":252,
			"type":"VEC2"
		},
		{
			"bufferView":89,
			"componentType":5123,
			"count":324,
			"type":"SCALAR"
		}
	],
	"bufferViews":[
		{
			"buffer":0,
			"byteLength":14112,
			"byteOffset":0,
			"target":34962
		},
		{
			"buffer":0,
			"byteLength":14112,
			"byteOffset":14112,
			"target":34962
		},
		{
			"buffer":0,
			"byteLength":9408,
			"byteOffset":28224,
			"target":34962
		},
		{
			"buffer":0,
			"byteLength":3720,
			"byteOffset":37632,
			"target":34963
		},
		{
			"buffer":0,
			"byteLength":118656,
			"byteOffset":41352,
			"target":34962
		},
		{
			"buffer":0,
			"byteLength":118656,
			"byteOffset":160008,
			"target":34962
		},
		{
			"buffer":0,
			"byteLength":79104,
			"byteOffset":278664,
			"target":34962
		},
		{
			"buffer":0,
			"byteLength":29664,
			"byteOffset":357768,
			"target":34963
		},
		{
			"buffer":0,
			"byteLength":259680,
			"byteOffset":387432,
			"target":34962
		},
		{
			"buffer":0,
			"byteLength":259680,
			"byteOffset":647112,
			"target":34962
		},
		{
			"buffer":0,
			"byteLength":173120,
			"byteOffset":906792,
			"target":34962
		},
		{
			"buffer":0,
			"byteLength":64920,
			"byteOffset":1079912,
			"target":34963
		},
		{
			"buffer":0,
			"byteLength":31356,
			"byteOffset":1144832,
			"target":34962
		},
		{
			"buffer":0,
			"byteLength":31356,
			"byteOffset":1176188,
			"target":34962
		},
		{
			"buffer":0,
			"byteLength":20904,
			"byteOffset":1207544,
			"target":34962
		},
		{
			"buffer":0,
			"byteLength":10140,
			"byteOffset":1228448,
			"target":34963
		},
		{
			"buffer":0,
			"byteLength":109584,
			"byteOffset":1238588,
			"target":34962
		},
		{
			"buffer":0,
			"byteLength":109584,
			"byteOffset":1348172,
			"target":34962
		},
		{
			"buffer":0,
			"byteLength":73056,
			"byteOffset":1457756,
			"target":34962
		},
		{
			"buffer":0,
			"byteLength":18408,
			"byteOffset":1530812,
			"target":34963
		},
		{
			"buffer":0,
			"byteLength":15120,
			"byteOffset":1549220,
			"target":34962
		},
		{
			"buffer":0,
			"byteLength":15120,
			"byteOffset":1564340,
			"target":34962
		},
		{
			"buffer":0,
			"byteLength":10080,
			"byteOffset":1579460,
			"target":34962
		},
		{
			"buffer":0,
			"byteLength":3780,
			"byteOffset":1589540,
			"target":34963
		},
		{
			"buffer":0,
			"byteLength":970512,
			"byteOffset":1593320,
			"target":34962
		},
		{
			"buffer":0,
			"byteLength":970512,
			"byteOffset":2563832,
			"target":34962
		},
		{
			"buffer":0,
			"byteLength":647008,
			"byteOffset":3534344,
			"target":34962
		},
		{
			"buffer":0,
			"byteLength":490296,
			"byteOffset":4181352,
			"target":34963
		},
		{
			"buffer":0,
			"byteLength":26208,
			"byteOffset":4671648,
			"target":34962
		},
		{
			"buffer":0,
			"byteLength":26208,
			"byteOffset":4697856,
			"target":34962
		},
		{
			"buffer":0,
			"byteLength":17472,
			"byteOffset":4724064,
			"target":34962
		},
		{
			"buffer":0,
			"byteLength":6552,
			"byteOffset":4741536,
			"target":34963
		},
		{
			"buffer":0,
			"byteLength":10800,
			"byteOffset":4748088,
			"target":34962
		},
		{
			"buffer":0,
			"byteLength":10800,
			"byteOffset":4758888,
			"target":34962
		},
		{
			"buffer":0,
			"byteLength":7200,
			"byteOffset":4769688,
			"target":34962
		},
		{
			"buffer":0,
			"byteLength":2400,
			"byteOffset":4776888,
			"target":34963
		},
		{
			"buffer":0,
			"byteLength":7200,
			"byteOffset":4779288,
			"target":34962
		},
		{
			"buffer":0,
			"byteLength":7200,
			"byteOffset":4786488,
			"target":34962
		},
		{
			"buffer":0,
			"byteLength":4800,
			"byteOffset":4793688,
			"target":34962
		},
		{
			"buffer":0,
			"byteLength":1800,
			"byteOffset":4798488,
			"target":34963
		},
		{
			"buffer":0,
			"byteLength":33840,
			"byteOffset":4800288,
			"target":34962
		},
		{
			"buffer":0,
			"byteLength":33840,
			"byteOffset":4834128,
			"target":34962
		},
		{
			"buffer":0,
			"byteLength":22560,
			"byteOffset":4867968,
			"target":34962
		},
		{
			"buffer":0,
			"byteLength":8460,
			"byteOffset":4890528,
			"target":34963
		},
		{
			"buffer":0,
			"byteLength":38016,
			"byteOffset":4898988,
			"target":34962
		},
		{
			"buffer":0,
			"byteLength":38016,
			"byteOffset":4937004,
			"target":34962
		},
		{
			"buffer":0,
			"byteLength":25344,
			"byteOffset":4975020,
			"target":34962
		},
		{
			"buffer":0,
			"byteLength":9504,
			"byteOffset":5000364,
			"target":34963
		},
		{
			"buffer":0,
			"byteLength":27744,
			"byteOffset":5009868,
			"target":34962
		},
		{
			"buffer":0,
			"byteLength":27744,
			"byteOffset":5037612,
			"target":34962
		},
		{
			"buffer":0,
			"byteLength":18496,
			"byteOffset":5065356,
			"target":34962
		},
		{
			"buffer":0,
			"byteLength":9120,
			"byteOffset":5083852,
			"target":34963
		},
		{
			"buffer":0,
			"byteLength":15264,
			"byteOffset":5092972,
			"target":34962
		},
		{
			"buffer":0,
			"byteLength":15264,
			"byteOffset":5108236,
			"target":34962
		},
		{
			"buffer":0,
			"byteLength":10176,
			"byteOffset":5123500,
			"target":34962
		},
		{
			"buffer":0,
			"byteLength":3816,
			"byteOffset":5133676,
			"target":34963
		},
		{
			"buffer":0,
			"byteLength":5760,
			"byteOffset":5137492,
			"target":34962
		},
		{
			"buffer":0,
			"byteLength":5760,
			"byteOffset":5143252,
			"target":34962
		},
		{
			"buffer":0,
			"byteLength":3840,
			"byteOffset":5149012,
			"target":34962
		},
		{
			"buffer":0,
			"byteLength":1440,
			"byteOffset":5152852,
			"target":34963
		},
		{
			"buffer":0,
			"byteLength":10368,
			"byteOffset":5154292,
			"target":34962
		},
		{
			"buffer":0,
			"byteLength":10368,
			"byteOffset":5164660,
			"target":34962
		},
		{
			"buffer":0,
			"byteLength":6912,
			"byteOffset":5175028,
			"target":34962
		},
		{
			"buffer":0,
			"byteLength":2592,
			"byteOffset":5181940,
			"target":34963
		},
		{
			"buffer":0,
			"byteLength":15120,
			"byteOffset":5184532,
			"target":34962
		},
		{
			"buffer":0,
			"byteLength":15120,
			"byteOffset":5199652,
			"target":34962
		},
		{
			"buffer":0,
			"byteLength":10080,
			"byteOffset":5214772,
			"target":34962
		},
		{
			"buffer":0,
			"byteLength":4320,
			"byteOffset":5224852,
			"target":34962
		},
		{
			"buffer":0,
			"byteLength":4320,
			"byteOffset":5229172,
			"target":34962
		},
		{
			"buffer":0,
			"byteLength":2880,
			"byteOffset":5233492,
			"target":34962
		},
		{
			"buffer":0,
			"byteLength":1080,
			"byteOffset":5236372,
			"target":34963
		},
		{
			"buffer":0,
			"byteLength":288,
			"byteOffset":5237452,
			"target":34962
		},
		{
			"buffer":0,
			"byteLength":288,
			"byteOffset":5237740,
			"target":34962
		},
		{
			"buffer":0,
			"byteLength":192,
			"byteOffset":5238028,
			"target":34962
		},
		{
			"buffer":0,
			"byteLength":72,
			"byteOffset":5238220,
			"target":34963
		},
		{
			"buffer":0,
			"byteLength":53004,
			"byteOffset":5238292,
			"target":34962
		},
		{
			"buffer":0,
			"byteLength":53004,
			"byteOffset":5291296,
			"target":34962
		},
		{
			"buffer":0,
			"byteLength":35336,
			"byteOffset":5344300,
			"target":34962
		},
		{
			"buffer":0,
			"byteLength":15348,
			"byteOffset":5379636,
			"target":34963
		},
		{
			"buffer":0,
			"byteLength":300,
			"byteOffset":5394984,
			"target":34962
		},
		{
			"buffer":0,
			"byteLength":300,
			"byteOffset":5395284,
			"target":34962
		},
		{
			"buffer":0,
			"byteLength":200,
			"byteOffset":5395584,
			"target":34962
		},
		{
			"buffer":0,
			"byteLength":84,
			"byteOffset":5395784,
			"target":34963
		},
		{
			"buffer":0,
			"byteLength":288,
			"byteOffset":5395868,
			"target":34962
		},
		{
			"buffer":0,
			"byteLength":288,
			"byteOffset":5396156,
			"target":34962
		},
		{
			"buffer":0,
			"byteLength":192,
			"byteOffset":5396444,
			"target":34962
		},
		{
			"buffer":0,
			"byteLength":3024,
			"byteOffset":5396636,
			"target":34962
		},
		{
			"buffer":0,
			"byteLength":3024,
			"byteOffset":5399660,
			"target":34962
		},
		{
			"buffer":0,
			"byteLength":2016,
			"byteOffset":5402684,
			"target":34962
		},
		{
			"buffer":0,
			"byteLength":648,
			"byteOffset":5404700,
			"target":34963
		}
	],
	"samplers":[
		{
			"magFilter":9729,
			"minFilter":9987
		}
	],
	"buffers":[
		{
			"byteLength":5405348,
			"uri":"city_orient_capital.bin"
		}
	]
}
