{
	"asset":{
		"generator":"Khronos glTF Blender I/O v5.2.40",
		"version":"2.0"
	},
	"scene":0,
	"scenes":[
		{
			"name":"Scene",
			"nodes":[
				0
			]
		}
	],
	"nodes":[
		{
			"mesh":0,
			"name":"city_nordic_capital"
		}
	],
	"materials":[
		{
			"doubleSided":true,
			"name":"garden",
			"normalTexture":{
				"index":0
			},
			"pbrMetallicRoughness":{
				"baseColorTexture":{
					"index":1
				},
				"metallicFactor":0
			}
		},
		{
			"doubleSided":true,
			"name":"asphalt",
			"normalTexture":{
				"index":2
			},
			"pbrMetallicRoughness":{
				"baseColorTexture":{
					"index":3
				},
				"metallicFactor":0,
				"roughnessFactor":0.8500000238418579
			}
		},
		{
			"doubleSided":true,
			"name":"concrete",
			"normalTexture":{
				"index":4
			},
			"pbrMetallicRoughness":{
				"baseColorTexture":{
					"index":5
				},
				"metallicFactor":0,
				"roughnessFactor":0.8999999761581421
			}
		},
		{
			"doubleSided":true,
			"name":"trunk",
			"pbrMetallicRoughness":{
				"baseColorFactor":[
					0.25,
					0.17000000178813934,
					0.10000000149011612,
					1
				],
				"metallicFactor":0,
				"roughnessFactor":0.8999999761581421
			}
		},
		{
			"doubleSided":true,
			"name":"tree",
			"pbrMetallicRoughness":{
				"baseColorFactor":[
					0.12999999523162842,
					0.27000001072883606,
					0.09000000357627869,
					1
				],
				"metallicFactor":0,
				"roughnessFactor":0.8999999761581421
			}
		},
		{
			"doubleSided":true,
			"name":"tree_dark",
			"pbrMetallicRoughness":{
				"baseColorFactor":[
					0.07999999821186066,
					0.1899999976158142,
					0.07999999821186066,
					1
				],
				"metallicFactor":0,
				"roughnessFactor":0.8999999761581421
			}
		},
		{
			"doubleSided":true,
			"name":"wood_yellow",
			"normalTexture":{
				"index":6
			},
			"pbrMetallicRoughness":{
				"baseColorTexture":{
					"index":7
				},
				"metallicFactor":0,
				"roughnessFactor":0.8500000238418579
			}
		},
		{
			"doubleSided":true,
			"name":"white",
			"pbrMetallicRoughness":{
				"baseColorFactor":[
					0.8999999761581421,
					0.8899999856948853,
					0.8500000238418579,
					1
				],
				"metallicFactor":0,
				"roughnessFactor":0.6000000238418579
			}
		},
		{
			"doubleSided":true,
			"name":"wood_red",
			"normalTexture":{
				"index":8
			},
			"pbrMetallicRoughness":{
				"baseColorTexture":{
					"index":9
				},
				"metallicFactor":0,
				"roughnessFactor":0.8500000238418579
			}
		},
		{
			"doubleSided":true,
			"name":"roof_dark",
			"normalTexture":{
				"index":10
			},
			"pbrMetallicRoughness":{
				"baseColorTexture":{
					"index":11
				},
				"metallicFactor":0,
				"roughnessFactor":0.699999988079071
			}
		},
		{
			"doubleSided":true,
			"name":"brick_red",
			"normalTexture":{
				"index":12
			},
			"pbrMetallicRoughness":{
				"baseColorTexture":{
					"index":13
				},
				"metallicFactor":0,
				"roughnessFactor":0.8999999761581421
			}
		},
		{
			"doubleSided":true,
			"name":"wood_white",
			"normalTexture":{
				"index":14
			},
			"pbrMetallicRoughness":{
				"baseColorTexture":{
					"index":15
				},
				"metallicFactor":0,
				"roughnessFactor":0.8500000238418579
			}
		},
		{
			"doubleSided":true,
			"name":"stone_light",
			"normalTexture":{
				"index":16
			},
			"pbrMetallicRoughness":{
				"baseColorTexture":{
					"index":17
				},
				"metallicFactor":0,
				"roughnessFactor":0.800000011920929
			}
		},
		{
			"doubleSided":true,
			"name":"roof_slate",
			"normalTexture":{
				"index":18
			},
			"pbrMetallicRoughness":{
				"baseColorTexture":{
					"index":19
				},
				"metallicFactor":0,
				"roughnessFactor":0.550000011920929
			}
		},
		{
			"doubleSided":true,
			"name":"facade_cream",
			"normalTexture":{
				"index":20
			},
			"pbrMetallicRoughness":{
				"baseColorTexture":{
					"index":21
				},
				"metallicFactor":0,
				"roughnessFactor":0.8500000238418579
			}
		},
		{
			"doubleSided":true,
			"name":"steel",
			"pbrMetallicRoughness":{
				"baseColorFactor":[
					0.2800000011920929,
					0.30000001192092896,
					0.33000001311302185,
					1
				],
				"metallicFactor":0.800000011920929,
				"roughnessFactor":0.4000000059604645
			}
		},
		{
			"doubleSided":true,
			"name":"facade_white",
			"normalTexture":{
				"index":22
			},
			"pbrMetallicRoughness":{
				"baseColorTexture":{
					"index":23
				},
				"metallicFactor":0,
				"roughnessFactor":0.8500000238418579
			}
		},
		{
			"doubleSided":true,
			"name":"facade_ochre",
			"normalTexture":{
				"index":24
			},
			"pbrMetallicRoughness":{
				"baseColorTexture":{
					"index":25
				},
				"metallicFactor":0,
				"roughnessFactor":0.8500000238418579
			}
		},
		{
			"doubleSided":true,
			"name":"glass",
			"pbrMetallicRoughness":{
				"baseColorFactor":[
					0.11999999731779099,
					0.1599999964237213,
					0.20000000298023224,
					1
				],
				"metallicFactor":0.5,
				"roughnessFactor":0.10000000149011612
			}
		},
		{
			"doubleSided":true,
			"name":"facade_yellow",
			"normalTexture":{
				"index":26
			},
			"pbrMetallicRoughness":{
				"baseColorTexture":{
					"index":27
				},
				"metallicFactor":0,
				"roughnessFactor":0.8500000238418579
			}
		},
		{
			"doubleSided":true,
			"name":"city_paving_warm",
			"normalTexture":{
				"index":28
			},
			"pbrMetallicRoughness":{
				"baseColorTexture":{
					"index":29
				},
				"metallicFactor":0,
				"roughnessFactor":0.9200000166893005
			}
		},
		{
			"doubleSided":true,
			"name":"roof_copper",
			"normalTexture":{
				"index":30
			},
			"pbrMetallicRoughness":{
				"baseColorTexture":{
					"index":31
				},
				"metallicFactor":0.25,
				"roughnessFactor":0.44999998807907104
			}
		},
		{
			"doubleSided":true,
			"name":"tree_autumn",
			"pbrMetallicRoughness":{
				"baseColorFactor":[
					0.3199999928474426,
					0.33000001311302185,
					0.10000000149011612,
					1
				],
				"metallicFactor":0,
				"roughnessFactor":0.8999999761581421
			}
		}
	],
	"meshes":[
		{
			"name":"part.15430",
			"primitives":[
				{
					"attributes":{
						"POSITION":0,
						"NORMAL":1,
						"TEXCOORD_0":2
					},
					"indices":3,
					"material":0
				},
				{
					"attributes":{
						"POSITION":4,
						"NORMAL":5,
						"TEXCOORD_0":6
					},
					"indices":7,
					"material":1
				},
				{
					"attributes":{
						"POSITION":8,
						"NORMAL":9,
						"TEXCOORD_0":10
					},
					"indices":11,
					"material":2
				},
				{
					"attributes":{
						"POSITION":12,
						"NORMAL":13,
						"TEXCOORD_0":14
					},
					"indices":15,
					"material":3
				},
				{
					"attributes":{
						"POSITION":16,
						"NORMAL":17,
						"TEXCOORD_0":18
					},
					"indices":19,
					"material":4
				},
				{
					"attributes":{
						"POSITION":20,
						"NORMAL":21,
						"TEXCOORD_0":22
					},
					"indices":23,
					"material":5
				},
				{
					"attributes":{
						"POSITION":24,
						"NORMAL":25,
						"TEXCOORD_0":26
					},
					"indices":27,
					"material":6
				},
				{
					"attributes":{
						"POSITION":28,
						"NORMAL":29,
						"TEXCOORD_0":30
					},
					"indices":31,
					"material":7
				},
				{
					"attributes":{
						"POSITION":32,
						"NORMAL":33,
						"TEXCOORD_0":34
					},
					"indices":35,
					"material":8
				},
				{
					"attributes":{
						"POSITION":36,
						"NORMAL":37,
						"TEXCOORD_0":38
					},
					"indices":39,
					"material":9
				},
				{
					"attributes":{
						"POSITION":40,
						"NORMAL":41,
						"TEXCOORD_0":42
					},
					"indices":43,
					"material":10
				},
				{
					"attributes":{
						"POSITION":44,
						"NORMAL":45,
						"TEXCOORD_0":46
					},
					"indices":47,
					"material":11
				},
				{
					"attributes":{
						"POSITION":48,
						"NORMAL":49,
						"TEXCOORD_0":50
					},
					"indices":51,
					"material":12
				},
				{
					"attributes":{
						"POSITION":52,
						"NORMAL":53,
						"TEXCOORD_0":54
					},
					"indices":55,
					"material":13
				},
				{
					"attributes":{
						"POSITION":56,
						"NORMAL":57,
						"TEXCOORD_0":58
					},
					"indices":59,
					"material":14
				},
				{
					"attributes":{
						"POSITION":60,
						"NORMAL":61,
						"TEXCOORD_0":62
					},
					"indices":63,
					"material":15
				},
				{
					"attributes":{
						"POSITION":64,
						"NORMAL":65,
						"TEXCOORD_0":66
					},
					"indices":67,
					"material":16
				},
				{
					"attributes":{
						"POSITION":68,
						"NORMAL":69,
						"TEXCOORD_0":70
					},
					"indices":71,
					"material":17
				},
				{
					"attributes":{
						"POSITION":72,
						"NORMAL":73,
						"TEXCOORD_0":74
					},
					"indices":75,
					"material":18
				},
				{
					"attributes":{
						"POSITION":76,
						"NORMAL":77,
						"TEXCOORD_0":78
					},
					"indices":79,
					"material":19
				},
				{
					"attributes":{
						"POSITION":80,
						"NORMAL":81,
						"TEXCOORD_0":82
					},
					"indices":83,
					"material":20
				},
				{
					"attributes":{
						"POSITION":84,
						"NORMAL":85,
						"TEXCOORD_0":86
					},
					"indices":87,
					"material":21
				},
				{
					"attributes":{
						"POSITION":88,
						"NORMAL":89,
						"TEXCOORD_0":90
					},
					"indices":91,
					"material":22
				}
			]
		}
	],
	"textures":[
		{
			"sampler":0,
			"source":0
		},
		{
			"sampler":0,
			"source":1
		},
		{
			"sampler":0,
			"source":2
		},
		{
			"sampler":0,
			"source":3
		},
		{
			"sampler":0,
			"source":4
		},
		{
			"sampler":0,
			"source":5
		},
		{
			"sampler":0,
			"source":6
		},
		{
			"sampler":0,
			"source":7
		},
		{
			"sampler":0,
			"source":8
		},
		{
			"sampler":0,
			"source":9
		},
		{
			"sampler":0,
			"source":10
		},
		{
			"sampler":0,
			"source":11
		},
		{
			"sampler":0,
			"source":12
		},
		{
			"sampler":0,
			"source":13
		},
		{
			"sampler":0,
			"source":14
		},
		{
			"sampler":0,
			"source":15
		},
		{
			"sampler":0,
			"source":16
		},
		{
			"sampler":0,
			"source":17
		},
		{
			"sampler":0,
			"source":18
		},
		{
			"sampler":0,
			"source":19
		},
		{
			"sampler":0,
			"source":20
		},
		{
			"sampler":0,
			"source":21
		},
		{
			"sampler":0,
			"source":22
		},
		{
			"sampler":0,
			"source":23
		},
		{
			"sampler":0,
			"source":24
		},
		{
			"sampler":0,
			"source":25
		},
		{
			"sampler":0,
			"source":26
		},
		{
			"sampler":0,
			"source":27
		},
		{
			"sampler":0,
			"source":28
		},
		{
			"sampler":0,
			"source":29
		},
		{
			"sampler":0,
			"source":30
		},
		{
			"sampler":0,
			"source":31
		}
	],
	"images":[
		{
			"mimeType":"image/png",
			"name":"garden_n",
			"uri":"textures/garden_n.png"
		},
		{
			"mimeType":"image/png",
			"name":"garden",
			"uri":"textures/garden.png"
		},
		{
			"mimeType":"image/png",
			"name":"asphalt_n",
			"uri":"textures/asphalt_n.png"
		},
		{
			"mimeType":"image/png",
			"name":"asphalt",
			"uri":"textures/asphalt.png"
		},
		{
			"mimeType":"image/png",
			"name":"concrete_n",
			"uri":"textures/concrete_n.png"
		},
		{
			"mimeType":"image/png",
			"name":"concrete",
			"uri":"textures/concrete.png"
		},
		{
			"mimeType":"image/png",
			"name":"wood_yellow_n",
			"uri":"textures/wood_yellow_n.png"
		},
		{
			"mimeType":"image/png",
			"name":"wood_yellow",
			"uri":"textures/wood_yellow.png"
		},
		{
			"mimeType":"image/png",
			"name":"wood_red_n",
			"uri":"textures/wood_red_n.png"
		},
		{
			"mimeType":"image/png",
			"name":"wood_red",
			"uri":"textures/wood_red.png"
		},
		{
			"mimeType":"image/png",
			"name":"roof_dark_n",
			"uri":"textures/roof_dark_n.png"
		},
		{
			"mimeType":"image/png",
			"name":"roof_dark",
			"uri":"textures/roof_dark.png"
		},
		{
			"mimeType":"image/png",
			"name":"brick_red_n",
			"uri":"textures/brick_red_n.png"
		},
		{
			"mimeType":"image/png",
			"name":"brick_red",
			"uri":"textures/brick_red.png"
		},
		{
			"mimeType":"image/png",
			"name":"wood_white_n",
			"uri":"textures/wood_white_n.png"
		},
		{
			"mimeType":"image/png",
			"name":"wood_white",
			"uri":"textures/wood_white.png"
		},
		{
			"mimeType":"image/png",
			"name":"stone_light_n",
			"uri":"textures/stone_light_n.png"
		},
		{
			"mimeType":"image/png",
			"name":"stone_light",
			"uri":"textures/stone_light.png"
		},
		{
			"mimeType":"image/png",
			"name":"roof_slate_n",
			"uri":"textures/roof_slate_n.png"
		},
		{
			"mimeType":"image/png",
			"name":"roof_slate",
			"uri":"textures/roof_slate.png"
		},
		{
			"mimeType":"image/png",
			"name":"facade_cream_n",
			"uri":"textures/facade_cream_n.png"
		},
		{
			"mimeType":"image/png",
			"name":"facade_cream",
			"uri":"textures/facade_cream.png"
		},
		{
			"mimeType":"image/png",
			"name":"facade_white_n",
			"uri":"textures/facade_white_n.png"
		},
		{
			"mimeType":"image/png",
			"name":"facade_white",
			"uri":"textures/facade_white.png"
		},
		{
			"mimeType":"image/png",
			"name":"facade_ochre_n",
			"uri":"textures/facade_ochre_n.png"
		},
		{
			"mimeType":"image/png",
			"name":"facade_ochre",
			"uri":"textures/facade_ochre.png"
		},
		{
			"mimeType":"image/png",
			"name":"facade_yellow_n",
			"uri":"textures/facade_yellow_n.png"
		},
		{
			"mimeType":"image/png",
			"name":"facade_yellow",
			"uri":"textures/facade_yellow.png"
		},
		{
			"mimeType":"image/png",
			"name":"city_paving_warm_n",
			"uri":"textures/city_paving_warm_n.png"
		},
		{
			"mimeType":"image/png",
			"name":"city_paving_warm",
			"uri":"textures/city_paving_warm.png"
		},
		{
			"mimeType":"image/png",
			"name":"roof_copper_n",
			"uri":"textures/roof_copper_n.png"
		},
		{
			"mimeType":"image/png",
			"name":"roof_copper",
			"uri":"textures/roof_copper.png"
		}
	],
	"accessors":[
		{
			"bufferView":0,
			"componentType":5126,
			"count":1128,
			"max":[
				2.949228525161743,
				0.003000000026077032,
				2.309953451156616
			],
			"min":[
				-2.80153489112854,
				-0.029999999329447746,
				-2.466714859008789
			],
			"type":"VEC3"
		},
		{
			"bufferView":1,
			"componentType":5126,
			"count":1128,
			"type":"VEC3"
		},
		{
			"bufferView":2,
			"componentType":5126,
			"count":1128,
			"type":"VEC2"
		},
		{
			"bufferView":3,
			"componentType":5123,
			"count":1788,
			"type":"SCALAR"
		},
		{
			"bufferView":4,
			"componentType":5126,
			"count":9888,
			"max":[
				2.3771462440490723,
				0.004999999888241291,
				2.013798713684082
			],
			"min":[
				-2.3771462440490723,
				0.0020000000949949026,
				-2.013798713684082
			],
			"type":"VEC3"
		},
		{
			"bufferView":5,
			"componentType":5126,
			"count":9888,
			"type":"VEC3"
		},
		{
			"bufferView":6,
			"componentType":5126,
			"count":9888,
			"type":"VEC2"
		},
		{
			"bufferView":7,
			"componentType":5123,
			"count":14832,
			"type":"SCALAR"
		},
		{
			"bufferView":8,
			"componentType":5126,
			"count":21024,
			"max":[
				2.3778235912323,
				0.7919999957084656,
				2.0144758224487305
			],
			"min":[
				-2.3778235912323,
				0.0020000000949949026,
				-2.0144758224487305
			],
			"type":"VEC3"
		},
		{
			"bufferView":9,
			"componentType":5126,
			"count":21024,
			"type":"VEC3"
		},
		{
			"bufferView":10,
			"componentType":5126,
			"count":21024,
			"type":"VEC2"
		},
		{
			"bufferView":11,
			"componentType":5123,
			"count":31536,
			"type":"SCALAR"
		},
		{
			"bufferView":12,
			"componentType":5126,
			"count":2242,
			"max":[
				2.6866238117218018,
				0.06851578503847122,
				2.324472427368164
			],
			"min":[
				-2.6081759929656982,
				0,
				-2.300856828689575
			],
			"type":"VEC3"
		},
		{
			"bufferView":13,
			"componentType":5126,
			"count":2242,
			"type":"VEC3"
		},
		{
			"bufferView":14,
			"componentType":5126,
			"count":2242,
			"type":"VEC2"
		},
		{
			"bufferView":15,
			"componentType":5123,
			"count":4368,
			"type":"SCALAR"
		},
		{
			"bufferView":16,
			"componentType":5126,
			"count":3076,
			"max":[
				2.7161238193511963,
				0.21468278765678406,
				2.3773653507232666
			],
			"min":[
				-2.64675235748291,
				0.02907218411564827,
				-2.3419947624206543
			],
			"type":"VEC3"
		},
		{
			"bufferView":17,
			"componentType":5126,
			"count":3076,
			"type":"VEC3"
		},
		{
			"bufferView":18,
			"componentType":5126,
			"count":3076,
			"type":"VEC2"
		},
		{
			"bufferView":19,
			"componentType":5123,
			"count":3612,
			"type":"SCALAR"
		},
		{
			"bufferView":20,
			"componentType":5126,
			"count":2240,
			"max":[
				2.728623867034912,
				0.19763889908790588,
				2.281083345413208
			],
			"min":[
				-2.6354901790618896,
				0.02800031565129757,
				-2.1818442344665527
			],
			"type":"VEC3"
		},
		{
			"bufferView":21,
			"componentType":5126,
			"count":2240,
			"type":"VEC3"
		},
		{
			"bufferView":22,
			"componentType":5126,
			"count":2240,
			"type":"VEC2"
		},
		{
			"bufferView":23,
			"componentType":5123,
			"count":2640,
			"type":"SCALAR"
		},
		{
			"bufferView":24,
			"componentType":5126,
			"count":1824,
			"max":[
				1.983508825302124,
				0.46000000834465027,
				2.0721776485443115
			],
			"min":[
				-2.106410503387451,
				0,
				-1.9522851705551147
			],
			"type":"VEC3"
		},
		{
			"bufferView":25,
			"componentType":5126,
			"count":1824,
			"type":"VEC3"
		},
		{
			"bufferView":26,
			"componentType":5126,
			"count":1824,
			"type":"VEC2"
		},
		{
			"bufferView":27,
			"componentType":5123,
			"count":2688,
			"type":"SCALAR"
		},
		{
			"bufferView":28,
			"componentType":5126,
			"count":12768,
			"max":[
				2.079331159591675,
				0.33799999952316284,
				2.0967204570770264
			],
			"min":[
				-2.1218342781066895,
				0.024000000208616257,
				-1.9216138124465942
			],
			"type":"VEC3"
		},
		{
			"bufferView":29,
			"componentType":5126,
			"count":12768,
			"type":"VEC3"
		},
		{
			"bufferView":30,
			"componentType":5126,
			"count":12768,
			"type":"VEC2"
		},
		{
			"bufferView":31,
			"componentType":5123,
			"count":19152,
			"type":"SCALAR"
		},
		{
			"bufferView":32,
			"componentType":5126,
			"count":1788,
			"max":[
				2.0622148513793945,
				0.23999999463558197,
				2.124648332595825
			],
			"min":[
				-1.91287100315094,
				0,
				-1.978520393371582
			],
			"type":"VEC3"
		},
		{
			"bufferView":33,
			"componentType":5126,
			"count":1788,
			"type":"VEC3"
		},
		{
			"bufferView":34,
			"componentType":5126,
			"count":1788,
			"type":"VEC2"
		},
		{
			"bufferView":35,
			"componentType":5123,
			"count":2664,
			"type":"SCALAR"
		},
		{
			"bufferView":36,
			"componentType":5126,
			"count":928,
			"max":[
				2.0405588150024414,
				0.7580000162124634,
				2.124648332595825
			],
			"min":[
				-2.0656187534332275,
				0.10999999940395355,
				-1.978520393371582
			],
			"type":"VEC3"
		},
		{
			"bufferView":37,
			"componentType":5126,
			"count":928,
			"type":"VEC3"
		},
		{
			"bufferView":38,
			"componentType":5126,
			"count":928,
			"type":"VEC2"
		},
		{
			"bufferView":39,
			"componentType":5123,
			"count":1272,
			"type":"SCALAR"
		},
		{
			"bufferView":40,
			"componentType":5126,
			"count":2376,
			"max":[
				1.866544246673584,
				0.7799999713897705,
				1.9767749309539795
			],
			"min":[
				-2.005807638168335,
				0,
				-1.819151520729065
			],
			"type":"VEC3"
		},
		{
			"bufferView":41,
			"componentType":5126,
			"count":2376,
			"type":"VEC3"
		},
		{
			"bufferView":42,
			"componentType":5126,
			"count":2376,
			"type":"VEC2"
		},
		{
			"bufferView":43,
			"componentType":5123,
			"count":3564,
			"type":"SCALAR"
		},
		{
			"bufferView":44,
			"componentType":5126,
			"count":324,
			"max":[
				0.047155387699604034,
				0.23999999463558197,
				2.0904202461242676
			],
			"min":[
				-2.051767587661743,
				0,
				-1.1760963201522827
			],
			"type":"VEC3"
		},
		{
			"bufferView":45,
			"componentType":5126,
			"count":324,
			"type":"VEC3"
		},
		{
			"bufferView":46,
			"componentType":5126,
			"count":324,
			"type":"VEC2"
		},
		{
			"bufferView":47,
			"componentType":5123,
			"count":480,
			"type":"SCALAR"
		},
		{
			"bufferView":48,
			"componentType":5126,
			"count":59424,
			"max":[
				2.080015182495117,
				0.6679999828338623,
				2.122828722000122
			],
			"min":[
				-2.1242241859436035,
				-0.1599999964237213,
				-1.9767009019851685
			],
			"type":"VEC3"
		},
		{
			"bufferView":49,
			"componentType":5126,
			"count":59424,
			"type":"VEC3"
		},
		{
			"bufferView":50,
			"componentType":5126,
			"count":59424,
			"type":"VEC2"
		},
		{
			"bufferView":51,
			"componentType":5123,
			"count":89136,
			"type":"SCALAR"
		},
		{
			"bufferView":52,
			"componentType":5126,
			"count":96,
			"max":[
				1.96185302734375,
				0.3499999940395355,
				2.0721776485443115
			],
			"min":[
				-2.0194013118743896,
				0.2199999988079071,
				-1.9522851705551147
			],
			"type":"VEC3"
		},
		{
			"bufferView":53,
			"componentType":5126,
			"count":96,
			"type":"VEC3"
		},
		{
			"bufferView":54,
			"componentType":5126,
			"count":96,
			"type":"VEC2"
		},
		{
			"bufferView":55,
			"componentType":5123,
			"count":144,
			"type":"SCALAR"
		},
		{
			"bufferView":56,
			"componentType":5126,
			"count":864,
			"max":[
				1.4171082973480225,
				0.4399999976158142,
				0.8670626282691956
			],
			"min":[
				-1.472710371017456,
				0,
				-1.3601030111312866
			],
			"type":"VEC3"
		},
		{
			"bufferView":57,
			"componentType":5126,
			"count":864,
			"type":"VEC3"
		},
		{
			"bufferView":58,
			"componentType":5126,
			"count":864,
			"type":"VEC2"
		},
		{
			"bufferView":59,
			"componentType":5123,
			"count":1296,
			"type":"SCALAR"
		},
		{
			"bufferView":60,
			"componentType":5126,
			"count":1728,
			"max":[
				1.4069422483444214,
				0.5960000157356262,
				0.9146388173103333
			],
			"min":[
				-1.3624902963638306,
				0.1340000033378601,
				-1.0499470233917236
			],
			"type":"VEC3"
		},
		{
			"bufferView":61,
			"componentType":5126,
			"count":1728,
			"type":"VEC3"
		},
		{
			"bufferView":62,
			"componentType":5126,
			"count":1728,
			"type":"VEC2"
		},
		{
			"bufferView":63,
			"componentType":5123,
			"count":2592,
			"type":"SCALAR"
		},
		{
			"bufferView":64,
			"componentType":5126,
			"count":944,
			"max":[
				1.4563602209091187,
				0.7269999980926514,
				0.2365514487028122
			],
			"min":[
				-1.455979347229004,
				0,
				-1.4581974744796753
			],
			"type":"VEC3"
		},
		{
			"bufferView":65,
			"componentType":5126,
			"count":944,
			"type":"VEC3"
		},
		{
			"bufferView":66,
			"componentType":5126,
			"count":944,
			"type":"VEC2"
		},
		{
			"bufferView":67,
			"componentType":5123,
			"count":1416,
			"type":"SCALAR"
		},
		{
			"bufferView":68,
			"componentType":5126,
			"count":432,
			"max":[
				-0.4911808371543884,
				0.550000011920929,
				0.7862409949302673
			],
			"min":[
				-1.3702845573425293,
				0,
				-0.791013240814209
			],
			"type":"VEC3"
		},
		{
			"bufferView":69,
			"componentType":5126,
			"count":432,
			"type":"VEC3"
		},
		{
			"bufferView":70,
			"componentType":5126,
			"count":432,
			"type":"VEC2"
		},
		{
			"bufferView":71,
			"componentType":5123,
			"count":648,
			"type":"SCALAR"
		},
		{
			"bufferView":72,
			"componentType":5126,
			"count":336,
			"max":[
				1.393953800201416,
				0.0820000022649765,
				1.4847513437271118
			],
			"min":[
				-1.3584516048431396,
				0.012000000104308128,
				-1.0166531801223755
			],
			"type":"VEC3"
		},
		{
			"bufferView":73,
			"componentType":5126,
			"count":336,
			"type":"VEC3"
		},
		{
			"bufferView":74,
			"componentType":5126,
			"count":336,
			"type":"VEC2"
		},
		{
			"bufferView":75,
			"componentType":5123,
			"count":504,
			"type":"SCALAR"
		},
		{
			"bufferView":76,
			"componentType":5126,
			"count":1080,
			"max":[
				1.4189890623092651,
				0.33000001311302185,
				1.4731428623199463
			],
			"min":[
				-0.8301805257797241,
				0,
				-1.3167654275894165
			],
			"type":"VEC3"
		},
		{
			"bufferView":77,
			"componentType":5126,
			"count":1080,
			"type":"VEC3"
		},
		{
			"bufferView":78,
			"componentType":5126,
			"count":1080,
			"type":"VEC2"
		},
		{
			"bufferView":79,
			"componentType":5123,
			"count":1620,
			"type":"SCALAR"
		},
		{
			"bufferView":80,
			"componentType":5126,
			"count":24,
			"max":[
				0.5488280057907104,
				0.006000000052154064,
				0.5488280057907104
			],
			"min":[
				-0.5488280057907104,
				0.0020000000949949026,
				-0.5488280057907104
			],
			"type":"VEC3"
		},
		{
			"bufferView":81,
			"componentType":5126,
			"count":24,
			"type":"VEC3"
		},
		{
			"bufferView":82,
			"componentType":5126,
			"count":24,
			"type":"VEC2"
		},
		{
			"bufferView":83,
			"componentType":5123,
			"count":36,
			"type":"SCALAR"
		},
		{
			"bufferView":84,
			"componentType":5126,
			"count":50,
			"max":[
				0.41999998688697815,
				1.0499999523162842,
				0.2199999988079071
			],
			"min":[
				-0.41999998688697815,
				0.30000001192092896,
				-0.2199999988079071
			],
			"type":"VEC3"
		},
		{
			"bufferView":85,
			"componentType":5126,
			"count":50,
			"type":"VEC3"
		},
		{
			"bufferView":86,
			"componentType":5126,
			"count":50,
			"type":"VEC2"
		},
		{
			"bufferView":87,
			"componentType":5123,
			"count":66,
			"type":"SCALAR"
		},
		{
			"bufferView":88,
			"componentType":5126,
			"count":540,
			"max":[
				1.9037835597991943,
				0.16580305993556976,
				1.7822387218475342
			],
			"min":[
				-2.1570546627044678,
				0.033138275146484375,
				-1.6584728956222534
			],
			"type":"VEC3"
		},
		{
			"bufferView":89,
			"componentType":5126,
			"count":540,
			"type":"VEC3"
		},
		{
			"bufferView":90,
			"componentType":5126,
			"count":540,
			"type":"VEC2"
		},
		{
			"bufferView":91,
			"componentType":5123,
			"count":540,
			"type":"SCALAR"
		}
	],
	"bufferViews":[
		{
			"buffer":0,
			"byteLength":13536,
			"byteOffset":0,
			"target":34962
		},
		{
			"buffer":0,
			"byteLength":13536,
			"byteOffset":13536,
			"target":34962
		},
		{
			"buffer":0,
			"byteLength":9024,
			"byteOffset":27072,
			"target":34962
		},
		{
			"buffer":0,
			"byteLength":3576,
			"byteOffset":36096,
			"target":34963
		},
		{
			"buffer":0,
			"byteLength":118656,
			"byteOffset":39672,
			"target":34962
		},
		{
			"buffer":0,
			"byteLength":118656,
			"byteOffset":158328,
			"target":34962
		},
		{
			"buffer":0,
			"byteLength":79104,
			"byteOffset":276984,
			"target":34962
		},
		{
			"buffer":0,
			"byteLength":29664,
			"byteOffset":356088,
			"target":34963
		},
		{
			"buffer":0,
			"byteLength":252288,
			"byteOffset":385752,
			"target":34962
		},
		{
			"buffer":0,
			"byteLength":252288,
			"byteOffset":638040,
			"target":34962
		},
		{
			"buffer":0,
			"byteLength":168192,
			"byteOffset":890328,
			"target":34962
		},
		{
			"buffer":0,
			"byteLength":63072,
			"byteOffset":1058520,
			"target":34963
		},
		{
			"buffer":0,
			"byteLength":26904,
			"byteOffset":1121592,
			"target":34962
		},
		{
			"buffer":0,
			"byteLength":26904,
			"byteOffset":1148496,
			"target":34962
		},
		{
			"buffer":0,
			"byteLength":17936,
			"byteOffset":1175400,
			"target":34962
		},
		{
			"buffer":0,
			"byteLength":8736,
			"byteOffset":1193336,
			"target":34963
		},
		{
			"buffer":0,
			"byteLength":36912,
			"byteOffset":1202072,
			"target":34962
		},
		{
			"buffer":0,
			"byteLength":36912,
			"byteOffset":1238984,
			"target":34962
		},
		{
			"buffer":0,
			"byteLength":24608,
			"byteOffset":1275896,
			"target":34962
		},
		{
			"buffer":0,
			"byteLength":7224,
			"byteOffset":1300504,
			"target":34963
		},
		{
			"buffer":0,
			"byteLength":26880,
			"byteOffset":1307728,
			"target":34962
		},
		{
			"buffer":0,
			"byteLength":26880,
			"byteOffset":1334608,
			"target":34962
		},
		{
			"buffer":0,
			"byteLength":17920,
			"byteOffset":1361488,
			"target":34962
		},
		{
			"buffer":0,
			"byteLength":5280,
			"byteOffset":1379408,
			"target":34963
		},
		{
			"buffer":0,
			"byteLength":21888,
			"byteOffset":1384688,
			"target":34962
		},
		{
			"buffer":0,
			"byteLength":21888,
			"byteOffset":1406576,
			"target":34962
		},
		{
			"buffer":0,
			"byteLength":14592,
			"byteOffset":1428464,
			"target":34962
		},
		{
			"buffer":0,
			"byteLength":5376,
			"byteOffset":1443056,
			"target":34963
		},
		{
			"buffer":0,
			"byteLength":153216,
			"byteOffset":1448432,
			"target":34962
		},
		{
			"buffer":0,
			"byteLength":153216,
			"byteOffset":1601648,
			"target":34962
		},
		{
			"buffer":0,
			"byteLength":102144,
			"byteOffset":1754864,
			"target":34962
		},
		{
			"buffer":0,
			"byteLength":38304,
			"byteOffset":1857008,
			"target":34963
		},
		{
			"buffer":0,
			"byteLength":21456,
			"byteOffset":1895312,
			"target":34962
		},
		{
			"buffer":0,
			"byteLength":21456,
			"byteOffset":1916768,
			"target":34962
		},
		{
			"buffer":0,
			"byteLength":14304,
			"byteOffset":1938224,
			"target":34962
		},
		{
			"buffer":0,
			"byteLength":5328,
			"byteOffset":1952528,
			"target":34963
		},
		{
			"buffer":0,
			"byteLength":11136,
			"byteOffset":1957856,
			"target":34962
		},
		{
			"buffer":0,
			"byteLength":11136,
			"byteOffset":1968992,
			"target":34962
		},
		{
			"buffer":0,
			"byteLength":7424,
			"byteOffset":1980128,
			"target":34962
		},
		{
			"buffer":0,
			"byteLength":2544,
			"byteOffset":1987552,
			"target":34963
		},
		{
			"buffer":0,
			"byteLength":28512,
			"byteOffset":1990096,
			"target":34962
		},
		{
			"buffer":0,
			"byteLength":28512,
			"byteOffset":2018608,
			"target":34962
		},
		{
			"buffer":0,
			"byteLength":19008,
			"byteOffset":2047120,
			"target":34962
		},
		{
			"buffer":0,
			"byteLength":7128,
			"byteOffset":2066128,
			"target":34963
		},
		{
			"buffer":0,
			"byteLength":3888,
			"byteOffset":2073256,
			"target":34962
		},
		{
			"buffer":0,
			"byteLength":3888,
			"byteOffset":2077144,
			"target":34962
		},
		{
			"buffer":0,
			"byteLength":2592,
			"byteOffset":2081032,
			"target":34962
		},
		{
			"buffer":0,
			"byteLength":960,
			"byteOffset":2083624,
			"target":34963
		},
		{
			"buffer":0,
			"byteLength":713088,
			"byteOffset":2084584,
			"target":34962
		},
		{
			"buffer":0,
			"byteLength":713088,
			"byteOffset":2797672,
			"target":34962
		},
		{
			"buffer":0,
			"byteLength":475392,
			"byteOffset":3510760,
			"target":34962
		},
		{
			"buffer":0,
			"byteLength":178272,
			"byteOffset":3986152,
			"target":34963
		},
		{
			"buffer":0,
			"byteLength":1152,
			"byteOffset":4164424,
			"target":34962
		},
		{
			"buffer":0,
			"byteLength":1152,
			"byteOffset":4165576,
			"target":34962
		},
		{
			"buffer":0,
			"byteLength":768,
			"byteOffset":4166728,
			"target":34962
		},
		{
			"buffer":0,
			"byteLength":288,
			"byteOffset":4167496,
			"target":34963
		},
		{
			"buffer":0,
			"byteLength":10368,
			"byteOffset":4167784,
			"target":34962
		},
		{
			"buffer":0,
			"byteLength":10368,
			"byteOffset":4178152,
			"target":34962
		},
		{
			"buffer":0,
			"byteLength":6912,
			"byteOffset":4188520,
			"target":34962
		},
		{
			"buffer":0,
			"byteLength":2592,
			"byteOffset":4195432,
			"target":34963
		},
		{
			"buffer":0,
			"byteLength":20736,
			"byteOffset":4198024,
			"target":34962
		},
		{
			"buffer":0,
			"byteLength":20736,
			"byteOffset":4218760,
			"target":34962
		},
		{
			"buffer":0,
			"byteLength":13824,
			"byteOffset":4239496,
			"target":34962
		},
		{
			"buffer":0,
			"byteLength":5184,
			"byteOffset":4253320,
			"target":34963
		},
		{
			"buffer":0,
			"byteLength":11328,
			"byteOffset":4258504,
			"target":34962
		},
		{
			"buffer":0,
			"byteLength":11328,
			"byteOffset":4269832,
			"target":34962
		},
		{
			"buffer":0,
			"byteLength":7552,
			"byteOffset":4281160,
			"target":34962
		},
		{
			"buffer":0,
			"byteLength":2832,
			"byteOffset":4288712,
			"target":34963
		},
		{
			"buffer":0,
			"byteLength":5184,
			"byteOffset":4291544,
			"target":34962
		},
		{
			"buffer":0,
			"byteLength":5184,
			"byteOffset":4296728,
			"target":34962
		},
		{
			"buffer":0,
			"byteLength":3456,
			"byteOffset":4301912,
			"target":34962
		},
		{
			"buffer":0,
			"byteLength":1296,
			"byteOffset":4305368,
			"target":34963
		},
		{
			"buffer":0,
			"byteLength":4032,
			"byteOffset":4306664,
			"target":34962
		},
		{
			"buffer":0,
			"byteLength":4032,
			"byteOffset":4310696,
			"target":34962
		},
		{
			"buffer":0,
			"byteLength":2688,
			"byteOffset":4314728,
			"target":34962
		},
		{
			"buffer":0,
			"byteLength":1008,
			"byteOffset":4317416,
			"target":34963
		},
		{
			"buffer":0,
			"byteLength":12960,
			"byteOffset":4318424,
			"target":34962
		},
		{
			"buffer":0,
			"byteLength":12960,
			"byteOffset":4331384,
			"target":34962
		},
		{
			"buffer":0,
			"byteLength":8640,
			"byteOffset":4344344,
			"target":34962
		},
		{
			"buffer":0,
			"byteLength":3240,
			"byteOffset":4352984,
			"target":34963
		},
		{
			"buffer":0,
			"byteLength":288,
			"byteOffset":4356224,
			"target":34962
		},
		{
			"buffer":0,
			"byteLength":288,
			"byteOffset":4356512,
			"target":34962
		},
		{
			"buffer":0,
			"byteLength":192,
			"byteOffset":4356800,
			"target":34962
		},
		{
			"buffer":0,
			"byteLength":72,
			"byteOffset":4356992,
			"target":34963
		},
		{
			"buffer":0,
			"byteLength":600,
			"byteOffset":4357064,
			"target":34962
		},
		{
			"buffer":0,
			"byteLength":600,
			"byteOffset":4357664,
			"target":34962
		},
		{
			"buffer":0,
			"byteLength":400,
			"byteOffset":4358264,
			"target":34962
		},
		{
			"buffer":0,
			"byteLength":132,
			"byteOffset":4358664,
			"target":34963
		},
		{
			"buffer":0,
			"byteLength":6480,
			"byteOffset":4358796,
			"target":34962
		},
		{
			"buffer":0,
			"byteLength":6480,
			"byteOffset":4365276,
			"target":34962
		},
		{
			"buffer":0,
			"byteLength":4320,
			"byteOffset":4371756,
			"target":34962
		},
		{
			"buffer":0,
			"byteLength":1080,
			"byteOffset":4376076,
			"target":34963
		}
	],
	"samplers":[
		{
			"magFilter":9729,
			"minFilter":9987
		}
	],
	"buffers":[
		{
			"byteLength":4377156,
			"uri":"city_nordic_capital.bin"
		}
	]
}
