{
	"asset":{
		"generator":"Khronos glTF Blender I/O v5.2.40",
		"version":"2.0"
	},
	"scene":0,
	"scenes":[
		{
			"name":"Scene",
			"nodes":[
				0
			]
		}
	],
	"nodes":[
		{
			"mesh":0,
			"name":"city_west_medium"
		}
	],
	"materials":[
		{
			"doubleSided":true,
			"name":"garden",
			"normalTexture":{
				"index":0
			},
			"pbrMetallicRoughness":{
				"baseColorTexture":{
					"index":1
				},
				"metallicFactor":0
			}
		},
		{
			"doubleSided":true,
			"name":"asphalt",
			"normalTexture":{
				"index":2
			},
			"pbrMetallicRoughness":{
				"baseColorTexture":{
					"index":3
				},
				"metallicFactor":0,
				"roughnessFactor":0.8500000238418579
			}
		},
		{
			"doubleSided":true,
			"name":"concrete",
			"normalTexture":{
				"index":4
			},
			"pbrMetallicRoughness":{
				"baseColorTexture":{
					"index":5
				},
				"metallicFactor":0,
				"roughnessFactor":0.8999999761581421
			}
		},
		{
			"doubleSided":true,
			"name":"trunk",
			"pbrMetallicRoughness":{
				"baseColorFactor":[
					0.25,
					0.17000000178813934,
					0.10000000149011612,
					1
				],
				"metallicFactor":0,
				"roughnessFactor":0.8999999761581421
			}
		},
		{
			"doubleSided":true,
			"name":"tree",
			"pbrMetallicRoughness":{
				"baseColorFactor":[
					0.12999999523162842,
					0.27000001072883606,
					0.09000000357627869,
					1
				],
				"metallicFactor":0,
				"roughnessFactor":0.8999999761581421
			}
		},
		{
			"doubleSided":true,
			"name":"tree_dark",
			"pbrMetallicRoughness":{
				"baseColorFactor":[
					0.07999999821186066,
					0.1899999976158142,
					0.07999999821186066,
					1
				],
				"metallicFactor":0,
				"roughnessFactor":0.8999999761581421
			}
		},
		{
			"doubleSided":true,
			"name":"brick_red",
			"normalTexture":{
				"index":6
			},
			"pbrMetallicRoughness":{
				"baseColorTexture":{
					"index":7
				},
				"metallicFactor":0,
				"roughnessFactor":0.8999999761581421
			}
		},
		{
			"doubleSided":true,
			"name":"white",
			"pbrMetallicRoughness":{
				"baseColorFactor":[
					0.8999999761581421,
					0.8899999856948853,
					0.8500000238418579,
					1
				],
				"metallicFactor":0,
				"roughnessFactor":0.6000000238418579
			}
		},
		{
			"doubleSided":true,
			"name":"wood_red",
			"normalTexture":{
				"index":8
			},
			"pbrMetallicRoughness":{
				"baseColorTexture":{
					"index":9
				},
				"metallicFactor":0,
				"roughnessFactor":0.8500000238418579
			}
		},
		{
			"doubleSided":true,
			"name":"roof_slate",
			"normalTexture":{
				"index":10
			},
			"pbrMetallicRoughness":{
				"baseColorTexture":{
					"index":11
				},
				"metallicFactor":0,
				"roughnessFactor":0.550000011920929
			}
		},
		{
			"doubleSided":true,
			"name":"stone_light",
			"normalTexture":{
				"index":12
			},
			"pbrMetallicRoughness":{
				"baseColorTexture":{
					"index":13
				},
				"metallicFactor":0,
				"roughnessFactor":0.800000011920929
			}
		},
		{
			"doubleSided":true,
			"name":"facade_grey",
			"normalTexture":{
				"index":14
			},
			"pbrMetallicRoughness":{
				"baseColorTexture":{
					"index":15
				},
				"metallicFactor":0,
				"roughnessFactor":0.8500000238418579
			}
		},
		{
			"doubleSided":true,
			"name":"roof_terracotta",
			"normalTexture":{
				"index":16
			},
			"pbrMetallicRoughness":{
				"baseColorTexture":{
					"index":17
				},
				"metallicFactor":0,
				"roughnessFactor":0.699999988079071
			}
		},
		{
			"doubleSided":true,
			"name":"facade_yellow",
			"normalTexture":{
				"index":18
			},
			"pbrMetallicRoughness":{
				"baseColorTexture":{
					"index":19
				},
				"metallicFactor":0,
				"roughnessFactor":0.8500000238418579
			}
		},
		{
			"doubleSided":true,
			"name":"roof_dark",
			"normalTexture":{
				"index":20
			},
			"pbrMetallicRoughness":{
				"baseColorTexture":{
					"index":21
				},
				"metallicFactor":0,
				"roughnessFactor":0.699999988079071
			}
		},
		{
			"doubleSided":true,
			"name":"tree_autumn",
			"pbrMetallicRoughness":{
				"baseColorFactor":[
					0.3199999928474426,
					0.33000001311302185,
					0.10000000149011612,
					1
				],
				"metallicFactor":0,
				"roughnessFactor":0.8999999761581421
			}
		},
		{
			"doubleSided":true,
			"name":"facade_cream",
			"normalTexture":{
				"index":22
			},
			"pbrMetallicRoughness":{
				"baseColorTexture":{
					"index":23
				},
				"metallicFactor":0,
				"roughnessFactor":0.8500000238418579
			}
		},
		{
			"doubleSided":true,
			"name":"city_paving_warm",
			"normalTexture":{
				"index":24
			},
			"pbrMetallicRoughness":{
				"baseColorTexture":{
					"index":25
				},
				"metallicFactor":0,
				"roughnessFactor":0.9200000166893005
			}
		},
		{
			"doubleSided":true,
			"name":"gold",
			"pbrMetallicRoughness":{
				"baseColorFactor":[
					0.8299999833106995,
					0.6200000047683716,
					0.20000000298023224,
					1
				],
				"roughnessFactor":0.30000001192092896
			}
		}
	],
	"meshes":[
		{
			"name":"part.1315",
			"primitives":[
				{
					"attributes":{
						"POSITION":0,
						"NORMAL":1,
						"TEXCOORD_0":2
					},
					"indices":3,
					"material":0
				},
				{
					"attributes":{
						"POSITION":4,
						"NORMAL":5,
						"TEXCOORD_0":6
					},
					"indices":7,
					"material":1
				},
				{
					"attributes":{
						"POSITION":8,
						"NORMAL":9,
						"TEXCOORD_0":10
					},
					"indices":11,
					"material":2
				},
				{
					"attributes":{
						"POSITION":12,
						"NORMAL":13,
						"TEXCOORD_0":14
					},
					"indices":15,
					"material":3
				},
				{
					"attributes":{
						"POSITION":16,
						"NORMAL":17,
						"TEXCOORD_0":18
					},
					"indices":19,
					"material":4
				},
				{
					"attributes":{
						"POSITION":20,
						"NORMAL":21,
						"TEXCOORD_0":22
					},
					"indices":23,
					"material":5
				},
				{
					"attributes":{
						"POSITION":24,
						"NORMAL":25,
						"TEXCOORD_0":26
					},
					"indices":27,
					"material":6
				},
				{
					"attributes":{
						"POSITION":28,
						"NORMAL":29,
						"TEXCOORD_0":30
					},
					"indices":31,
					"material":7
				},
				{
					"attributes":{
						"POSITION":32,
						"NORMAL":33,
						"TEXCOORD_0":34
					},
					"indices":35,
					"material":8
				},
				{
					"attributes":{
						"POSITION":36,
						"NORMAL":37,
						"TEXCOORD_0":38
					},
					"indices":39,
					"material":9
				},
				{
					"attributes":{
						"POSITION":40,
						"NORMAL":41,
						"TEXCOORD_0":42
					},
					"indices":43,
					"material":10
				},
				{
					"attributes":{
						"POSITION":44,
						"NORMAL":45,
						"TEXCOORD_0":46
					},
					"indices":47,
					"material":11
				},
				{
					"attributes":{
						"POSITION":48,
						"NORMAL":49,
						"TEXCOORD_0":50
					},
					"indices":51,
					"material":12
				},
				{
					"attributes":{
						"POSITION":52,
						"NORMAL":53,
						"TEXCOORD_0":54
					},
					"indices":55,
					"material":13
				},
				{
					"attributes":{
						"POSITION":56,
						"NORMAL":57,
						"TEXCOORD_0":58
					},
					"indices":59,
					"material":14
				},
				{
					"attributes":{
						"POSITION":60,
						"NORMAL":61,
						"TEXCOORD_0":62
					},
					"indices":63,
					"material":15
				},
				{
					"attributes":{
						"POSITION":64,
						"NORMAL":65,
						"TEXCOORD_0":66
					},
					"indices":55,
					"material":16
				},
				{
					"attributes":{
						"POSITION":67,
						"NORMAL":68,
						"TEXCOORD_0":69
					},
					"indices":70,
					"material":17
				},
				{
					"attributes":{
						"POSITION":71,
						"NORMAL":72,
						"TEXCOORD_0":73
					},
					"indices":74,
					"material":18
				}
			]
		}
	],
	"textures":[
		{
			"sampler":0,
			"source":0
		},
		{
			"sampler":0,
			"source":1
		},
		{
			"sampler":0,
			"source":2
		},
		{
			"sampler":0,
			"source":3
		},
		{
			"sampler":0,
			"source":4
		},
		{
			"sampler":0,
			"source":5
		},
		{
			"sampler":0,
			"source":6
		},
		{
			"sampler":0,
			"source":7
		},
		{
			"sampler":0,
			"source":8
		},
		{
			"sampler":0,
			"source":9
		},
		{
			"sampler":0,
			"source":10
		},
		{
			"sampler":0,
			"source":11
		},
		{
			"sampler":0,
			"source":12
		},
		{
			"sampler":0,
			"source":13
		},
		{
			"sampler":0,
			"source":14
		},
		{
			"sampler":0,
			"source":15
		},
		{
			"sampler":0,
			"source":16
		},
		{
			"sampler":0,
			"source":17
		},
		{
			"sampler":0,
			"source":18
		},
		{
			"sampler":0,
			"source":19
		},
		{
			"sampler":0,
			"source":20
		},
		{
			"sampler":0,
			"source":21
		},
		{
			"sampler":0,
			"source":22
		},
		{
			"sampler":0,
			"source":23
		},
		{
			"sampler":0,
			"source":24
		},
		{
			"sampler":0,
			"source":25
		}
	],
	"images":[
		{
			"mimeType":"image/png",
			"name":"garden_n",
			"uri":"textures/garden_n.png"
		},
		{
			"mimeType":"image/png",
			"name":"garden",
			"uri":"textures/garden.png"
		},
		{
			"mimeType":"image/png",
			"name":"asphalt_n",
			"uri":"textures/asphalt_n.png"
		},
		{
			"mimeType":"image/png",
			"name":"asphalt",
			"uri":"textures/asphalt.png"
		},
		{
			"mimeType":"image/png",
			"name":"concrete_n",
			"uri":"textures/concrete_n.png"
		},
		{
			"mimeType":"image/png",
			"name":"concrete",
			"uri":"textures/concrete.png"
		},
		{
			"mimeType":"image/png",
			"name":"brick_red_n",
			"uri":"textures/brick_red_n.png"
		},
		{
			"mimeType":"image/png",
			"name":"brick_red",
			"uri":"textures/brick_red.png"
		},
		{
			"mimeType":"image/png",
			"name":"wood_red_n",
			"uri":"textures/wood_red_n.png"
		},
		{
			"mimeType":"image/png",
			"name":"wood_red",
			"uri":"textures/wood_red.png"
		},
		{
			"mimeType":"image/png",
			"name":"roof_slate_n",
			"uri":"textures/roof_slate_n.png"
		},
		{
			"mimeType":"image/png",
			"name":"roof_slate",
			"uri":"textures/roof_slate.png"
		},
		{
			"mimeType":"image/png",
			"name":"stone_light_n",
			"uri":"textures/stone_light_n.png"
		},
		{
			"mimeType":"image/png",
			"name":"stone_light",
			"uri":"textures/stone_light.png"
		},
		{
			"mimeType":"image/png",
			"name":"facade_grey_n",
			"uri":"textures/facade_grey_n.png"
		},
		{
			"mimeType":"image/png",
			"name":"facade_grey",
			"uri":"textures/facade_grey.png"
		},
		{
			"mimeType":"image/png",
			"name":"roof_terracotta_n",
			"uri":"textures/roof_terracotta_n.png"
		},
		{
			"mimeType":"image/png",
			"name":"roof_terracotta",
			"uri":"textures/roof_terracotta.png"
		},
		{
			"mimeType":"image/png",
			"name":"facade_yellow_n",
			"uri":"textures/facade_yellow_n.png"
		},
		{
			"mimeType":"image/png",
			"name":"facade_yellow",
			"uri":"textures/facade_yellow.png"
		},
		{
			"mimeType":"image/png",
			"name":"roof_dark_n",
			"uri":"textures/roof_dark_n.png"
		},
		{
			"mimeType":"image/png",
			"name":"roof_dark",
			"uri":"textures/roof_dark.png"
		},
		{
			"mimeType":"image/png",
			"name":"facade_cream_n",
			"uri":"textures/facade_cream_n.png"
		},
		{
			"mimeType":"image/png",
			"name":"facade_cream",
			"uri":"textures/facade_cream.png"
		},
		{
			"mimeType":"image/png",
			"name":"city_paving_warm_n",
			"uri":"textures/city_paving_warm_n.png"
		},
		{
			"mimeType":"image/png",
			"name":"city_paving_warm",
			"uri":"textures/city_paving_warm.png"
		}
	],
	"accessors":[
		{
			"bufferView":0,
			"componentType":5126,
			"count":408,
			"max":[
				1.584261417388916,
				0.003000000026077032,
				1.362823724746704
			],
			"min":[
				-1.5864611864089966,
				-0.029999999329447746,
				-1.299219012260437
			],
			"type":"VEC3"
		},
		{
			"bufferView":1,
			"componentType":5126,
			"count":408,
			"type":"VEC3"
		},
		{
			"bufferView":2,
			"componentType":5126,
			"count":408,
			"type":"VEC2"
		},
		{
			"bufferView":3,
			"componentType":5123,
			"count":708,
			"type":"SCALAR"
		},
		{
			"bufferView":4,
			"componentType":5126,
			"count":2448,
			"max":[
				1.1532801389694214,
				0.004999999888241291,
				1.0336971282958984
			],
			"min":[
				-1.1532801389694214,
				0.0020000000949949026,
				-1.0336971282958984
			],
			"type":"VEC3"
		},
		{
			"bufferView":5,
			"componentType":5126,
			"count":2448,
			"type":"VEC3"
		},
		{
			"bufferView":6,
			"componentType":5126,
			"count":2448,
			"type":"VEC2"
		},
		{
			"bufferView":7,
			"componentType":5123,
			"count":3672,
			"type":"SCALAR"
		},
		{
			"bufferView":8,
			"componentType":5126,
			"count":5136,
			"max":[
				1.1568593978881836,
				0.5720000267028809,
				1.037276268005371
			],
			"min":[
				-1.1568593978881836,
				0.0020000000949949026,
				-1.037276268005371
			],
			"type":"VEC3"
		},
		{
			"bufferView":9,
			"componentType":5126,
			"count":5136,
			"type":"VEC3"
		},
		{
			"bufferView":10,
			"componentType":5126,
			"count":5136,
			"type":"VEC2"
		},
		{
			"bufferView":11,
			"componentType":5123,
			"count":7704,
			"type":"SCALAR"
		},
		{
			"bufferView":12,
			"componentType":5126,
			"count":1203,
			"max":[
				1.4412003755569458,
				0.0664772018790245,
				1.2317969799041748
			],
			"min":[
				-1.440969705581665,
				0,
				-1.3160505294799805
			],
			"type":"VEC3"
		},
		{
			"bufferView":13,
			"componentType":5126,
			"count":1203,
			"type":"VEC3"
		},
		{
			"bufferView":14,
			"componentType":5126,
			"count":1203,
			"type":"VEC2"
		},
		{
			"bufferView":15,
			"componentType":5123,
			"count":2340,
			"type":"SCALAR"
		},
		{
			"bufferView":16,
			"componentType":5126,
			"count":1536,
			"max":[
				1.4747908115386963,
				0.20417040586471558,
				1.2160170078277588
			],
			"min":[
				-1.4682838916778564,
				0.033308882266283035,
				-1.3263014554977417
			],
			"type":"VEC3"
		},
		{
			"bufferView":17,
			"componentType":5126,
			"count":1536,
			"type":"VEC3"
		},
		{
			"bufferView":18,
			"componentType":5126,
			"count":1536,
			"type":"VEC2"
		},
		{
			"bufferView":19,
			"componentType":5123,
			"count":1632,
			"type":"SCALAR"
		},
		{
			"bufferView":20,
			"componentType":5126,
			"count":1500,
			"max":[
				1.4911311864852905,
				0.1989593356847763,
				1.2466436624526978
			],
			"min":[
				-1.4795459508895874,
				0.027739282697439194,
				-1.3141149282455444
			],
			"type":"VEC3"
		},
		{
			"bufferView":21,
			"componentType":5126,
			"count":1500,
			"type":"VEC3"
		},
		{
			"bufferView":22,
			"componentType":5126,
			"count":1500,
			"type":"VEC2"
		},
		{
			"bufferView":23,
			"componentType":5123,
			"count":1620,
			"type":"SCALAR"
		},
		{
			"bufferView":24,
			"componentType":5126,
			"count":1152,
			"max":[
				0.7171636819839478,
				0.5600000023841858,
				1.0051345825195312
			],
			"min":[
				-0.9580313563346863,
				0,
				-0.8333019018173218
			],
			"type":"VEC3"
		},
		{
			"bufferView":25,
			"componentType":5126,
			"count":1152,
			"type":"VEC3"
		},
		{
			"bufferView":26,
			"componentType":5126,
			"count":1152,
			"type":"VEC2"
		},
		{
			"bufferView":27,
			"componentType":5123,
			"count":1704,
			"type":"SCALAR"
		},
		{
			"bufferView":28,
			"componentType":5126,
			"count":8280,
			"max":[
				0.8531826138496399,
				0.33799999952316284,
				0.935662567615509
			],
			"min":[
				-0.9719962477684021,
				0.024000000208616257,
				-0.8316296339035034
			],
			"type":"VEC3"
		},
		{
			"bufferView":29,
			"componentType":5126,
			"count":8280,
			"type":"VEC3"
		},
		{
			"bufferView":30,
			"componentType":5126,
			"count":8280,
			"type":"VEC2"
		},
		{
			"bufferView":31,
			"componentType":5123,
			"count":12420,
			"type":"SCALAR"
		},
		{
			"bufferView":32,
			"componentType":5126,
			"count":192,
			"max":[
				0.7672191262245178,
				0.07500000298023224,
				0.9073007106781006
			],
			"min":[
				-0.7385257482528687,
				0,
				-0.5956333875656128
			],
			"type":"VEC3"
		},
		{
			"bufferView":33,
			"componentType":5126,
			"count":192,
			"type":"VEC3"
		},
		{
			"bufferView":34,
			"componentType":5126,
			"count":192,
			"type":"VEC2"
		},
		{
			"bufferView":35,
			"componentType":5123,
			"count":288,
			"type":"SCALAR"
		},
		{
			"bufferView":36,
			"componentType":5126,
			"count":133,
			"max":[
				0.6548067331314087,
				0.8600000143051147,
				1.0051345825195312
			],
			"min":[
				-0.9398013353347778,
				0.20000000298023224,
				-0.8333019018173218
			],
			"type":"VEC3"
		},
		{
			"bufferView":37,
			"componentType":5126,
			"count":133,
			"type":"VEC3"
		},
		{
			"bufferView":38,
			"componentType":5126,
			"count":133,
			"type":"VEC2"
		},
		{
			"bufferView":39,
			"componentType":5123,
			"count":198,
			"type":"SCALAR"
		},
		{
			"bufferView":40,
			"componentType":5126,
			"count":6012,
			"max":[
				0.8704757690429688,
				0.5399999618530273,
				1.0133764743804932
			],
			"min":[
				-0.9932509064674377,
				-0.1599999964237213,
				-0.8942762613296509
			],
			"type":"VEC3"
		},
		{
			"bufferView":41,
			"componentType":5126,
			"count":6012,
			"type":"VEC3"
		},
		{
			"bufferView":42,
			"componentType":5126,
			"count":6012,
			"type":"VEC2"
		},
		{
			"bufferView":43,
			"componentType":5123,
			"count":9012,
			"type":"SCALAR"
		},
		{
			"bufferView":44,
			"componentType":5126,
			"count":432,
			"max":[
				0.8203592300415039,
				0.4399999976158142,
				0.37953248620033264
			],
			"min":[
				-0.8436240553855896,
				0,
				-0.27816808223724365
			],
			"type":"VEC3"
		},
		{
			"bufferView":45,
			"componentType":5126,
			"count":432,
			"type":"VEC3"
		},
		{
			"bufferView":46,
			"componentType":5126,
			"count":432,
			"type":"VEC2"
		},
		{
			"bufferView":47,
			"componentType":5123,
			"count":648,
			"type":"SCALAR"
		},
		{
			"bufferView":48,
			"componentType":5126,
			"count":96,
			"max":[
				0.8735547065734863,
				0.5379999876022339,
				0.4042826294898987
			],
			"min":[
				-0.8683741688728333,
				0.2199999988079071,
				-0.5195683240890503
			],
			"type":"VEC3"
		},
		{
			"bufferView":49,
			"componentType":5126,
			"count":96,
			"type":"VEC3"
		},
		{
			"bufferView":50,
			"componentType":5126,
			"count":96,
			"type":"VEC2"
		},
		{
			"bufferView":51,
			"componentType":5123,
			"count":132,
			"type":"SCALAR"
		},
		{
			"bufferView":52,
			"componentType":5126,
			"count":228,
			"max":[
				-0.31055861711502075,
				0.2199999988079071,
				-0.48530399799346924
			],
			"min":[
				-0.6461302042007446,
				0,
				-0.8895496129989624
			],
			"type":"VEC3"
		},
		{
			"bufferView":53,
			"componentType":5126,
			"count":228,
			"type":"VEC3"
		},
		{
			"bufferView":54,
			"componentType":5126,
			"count":228,
			"type":"VEC2"
		},
		{
			"bufferView":55,
			"componentType":5123,
			"count":336,
			"type":"SCALAR"
		},
		{
			"bufferView":56,
			"componentType":5126,
			"count":24,
			"max":[
				-0.31376945972442627,
				0.2199999988079071,
				-0.48530399799346924
			],
			"min":[
				-0.6429193615913391,
				0.10999999940395355,
				-0.8895496129989624
			],
			"type":"VEC3"
		},
		{
			"bufferView":57,
			"componentType":5126,
			"count":24,
			"type":"VEC3"
		},
		{
			"bufferView":58,
			"componentType":5126,
			"count":24,
			"type":"VEC2"
		},
		{
			"bufferView":59,
			"componentType":5123,
			"count":36,
			"type":"SCALAR"
		},
		{
			"bufferView":60,
			"componentType":5126,
			"count":720,
			"max":[
				1.4647340774536133,
				0.1780880093574524,
				1.282209038734436
			],
			"min":[
				-0.30451592803001404,
				0.035126931965351105,
				-1.3650623559951782
			],
			"type":"VEC3"
		},
		{
			"bufferView":61,
			"componentType":5126,
			"count":720,
			"type":"VEC3"
		},
		{
			"bufferView":62,
			"componentType":5126,
			"count":720,
			"type":"VEC2"
		},
		{
			"bufferView":63,
			"componentType":5123,
			"count":720,
			"type":"SCALAR"
		},
		{
			"bufferView":64,
			"componentType":5126,
			"count":228,
			"max":[
				0.8735547065734863,
				0.32999998331069946,
				-0.21278849244117737
			],
			"min":[
				0.5667749047279358,
				0,
				-0.5195683240890503
			],
			"type":"VEC3"
		},
		{
			"bufferView":65,
			"componentType":5126,
			"count":228,
			"type":"VEC3"
		},
		{
			"bufferView":66,
			"componentType":5126,
			"count":228,
			"type":"VEC2"
		},
		{
			"bufferView":67,
			"componentType":5126,
			"count":24,
			"max":[
				0.3666977286338806,
				0.006000000052154064,
				0.3666977286338806
			],
			"min":[
				-0.3666977286338806,
				0.0020000000949949026,
				-0.3666977286338806
			],
			"type":"VEC3"
		},
		{
			"bufferView":68,
			"componentType":5126,
			"count":24,
			"type":"VEC3"
		},
		{
			"bufferView":69,
			"componentType":5126,
			"count":24,
			"type":"VEC2"
		},
		{
			"bufferView":70,
			"componentType":5123,
			"count":36,
			"type":"SCALAR"
		},
		{
			"bufferView":71,
			"componentType":5126,
			"count":48,
			"max":[
				-0.053360193967819214,
				0.9100000262260437,
				0.2963973879814148
			],
			"min":[
				-0.0808601975440979,
				0.8600000143051147,
				0.2883973717689514
			],
			"type":"VEC3"
		},
		{
			"bufferView":72,
			"componentType":5126,
			"count":48,
			"type":"VEC3"
		},
		{
			"bufferView":73,
			"componentType":5126,
			"count":48,
			"type":"VEC2"
		},
		{
			"bufferView":74,
			"componentType":5123,
			"count":72,
			"type":"SCALAR"
		}
	],
	"bufferViews":[
		{
			"buffer":0,
			"byteLength":4896,
			"byteOffset":0,
			"target":34962
		},
		{
			"buffer":0,
			"byteLength":4896,
			"byteOffset":4896,
			"target":34962
		},
		{
			"buffer":0,
			"byteLength":3264,
			"byteOffset":9792,
			"target":34962
		},
		{
			"buffer":0,
			"byteLength":1416,
			"byteOffset":13056,
			"target":34963
		},
		{
			"buffer":0,
			"byteLength":29376,
			"byteOffset":14472,
			"target":34962
		},
		{
			"buffer":0,
			"byteLength":29376,
			"byteOffset":43848,
			"target":34962
		},
		{
			"buffer":0,
			"byteLength":19584,
			"byteOffset":73224,
			"target":34962
		},
		{
			"buffer":0,
			"byteLength":7344,
			"byteOffset":92808,
			"target":34963
		},
		{
			"buffer":0,
			"byteLength":61632,
			"byteOffset":100152,
			"target":34962
		},
		{
			"buffer":0,
			"byteLength":61632,
			"byteOffset":161784,
			"target":34962
		},
		{
			"buffer":0,
			"byteLength":41088,
			"byteOffset":223416,
			"target":34962
		},
		{
			"buffer":0,
			"byteLength":15408,
			"byteOffset":264504,
			"target":34963
		},
		{
			"buffer":0,
			"byteLength":14436,
			"byteOffset":279912,
			"target":34962
		},
		{
			"buffer":0,
			"byteLength":14436,
			"byteOffset":294348,
			"target":34962
		},
		{
			"buffer":0,
			"byteLength":9624,
			"byteOffset":308784,
			"target":34962
		},
		{
			"buffer":0,
			"byteLength":4680,
			"byteOffset":318408,
			"target":34963
		},
		{
			"buffer":0,
			"byteLength":18432,
			"byteOffset":323088,
			"target":34962
		},
		{
			"buffer":0,
			"byteLength":18432,
			"byteOffset":341520,
			"target":34962
		},
		{
			"buffer":0,
			"byteLength":12288,
			"byteOffset":359952,
			"target":34962
		},
		{
			"buffer":0,
			"byteLength":3264,
			"byteOffset":372240,
			"target":34963
		},
		{
			"buffer":0,
			"byteLength":18000,
			"byteOffset":375504,
			"target":34962
		},
		{
			"buffer":0,
			"byteLength":18000,
			"byteOffset":393504,
			"target":34962
		},
		{
			"buffer":0,
			"byteLength":12000,
			"byteOffset":411504,
			"target":34962
		},
		{
			"buffer":0,
			"byteLength":3240,
			"byteOffset":423504,
			"target":34963
		},
		{
			"buffer":0,
			"byteLength":13824,
			"byteOffset":426744,
			"target":34962
		},
		{
			"buffer":0,
			"byteLength":13824,
			"byteOffset":440568,
			"target":34962
		},
		{
			"buffer":0,
			"byteLength":9216,
			"byteOffset":454392,
			"target":34962
		},
		{
			"buffer":0,
			"byteLength":3408,
			"byteOffset":463608,
			"target":34963
		},
		{
			"buffer":0,
			"byteLength":99360,
			"byteOffset":467016,
			"target":34962
		},
		{
			"buffer":0,
			"byteLength":99360,
			"byteOffset":566376,
			"target":34962
		},
		{
			"buffer":0,
			"byteLength":66240,
			"byteOffset":665736,
			"target":34962
		},
		{
			"buffer":0,
			"byteLength":24840,
			"byteOffset":731976,
			"target":34963
		},
		{
			"buffer":0,
			"byteLength":2304,
			"byteOffset":756816,
			"target":34962
		},
		{
			"buffer":0,
			"byteLength":2304,
			"byteOffset":759120,
			"target":34962
		},
		{
			"buffer":0,
			"byteLength":1536,
			"byteOffset":761424,
			"target":34962
		},
		{
			"buffer":0,
			"byteLength":576,
			"byteOffset":762960,
			"target":34963
		},
		{
			"buffer":0,
			"byteLength":1596,
			"byteOffset":763536,
			"target":34962
		},
		{
			"buffer":0,
			"byteLength":1596,
			"byteOffset":765132,
			"target":34962
		},
		{
			"buffer":0,
			"byteLength":1064,
			"byteOffset":766728,
			"target":34962
		},
		{
			"buffer":0,
			"byteLength":396,
			"byteOffset":767792,
			"target":34963
		},
		{
			"buffer":0,
			"byteLength":72144,
			"byteOffset":768188,
			"target":34962
		},
		{
			"buffer":0,
			"byteLength":72144,
			"byteOffset":840332,
			"target":34962
		},
		{
			"buffer":0,
			"byteLength":48096,
			"byteOffset":912476,
			"target":34962
		},
		{
			"buffer":0,
			"byteLength":18024,
			"byteOffset":960572,
			"target":34963
		},
		{
			"buffer":0,
			"byteLength":5184,
			"byteOffset":978596,
			"target":34962
		},
		{
			"buffer":0,
			"byteLength":5184,
			"byteOffset":983780,
			"target":34962
		},
		{
			"buffer":0,
			"byteLength":3456,
			"byteOffset":988964,
			"target":34962
		},
		{
			"buffer":0,
			"byteLength":1296,
			"byteOffset":992420,
			"target":34963
		},
		{
			"buffer":0,
			"byteLength":1152,
			"byteOffset":993716,
			"target":34962
		},
		{
			"buffer":0,
			"byteLength":1152,
			"byteOffset":994868,
			"target":34962
		},
		{
			"buffer":0,
			"byteLength":768,
			"byteOffset":996020,
			"target":34962
		},
		{
			"buffer":0,
			"byteLength":264,
			"byteOffset":996788,
			"target":34963
		},
		{
			"buffer":0,
			"byteLength":2736,
			"byteOffset":997052,
			"target":34962
		},
		{
			"buffer":0,
			"byteLength":2736,
			"byteOffset":999788,
			"target":34962
		},
		{
			"buffer":0,
			"byteLength":1824,
			"byteOffset":1002524,
			"target":34962
		},
		{
			"buffer":0,
			"byteLength":672,
			"byteOffset":1004348,
			"target":34963
		},
		{
			"buffer":0,
			"byteLength":288,
			"byteOffset":1005020,
			"target":34962
		},
		{
			"buffer":0,
			"byteLength":288,
			"byteOffset":1005308,
			"target":34962
		},
		{
			"buffer":0,
			"byteLength":192,
			"byteOffset":1005596,
			"target":34962
		},
		{
			"buffer":0,
			"byteLength":72,
			"byteOffset":1005788,
			"target":34963
		},
		{
			"buffer":0,
			"byteLength":8640,
			"byteOffset":1005860,
			"target":34962
		},
		{
			"buffer":0,
			"byteLength":8640,
			"byteOffset":1014500,
			"target":34962
		},
		{
			"buffer":0,
			"byteLength":5760,
			"byteOffset":1023140,
			"target":34962
		},
		{
			"buffer":0,
			"byteLength":1440,
			"byteOffset":1028900,
			"target":34963
		},
		{
			"buffer":0,
			"byteLength":2736,
			"byteOffset":1030340,
			"target":34962
		},
		{
			"buffer":0,
			"byteLength":2736,
			"byteOffset":1033076,
			"target":34962
		},
		{
			"buffer":0,
			"byteLength":1824,
			"byteOffset":1035812,
			"target":34962
		},
		{
			"buffer":0,
			"byteLength":288,
			"byteOffset":1037636,
			"target":34962
		},
		{
			"buffer":0,
			"byteLength":288,
			"byteOffset":1037924,
			"target":34962
		},
		{
			"buffer":0,
			"byteLength":192,
			"byteOffset":1038212,
			"target":34962
		},
		{
			"buffer":0,
			"byteLength":72,
			"byteOffset":1038404,
			"target":34963
		},
		{
			"buffer":0,
			"byteLength":576,
			"byteOffset":1038476,
			"target":34962
		},
		{
			"buffer":0,
			"byteLength":576,
			"byteOffset":1039052,
			"target":34962
		},
		{
			"buffer":0,
			"byteLength":384,
			"byteOffset":1039628,
			"target":34962
		},
		{
			"buffer":0,
			"byteLength":144,
			"byteOffset":1040012,
			"target":34963
		}
	],
	"samplers":[
		{
			"magFilter":9729,
			"minFilter":9987
		}
	],
	"buffers":[
		{
			"byteLength":1040156,
			"uri":"city_west_medium.bin"
		}
	]
}
