{
	"asset":{
		"generator":"Khronos glTF Blender I/O v5.2.40",
		"version":"2.0"
	},
	"scene":0,
	"scenes":[
		{
			"name":"Scene",
			"nodes":[
				0
			]
		}
	],
	"nodes":[
		{
			"mesh":0,
			"name":"city_nordic_town"
		}
	],
	"materials":[
		{
			"doubleSided":true,
			"name":"garden",
			"normalTexture":{
				"index":0
			},
			"pbrMetallicRoughness":{
				"baseColorTexture":{
					"index":1
				},
				"metallicFactor":0
			}
		},
		{
			"doubleSided":true,
			"name":"ground_dirt",
			"normalTexture":{
				"index":2
			},
			"pbrMetallicRoughness":{
				"baseColorTexture":{
					"index":3
				},
				"metallicFactor":0
			}
		},
		{
			"doubleSided":true,
			"name":"concrete",
			"normalTexture":{
				"index":4
			},
			"pbrMetallicRoughness":{
				"baseColorTexture":{
					"index":5
				},
				"metallicFactor":0,
				"roughnessFactor":0.8999999761581421
			}
		},
		{
			"doubleSided":true,
			"name":"wood_white",
			"normalTexture":{
				"index":6
			},
			"pbrMetallicRoughness":{
				"baseColorTexture":{
					"index":7
				},
				"metallicFactor":0,
				"roughnessFactor":0.8500000238418579
			}
		},
		{
			"doubleSided":true,
			"name":"roof_dark",
			"normalTexture":{
				"index":8
			},
			"pbrMetallicRoughness":{
				"baseColorTexture":{
					"index":9
				},
				"metallicFactor":0,
				"roughnessFactor":0.699999988079071
			}
		},
		{
			"doubleSided":true,
			"name":"stone_light",
			"normalTexture":{
				"index":10
			},
			"pbrMetallicRoughness":{
				"baseColorTexture":{
					"index":11
				},
				"metallicFactor":0,
				"roughnessFactor":0.800000011920929
			}
		},
		{
			"doubleSided":true,
			"name":"gold",
			"pbrMetallicRoughness":{
				"baseColorFactor":[
					0.8299999833106995,
					0.6200000047683716,
					0.20000000298023224,
					1
				],
				"roughnessFactor":0.30000001192092896
			}
		},
		{
			"doubleSided":true,
			"name":"white",
			"pbrMetallicRoughness":{
				"baseColorFactor":[
					0.8999999761581421,
					0.8899999856948853,
					0.8500000238418579,
					1
				],
				"metallicFactor":0,
				"roughnessFactor":0.6000000238418579
			}
		},
		{
			"doubleSided":true,
			"name":"wood_red",
			"normalTexture":{
				"index":12
			},
			"pbrMetallicRoughness":{
				"baseColorTexture":{
					"index":13
				},
				"metallicFactor":0,
				"roughnessFactor":0.8500000238418579
			}
		},
		{
			"doubleSided":true,
			"name":"roof_slate",
			"normalTexture":{
				"index":14
			},
			"pbrMetallicRoughness":{
				"baseColorTexture":{
					"index":15
				},
				"metallicFactor":0,
				"roughnessFactor":0.550000011920929
			}
		},
		{
			"doubleSided":true,
			"name":"brick_red",
			"normalTexture":{
				"index":16
			},
			"pbrMetallicRoughness":{
				"baseColorTexture":{
					"index":17
				},
				"metallicFactor":0,
				"roughnessFactor":0.8999999761581421
			}
		},
		{
			"doubleSided":true,
			"name":"trunk",
			"pbrMetallicRoughness":{
				"baseColorFactor":[
					0.25,
					0.17000000178813934,
					0.10000000149011612,
					1
				],
				"metallicFactor":0,
				"roughnessFactor":0.8999999761581421
			}
		},
		{
			"doubleSided":true,
			"name":"tree_dark",
			"pbrMetallicRoughness":{
				"baseColorFactor":[
					0.07999999821186066,
					0.1899999976158142,
					0.07999999821186066,
					1
				],
				"metallicFactor":0,
				"roughnessFactor":0.8999999761581421
			}
		},
		{
			"doubleSided":true,
			"name":"tree",
			"pbrMetallicRoughness":{
				"baseColorFactor":[
					0.12999999523162842,
					0.27000001072883606,
					0.09000000357627869,
					1
				],
				"metallicFactor":0,
				"roughnessFactor":0.8999999761581421
			}
		},
		{
			"doubleSided":true,
			"name":"wood_yellow",
			"normalTexture":{
				"index":18
			},
			"pbrMetallicRoughness":{
				"baseColorTexture":{
					"index":19
				},
				"metallicFactor":0,
				"roughnessFactor":0.8500000238418579
			}
		},
		{
			"doubleSided":true,
			"name":"tree_autumn",
			"pbrMetallicRoughness":{
				"baseColorFactor":[
					0.3199999928474426,
					0.33000001311302185,
					0.10000000149011612,
					1
				],
				"metallicFactor":0,
				"roughnessFactor":0.8999999761581421
			}
		}
	],
	"meshes":[
		{
			"name":"part.13944",
			"primitives":[
				{
					"attributes":{
						"POSITION":0,
						"NORMAL":1,
						"TEXCOORD_0":2
					},
					"indices":3,
					"material":0
				},
				{
					"attributes":{
						"POSITION":4,
						"NORMAL":5,
						"TEXCOORD_0":6
					},
					"indices":7,
					"material":1
				},
				{
					"attributes":{
						"POSITION":8,
						"NORMAL":9,
						"TEXCOORD_0":10
					},
					"indices":11,
					"material":2
				},
				{
					"attributes":{
						"POSITION":12,
						"NORMAL":13,
						"TEXCOORD_0":14
					},
					"indices":15,
					"material":3
				},
				{
					"attributes":{
						"POSITION":16,
						"NORMAL":17,
						"TEXCOORD_0":18
					},
					"indices":19,
					"material":4
				},
				{
					"attributes":{
						"POSITION":20,
						"NORMAL":21,
						"TEXCOORD_0":22
					},
					"indices":23,
					"material":5
				},
				{
					"attributes":{
						"POSITION":24,
						"NORMAL":25,
						"TEXCOORD_0":26
					},
					"indices":27,
					"material":6
				},
				{
					"attributes":{
						"POSITION":28,
						"NORMAL":29,
						"TEXCOORD_0":30
					},
					"indices":31,
					"material":7
				},
				{
					"attributes":{
						"POSITION":32,
						"NORMAL":33,
						"TEXCOORD_0":34
					},
					"indices":35,
					"material":8
				},
				{
					"attributes":{
						"POSITION":36,
						"NORMAL":37,
						"TEXCOORD_0":38
					},
					"indices":39,
					"material":9
				},
				{
					"attributes":{
						"POSITION":40,
						"NORMAL":41,
						"TEXCOORD_0":42
					},
					"indices":43,
					"material":10
				},
				{
					"attributes":{
						"POSITION":44,
						"NORMAL":45,
						"TEXCOORD_0":46
					},
					"indices":47,
					"material":11
				},
				{
					"attributes":{
						"POSITION":48,
						"NORMAL":49,
						"TEXCOORD_0":50
					},
					"indices":51,
					"material":12
				},
				{
					"attributes":{
						"POSITION":52,
						"NORMAL":53,
						"TEXCOORD_0":54
					},
					"indices":55,
					"material":13
				},
				{
					"attributes":{
						"POSITION":56,
						"NORMAL":57,
						"TEXCOORD_0":58
					},
					"indices":59,
					"material":14
				},
				{
					"attributes":{
						"POSITION":60,
						"NORMAL":61,
						"TEXCOORD_0":62
					},
					"indices":63,
					"material":15
				}
			]
		}
	],
	"textures":[
		{
			"sampler":0,
			"source":0
		},
		{
			"sampler":0,
			"source":1
		},
		{
			"sampler":0,
			"source":2
		},
		{
			"sampler":0,
			"source":3
		},
		{
			"sampler":0,
			"source":4
		},
		{
			"sampler":0,
			"source":5
		},
		{
			"sampler":0,
			"source":6
		},
		{
			"sampler":0,
			"source":7
		},
		{
			"sampler":0,
			"source":8
		},
		{
			"sampler":0,
			"source":9
		},
		{
			"sampler":0,
			"source":10
		},
		{
			"sampler":0,
			"source":11
		},
		{
			"sampler":0,
			"source":12
		},
		{
			"sampler":0,
			"source":13
		},
		{
			"sampler":0,
			"source":14
		},
		{
			"sampler":0,
			"source":15
		},
		{
			"sampler":0,
			"source":16
		},
		{
			"sampler":0,
			"source":17
		},
		{
			"sampler":0,
			"source":18
		},
		{
			"sampler":0,
			"source":19
		}
	],
	"images":[
		{
			"mimeType":"image/png",
			"name":"garden_n",
			"uri":"textures/garden_n.png"
		},
		{
			"mimeType":"image/png",
			"name":"garden",
			"uri":"textures/garden.png"
		},
		{
			"mimeType":"image/png",
			"name":"ground_dirt_n",
			"uri":"textures/ground_dirt_n.png"
		},
		{
			"mimeType":"image/png",
			"name":"ground_dirt",
			"uri":"textures/ground_dirt.png"
		},
		{
			"mimeType":"image/png",
			"name":"concrete_n",
			"uri":"textures/concrete_n.png"
		},
		{
			"mimeType":"image/png",
			"name":"concrete",
			"uri":"textures/concrete.png"
		},
		{
			"mimeType":"image/png",
			"name":"wood_white_n",
			"uri":"textures/wood_white_n.png"
		},
		{
			"mimeType":"image/png",
			"name":"wood_white",
			"uri":"textures/wood_white.png"
		},
		{
			"mimeType":"image/png",
			"name":"roof_dark_n",
			"uri":"textures/roof_dark_n.png"
		},
		{
			"mimeType":"image/png",
			"name":"roof_dark",
			"uri":"textures/roof_dark.png"
		},
		{
			"mimeType":"image/png",
			"name":"stone_light_n",
			"uri":"textures/stone_light_n.png"
		},
		{
			"mimeType":"image/png",
			"name":"stone_light",
			"uri":"textures/stone_light.png"
		},
		{
			"mimeType":"image/png",
			"name":"wood_red_n",
			"uri":"textures/wood_red_n.png"
		},
		{
			"mimeType":"image/png",
			"name":"wood_red",
			"uri":"textures/wood_red.png"
		},
		{
			"mimeType":"image/png",
			"name":"roof_slate_n",
			"uri":"textures/roof_slate_n.png"
		},
		{
			"mimeType":"image/png",
			"name":"roof_slate",
			"uri":"textures/roof_slate.png"
		},
		{
			"mimeType":"image/png",
			"name":"brick_red_n",
			"uri":"textures/brick_red_n.png"
		},
		{
			"mimeType":"image/png",
			"name":"brick_red",
			"uri":"textures/brick_red.png"
		},
		{
			"mimeType":"image/png",
			"name":"wood_yellow_n",
			"uri":"textures/wood_yellow_n.png"
		},
		{
			"mimeType":"image/png",
			"name":"wood_yellow",
			"uri":"textures/wood_yellow.png"
		}
	],
	"accessors":[
		{
			"bufferView":0,
			"componentType":5126,
			"count":216,
			"max":[
				1.0183632373809814,
				0.0020000000949949026,
				0.8482746481895447
			],
			"min":[
				-1.0449097156524658,
				-0.029999999329447746,
				-0.8261470198631287
			],
			"type":"VEC3"
		},
		{
			"bufferView":1,
			"componentType":5126,
			"count":216,
			"type":"VEC3"
		},
		{
			"bufferView":2,
			"componentType":5126,
			"count":216,
			"type":"VEC2"
		},
		{
			"bufferView":3,
			"componentType":5123,
			"count":420,
			"type":"SCALAR"
		},
		{
			"bufferView":4,
			"componentType":5126,
			"count":576,
			"max":[
				0.7754985690116882,
				0.004999999888241291,
				0.534240186214447
			],
			"min":[
				-0.7754985690116882,
				0.0020000000949949026,
				-0.534240186214447
			],
			"type":"VEC3"
		},
		{
			"bufferView":5,
			"componentType":5126,
			"count":576,
			"type":"VEC3"
		},
		{
			"bufferView":6,
			"componentType":5126,
			"count":576,
			"type":"VEC2"
		},
		{
			"bufferView":7,
			"componentType":5123,
			"count":864,
			"type":"SCALAR"
		},
		{
			"bufferView":8,
			"componentType":5126,
			"count":1344,
			"max":[
				0.8301040530204773,
				0.35199999809265137,
				0.6878468990325928
			],
			"min":[
				-0.845778226852417,
				0.0020000000949949026,
				-0.633587121963501
			],
			"type":"VEC3"
		},
		{
			"bufferView":9,
			"componentType":5126,
			"count":1344,
			"type":"VEC3"
		},
		{
			"bufferView":10,
			"componentType":5126,
			"count":1344,
			"type":"VEC2"
		},
		{
			"bufferView":11,
			"componentType":5123,
			"count":2016,
			"type":"SCALAR"
		},
		{
			"bufferView":12,
			"componentType":5126,
			"count":1068,
			"max":[
				1.0731481313705444,
				0.5199999809265137,
				0.4607997238636017
			],
			"min":[
				-0.7818506956100464,
				0,
				-0.75359046459198
			],
			"type":"VEC3"
		},
		{
			"bufferView":13,
			"componentType":5126,
			"count":1068,
			"type":"VEC3"
		},
		{
			"bufferView":14,
			"componentType":5126,
			"count":1068,
			"type":"VEC2"
		},
		{
			"bufferView":15,
			"componentType":5123,
			"count":1572,
			"type":"SCALAR"
		},
		{
			"bufferView":16,
			"componentType":5126,
			"count":109,
			"max":[
				0.4194808900356293,
				0.8600000143051147,
				0.5465612411499023
			],
			"min":[
				-0.7818506956100464,
				0.10999999940395355,
				-0.75359046459198
			],
			"type":"VEC3"
		},
		{
			"bufferView":17,
			"componentType":5126,
			"count":109,
			"type":"VEC3"
		},
		{
			"bufferView":18,
			"componentType":5126,
			"count":109,
			"type":"VEC2"
		},
		{
			"bufferView":19,
			"componentType":5123,
			"count":162,
			"type":"SCALAR"
		},
		{
			"bufferView":20,
			"componentType":5126,
			"count":216,
			"max":[
				1.068516731262207,
				0.5399999618530273,
				0.8579682111740112
			],
			"min":[
				-1.0952072143554688,
				-0.1599999964237213,
				-0.7501100897789001
			],
			"type":"VEC3"
		},
		{
			"bufferView":21,
			"componentType":5126,
			"count":216,
			"type":"VEC3"
		},
		{
			"bufferView":22,
			"componentType":5126,
			"count":216,
			"type":"VEC2"
		},
		{
			"bufferView":23,
			"componentType":5123,
			"count":324,
			"type":"SCALAR"
		},
		{
			"bufferView":24,
			"componentType":5126,
			"count":48,
			"max":[
				0.06335680186748505,
				0.9100000262260437,
				-0.08282836526632309
			],
			"min":[
				0.03585679829120636,
				0.8600000143051147,
				-0.09082836657762527
			],
			"type":"VEC3"
		},
		{
			"bufferView":25,
			"componentType":5126,
			"count":48,
			"type":"VEC3"
		},
		{
			"bufferView":26,
			"componentType":5126,
			"count":48,
			"type":"VEC2"
		},
		{
			"bufferView":27,
			"componentType":5123,
			"count":72,
			"type":"SCALAR"
		},
		{
			"bufferView":28,
			"componentType":5126,
			"count":7464,
			"max":[
				1.0540472269058228,
				0.2280000001192093,
				0.8036313056945801
			],
			"min":[
				-1.0620344877243042,
				0.024000000208616257,
				-0.7344895005226135
			],
			"type":"VEC3"
		},
		{
			"bufferView":29,
			"componentType":5126,
			"count":7464,
			"type":"VEC3"
		},
		{
			"bufferView":30,
			"componentType":5126,
			"count":7464,
			"type":"VEC2"
		},
		{
			"bufferView":31,
			"componentType":5123,
			"count":11196,
			"type":"SCALAR"
		},
		{
			"bufferView":32,
			"componentType":5126,
			"count":648,
			"max":[
				0.805993378162384,
				0.3499999940395355,
				0.551842212677002
			],
			"min":[
				-0.8363005518913269,
				0,
				-0.4827004075050354
			],
			"type":"VEC3"
		},
		{
			"bufferView":33,
			"componentType":5126,
			"count":648,
			"type":"VEC3"
		},
		{
			"bufferView":34,
			"componentType":5126,
			"count":648,
			"type":"VEC2"
		},
		{
			"bufferView":35,
			"componentType":5123,
			"count":960,
			"type":"SCALAR"
		},
		{
			"bufferView":36,
			"componentType":5126,
			"count":120,
			"max":[
				1.0731481313705444,
				0.3499999940395355,
				0.8413430452346802
			],
			"min":[
				-1.062524676322937,
				0.2199999988079071,
				-0.6510006785392761
			],
			"type":"VEC3"
		},
		{
			"bufferView":37,
			"componentType":5126,
			"count":120,
			"type":"VEC3"
		},
		{
			"bufferView":38,
			"componentType":5126,
			"count":120,
			"type":"VEC2"
		},
		{
			"bufferView":39,
			"componentType":5123,
			"count":180,
			"type":"SCALAR"
		},
		{
			"bufferView":40,
			"componentType":5126,
			"count":192,
			"max":[
				0.8232823014259338,
				0.3400000035762787,
				0.6810251474380493
			],
			"min":[
				-0.8389564156532288,
				0.1599999964237213,
				-0.6267653107643127
			],
			"type":"VEC3"
		},
		{
			"bufferView":41,
			"componentType":5126,
			"count":192,
			"type":"VEC3"
		},
		{
			"bufferView":42,
			"componentType":5126,
			"count":192,
			"type":"VEC2"
		},
		{
			"bufferView":43,
			"componentType":5123,
			"count":288,
			"type":"SCALAR"
		},
		{
			"bufferView":44,
			"componentType":5126,
			"count":880,
			"max":[
				0.9775667190551758,
				0.06714541465044022,
				0.6759329438209534
			],
			"min":[
				-0.9717427492141724,
				0,
				-0.7686530947685242
			],
			"type":"VEC3"
		},
		{
			"bufferView":45,
			"componentType":5126,
			"count":880,
			"type":"VEC3"
		},
		{
			"bufferView":46,
			"componentType":5126,
			"count":880,
			"type":"VEC2"
		},
		{
			"bufferView":47,
			"componentType":5123,
			"count":1716,
			"type":"SCALAR"
		},
		{
			"bufferView":48,
			"componentType":5126,
			"count":768,
			"max":[
				1.0195667743682861,
				0.2037331610918045,
				0.7170708775520325
			],
			"min":[
				-0.9990569353103638,
				0.02833741344511509,
				-0.7976044416427612
			],
			"type":"VEC3"
		},
		{
			"bufferView":49,
			"componentType":5126,
			"count":768,
			"type":"VEC3"
		},
		{
			"bufferView":50,
			"componentType":5126,
			"count":768,
			"type":"VEC2"
		},
		{
			"bufferView":51,
			"componentType":5123,
			"count":936,
			"type":"SCALAR"
		},
		{
			"bufferView":52,
			"componentType":5126,
			"count":1128,
			"max":[
				0.9945667386054993,
				0.1959044337272644,
				0.6027618050575256
			],
			"min":[
				-1.0103191137313843,
				0.03044499270617962,
				-0.8097910284996033
			],
			"type":"VEC3"
		},
		{
			"bufferView":53,
			"componentType":5126,
			"count":1128,
			"type":"VEC3"
		},
		{
			"bufferView":54,
			"componentType":5126,
			"count":1128,
			"type":"VEC2"
		},
		{
			"bufferView":55,
			"componentType":5123,
			"count":1416,
			"type":"SCALAR"
		},
		{
			"bufferView":56,
			"componentType":5126,
			"count":456,
			"max":[
				0.799595296382904,
				0.3499999940395355,
				0.8413430452346802
			],
			"min":[
				-1.062524676322937,
				0,
				-0.427228182554245
			],
			"type":"VEC3"
		},
		{
			"bufferView":57,
			"componentType":5126,
			"count":456,
			"type":"VEC3"
		},
		{
			"bufferView":58,
			"componentType":5126,
			"count":456,
			"type":"VEC2"
		},
		{
			"bufferView":59,
			"componentType":5123,
			"count":672,
			"type":"SCALAR"
		},
		{
			"bufferView":60,
			"componentType":5126,
			"count":180,
			"max":[
				-0.054733362048864365,
				0.18323518335819244,
				-0.5883122682571411
			],
			"min":[
				-0.15145717561244965,
				0.050305817276239395,
				-0.6968692541122437
			],
			"type":"VEC3"
		},
		{
			"bufferView":61,
			"componentType":5126,
			"count":180,
			"type":"VEC3"
		},
		{
			"bufferView":62,
			"componentType":5126,
			"count":180,
			"type":"VEC2"
		},
		{
			"bufferView":63,
			"componentType":5123,
			"count":180,
			"type":"SCALAR"
		}
	],
	"bufferViews":[
		{
			"buffer":0,
			"byteLength":2592,
			"byteOffset":0,
			"target":34962
		},
		{
			"buffer":0,
			"byteLength":2592,
			"byteOffset":2592,
			"target":34962
		},
		{
			"buffer":0,
			"byteLength":1728,
			"byteOffset":5184,
			"target":34962
		},
		{
			"buffer":0,
			"byteLength":840,
			"byteOffset":6912,
			"target":34963
		},
		{
			"buffer":0,
			"byteLength":6912,
			"byteOffset":7752,
			"target":34962
		},
		{
			"buffer":0,
			"byteLength":6912,
			"byteOffset":14664,
			"target":34962
		},
		{
			"buffer":0,
			"byteLength":4608,
			"byteOffset":21576,
			"target":34962
		},
		{
			"buffer":0,
			"byteLength":1728,
			"byteOffset":26184,
			"target":34963
		},
		{
			"buffer":0,
			"byteLength":16128,
			"byteOffset":27912,
			"target":34962
		},
		{
			"buffer":0,
			"byteLength":16128,
			"byteOffset":44040,
			"target":34962
		},
		{
			"buffer":0,
			"byteLength":10752,
			"byteOffset":60168,
			"target":34962
		},
		{
			"buffer":0,
			"byteLength":4032,
			"byteOffset":70920,
			"target":34963
		},
		{
			"buffer":0,
			"byteLength":12816,
			"byteOffset":74952,
			"target":34962
		},
		{
			"buffer":0,
			"byteLength":12816,
			"byteOffset":87768,
			"target":34962
		},
		{
			"buffer":0,
			"byteLength":8544,
			"byteOffset":100584,
			"target":34962
		},
		{
			"buffer":0,
			"byteLength":3144,
			"byteOffset":109128,
			"target":34963
		},
		{
			"buffer":0,
			"byteLength":1308,
			"byteOffset":112272,
			"target":34962
		},
		{
			"buffer":0,
			"byteLength":1308,
			"byteOffset":113580,
			"target":34962
		},
		{
			"buffer":0,
			"byteLength":872,
			"byteOffset":114888,
			"target":34962
		},
		{
			"buffer":0,
			"byteLength":324,
			"byteOffset":115760,
			"target":34963
		},
		{
			"buffer":0,
			"byteLength":2592,
			"byteOffset":116084,
			"target":34962
		},
		{
			"buffer":0,
			"byteLength":2592,
			"byteOffset":118676,
			"target":34962
		},
		{
			"buffer":0,
			"byteLength":1728,
			"byteOffset":121268,
			"target":34962
		},
		{
			"buffer":0,
			"byteLength":648,
			"byteOffset":122996,
			"target":34963
		},
		{
			"buffer":0,
			"byteLength":576,
			"byteOffset":123644,
			"target":34962
		},
		{
			"buffer":0,
			"byteLength":576,
			"byteOffset":124220,
			"target":34962
		},
		{
			"buffer":0,
			"byteLength":384,
			"byteOffset":124796,
			"target":34962
		},
		{
			"buffer":0,
			"byteLength":144,
			"byteOffset":125180,
			"target":34963
		},
		{
			"buffer":0,
			"byteLength":89568,
			"byteOffset":125324,
			"target":34962
		},
		{
			"buffer":0,
			"byteLength":89568,
			"byteOffset":214892,
			"target":34962
		},
		{
			"buffer":0,
			"byteLength":59712,
			"byteOffset":304460,
			"target":34962
		},
		{
			"buffer":0,
			"byteLength":22392,
			"byteOffset":364172,
			"target":34963
		},
		{
			"buffer":0,
			"byteLength":7776,
			"byteOffset":386564,
			"target":34962
		},
		{
			"buffer":0,
			"byteLength":7776,
			"byteOffset":394340,
			"target":34962
		},
		{
			"buffer":0,
			"byteLength":5184,
			"byteOffset":402116,
			"target":34962
		},
		{
			"buffer":0,
			"byteLength":1920,
			"byteOffset":407300,
			"target":34963
		},
		{
			"buffer":0,
			"byteLength":1440,
			"byteOffset":409220,
			"target":34962
		},
		{
			"buffer":0,
			"byteLength":1440,
			"byteOffset":410660,
			"target":34962
		},
		{
			"buffer":0,
			"byteLength":960,
			"byteOffset":412100,
			"target":34962
		},
		{
			"buffer":0,
			"byteLength":360,
			"byteOffset":413060,
			"target":34963
		},
		{
			"buffer":0,
			"byteLength":2304,
			"byteOffset":413420,
			"target":34962
		},
		{
			"buffer":0,
			"byteLength":2304,
			"byteOffset":415724,
			"target":34962
		},
		{
			"buffer":0,
			"byteLength":1536,
			"byteOffset":418028,
			"target":34962
		},
		{
			"buffer":0,
			"byteLength":576,
			"byteOffset":419564,
			"target":34963
		},
		{
			"buffer":0,
			"byteLength":10560,
			"byteOffset":420140,
			"target":34962
		},
		{
			"buffer":0,
			"byteLength":10560,
			"byteOffset":430700,
			"target":34962
		},
		{
			"buffer":0,
			"byteLength":7040,
			"byteOffset":441260,
			"target":34962
		},
		{
			"buffer":0,
			"byteLength":3432,
			"byteOffset":448300,
			"target":34963
		},
		{
			"buffer":0,
			"byteLength":9216,
			"byteOffset":451732,
			"target":34962
		},
		{
			"buffer":0,
			"byteLength":9216,
			"byteOffset":460948,
			"target":34962
		},
		{
			"buffer":0,
			"byteLength":6144,
			"byteOffset":470164,
			"target":34962
		},
		{
			"buffer":0,
			"byteLength":1872,
			"byteOffset":476308,
			"target":34963
		},
		{
			"buffer":0,
			"byteLength":13536,
			"byteOffset":478180,
			"target":34962
		},
		{
			"buffer":0,
			"byteLength":13536,
			"byteOffset":491716,
			"target":34962
		},
		{
			"buffer":0,
			"byteLength":9024,
			"byteOffset":505252,
			"target":34962
		},
		{
			"buffer":0,
			"byteLength":2832,
			"byteOffset":514276,
			"target":34963
		},
		{
			"buffer":0,
			"byteLength":5472,
			"byteOffset":517108,
			"target":34962
		},
		{
			"buffer":0,
			"byteLength":5472,
			"byteOffset":522580,
			"target":34962
		},
		{
			"buffer":0,
			"byteLength":3648,
			"byteOffset":528052,
			"target":34962
		},
		{
			"buffer":0,
			"byteLength":1344,
			"byteOffset":531700,
			"target":34963
		},
		{
			"buffer":0,
			"byteLength":2160,
			"byteOffset":533044,
			"target":34962
		},
		{
			"buffer":0,
			"byteLength":2160,
			"byteOffset":535204,
			"target":34962
		},
		{
			"buffer":0,
			"byteLength":1440,
			"byteOffset":537364,
			"target":34962
		},
		{
			"buffer":0,
			"byteLength":360,
			"byteOffset":538804,
			"target":34963
		}
	],
	"samplers":[
		{
			"magFilter":9729,
			"minFilter":9987
		}
	],
	"buffers":[
		{
			"byteLength":539164,
			"uri":"city_nordic_town.bin"
		}
	]
}
