{
	"asset":{
		"generator":"Khronos glTF Blender I/O v5.2.40",
		"version":"2.0"
	},
	"scene":0,
	"scenes":[
		{
			"name":"Scene",
			"nodes":[
				0
			]
		}
	],
	"nodes":[
		{
			"mesh":0,
			"name":"city_east_capital"
		}
	],
	"materials":[
		{
			"doubleSided":true,
			"name":"garden",
			"normalTexture":{
				"index":0
			},
			"pbrMetallicRoughness":{
				"baseColorTexture":{
					"index":1
				},
				"metallicFactor":0
			}
		},
		{
			"doubleSided":true,
			"name":"asphalt",
			"normalTexture":{
				"index":2
			},
			"pbrMetallicRoughness":{
				"baseColorTexture":{
					"index":3
				},
				"metallicFactor":0,
				"roughnessFactor":0.8500000238418579
			}
		},
		{
			"doubleSided":true,
			"name":"concrete",
			"normalTexture":{
				"index":4
			},
			"pbrMetallicRoughness":{
				"baseColorTexture":{
					"index":5
				},
				"metallicFactor":0,
				"roughnessFactor":0.8999999761581421
			}
		},
		{
			"doubleSided":true,
			"name":"trunk",
			"pbrMetallicRoughness":{
				"baseColorFactor":[
					0.25,
					0.17000000178813934,
					0.10000000149011612,
					1
				],
				"metallicFactor":0,
				"roughnessFactor":0.8999999761581421
			}
		},
		{
			"doubleSided":true,
			"name":"tree",
			"pbrMetallicRoughness":{
				"baseColorFactor":[
					0.12999999523162842,
					0.27000001072883606,
					0.09000000357627869,
					1
				],
				"metallicFactor":0,
				"roughnessFactor":0.8999999761581421
			}
		},
		{
			"doubleSided":true,
			"name":"facade_white",
			"normalTexture":{
				"index":6
			},
			"pbrMetallicRoughness":{
				"baseColorTexture":{
					"index":7
				},
				"metallicFactor":0,
				"roughnessFactor":0.8500000238418579
			}
		},
		{
			"doubleSided":true,
			"name":"white",
			"pbrMetallicRoughness":{
				"baseColorFactor":[
					0.8999999761581421,
					0.8899999856948853,
					0.8500000238418579,
					1
				],
				"metallicFactor":0,
				"roughnessFactor":0.6000000238418579
			}
		},
		{
			"doubleSided":true,
			"name":"wood_red",
			"normalTexture":{
				"index":8
			},
			"pbrMetallicRoughness":{
				"baseColorTexture":{
					"index":9
				},
				"metallicFactor":0,
				"roughnessFactor":0.8500000238418579
			}
		},
		{
			"doubleSided":true,
			"name":"roof_copper",
			"normalTexture":{
				"index":10
			},
			"pbrMetallicRoughness":{
				"baseColorTexture":{
					"index":11
				},
				"metallicFactor":0.25,
				"roughnessFactor":0.44999998807907104
			}
		},
		{
			"doubleSided":true,
			"name":"brick_red",
			"normalTexture":{
				"index":12
			},
			"pbrMetallicRoughness":{
				"baseColorTexture":{
					"index":13
				},
				"metallicFactor":0,
				"roughnessFactor":0.8999999761581421
			}
		},
		{
			"doubleSided":true,
			"name":"stone_light",
			"normalTexture":{
				"index":14
			},
			"pbrMetallicRoughness":{
				"baseColorTexture":{
					"index":15
				},
				"metallicFactor":0,
				"roughnessFactor":0.800000011920929
			}
		},
		{
			"doubleSided":true,
			"name":"facade_pink",
			"normalTexture":{
				"index":16
			},
			"pbrMetallicRoughness":{
				"baseColorTexture":{
					"index":17
				},
				"metallicFactor":0,
				"roughnessFactor":0.8500000238418579
			}
		},
		{
			"doubleSided":true,
			"name":"tree_dark",
			"pbrMetallicRoughness":{
				"baseColorFactor":[
					0.07999999821186066,
					0.1899999976158142,
					0.07999999821186066,
					1
				],
				"metallicFactor":0,
				"roughnessFactor":0.8999999761581421
			}
		},
		{
			"doubleSided":true,
			"name":"wood_white",
			"normalTexture":{
				"index":18
			},
			"pbrMetallicRoughness":{
				"baseColorTexture":{
					"index":19
				},
				"metallicFactor":0,
				"roughnessFactor":0.8500000238418579
			}
		},
		{
			"doubleSided":true,
			"name":"roof_slate",
			"normalTexture":{
				"index":20
			},
			"pbrMetallicRoughness":{
				"baseColorTexture":{
					"index":21
				},
				"metallicFactor":0,
				"roughnessFactor":0.550000011920929
			}
		},
		{
			"doubleSided":true,
			"name":"facade_cream",
			"normalTexture":{
				"index":22
			},
			"pbrMetallicRoughness":{
				"baseColorTexture":{
					"index":23
				},
				"metallicFactor":0,
				"roughnessFactor":0.8500000238418579
			}
		},
		{
			"doubleSided":true,
			"name":"glass",
			"pbrMetallicRoughness":{
				"baseColorFactor":[
					0.11999999731779099,
					0.1599999964237213,
					0.20000000298023224,
					1
				],
				"metallicFactor":0.5,
				"roughnessFactor":0.10000000149011612
			}
		},
		{
			"doubleSided":true,
			"name":"steel",
			"pbrMetallicRoughness":{
				"baseColorFactor":[
					0.2800000011920929,
					0.30000001192092896,
					0.33000001311302185,
					1
				],
				"metallicFactor":0.800000011920929,
				"roughnessFactor":0.4000000059604645
			}
		},
		{
			"doubleSided":true,
			"name":"facade_grey",
			"normalTexture":{
				"index":24
			},
			"pbrMetallicRoughness":{
				"baseColorTexture":{
					"index":25
				},
				"metallicFactor":0,
				"roughnessFactor":0.8500000238418579
			}
		},
		{
			"doubleSided":true,
			"name":"tree_autumn",
			"pbrMetallicRoughness":{
				"baseColorFactor":[
					0.3199999928474426,
					0.33000001311302185,
					0.10000000149011612,
					1
				],
				"metallicFactor":0,
				"roughnessFactor":0.8999999761581421
			}
		},
		{
			"doubleSided":true,
			"name":"roof_dark",
			"normalTexture":{
				"index":26
			},
			"pbrMetallicRoughness":{
				"baseColorTexture":{
					"index":27
				},
				"metallicFactor":0,
				"roughnessFactor":0.699999988079071
			}
		},
		{
			"doubleSided":true,
			"name":"facade_yellow",
			"normalTexture":{
				"index":28
			},
			"pbrMetallicRoughness":{
				"baseColorTexture":{
					"index":29
				},
				"metallicFactor":0,
				"roughnessFactor":0.8500000238418579
			}
		},
		{
			"doubleSided":true,
			"name":"wood_yellow",
			"normalTexture":{
				"index":30
			},
			"pbrMetallicRoughness":{
				"baseColorTexture":{
					"index":31
				},
				"metallicFactor":0,
				"roughnessFactor":0.8500000238418579
			}
		},
		{
			"doubleSided":true,
			"name":"city_paving_warm",
			"normalTexture":{
				"index":32
			},
			"pbrMetallicRoughness":{
				"baseColorTexture":{
					"index":33
				},
				"metallicFactor":0,
				"roughnessFactor":0.9200000166893005
			}
		},
		{
			"doubleSided":true,
			"name":"onion_green",
			"pbrMetallicRoughness":{
				"baseColorFactor":[
					0.18000000715255737,
					0.46000000834465027,
					0.3400000035762787,
					1
				],
				"metallicFactor":0.20000000298023224,
				"roughnessFactor":0.4000000059604645
			}
		},
		{
			"doubleSided":true,
			"name":"flag_red",
			"pbrMetallicRoughness":{
				"baseColorFactor":[
					0.75,
					0.07999999821186066,
					0.07999999821186066,
					1
				],
				"metallicFactor":0,
				"roughnessFactor":0.699999988079071
			}
		},
		{
			"doubleSided":true,
			"name":"facade_whitewash",
			"normalTexture":{
				"index":34
			},
			"pbrMetallicRoughness":{
				"baseColorTexture":{
					"index":35
				},
				"metallicFactor":0,
				"roughnessFactor":0.8999999761581421
			}
		},
		{
			"doubleSided":true,
			"name":"gold",
			"pbrMetallicRoughness":{
				"baseColorFactor":[
					0.8299999833106995,
					0.6200000047683716,
					0.20000000298023224,
					1
				],
				"roughnessFactor":0.30000001192092896
			}
		},
		{
			"doubleSided":true,
			"name":"onion_blue",
			"pbrMetallicRoughness":{
				"baseColorFactor":[
					0.1599999964237213,
					0.3400000035762787,
					0.6200000047683716,
					1
				],
				"metallicFactor":0.20000000298023224,
				"roughnessFactor":0.3499999940395355
			}
		}
	],
	"meshes":[
		{
			"name":"part.6868",
			"primitives":[
				{
					"attributes":{
						"POSITION":0,
						"NORMAL":1,
						"TEXCOORD_0":2
					},
					"indices":3,
					"material":0
				},
				{
					"attributes":{
						"POSITION":4,
						"NORMAL":5,
						"TEXCOORD_0":6
					},
					"indices":7,
					"material":1
				},
				{
					"attributes":{
						"POSITION":8,
						"NORMAL":9,
						"TEXCOORD_0":10
					},
					"indices":11,
					"material":2
				},
				{
					"attributes":{
						"POSITION":12,
						"NORMAL":13,
						"TEXCOORD_0":14
					},
					"indices":15,
					"material":3
				},
				{
					"attributes":{
						"POSITION":16,
						"NORMAL":17,
						"TEXCOORD_0":18
					},
					"indices":19,
					"material":4
				},
				{
					"attributes":{
						"POSITION":20,
						"NORMAL":21,
						"TEXCOORD_0":22
					},
					"indices":23,
					"material":5
				},
				{
					"attributes":{
						"POSITION":24,
						"NORMAL":25,
						"TEXCOORD_0":26
					},
					"indices":27,
					"material":6
				},
				{
					"attributes":{
						"POSITION":28,
						"NORMAL":29,
						"TEXCOORD_0":30
					},
					"indices":31,
					"material":7
				},
				{
					"attributes":{
						"POSITION":32,
						"NORMAL":33,
						"TEXCOORD_0":34
					},
					"indices":35,
					"material":8
				},
				{
					"attributes":{
						"POSITION":36,
						"NORMAL":37,
						"TEXCOORD_0":38
					},
					"indices":39,
					"material":9
				},
				{
					"attributes":{
						"POSITION":40,
						"NORMAL":41,
						"TEXCOORD_0":42
					},
					"indices":43,
					"material":10
				},
				{
					"attributes":{
						"POSITION":44,
						"NORMAL":45,
						"TEXCOORD_0":46
					},
					"indices":47,
					"material":11
				},
				{
					"attributes":{
						"POSITION":48,
						"NORMAL":49,
						"TEXCOORD_0":50
					},
					"indices":51,
					"material":12
				},
				{
					"attributes":{
						"POSITION":52,
						"NORMAL":53,
						"TEXCOORD_0":54
					},
					"indices":55,
					"material":13
				},
				{
					"attributes":{
						"POSITION":56,
						"NORMAL":57,
						"TEXCOORD_0":58
					},
					"indices":59,
					"material":14
				},
				{
					"attributes":{
						"POSITION":60,
						"NORMAL":61,
						"TEXCOORD_0":62
					},
					"indices":63,
					"material":15
				},
				{
					"attributes":{
						"POSITION":64,
						"NORMAL":65,
						"TEXCOORD_0":66
					},
					"indices":67,
					"material":16
				},
				{
					"attributes":{
						"POSITION":68,
						"NORMAL":69,
						"TEXCOORD_0":70
					},
					"indices":71,
					"material":17
				},
				{
					"attributes":{
						"POSITION":72,
						"NORMAL":73,
						"TEXCOORD_0":74
					},
					"indices":75,
					"material":18
				},
				{
					"attributes":{
						"POSITION":76,
						"NORMAL":77,
						"TEXCOORD_0":78
					},
					"indices":79,
					"material":19
				},
				{
					"attributes":{
						"POSITION":80,
						"NORMAL":81,
						"TEXCOORD_0":82
					},
					"indices":83,
					"material":20
				},
				{
					"attributes":{
						"POSITION":84,
						"NORMAL":85,
						"TEXCOORD_0":86
					},
					"indices":87,
					"material":21
				},
				{
					"attributes":{
						"POSITION":88,
						"NORMAL":89,
						"TEXCOORD_0":90
					},
					"indices":91,
					"material":22
				},
				{
					"attributes":{
						"POSITION":92,
						"NORMAL":93,
						"TEXCOORD_0":94
					},
					"indices":95,
					"material":23
				},
				{
					"attributes":{
						"POSITION":96,
						"NORMAL":97,
						"TEXCOORD_0":98
					},
					"indices":99,
					"material":24
				},
				{
					"attributes":{
						"POSITION":100,
						"NORMAL":101,
						"TEXCOORD_0":102
					},
					"indices":103,
					"material":25
				},
				{
					"attributes":{
						"POSITION":104,
						"NORMAL":105,
						"TEXCOORD_0":106
					},
					"indices":107,
					"material":26
				},
				{
					"attributes":{
						"POSITION":108,
						"NORMAL":109,
						"TEXCOORD_0":110
					},
					"indices":111,
					"material":27
				},
				{
					"attributes":{
						"POSITION":112,
						"NORMAL":113,
						"TEXCOORD_0":114
					},
					"indices":115,
					"material":28
				}
			]
		}
	],
	"textures":[
		{
			"sampler":0,
			"source":0
		},
		{
			"sampler":0,
			"source":1
		},
		{
			"sampler":0,
			"source":2
		},
		{
			"sampler":0,
			"source":3
		},
		{
			"sampler":0,
			"source":4
		},
		{
			"sampler":0,
			"source":5
		},
		{
			"sampler":0,
			"source":6
		},
		{
			"sampler":0,
			"source":7
		},
		{
			"sampler":0,
			"source":8
		},
		{
			"sampler":0,
			"source":9
		},
		{
			"sampler":0,
			"source":10
		},
		{
			"sampler":0,
			"source":11
		},
		{
			"sampler":0,
			"source":12
		},
		{
			"sampler":0,
			"source":13
		},
		{
			"sampler":0,
			"source":14
		},
		{
			"sampler":0,
			"source":15
		},
		{
			"sampler":0,
			"source":16
		},
		{
			"sampler":0,
			"source":17
		},
		{
			"sampler":0,
			"source":18
		},
		{
			"sampler":0,
			"source":19
		},
		{
			"sampler":0,
			"source":20
		},
		{
			"sampler":0,
			"source":21
		},
		{
			"sampler":0,
			"source":22
		},
		{
			"sampler":0,
			"source":23
		},
		{
			"sampler":0,
			"source":24
		},
		{
			"sampler":0,
			"source":25
		},
		{
			"sampler":0,
			"source":26
		},
		{
			"sampler":0,
			"source":27
		},
		{
			"sampler":0,
			"source":28
		},
		{
			"sampler":0,
			"source":29
		},
		{
			"sampler":0,
			"source":30
		},
		{
			"sampler":0,
			"source":31
		},
		{
			"sampler":0,
			"source":32
		},
		{
			"sampler":0,
			"source":33
		},
		{
			"sampler":0,
			"source":34
		},
		{
			"sampler":0,
			"source":35
		}
	],
	"images":[
		{
			"mimeType":"image/png",
			"name":"garden_n",
			"uri":"textures/garden_n.png"
		},
		{
			"mimeType":"image/png",
			"name":"garden",
			"uri":"textures/garden.png"
		},
		{
			"mimeType":"image/png",
			"name":"asphalt_n",
			"uri":"textures/asphalt_n.png"
		},
		{
			"mimeType":"image/png",
			"name":"asphalt",
			"uri":"textures/asphalt.png"
		},
		{
			"mimeType":"image/png",
			"name":"concrete_n",
			"uri":"textures/concrete_n.png"
		},
		{
			"mimeType":"image/png",
			"name":"concrete",
			"uri":"textures/concrete.png"
		},
		{
			"mimeType":"image/png",
			"name":"facade_white_n",
			"uri":"textures/facade_white_n.png"
		},
		{
			"mimeType":"image/png",
			"name":"facade_white",
			"uri":"textures/facade_white.png"
		},
		{
			"mimeType":"image/png",
			"name":"wood_red_n",
			"uri":"textures/wood_red_n.png"
		},
		{
			"mimeType":"image/png",
			"name":"wood_red",
			"uri":"textures/wood_red.png"
		},
		{
			"mimeType":"image/png",
			"name":"roof_copper_n",
			"uri":"textures/roof_copper_n.png"
		},
		{
			"mimeType":"image/png",
			"name":"roof_copper",
			"uri":"textures/roof_copper.png"
		},
		{
			"mimeType":"image/png",
			"name":"brick_red_n",
			"uri":"textures/brick_red_n.png"
		},
		{
			"mimeType":"image/png",
			"name":"brick_red",
			"uri":"textures/brick_red.png"
		},
		{
			"mimeType":"image/png",
			"name":"stone_light_n",
			"uri":"textures/stone_light_n.png"
		},
		{
			"mimeType":"image/png",
			"name":"stone_light",
			"uri":"textures/stone_light.png"
		},
		{
			"mimeType":"image/png",
			"name":"facade_pink_n",
			"uri":"textures/facade_pink_n.png"
		},
		{
			"mimeType":"image/png",
			"name":"facade_pink",
			"uri":"textures/facade_pink.png"
		},
		{
			"mimeType":"image/png",
			"name":"wood_white_n",
			"uri":"textures/wood_white_n.png"
		},
		{
			"mimeType":"image/png",
			"name":"wood_white",
			"uri":"textures/wood_white.png"
		},
		{
			"mimeType":"image/png",
			"name":"roof_slate_n",
			"uri":"textures/roof_slate_n.png"
		},
		{
			"mimeType":"image/png",
			"name":"roof_slate",
			"uri":"textures/roof_slate.png"
		},
		{
			"mimeType":"image/png",
			"name":"facade_cream_n",
			"uri":"textures/facade_cream_n.png"
		},
		{
			"mimeType":"image/png",
			"name":"facade_cream",
			"uri":"textures/facade_cream.png"
		},
		{
			"mimeType":"image/png",
			"name":"facade_grey_n",
			"uri":"textures/facade_grey_n.png"
		},
		{
			"mimeType":"image/png",
			"name":"facade_grey",
			"uri":"textures/facade_grey.png"
		},
		{
			"mimeType":"image/png",
			"name":"roof_dark_n",
			"uri":"textures/roof_dark_n.png"
		},
		{
			"mimeType":"image/png",
			"name":"roof_dark",
			"uri":"textures/roof_dark.png"
		},
		{
			"mimeType":"image/png",
			"name":"facade_yellow_n",
			"uri":"textures/facade_yellow_n.png"
		},
		{
			"mimeType":"image/png",
			"name":"facade_yellow",
			"uri":"textures/facade_yellow.png"
		},
		{
			"mimeType":"image/png",
			"name":"wood_yellow_n",
			"uri":"textures/wood_yellow_n.png"
		},
		{
			"mimeType":"image/png",
			"name":"wood_yellow",
			"uri":"textures/wood_yellow.png"
		},
		{
			"mimeType":"image/png",
			"name":"city_paving_warm_n",
			"uri":"textures/city_paving_warm_n.png"
		},
		{
			"mimeType":"image/png",
			"name":"city_paving_warm",
			"uri":"textures/city_paving_warm.png"
		},
		{
			"mimeType":"image/png",
			"name":"facade_whitewash_n",
			"uri":"textures/facade_whitewash_n.png"
		},
		{
			"mimeType":"image/png",
			"name":"facade_whitewash",
			"uri":"textures/facade_whitewash.png"
		}
	],
	"accessors":[
		{
			"bufferView":0,
			"componentType":5126,
			"count":1176,
			"max":[
				2.824451208114624,
				0.003000000026077032,
				2.532691240310669
			],
			"min":[
				-2.921487808227539,
				-0.029999999329447746,
				-2.450944185256958
			],
			"type":"VEC3"
		},
		{
			"bufferView":1,
			"componentType":5126,
			"count":1176,
			"type":"VEC3"
		},
		{
			"bufferView":2,
			"componentType":5126,
			"count":1176,
			"type":"VEC2"
		},
		{
			"bufferView":3,
			"componentType":5123,
			"count":1860,
			"type":"SCALAR"
		},
		{
			"bufferView":4,
			"componentType":5126,
			"count":9840,
			"max":[
				2.371614694595337,
				0.004999999888241291,
				2.0080246925354004
			],
			"min":[
				-2.371614694595337,
				0.0020000000949949026,
				-2.0080246925354004
			],
			"type":"VEC3"
		},
		{
			"bufferView":5,
			"componentType":5126,
			"count":9840,
			"type":"VEC3"
		},
		{
			"bufferView":6,
			"componentType":5126,
			"count":9840,
			"type":"VEC2"
		},
		{
			"bufferView":7,
			"componentType":5123,
			"count":14760,
			"type":"SCALAR"
		},
		{
			"bufferView":8,
			"componentType":5126,
			"count":20976,
			"max":[
				2.371957302093506,
				0.7919999957084656,
				2.0083673000335693
			],
			"min":[
				-2.371957302093506,
				0.0020000000949949026,
				-2.0083673000335693
			],
			"type":"VEC3"
		},
		{
			"bufferView":9,
			"componentType":5126,
			"count":20976,
			"type":"VEC3"
		},
		{
			"bufferView":10,
			"componentType":5126,
			"count":20976,
			"type":"VEC2"
		},
		{
			"bufferView":11,
			"componentType":5123,
			"count":31464,
			"type":"SCALAR"
		},
		{
			"bufferView":12,
			"componentType":5126,
			"count":2284,
			"max":[
				2.78914475440979,
				0.06991574913263321,
				2.4170870780944824
			],
			"min":[
				-2.7175443172454834,
				0,
				-2.272733449935913
			],
			"type":"VEC3"
		},
		{
			"bufferView":13,
			"componentType":5126,
			"count":2284,
			"type":"VEC3"
		},
		{
			"bufferView":14,
			"componentType":5126,
			"count":2284,
			"type":"VEC2"
		},
		{
			"bufferView":15,
			"componentType":5123,
			"count":4446,
			"type":"SCALAR"
		},
		{
			"bufferView":16,
			"componentType":5126,
			"count":2888,
			"max":[
				2.8186447620391846,
				0.2076214849948883,
				2.2184183597564697
			],
			"min":[
				-2.742644786834717,
				0.025225762277841568,
				-2.3050572872161865
			],
			"type":"VEC3"
		},
		{
			"bufferView":17,
			"componentType":5126,
			"count":2888,
			"type":"VEC3"
		},
		{
			"bufferView":18,
			"componentType":5126,
			"count":2888,
			"type":"VEC2"
		},
		{
			"bufferView":19,
			"componentType":5123,
			"count":3096,
			"type":"SCALAR"
		},
		{
			"bufferView":20,
			"componentType":5126,
			"count":1164,
			"max":[
				2.0128257274627686,
				0.7269999980926514,
				1.5172239542007446
			],
			"min":[
				-1.9838372468948364,
				0,
				-0.1756049245595932
			],
			"type":"VEC3"
		},
		{
			"bufferView":21,
			"componentType":5126,
			"count":1164,
			"type":"VEC3"
		},
		{
			"bufferView":22,
			"componentType":5126,
			"count":1164,
			"type":"VEC2"
		},
		{
			"bufferView":23,
			"componentType":5123,
			"count":1734,
			"type":"SCALAR"
		},
		{
			"bufferView":24,
			"componentType":5126,
			"count":13728,
			"max":[
				2.0569303035736084,
				0.6899999976158142,
				2.0642852783203125
			],
			"min":[
				-2.0957651138305664,
				0.024000000208616257,
				-1.8771971464157104
			],
			"type":"VEC3"
		},
		{
			"bufferView":25,
			"componentType":5126,
			"count":13728,
			"type":"VEC3"
		},
		{
			"bufferView":26,
			"componentType":5126,
			"count":13728,
			"type":"VEC2"
		},
		{
			"bufferView":27,
			"componentType":5123,
			"count":20592,
			"type":"SCALAR"
		},
		{
			"bufferView":28,
			"componentType":5126,
			"count":1296,
			"max":[
				1.9484343528747559,
				0.09200000017881393,
				2.043990135192871
			],
			"min":[
				-1.8666424751281738,
				0,
				-1.660139799118042
			],
			"type":"VEC3"
		},
		{
			"bufferView":29,
			"componentType":5126,
			"count":1296,
			"type":"VEC3"
		},
		{
			"bufferView":30,
			"componentType":5126,
			"count":1296,
			"type":"VEC2"
		},
		{
			"bufferView":31,
			"componentType":5123,
			"count":1944,
			"type":"SCALAR"
		},
		{
			"bufferView":32,
			"componentType":5126,
			"count":1014,
			"max":[
				1.9925756454467773,
				0.7695000171661377,
				1.5172239542007446
			],
			"min":[
				-2.038390874862671,
				0.10999999940395355,
				-1.8883081674575806
			],
			"type":"VEC3"
		},
		{
			"bufferView":33,
			"componentType":5126,
			"count":1014,
			"type":"VEC3"
		},
		{
			"bufferView":34,
			"componentType":5126,
			"count":1014,
			"type":"VEC2"
		},
		{
			"bufferView":35,
			"componentType":5123,
			"count":1392,
			"type":"SCALAR"
		},
		{
			"bufferView":36,
			"componentType":5126,
			"count":1704,
			"max":[
				1.8429135084152222,
				0.7799999713897705,
				1.9101588726043701
			],
			"min":[
				-1.9986063241958618,
				0,
				-1.7743972539901733
			],
			"type":"VEC3"
		},
		{
			"bufferView":37,
			"componentType":5126,
			"count":1704,
			"type":"VEC3"
		},
		{
			"bufferView":38,
			"componentType":5126,
			"count":1704,
			"type":"VEC2"
		},
		{
			"bufferView":39,
			"componentType":5123,
			"count":2556,
			"type":"SCALAR"
		},
		{
			"bufferView":40,
			"componentType":5126,
			"count":55824,
			"max":[
				2.055678606033325,
				0.6679999828338623,
				2.082594633102417
			],
			"min":[
				-2.0941245555877686,
				-0.1599999964237213,
				-1.8856439590454102
			],
			"type":"VEC3"
		},
		{
			"bufferView":41,
			"componentType":5126,
			"count":55824,
			"type":"VEC3"
		},
		{
			"bufferView":42,
			"componentType":5126,
			"count":55824,
			"type":"VEC2"
		},
		{
			"bufferView":43,
			"componentType":5123,
			"count":83952,
			"type":"SCALAR"
		},
		{
			"bufferView":44,
			"componentType":5126,
			"count":2196,
			"max":[
				1.3991583585739136,
				0.33000001311302185,
				1.4580798149108887
			],
			"min":[
				-1.9748270511627197,
				0,
				-1.8883081674575806
			],
			"type":"VEC3"
		},
		{
			"bufferView":45,
			"componentType":5126,
			"count":2196,
			"type":"VEC3"
		},
		{
			"bufferView":46,
			"componentType":5126,
			"count":2196,
			"type":"VEC2"
		},
		{
			"bufferView":47,
			"componentType":5123,
			"count":3276,
			"type":"SCALAR"
		},
		{
			"bufferView":48,
			"componentType":5126,
			"count":2464,
			"max":[
				2.8311448097229004,
				0.18922843039035797,
				2.158156394958496
			],
			"min":[
				-2.6472370624542236,
				0.02452312782406807,
				-2.2752842903137207
			],
			"type":"VEC3"
		},
		{
			"bufferView":49,
			"componentType":5126,
			"count":2464,
			"type":"VEC3"
		},
		{
			"bufferView":50,
			"componentType":5126,
			"count":2464,
			"type":"VEC2"
		},
		{
			"bufferView":51,
			"componentType":5123,
			"count":2688,
			"type":"SCALAR"
		},
		{
			"bufferView":52,
			"componentType":5126,
			"count":684,
			"max":[
				2.0055367946624756,
				0.32999998331069946,
				2.062347888946533
			],
			"min":[
				-2.030179262161255,
				0,
				-1.406605839729309
			],
			"type":"VEC3"
		},
		{
			"bufferView":53,
			"componentType":5126,
			"count":684,
			"type":"VEC3"
		},
		{
			"bufferView":54,
			"componentType":5126,
			"count":684,
			"type":"VEC2"
		},
		{
			"bufferView":55,
			"componentType":5123,
			"count":1008,
			"type":"SCALAR"
		},
		{
			"bufferView":56,
			"componentType":5126,
			"count":252,
			"max":[
				2.0191233158111572,
				0.32999998331069946,
				2.062347888946533
			],
			"min":[
				-2.030179262161255,
				0.2199999988079071,
				-1.406605839729309
			],
			"type":"VEC3"
		},
		{
			"bufferView":57,
			"componentType":5126,
			"count":252,
			"type":"VEC3"
		},
		{
			"bufferView":58,
			"componentType":5126,
			"count":252,
			"type":"VEC2"
		},
		{
			"bufferView":59,
			"componentType":5123,
			"count":360,
			"type":"SCALAR"
		},
		{
			"bufferView":60,
			"componentType":5126,
			"count":1104,
			"max":[
				0.8104668259620667,
				0.4399999976158142,
				0.21771185100078583
			],
			"min":[
				-2.0782082080841064,
				0,
				-1.4040166139602661
			],
			"type":"VEC3"
		},
		{
			"bufferView":61,
			"componentType":5126,
			"count":1104,
			"type":"VEC3"
		},
		{
			"bufferView":62,
			"componentType":5126,
			"count":1104,
			"type":"VEC2"
		},
		{
			"bufferView":63,
			"componentType":5123,
			"count":1644,
			"type":"SCALAR"
		},
		{
			"bufferView":64,
			"componentType":5126,
			"count":480,
			"max":[
				1.3684920072555542,
				0.0820000022649765,
				1.4698843955993652
			],
			"min":[
				-1.3864545822143555,
				0.012000000104308128,
				-1.0424284934997559
			],
			"type":"VEC3"
		},
		{
			"bufferView":65,
			"componentType":5126,
			"count":480,
			"type":"VEC3"
		},
		{
			"bufferView":66,
			"componentType":5126,
			"count":480,
			"type":"VEC2"
		},
		{
			"bufferView":67,
			"componentType":5123,
			"count":720,
			"type":"SCALAR"
		},
		{
			"bufferView":68,
			"componentType":5126,
			"count":1488,
			"max":[
				1.4352339506149292,
				1.0299999713897705,
				0.8453941345214844
			],
			"min":[
				-1.3222501277923584,
				0.1340000033378601,
				-1.0260568857192993
			],
			"type":"VEC3"
		},
		{
			"bufferView":69,
			"componentType":5126,
			"count":1488,
			"type":"VEC3"
		},
		{
			"bufferView":70,
			"componentType":5126,
			"count":1488,
			"type":"VEC2"
		},
		{
			"bufferView":71,
			"componentType":5123,
			"count":2256,
			"type":"SCALAR"
		},
		{
			"bufferView":72,
			"componentType":5126,
			"count":648,
			"max":[
				-0.47923752665519714,
				0.550000011920929,
				-0.40321654081344604
			],
			"min":[
				-1.4052996635437012,
				0,
				-1.3425524234771729
			],
			"type":"VEC3"
		},
		{
			"bufferView":73,
			"componentType":5126,
			"count":648,
			"type":"VEC3"
		},
		{
			"bufferView":74,
			"componentType":5126,
			"count":648,
			"type":"VEC2"
		},
		{
			"bufferView":75,
			"componentType":5123,
			"count":972,
			"type":"SCALAR"
		},
		{
			"bufferView":76,
			"componentType":5126,
			"count":1740,
			"max":[
				2.6786692142486572,
				0.19593749940395355,
				2.458996534347534
			],
			"min":[
				-1.3585314750671387,
				0.03102327138185501,
				-2.3098273277282715
			],
			"type":"VEC3"
		},
		{
			"bufferView":77,
			"componentType":5126,
			"count":1740,
			"type":"VEC3"
		},
		{
			"bufferView":78,
			"componentType":5126,
			"count":1740,
			"type":"VEC2"
		},
		{
			"bufferView":79,
			"componentType":5123,
			"count":1740,
			"type":"SCALAR"
		},
		{
			"bufferView":80,
			"componentType":5126,
			"count":36,
			"max":[
				2.0057425498962402,
				0.7269999980926514,
				0.8127239942550659
			],
			"min":[
				-0.5793452262878418,
				0.10999999940395355,
				-0.07745473086833954
			],
			"type":"VEC3"
		},
		{
			"bufferView":81,
			"componentType":5126,
			"count":36,
			"type":"VEC3"
		},
		{
			"bufferView":82,
			"componentType":5126,
			"count":36,
			"type":"VEC2"
		},
		{
			"bufferView":83,
			"componentType":5123,
			"count":54,
			"type":"SCALAR"
		},
		{
			"bufferView":84,
			"componentType":5126,
			"count":1644,
			"max":[
				2.0393733978271484,
				0.4399999976158142,
				1.4375807046890259
			],
			"min":[
				-0.22852513194084167,
				0,
				-1.389976143836975
			],
			"type":"VEC3"
		},
		{
			"bufferView":85,
			"componentType":5126,
			"count":1644,
			"type":"VEC3"
		},
		{
			"bufferView":86,
			"componentType":5126,
			"count":1644,
			"type":"VEC2"
		},
		{
			"bufferView":87,
			"componentType":5123,
			"count":2448,
			"type":"SCALAR"
		},
		{
			"bufferView":88,
			"componentType":5126,
			"count":228,
			"max":[
				2.0057425498962402,
				0.2199999988079071,
				0.8127239942550659
			],
			"min":[
				1.744320273399353,
				0,
				0.5513018369674683
			],
			"type":"VEC3"
		},
		{
			"bufferView":89,
			"componentType":5126,
			"count":228,
			"type":"VEC3"
		},
		{
			"bufferView":90,
			"componentType":5126,
			"count":228,
			"type":"VEC2"
		},
		{
			"bufferView":91,
			"componentType":5123,
			"count":336,
			"type":"SCALAR"
		},
		{
			"bufferView":92,
			"componentType":5126,
			"count":24,
			"max":[
				0.5381619930267334,
				0.006000000052154064,
				0.5381619930267334
			],
			"min":[
				-0.5381619930267334,
				0.0020000000949949026,
				-0.5381619930267334
			],
			"type":"VEC3"
		},
		{
			"bufferView":93,
			"componentType":5126,
			"count":24,
			"type":"VEC3"
		},
		{
			"bufferView":94,
			"componentType":5126,
			"count":24,
			"type":"VEC2"
		},
		{
			"bufferView":95,
			"componentType":5123,
			"count":36,
			"type":"SCALAR"
		},
		{
			"bufferView":96,
			"componentType":5126,
			"count":84,
			"max":[
				1.2707107067108154,
				0.949999988079071,
				0.9707106351852417
			],
			"min":[
				-1.1707106828689575,
				0.3400000035762787,
				-1.0207107067108154
			],
			"type":"VEC3"
		},
		{
			"bufferView":97,
			"componentType":5126,
			"count":84,
			"type":"VEC3"
		},
		{
			"bufferView":98,
			"componentType":5126,
			"count":84,
			"type":"VEC2"
		},
		{
			"bufferView":99,
			"componentType":5123,
			"count":114,
			"type":"SCALAR"
		},
		{
			"bufferView":100,
			"componentType":5126,
			"count":48,
			"max":[
				0.5899999737739563,
				1.0199999809265137,
				0.8673205375671387
			],
			"min":[
				0.029999999329447746,
				0.9300000071525574,
				0.19699999690055847
			],
			"type":"VEC3"
		},
		{
			"bufferView":101,
			"componentType":5126,
			"count":48,
			"type":"VEC3"
		},
		{
			"bufferView":102,
			"componentType":5126,
			"count":48,
			"type":"VEC2"
		},
		{
			"bufferView":103,
			"componentType":5123,
			"count":66,
			"type":"SCALAR"
		},
		{
			"bufferView":104,
			"componentType":5126,
			"count":933,
			"max":[
				0.5376285314559937,
				0.6075000166893005,
				0.10249999910593033
			],
			"min":[
				-0.5024999976158142,
				0,
				-0.711652398109436
			],
			"type":"VEC3"
		},
		{
			"bufferView":105,
			"componentType":5126,
			"count":933,
			"type":"VEC3"
		},
		{
			"bufferView":106,
			"componentType":5126,
			"count":933,
			"type":"VEC2"
		},
		{
			"bufferView":107,
			"componentType":5123,
			"count":1896,
			"type":"SCALAR"
		},
		{
			"bufferView":108,
			"componentType":5126,
			"count":986,
			"max":[
				0.4235000014305115,
				0.8154000043869019,
				-0.0007750000222586095
			],
			"min":[
				-0.39922499656677246,
				0.4000000059604645,
				-0.4235000014305115
			],
			"type":"VEC3"
		},
		{
			"bufferView":109,
			"componentType":5126,
			"count":986,
			"type":"VEC3"
		},
		{
			"bufferView":110,
			"componentType":5126,
			"count":986,
			"type":"VEC2"
		},
		{
			"bufferView":111,
			"componentType":5123,
			"count":1476,
			"type":"SCALAR"
		},
		{
			"bufferView":112,
			"componentType":5126,
			"count":3558,
			"max":[
				0.5118356943130493,
				0.576449990272522,
				0.08461250364780426
			],
			"min":[
				-0.48461249470710754,
				0.3499999940395355,
				-0.5118356943130493
			],
			"type":"VEC3"
		},
		{
			"bufferView":113,
			"componentType":5126,
			"count":3558,
			"type":"VEC3"
		},
		{
			"bufferView":114,
			"componentType":5126,
			"count":3558,
			"type":"VEC2"
		},
		{
			"bufferView":115,
			"componentType":5123,
			"count":5328,
			"type":"SCALAR"
		}
	],
	"bufferViews":[
		{
			"buffer":0,
			"byteLength":14112,
			"byteOffset":0,
			"target":34962
		},
		{
			"buffer":0,
			"byteLength":14112,
			"byteOffset":14112,
			"target":34962
		},
		{
			"buffer":0,
			"byteLength":9408,
			"byteOffset":28224,
			"target":34962
		},
		{
			"buffer":0,
			"byteLength":3720,
			"byteOffset":37632,
			"target":34963
		},
		{
			"buffer":0,
			"byteLength":118080,
			"byteOffset":41352,
			"target":34962
		},
		{
			"buffer":0,
			"byteLength":118080,
			"byteOffset":159432,
			"target":34962
		},
		{
			"buffer":0,
			"byteLength":78720,
			"byteOffset":277512,
			"target":34962
		},
		{
			"buffer":0,
			"byteLength":29520,
			"byteOffset":356232,
			"target":34963
		},
		{
			"buffer":0,
			"byteLength":251712,
			"byteOffset":385752,
			"target":34962
		},
		{
			"buffer":0,
			"byteLength":251712,
			"byteOffset":637464,
			"target":34962
		},
		{
			"buffer":0,
			"byteLength":167808,
			"byteOffset":889176,
			"target":34962
		},
		{
			"buffer":0,
			"byteLength":62928,
			"byteOffset":1056984,
			"target":34963
		},
		{
			"buffer":0,
			"byteLength":27408,
			"byteOffset":1119912,
			"target":34962
		},
		{
			"buffer":0,
			"byteLength":27408,
			"byteOffset":1147320,
			"target":34962
		},
		{
			"buffer":0,
			"byteLength":18272,
			"byteOffset":1174728,
			"target":34962
		},
		{
			"buffer":0,
			"byteLength":8892,
			"byteOffset":1193000,
			"target":34963
		},
		{
			"buffer":0,
			"byteLength":34656,
			"byteOffset":1201892,
			"target":34962
		},
		{
			"buffer":0,
			"byteLength":34656,
			"byteOffset":1236548,
			"target":34962
		},
		{
			"buffer":0,
			"byteLength":23104,
			"byteOffset":1271204,
			"target":34962
		},
		{
			"buffer":0,
			"byteLength":6192,
			"byteOffset":1294308,
			"target":34963
		},
		{
			"buffer":0,
			"byteLength":13968,
			"byteOffset":1300500,
			"target":34962
		},
		{
			"buffer":0,
			"byteLength":13968,
			"byteOffset":1314468,
			"target":34962
		},
		{
			"buffer":0,
			"byteLength":9312,
			"byteOffset":1328436,
			"target":34962
		},
		{
			"buffer":0,
			"byteLength":3468,
			"byteOffset":1337748,
			"target":34963
		},
		{
			"buffer":0,
			"byteLength":164736,
			"byteOffset":1341216,
			"target":34962
		},
		{
			"buffer":0,
			"byteLength":164736,
			"byteOffset":1505952,
			"target":34962
		},
		{
			"buffer":0,
			"byteLength":109824,
			"byteOffset":1670688,
			"target":34962
		},
		{
			"buffer":0,
			"byteLength":41184,
			"byteOffset":1780512,
			"target":34963
		},
		{
			"buffer":0,
			"byteLength":15552,
			"byteOffset":1821696,
			"target":34962
		},
		{
			"buffer":0,
			"byteLength":15552,
			"byteOffset":1837248,
			"target":34962
		},
		{
			"buffer":0,
			"byteLength":10368,
			"byteOffset":1852800,
			"target":34962
		},
		{
			"buffer":0,
			"byteLength":3888,
			"byteOffset":1863168,
			"target":34963
		},
		{
			"buffer":0,
			"byteLength":12168,
			"byteOffset":1867056,
			"target":34962
		},
		{
			"buffer":0,
			"byteLength":12168,
			"byteOffset":1879224,
			"target":34962
		},
		{
			"buffer":0,
			"byteLength":8112,
			"byteOffset":1891392,
			"target":34962
		},
		{
			"buffer":0,
			"byteLength":2784,
			"byteOffset":1899504,
			"target":34963
		},
		{
			"buffer":0,
			"byteLength":20448,
			"byteOffset":1902288,
			"target":34962
		},
		{
			"buffer":0,
			"byteLength":20448,
			"byteOffset":1922736,
			"target":34962
		},
		{
			"buffer":0,
			"byteLength":13632,
			"byteOffset":1943184,
			"target":34962
		},
		{
			"buffer":0,
			"byteLength":5112,
			"byteOffset":1956816,
			"target":34963
		},
		{
			"buffer":0,
			"byteLength":669888,
			"byteOffset":1961928,
			"target":34962
		},
		{
			"buffer":0,
			"byteLength":669888,
			"byteOffset":2631816,
			"target":34962
		},
		{
			"buffer":0,
			"byteLength":446592,
			"byteOffset":3301704,
			"target":34962
		},
		{
			"buffer":0,
			"byteLength":167904,
			"byteOffset":3748296,
			"target":34963
		},
		{
			"buffer":0,
			"byteLength":26352,
			"byteOffset":3916200,
			"target":34962
		},
		{
			"buffer":0,
			"byteLength":26352,
			"byteOffset":3942552,
			"target":34962
		},
		{
			"buffer":0,
			"byteLength":17568,
			"byteOffset":3968904,
			"target":34962
		},
		{
			"buffer":0,
			"byteLength":6552,
			"byteOffset":3986472,
			"target":34963
		},
		{
			"buffer":0,
			"byteLength":29568,
			"byteOffset":3993024,
			"target":34962
		},
		{
			"buffer":0,
			"byteLength":29568,
			"byteOffset":4022592,
			"target":34962
		},
		{
			"buffer":0,
			"byteLength":19712,
			"byteOffset":4052160,
			"target":34962
		},
		{
			"buffer":0,
			"byteLength":5376,
			"byteOffset":4071872,
			"target":34963
		},
		{
			"buffer":0,
			"byteLength":8208,
			"byteOffset":4077248,
			"target":34962
		},
		{
			"buffer":0,
			"byteLength":8208,
			"byteOffset":4085456,
			"target":34962
		},
		{
			"buffer":0,
			"byteLength":5472,
			"byteOffset":4093664,
			"target":34962
		},
		{
			"buffer":0,
			"byteLength":2016,
			"byteOffset":4099136,
			"target":34963
		},
		{
			"buffer":0,
			"byteLength":3024,
			"byteOffset":4101152,
			"target":34962
		},
		{
			"buffer":0,
			"byteLength":3024,
			"byteOffset":4104176,
			"target":34962
		},
		{
			"buffer":0,
			"byteLength":2016,
			"byteOffset":4107200,
			"target":34962
		},
		{
			"buffer":0,
			"byteLength":720,
			"byteOffset":4109216,
			"target":34963
		},
		{
			"buffer":0,
			"byteLength":13248,
			"byteOffset":4109936,
			"target":34962
		},
		{
			"buffer":0,
			"byteLength":13248,
			"byteOffset":4123184,
			"target":34962
		},
		{
			"buffer":0,
			"byteLength":8832,
			"byteOffset":4136432,
			"target":34962
		},
		{
			"buffer":0,
			"byteLength":3288,
			"byteOffset":4145264,
			"target":34963
		},
		{
			"buffer":0,
			"byteLength":5760,
			"byteOffset":4148552,
			"target":34962
		},
		{
			"buffer":0,
			"byteLength":5760,
			"byteOffset":4154312,
			"target":34962
		},
		{
			"buffer":0,
			"byteLength":3840,
			"byteOffset":4160072,
			"target":34962
		},
		{
			"buffer":0,
			"byteLength":1440,
			"byteOffset":4163912,
			"target":34963
		},
		{
			"buffer":0,
			"byteLength":17856,
			"byteOffset":4165352,
			"target":34962
		},
		{
			"buffer":0,
			"byteLength":17856,
			"byteOffset":4183208,
			"target":34962
		},
		{
			"buffer":0,
			"byteLength":11904,
			"byteOffset":4201064,
			"target":34962
		},
		{
			"buffer":0,
			"byteLength":4512,
			"byteOffset":4212968,
			"target":34963
		},
		{
			"buffer":0,
			"byteLength":7776,
			"byteOffset":4217480,
			"target":34962
		},
		{
			"buffer":0,
			"byteLength":7776,
			"byteOffset":4225256,
			"target":34962
		},
		{
			"buffer":0,
			"byteLength":5184,
			"byteOffset":4233032,
			"target":34962
		},
		{
			"buffer":0,
			"byteLength":1944,
			"byteOffset":4238216,
			"target":34963
		},
		{
			"buffer":0,
			"byteLength":20880,
			"byteOffset":4240160,
			"target":34962
		},
		{
			"buffer":0,
			"byteLength":20880,
			"byteOffset":4261040,
			"target":34962
		},
		{
			"buffer":0,
			"byteLength":13920,
			"byteOffset":4281920,
			"target":34962
		},
		{
			"buffer":0,
			"byteLength":3480,
			"byteOffset":4295840,
			"target":34963
		},
		{
			"buffer":0,
			"byteLength":432,
			"byteOffset":4299320,
			"target":34962
		},
		{
			"buffer":0,
			"byteLength":432,
			"byteOffset":4299752,
			"target":34962
		},
		{
			"buffer":0,
			"byteLength":288,
			"byteOffset":4300184,
			"target":34962
		},
		{
			"buffer":0,
			"byteLength":108,
			"byteOffset":4300472,
			"target":34963
		},
		{
			"buffer":0,
			"byteLength":19728,
			"byteOffset":4300580,
			"target":34962
		},
		{
			"buffer":0,
			"byteLength":19728,
			"byteOffset":4320308,
			"target":34962
		},
		{
			"buffer":0,
			"byteLength":13152,
			"byteOffset":4340036,
			"target":34962
		},
		{
			"buffer":0,
			"byteLength":4896,
			"byteOffset":4353188,
			"target":34963
		},
		{
			"buffer":0,
			"byteLength":2736,
			"byteOffset":4358084,
			"target":34962
		},
		{
			"buffer":0,
			"byteLength":2736,
			"byteOffset":4360820,
			"target":34962
		},
		{
			"buffer":0,
			"byteLength":1824,
			"byteOffset":4363556,
			"target":34962
		},
		{
			"buffer":0,
			"byteLength":672,
			"byteOffset":4365380,
			"target":34963
		},
		{
			"buffer":0,
			"byteLength":288,
			"byteOffset":4366052,
			"target":34962
		},
		{
			"buffer":0,
			"byteLength":288,
			"byteOffset":4366340,
			"target":34962
		},
		{
			"buffer":0,
			"byteLength":192,
			"byteOffset":4366628,
			"target":34962
		},
		{
			"buffer":0,
			"byteLength":72,
			"byteOffset":4366820,
			"target":34963
		},
		{
			"buffer":0,
			"byteLength":1008,
			"byteOffset":4366892,
			"target":34962
		},
		{
			"buffer":0,
			"byteLength":1008,
			"byteOffset":4367900,
			"target":34962
		},
		{
			"buffer":0,
			"byteLength":672,
			"byteOffset":4368908,
			"target":34962
		},
		{
			"buffer":0,
			"byteLength":228,
			"byteOffset":4369580,
			"target":34963
		},
		{
			"buffer":0,
			"byteLength":576,
			"byteOffset":4369808,
			"target":34962
		},
		{
			"buffer":0,
			"byteLength":576,
			"byteOffset":4370384,
			"target":34962
		},
		{
			"buffer":0,
			"byteLength":384,
			"byteOffset":4370960,
			"target":34962
		},
		{
			"buffer":0,
			"byteLength":132,
			"byteOffset":4371344,
			"target":34963
		},
		{
			"buffer":0,
			"byteLength":11196,
			"byteOffset":4371476,
			"target":34962
		},
		{
			"buffer":0,
			"byteLength":11196,
			"byteOffset":4382672,
			"target":34962
		},
		{
			"buffer":0,
			"byteLength":7464,
			"byteOffset":4393868,
			"target":34962
		},
		{
			"buffer":0,
			"byteLength":3792,
			"byteOffset":4401332,
			"target":34963
		},
		{
			"buffer":0,
			"byteLength":11832,
			"byteOffset":4405124,
			"target":34962
		},
		{
			"buffer":0,
			"byteLength":11832,
			"byteOffset":4416956,
			"target":34962
		},
		{
			"buffer":0,
			"byteLength":7888,
			"byteOffset":4428788,
			"target":34962
		},
		{
			"buffer":0,
			"byteLength":2952,
			"byteOffset":4436676,
			"target":34963
		},
		{
			"buffer":0,
			"byteLength":42696,
			"byteOffset":4439628,
			"target":34962
		},
		{
			"buffer":0,
			"byteLength":42696,
			"byteOffset":4482324,
			"target":34962
		},
		{
			"buffer":0,
			"byteLength":28464,
			"byteOffset":4525020,
			"target":34962
		},
		{
			"buffer":0,
			"byteLength":10656,
			"byteOffset":4553484,
			"target":34963
		}
	],
	"samplers":[
		{
			"magFilter":9729,
			"minFilter":9987
		}
	],
	"buffers":[
		{
			"byteLength":4564140,
			"uri":"city_east_capital.bin"
		}
	]
}
