{
	"asset":{
		"generator":"Khronos glTF Blender I/O v5.2.40",
		"version":"2.0"
	},
	"scene":0,
	"scenes":[
		{
			"name":"Scene",
			"nodes":[
				0
			]
		}
	],
	"nodes":[
		{
			"mesh":0,
			"name":"little_belt_span"
		}
	],
	"materials":[
		{
			"doubleSided":true,
			"name":"city_pavement",
			"pbrMetallicRoughness":{
				"baseColorFactor":[
					0.26499998569488525,
					0.2549999952316284,
					0.22499999403953552,
					1
				],
				"metallicFactor":0,
				"roughnessFactor":0.9599999785423279
			}
		},
		{
			"doubleSided":true,
			"name":"City atlas | plaster \u00b7 limestone \u00b7 terracotta \u00b7 slate",
			"normalTexture":{
				"index":0,
				"scale":0.6499999761581421
			},
			"pbrMetallicRoughness":{
				"baseColorTexture":{
					"index":1
				},
				"metallicFactor":0,
				"roughnessFactor":0.8600000143051147
			}
		},
		{
			"doubleSided":true,
			"name":"bridge_steel",
			"pbrMetallicRoughness":{
				"baseColorFactor":[
					0.23499999940395355,
					0.2849999964237213,
					0.27000001072883606,
					1
				],
				"metallicFactor":0.3799999952316284,
				"roughnessFactor":0.6700000166893005
			}
		},
		{
			"doubleSided":true,
			"name":"city_metal",
			"pbrMetallicRoughness":{
				"baseColorFactor":[
					0.2800000011920929,
					0.3400000035762787,
					0.3149999976158142,
					1
				],
				"metallicFactor":0.20000000298023224,
				"roughnessFactor":0.6800000071525574
			}
		}
	],
	"meshes":[
		{
			"name":"part.373",
			"primitives":[
				{
					"attributes":{
						"POSITION":0,
						"NORMAL":1,
						"TEXCOORD_0":2,
						"TANGENT":3,
						"COLOR_0":4
					},
					"indices":5,
					"material":0
				},
				{
					"attributes":{
						"POSITION":6,
						"NORMAL":7,
						"TEXCOORD_0":8,
						"TANGENT":9,
						"COLOR_0":10
					},
					"indices":11,
					"material":1
				},
				{
					"attributes":{
						"POSITION":12,
						"NORMAL":13,
						"TEXCOORD_0":14,
						"TANGENT":15,
						"COLOR_0":16
					},
					"indices":17,
					"material":2
				},
				{
					"attributes":{
						"POSITION":18,
						"NORMAL":19,
						"TEXCOORD_0":20,
						"TANGENT":21,
						"COLOR_0":22
					},
					"indices":23,
					"material":3
				}
			]
		}
	],
	"textures":[
		{
			"sampler":0,
			"source":0
		},
		{
			"sampler":0,
			"source":1
		}
	],
	"images":[
		{
			"mimeType":"image/png",
			"name":"material_atlas_normal.png",
			"uri":"../mini_city/textures/material_atlas_normal.png"
		},
		{
			"mimeType":"image/png",
			"name":"mini_city_material_atlas",
			"uri":"../mini_city/textures/material_atlas.png"
		}
	],
	"accessors":[
		{
			"bufferView":0,
			"componentType":5126,
			"count":24,
			"max":[
				0.9897159934043884,
				0,
				0.0949999988079071
			],
			"min":[
				0.010284035466611385,
				-0.009999999776482582,
				-0.0949999988079071
			],
			"type":"VEC3"
		},
		{
			"bufferView":1,
			"componentType":5126,
			"count":24,
			"type":"VEC3"
		},
		{
			"bufferView":2,
			"componentType":5126,
			"count":24,
			"type":"VEC2"
		},
		{
			"bufferView":3,
			"componentType":5126,
			"count":24,
			"type":"VEC4"
		},
		{
			"bufferView":4,
			"componentType":5126,
			"count":24,
			"type":"VEC3"
		},
		{
			"bufferView":5,
			"componentType":5123,
			"count":36,
			"type":"SCALAR"
		},
		{
			"bufferView":6,
			"componentType":5126,
			"count":144,
			"max":[
				0.9897159934043884,
				0.0029999997932463884,
				0.12300000339746475
			],
			"min":[
				0.010284035466611385,
				-0.07900000363588333,
				-0.12300000339746475
			],
			"type":"VEC3"
		},
		{
			"bufferView":7,
			"componentType":5126,
			"count":144,
			"type":"VEC3"
		},
		{
			"bufferView":8,
			"componentType":5126,
			"count":144,
			"type":"VEC2"
		},
		{
			"bufferView":9,
			"componentType":5126,
			"count":144,
			"type":"VEC4"
		},
		{
			"bufferView":10,
			"componentType":5126,
			"count":144,
			"type":"VEC3"
		},
		{
			"bufferView":11,
			"componentType":5123,
			"count":216,
			"type":"SCALAR"
		},
		{
			"bufferView":12,
			"componentType":5126,
			"count":11904,
			"max":[
				1,
				0.12800000607967377,
				0.11315000057220459
			],
			"min":[
				0,
				-0.01345854066312313,
				-0.11315000057220459
			],
			"type":"VEC3"
		},
		{
			"bufferView":13,
			"componentType":5126,
			"count":11904,
			"type":"VEC3"
		},
		{
			"bufferView":14,
			"componentType":5126,
			"count":11904,
			"type":"VEC2"
		},
		{
			"bufferView":15,
			"componentType":5126,
			"count":11904,
			"type":"VEC4"
		},
		{
			"bufferView":16,
			"componentType":5126,
			"count":11904,
			"type":"VEC3"
		},
		{
			"bufferView":17,
			"componentType":5123,
			"count":20052,
			"type":"SCALAR"
		},
		{
			"bufferView":18,
			"componentType":5126,
			"count":6912,
			"max":[
				0.9967679381370544,
				0.12403923273086548,
				0.11400000005960464
			],
			"min":[
				0.003232125425711274,
				0.012960770167410374,
				-0.11400000005960464
			],
			"type":"VEC3"
		},
		{
			"bufferView":19,
			"componentType":5126,
			"count":6912,
			"type":"VEC3"
		},
		{
			"bufferView":20,
			"componentType":5126,
			"count":6912,
			"type":"VEC2"
		},
		{
			"bufferView":21,
			"componentType":5126,
			"count":6912,
			"type":"VEC4"
		},
		{
			"bufferView":22,
			"componentType":5126,
			"count":6912,
			"type":"VEC3"
		},
		{
			"bufferView":23,
			"componentType":5123,
			"count":13824,
			"type":"SCALAR"
		}
	],
	"bufferViews":[
		{
			"buffer":0,
			"byteLength":288,
			"byteOffset":0,
			"target":34962
		},
		{
			"buffer":0,
			"byteLength":288,
			"byteOffset":288,
			"target":34962
		},
		{
			"buffer":0,
			"byteLength":192,
			"byteOffset":576,
			"target":34962
		},
		{
			"buffer":0,
			"byteLength":384,
			"byteOffset":768,
			"target":34962
		},
		{
			"buffer":0,
			"byteLength":288,
			"byteOffset":1152,
			"target":34962
		},
		{
			"buffer":0,
			"byteLength":72,
			"byteOffset":1440,
			"target":34963
		},
		{
			"buffer":0,
			"byteLength":1728,
			"byteOffset":1512,
			"target":34962
		},
		{
			"buffer":0,
			"byteLength":1728,
			"byteOffset":3240,
			"target":34962
		},
		{
			"buffer":0,
			"byteLength":1152,
			"byteOffset":4968,
			"target":34962
		},
		{
			"buffer":0,
			"byteLength":2304,
			"byteOffset":6120,
			"target":34962
		},
		{
			"buffer":0,
			"byteLength":1728,
			"byteOffset":8424,
			"target":34962
		},
		{
			"buffer":0,
			"byteLength":432,
			"byteOffset":10152,
			"target":34963
		},
		{
			"buffer":0,
			"byteLength":142848,
			"byteOffset":10584,
			"target":34962
		},
		{
			"buffer":0,
			"byteLength":142848,
			"byteOffset":153432,
			"target":34962
		},
		{
			"buffer":0,
			"byteLength":95232,
			"byteOffset":296280,
			"target":34962
		},
		{
			"buffer":0,
			"byteLength":190464,
			"byteOffset":391512,
			"target":34962
		},
		{
			"buffer":0,
			"byteLength":142848,
			"byteOffset":581976,
			"target":34962
		},
		{
			"buffer":0,
			"byteLength":40104,
			"byteOffset":724824,
			"target":34963
		},
		{
			"buffer":0,
			"byteLength":82944,
			"byteOffset":764928,
			"target":34962
		},
		{
			"buffer":0,
			"byteLength":82944,
			"byteOffset":847872,
			"target":34962
		},
		{
			"buffer":0,
			"byteLength":55296,
			"byteOffset":930816,
			"target":34962
		},
		{
			"buffer":0,
			"byteLength":110592,
			"byteOffset":986112,
			"target":34962
		},
		{
			"buffer":0,
			"byteLength":82944,
			"byteOffset":1096704,
			"target":34962
		},
		{
			"buffer":0,
			"byteLength":27648,
			"byteOffset":1179648,
			"target":34963
		}
	],
	"samplers":[
		{
			"magFilter":9729,
			"minFilter":9987,
			"wrapS":33071,
			"wrapT":33071
		}
	],
	"buffers":[
		{
			"byteLength":1207296,
			"uri":"little_belt_span.bin"
		}
	]
}
