{
	"asset":{
		"generator":"Khronos glTF Blender I/O v5.2.40",
		"version":"2.0"
	},
	"scene":0,
	"scenes":[
		{
			"name":"Scene",
			"nodes":[
				0
			]
		}
	],
	"nodes":[
		{
			"mesh":0,
			"name":"little_belt_end"
		}
	],
	"materials":[
		{
			"doubleSided":true,
			"name":"city_pavement",
			"pbrMetallicRoughness":{
				"baseColorFactor":[
					0.26499998569488525,
					0.2549999952316284,
					0.22499999403953552,
					1
				],
				"metallicFactor":0,
				"roughnessFactor":0.9599999785423279
			}
		},
		{
			"doubleSided":true,
			"name":"City atlas | plaster \u00b7 limestone \u00b7 terracotta \u00b7 slate",
			"normalTexture":{
				"index":0,
				"scale":0.6499999761581421
			},
			"pbrMetallicRoughness":{
				"baseColorTexture":{
					"index":1
				},
				"metallicFactor":0,
				"roughnessFactor":0.8600000143051147
			}
		},
		{
			"doubleSided":true,
			"name":"bridge_steel",
			"pbrMetallicRoughness":{
				"baseColorFactor":[
					0.23499999940395355,
					0.2849999964237213,
					0.27000001072883606,
					1
				],
				"metallicFactor":0.3799999952316284,
				"roughnessFactor":0.6700000166893005
			}
		},
		{
			"doubleSided":true,
			"name":"city_glass",
			"pbrMetallicRoughness":{
				"baseColorFactor":[
					0.10499999672174454,
					0.14499999582767487,
					0.1599999964237213,
					1
				],
				"metallicFactor":0.07999999821186066,
				"roughnessFactor":0.3700000047683716
			}
		}
	],
	"meshes":[
		{
			"name":"part.926",
			"primitives":[
				{
					"attributes":{
						"POSITION":0,
						"NORMAL":1,
						"TEXCOORD_0":2,
						"TANGENT":3,
						"COLOR_0":4
					},
					"indices":5,
					"material":0
				},
				{
					"attributes":{
						"POSITION":6,
						"NORMAL":7,
						"TEXCOORD_0":8,
						"TANGENT":9,
						"COLOR_0":10
					},
					"indices":11,
					"material":1
				},
				{
					"attributes":{
						"POSITION":12,
						"NORMAL":13,
						"TEXCOORD_0":14,
						"TANGENT":15,
						"COLOR_0":16
					},
					"indices":17,
					"material":2
				},
				{
					"attributes":{
						"POSITION":18,
						"NORMAL":19,
						"TEXCOORD_0":20,
						"TANGENT":21,
						"COLOR_0":22
					},
					"indices":23,
					"material":3
				}
			]
		}
	],
	"textures":[
		{
			"sampler":0,
			"source":0
		},
		{
			"sampler":0,
			"source":1
		}
	],
	"images":[
		{
			"mimeType":"image/png",
			"name":"material_atlas_normal.png",
			"uri":"../mini_city/textures/material_atlas_normal.png"
		},
		{
			"mimeType":"image/png",
			"name":"mini_city_material_atlas",
			"uri":"../mini_city/textures/material_atlas.png"
		}
	],
	"accessors":[
		{
			"bufferView":0,
			"componentType":5126,
			"count":24,
			"max":[
				1,
				0,
				0.0949999988079071
			],
			"min":[
				0.00159744406118989,
				-0.009999999776482582,
				-0.0949999988079071
			],
			"type":"VEC3"
		},
		{
			"bufferView":1,
			"componentType":5126,
			"count":24,
			"type":"VEC3"
		},
		{
			"bufferView":2,
			"componentType":5126,
			"count":24,
			"type":"VEC2"
		},
		{
			"bufferView":3,
			"componentType":5126,
			"count":24,
			"type":"VEC4"
		},
		{
			"bufferView":4,
			"componentType":5126,
			"count":24,
			"type":"VEC3"
		},
		{
			"bufferView":5,
			"componentType":5123,
			"count":36,
			"type":"SCALAR"
		},
		{
			"bufferView":6,
			"componentType":5126,
			"count":452,
			"max":[
				1,
				0.054999999701976776,
				0.13850000500679016
			],
			"min":[
				0.00159744406118989,
				-0.09399999678134918,
				-0.13850000500679016
			],
			"type":"VEC3"
		},
		{
			"bufferView":7,
			"componentType":5126,
			"count":452,
			"type":"VEC3"
		},
		{
			"bufferView":8,
			"componentType":5126,
			"count":452,
			"type":"VEC2"
		},
		{
			"bufferView":9,
			"componentType":5126,
			"count":452,
			"type":"VEC4"
		},
		{
			"bufferView":10,
			"componentType":5126,
			"count":452,
			"type":"VEC3"
		},
		{
			"bufferView":11,
			"componentType":5123,
			"count":624,
			"type":"SCALAR"
		},
		{
			"bufferView":12,
			"componentType":5126,
			"count":2448,
			"max":[
				0.7748602628707886,
				0.11599999666213989,
				0.11749999970197678
			],
			"min":[
				0,
				0.004000000189989805,
				-0.11749999970197678
			],
			"type":"VEC3"
		},
		{
			"bufferView":13,
			"componentType":5126,
			"count":2448,
			"type":"VEC3"
		},
		{
			"bufferView":14,
			"componentType":5126,
			"count":2448,
			"type":"VEC2"
		},
		{
			"bufferView":15,
			"componentType":5126,
			"count":2448,
			"type":"VEC4"
		},
		{
			"bufferView":16,
			"componentType":5126,
			"count":2448,
			"type":"VEC3"
		},
		{
			"bufferView":17,
			"componentType":5123,
			"count":4992,
			"type":"SCALAR"
		},
		{
			"bufferView":18,
			"componentType":5126,
			"count":48,
			"max":[
				0.7728633880615234,
				0.11299999803304672,
				0.11550000309944153
			],
			"min":[
				0.763877809047699,
				0.0989999994635582,
				-0.11550000309944153
			],
			"type":"VEC3"
		},
		{
			"bufferView":19,
			"componentType":5126,
			"count":48,
			"type":"VEC3"
		},
		{
			"bufferView":20,
			"componentType":5126,
			"count":48,
			"type":"VEC2"
		},
		{
			"bufferView":21,
			"componentType":5126,
			"count":48,
			"type":"VEC4"
		},
		{
			"bufferView":22,
			"componentType":5126,
			"count":48,
			"type":"VEC3"
		},
		{
			"bufferView":23,
			"componentType":5123,
			"count":72,
			"type":"SCALAR"
		}
	],
	"bufferViews":[
		{
			"buffer":0,
			"byteLength":288,
			"byteOffset":0,
			"target":34962
		},
		{
			"buffer":0,
			"byteLength":288,
			"byteOffset":288,
			"target":34962
		},
		{
			"buffer":0,
			"byteLength":192,
			"byteOffset":576,
			"target":34962
		},
		{
			"buffer":0,
			"byteLength":384,
			"byteOffset":768,
			"target":34962
		},
		{
			"buffer":0,
			"byteLength":288,
			"byteOffset":1152,
			"target":34962
		},
		{
			"buffer":0,
			"byteLength":72,
			"byteOffset":1440,
			"target":34963
		},
		{
			"buffer":0,
			"byteLength":5424,
			"byteOffset":1512,
			"target":34962
		},
		{
			"buffer":0,
			"byteLength":5424,
			"byteOffset":6936,
			"target":34962
		},
		{
			"buffer":0,
			"byteLength":3616,
			"byteOffset":12360,
			"target":34962
		},
		{
			"buffer":0,
			"byteLength":7232,
			"byteOffset":15976,
			"target":34962
		},
		{
			"buffer":0,
			"byteLength":5424,
			"byteOffset":23208,
			"target":34962
		},
		{
			"buffer":0,
			"byteLength":1248,
			"byteOffset":28632,
			"target":34963
		},
		{
			"buffer":0,
			"byteLength":29376,
			"byteOffset":29880,
			"target":34962
		},
		{
			"buffer":0,
			"byteLength":29376,
			"byteOffset":59256,
			"target":34962
		},
		{
			"buffer":0,
			"byteLength":19584,
			"byteOffset":88632,
			"target":34962
		},
		{
			"buffer":0,
			"byteLength":39168,
			"byteOffset":108216,
			"target":34962
		},
		{
			"buffer":0,
			"byteLength":29376,
			"byteOffset":147384,
			"target":34962
		},
		{
			"buffer":0,
			"byteLength":9984,
			"byteOffset":176760,
			"target":34963
		},
		{
			"buffer":0,
			"byteLength":576,
			"byteOffset":186744,
			"target":34962
		},
		{
			"buffer":0,
			"byteLength":576,
			"byteOffset":187320,
			"target":34962
		},
		{
			"buffer":0,
			"byteLength":384,
			"byteOffset":187896,
			"target":34962
		},
		{
			"buffer":0,
			"byteLength":768,
			"byteOffset":188280,
			"target":34962
		},
		{
			"buffer":0,
			"byteLength":576,
			"byteOffset":189048,
			"target":34962
		},
		{
			"buffer":0,
			"byteLength":144,
			"byteOffset":189624,
			"target":34963
		}
	],
	"samplers":[
		{
			"magFilter":9729,
			"minFilter":9987,
			"wrapS":33071,
			"wrapT":33071
		}
	],
	"buffers":[
		{
			"byteLength":189768,
			"uri":"little_belt_end.bin"
		}
	]
}
