{
	"asset":{
		"generator":"Khronos glTF Blender I/O v5.2.40",
		"version":"2.0"
	},
	"scene":0,
	"scenes":[
		{
			"name":"Scene",
			"nodes":[
				0
			]
		}
	],
	"nodes":[
		{
			"mesh":0,
			"name":"shore_terminal"
		}
	],
	"materials":[
		{
			"doubleSided":true,
			"name":"City atlas | plaster \u00b7 limestone \u00b7 terracotta \u00b7 slate",
			"normalTexture":{
				"index":0,
				"scale":0.6499999761581421
			},
			"pbrMetallicRoughness":{
				"baseColorTexture":{
					"index":1
				},
				"metallicFactor":0,
				"roughnessFactor":0.8600000143051147
			}
		},
		{
			"doubleSided":true,
			"name":"city_timber",
			"pbrMetallicRoughness":{
				"baseColorFactor":[
					0.27000001072883606,
					0.14499999582767487,
					0.08500000089406967,
					1
				],
				"metallicFactor":0,
				"roughnessFactor":0.8799999952316284
			}
		},
		{
			"doubleSided":true,
			"name":"city_glass",
			"pbrMetallicRoughness":{
				"baseColorFactor":[
					0.10499999672174454,
					0.14499999582767487,
					0.1599999964237213,
					1
				],
				"metallicFactor":0.07999999821186066,
				"roughnessFactor":0.3700000047683716
			}
		},
		{
			"doubleSided":true,
			"name":"city_metal",
			"pbrMetallicRoughness":{
				"baseColorFactor":[
					0.2800000011920929,
					0.3400000035762787,
					0.3149999976158142,
					1
				],
				"metallicFactor":0.20000000298023224,
				"roughnessFactor":0.6800000071525574
			}
		},
		{
			"doubleSided":true,
			"name":"marine_black",
			"pbrMetallicRoughness":{
				"baseColorFactor":[
					0.041999999433755875,
					0.04699999839067459,
					0.04699999839067459,
					1
				],
				"metallicFactor":0.03999999910593033,
				"roughnessFactor":0.8799999952316284
			}
		}
	],
	"meshes":[
		{
			"name":"part",
			"primitives":[
				{
					"attributes":{
						"POSITION":0,
						"NORMAL":1,
						"TEXCOORD_0":2,
						"TANGENT":3,
						"COLOR_0":4
					},
					"indices":5,
					"material":0
				},
				{
					"attributes":{
						"POSITION":6,
						"NORMAL":7,
						"TEXCOORD_0":8,
						"TANGENT":9,
						"COLOR_0":10
					},
					"indices":11,
					"material":1
				},
				{
					"attributes":{
						"POSITION":12,
						"NORMAL":13,
						"TEXCOORD_0":14,
						"TANGENT":15,
						"COLOR_0":16
					},
					"indices":17,
					"material":2
				},
				{
					"attributes":{
						"POSITION":18,
						"NORMAL":19,
						"TEXCOORD_0":20,
						"TANGENT":21,
						"COLOR_0":22
					},
					"indices":23,
					"material":3
				},
				{
					"attributes":{
						"POSITION":24,
						"NORMAL":25,
						"TEXCOORD_0":26,
						"TANGENT":27,
						"COLOR_0":28
					},
					"indices":29,
					"material":4
				}
			]
		}
	],
	"textures":[
		{
			"sampler":0,
			"source":0
		},
		{
			"sampler":0,
			"source":1
		}
	],
	"images":[
		{
			"mimeType":"image/png",
			"name":"material_atlas_normal.png",
			"uri":"../mini_city/textures/material_atlas_normal.png"
		},
		{
			"mimeType":"image/png",
			"name":"mini_city_material_atlas",
			"uri":"../mini_city/textures/material_atlas.png"
		}
	],
	"accessors":[
		{
			"bufferView":0,
			"componentType":5126,
			"count":3171,
			"max":[
				0.5,
				0.1889999955892563,
				0.2942500114440918
			],
			"min":[
				-0.5,
				0,
				-0.2942500114440918
			],
			"type":"VEC3"
		},
		{
			"bufferView":1,
			"componentType":5126,
			"count":3171,
			"type":"VEC3"
		},
		{
			"bufferView":2,
			"componentType":5126,
			"count":3171,
			"type":"VEC2"
		},
		{
			"bufferView":3,
			"componentType":5126,
			"count":3171,
			"type":"VEC4"
		},
		{
			"bufferView":4,
			"componentType":5126,
			"count":3171,
			"type":"VEC3"
		},
		{
			"bufferView":5,
			"componentType":5123,
			"count":4560,
			"type":"SCALAR"
		},
		{
			"bufferView":6,
			"componentType":5126,
			"count":1220,
			"max":[
				0.4429999887943268,
				0.12156999856233597,
				0.2868499755859375
			],
			"min":[
				-0.44359999895095825,
				0,
				-0.21074999868869781
			],
			"type":"VEC3"
		},
		{
			"bufferView":7,
			"componentType":5126,
			"count":1220,
			"type":"VEC3"
		},
		{
			"bufferView":8,
			"componentType":5126,
			"count":1220,
			"type":"VEC2"
		},
		{
			"bufferView":9,
			"componentType":5126,
			"count":1220,
			"type":"VEC4"
		},
		{
			"bufferView":10,
			"componentType":5126,
			"count":1220,
			"type":"VEC3"
		},
		{
			"bufferView":11,
			"componentType":5123,
			"count":2112,
			"type":"SCALAR"
		},
		{
			"bufferView":12,
			"componentType":5126,
			"count":224,
			"max":[
				-0.2581999897956848,
				0.21799999475479126,
				0.2850499749183655
			],
			"min":[
				-0.44179999828338623,
				0.05873999744653702,
				-0.26125001907348633
			],
			"type":"VEC3"
		},
		{
			"bufferView":13,
			"componentType":5126,
			"count":224,
			"type":"VEC3"
		},
		{
			"bufferView":14,
			"componentType":5126,
			"count":224,
			"type":"VEC2"
		},
		{
			"bufferView":15,
			"componentType":5126,
			"count":224,
			"type":"VEC4"
		},
		{
			"bufferView":16,
			"componentType":5126,
			"count":224,
			"type":"VEC3"
		},
		{
			"bufferView":17,
			"componentType":5123,
			"count":252,
			"type":"SCALAR"
		},
		{
			"bufferView":18,
			"componentType":5126,
			"count":3407,
			"max":[
				0.4966000020503998,
				0.26499998569488525,
				0.22755001485347748
			],
			"min":[
				-0.3522000014781952,
				0.004000000189989805,
				-0.2714499831199646
			],
			"type":"VEC3"
		},
		{
			"bufferView":19,
			"componentType":5126,
			"count":3407,
			"type":"VEC3"
		},
		{
			"bufferView":20,
			"componentType":5126,
			"count":3407,
			"type":"VEC2"
		},
		{
			"bufferView":21,
			"componentType":5126,
			"count":3407,
			"type":"VEC4"
		},
		{
			"bufferView":22,
			"componentType":5126,
			"count":3407,
			"type":"VEC3"
		},
		{
			"bufferView":23,
			"componentType":5123,
			"count":7104,
			"type":"SCALAR"
		},
		{
			"bufferView":24,
			"componentType":5126,
			"count":1050,
			"max":[
				0.4383000135421753,
				0.03229999914765358,
				0.09762789309024811
			],
			"min":[
				0.0066999997943639755,
				0.005699999630451202,
				-0.12612788379192352
			],
			"type":"VEC3"
		},
		{
			"bufferView":25,
			"componentType":5126,
			"count":1050,
			"type":"VEC3"
		},
		{
			"bufferView":26,
			"componentType":5126,
			"count":1050,
			"type":"VEC2"
		},
		{
			"bufferView":27,
			"componentType":5126,
			"count":1050,
			"type":"VEC4"
		},
		{
			"bufferView":28,
			"componentType":5126,
			"count":1050,
			"type":"VEC3"
		},
		{
			"bufferView":29,
			"componentType":5123,
			"count":5184,
			"type":"SCALAR"
		}
	],
	"bufferViews":[
		{
			"buffer":0,
			"byteLength":38052,
			"byteOffset":0,
			"target":34962
		},
		{
			"buffer":0,
			"byteLength":38052,
			"byteOffset":38052,
			"target":34962
		},
		{
			"buffer":0,
			"byteLength":25368,
			"byteOffset":76104,
			"target":34962
		},
		{
			"buffer":0,
			"byteLength":50736,
			"byteOffset":101472,
			"target":34962
		},
		{
			"buffer":0,
			"byteLength":38052,
			"byteOffset":152208,
			"target":34962
		},
		{
			"buffer":0,
			"byteLength":9120,
			"byteOffset":190260,
			"target":34963
		},
		{
			"buffer":0,
			"byteLength":14640,
			"byteOffset":199380,
			"target":34962
		},
		{
			"buffer":0,
			"byteLength":14640,
			"byteOffset":214020,
			"target":34962
		},
		{
			"buffer":0,
			"byteLength":9760,
			"byteOffset":228660,
			"target":34962
		},
		{
			"buffer":0,
			"byteLength":19520,
			"byteOffset":238420,
			"target":34962
		},
		{
			"buffer":0,
			"byteLength":14640,
			"byteOffset":257940,
			"target":34962
		},
		{
			"buffer":0,
			"byteLength":4224,
			"byteOffset":272580,
			"target":34963
		},
		{
			"buffer":0,
			"byteLength":2688,
			"byteOffset":276804,
			"target":34962
		},
		{
			"buffer":0,
			"byteLength":2688,
			"byteOffset":279492,
			"target":34962
		},
		{
			"buffer":0,
			"byteLength":1792,
			"byteOffset":282180,
			"target":34962
		},
		{
			"buffer":0,
			"byteLength":3584,
			"byteOffset":283972,
			"target":34962
		},
		{
			"buffer":0,
			"byteLength":2688,
			"byteOffset":287556,
			"target":34962
		},
		{
			"buffer":0,
			"byteLength":504,
			"byteOffset":290244,
			"target":34963
		},
		{
			"buffer":0,
			"byteLength":40884,
			"byteOffset":290748,
			"target":34962
		},
		{
			"buffer":0,
			"byteLength":40884,
			"byteOffset":331632,
			"target":34962
		},
		{
			"buffer":0,
			"byteLength":27256,
			"byteOffset":372516,
			"target":34962
		},
		{
			"buffer":0,
			"byteLength":54512,
			"byteOffset":399772,
			"target":34962
		},
		{
			"buffer":0,
			"byteLength":40884,
			"byteOffset":454284,
			"target":34962
		},
		{
			"buffer":0,
			"byteLength":14208,
			"byteOffset":495168,
			"target":34963
		},
		{
			"buffer":0,
			"byteLength":12600,
			"byteOffset":509376,
			"target":34962
		},
		{
			"buffer":0,
			"byteLength":12600,
			"byteOffset":521976,
			"target":34962
		},
		{
			"buffer":0,
			"byteLength":8400,
			"byteOffset":534576,
			"target":34962
		},
		{
			"buffer":0,
			"byteLength":16800,
			"byteOffset":542976,
			"target":34962
		},
		{
			"buffer":0,
			"byteLength":12600,
			"byteOffset":559776,
			"target":34962
		},
		{
			"buffer":0,
			"byteLength":10368,
			"byteOffset":572376,
			"target":34963
		}
	],
	"samplers":[
		{
			"magFilter":9729,
			"minFilter":9987,
			"wrapS":33071,
			"wrapT":33071
		}
	],
	"buffers":[
		{
			"byteLength":582744,
			"uri":"shore_terminal.bin"
		}
	]
}
