{
	"asset":{
		"generator":"Khronos glTF Blender I/O v5.2.40",
		"version":"2.0"
	},
	"scene":0,
	"scenes":[
		{
			"name":"Scene",
			"nodes":[
				0
			]
		}
	],
	"nodes":[
		{
			"mesh":0,
			"name":"steam_ferry"
		}
	],
	"materials":[
		{
			"doubleSided":true,
			"name":"marine_hull",
			"pbrMetallicRoughness":{
				"baseColorFactor":[
					0.0949999988079071,
					0.14499999582767487,
					0.14499999582767487,
					1
				],
				"metallicFactor":0.11999999731779099,
				"roughnessFactor":0.7099999785423279
			}
		},
		{
			"doubleSided":true,
			"name":"marine_keel",
			"pbrMetallicRoughness":{
				"baseColorFactor":[
					0.2199999988079071,
					0.10499999672174454,
					0.07199999690055847,
					1
				],
				"metallicFactor":0.029999999329447746,
				"roughnessFactor":0.8399999737739563
			}
		},
		{
			"doubleSided":true,
			"name":"city_timber",
			"pbrMetallicRoughness":{
				"baseColorFactor":[
					0.27000001072883606,
					0.14499999582767487,
					0.08500000089406967,
					1
				],
				"metallicFactor":0,
				"roughnessFactor":0.8799999952316284
			}
		},
		{
			"doubleSided":true,
			"name":"marine_black",
			"pbrMetallicRoughness":{
				"baseColorFactor":[
					0.041999999433755875,
					0.04699999839067459,
					0.04699999839067459,
					1
				],
				"metallicFactor":0.03999999910593033,
				"roughnessFactor":0.8799999952316284
			}
		},
		{
			"doubleSided":true,
			"name":"City atlas | plaster \u00b7 limestone \u00b7 terracotta \u00b7 slate",
			"normalTexture":{
				"index":0,
				"scale":0.6499999761581421
			},
			"pbrMetallicRoughness":{
				"baseColorTexture":{
					"index":1
				},
				"metallicFactor":0,
				"roughnessFactor":0.8600000143051147
			}
		},
		{
			"doubleSided":true,
			"name":"city_glass",
			"pbrMetallicRoughness":{
				"baseColorFactor":[
					0.10499999672174454,
					0.14499999582767487,
					0.1599999964237213,
					1
				],
				"metallicFactor":0.07999999821186066,
				"roughnessFactor":0.3700000047683716
			}
		},
		{
			"doubleSided":true,
			"name":"marine_cream",
			"pbrMetallicRoughness":{
				"baseColorFactor":[
					0.7200000286102295,
					0.7400000095367432,
					0.6899999976158142,
					1
				],
				"metallicFactor":0.03999999910593033,
				"roughnessFactor":0.7900000214576721
			}
		},
		{
			"doubleSided":true,
			"name":"city_metal",
			"pbrMetallicRoughness":{
				"baseColorFactor":[
					0.2800000011920929,
					0.3400000035762787,
					0.3149999976158142,
					1
				],
				"metallicFactor":0.20000000298023224,
				"roughnessFactor":0.6800000071525574
			}
		}
	],
	"meshes":[
		{
			"name":"Curved riveted displacement hull",
			"primitives":[
				{
					"attributes":{
						"POSITION":0,
						"NORMAL":1,
						"TEXCOORD_0":2,
						"TANGENT":3,
						"COLOR_0":4
					},
					"indices":5,
					"material":0
				},
				{
					"attributes":{
						"POSITION":6,
						"NORMAL":7,
						"TEXCOORD_0":8,
						"TANGENT":9,
						"COLOR_0":10
					},
					"indices":11,
					"material":1
				},
				{
					"attributes":{
						"POSITION":12,
						"NORMAL":13,
						"TEXCOORD_0":14,
						"TANGENT":15,
						"COLOR_0":16
					},
					"indices":17,
					"material":2
				},
				{
					"attributes":{
						"POSITION":18,
						"NORMAL":19,
						"TEXCOORD_0":20,
						"TANGENT":21,
						"COLOR_0":22
					},
					"indices":23,
					"material":3
				},
				{
					"attributes":{
						"POSITION":24,
						"NORMAL":25,
						"TEXCOORD_0":26,
						"TANGENT":27,
						"COLOR_0":28
					},
					"indices":29,
					"material":4
				},
				{
					"attributes":{
						"POSITION":30,
						"NORMAL":31,
						"TEXCOORD_0":32,
						"TANGENT":33,
						"COLOR_0":34
					},
					"indices":35,
					"material":5
				},
				{
					"attributes":{
						"POSITION":36,
						"NORMAL":37,
						"TEXCOORD_0":38,
						"TANGENT":39,
						"COLOR_0":40
					},
					"indices":41,
					"material":6
				},
				{
					"attributes":{
						"POSITION":42,
						"NORMAL":43,
						"TEXCOORD_0":44,
						"TANGENT":45,
						"COLOR_0":46
					},
					"indices":47,
					"material":7
				}
			]
		}
	],
	"textures":[
		{
			"sampler":0,
			"source":0
		},
		{
			"sampler":0,
			"source":1
		}
	],
	"images":[
		{
			"mimeType":"image/png",
			"name":"material_atlas_normal.png",
			"uri":"../mini_city/textures/material_atlas_normal.png"
		},
		{
			"mimeType":"image/png",
			"name":"mini_city_material_atlas",
			"uri":"../mini_city/textures/material_atlas.png"
		}
	],
	"accessors":[
		{
			"bufferView":0,
			"componentType":5126,
			"count":92,
			"max":[
				0.4984050691127777,
				0.06479265540838242,
				0.12460126727819443
			],
			"min":[
				-0.4984050691127777,
				-0.04685007408261299,
				-0.12460126727819443
			],
			"type":"VEC3"
		},
		{
			"bufferView":1,
			"componentType":5126,
			"count":92,
			"type":"VEC3"
		},
		{
			"bufferView":2,
			"componentType":5126,
			"count":92,
			"type":"VEC2"
		},
		{
			"bufferView":3,
			"componentType":5126,
			"count":92,
			"type":"VEC4"
		},
		{
			"bufferView":4,
			"componentType":5126,
			"count":92,
			"type":"VEC3"
		},
		{
			"bufferView":5,
			"componentType":5123,
			"count":330,
			"type":"SCALAR"
		},
		{
			"bufferView":6,
			"componentType":5126,
			"count":78,
			"max":[
				0.4984050691127777,
				-0.026913873851299286,
				0.10964911431074142
			],
			"min":[
				-0.4984050691127777,
				-0.04685007408261299,
				-0.10964911431074142
			],
			"type":"VEC3"
		},
		{
			"bufferView":7,
			"componentType":5126,
			"count":78,
			"type":"VEC3"
		},
		{
			"bufferView":8,
			"componentType":5126,
			"count":78,
			"type":"VEC2"
		},
		{
			"bufferView":9,
			"componentType":5126,
			"count":78,
			"type":"VEC4"
		},
		{
			"bufferView":10,
			"componentType":5126,
			"count":78,
			"type":"VEC3"
		},
		{
			"bufferView":11,
			"componentType":5123,
			"count":288,
			"type":"SCALAR"
		},
		{
			"bufferView":12,
			"componentType":5126,
			"count":600,
			"max":[
				0.4984050691127777,
				0.16049639880657196,
				0.12298145145177841
			],
			"min":[
				-0.4984050691127777,
				0.05382774770259857,
				-0.12298145145177841
			],
			"type":"VEC3"
		},
		{
			"bufferView":13,
			"componentType":5126,
			"count":600,
			"type":"VEC3"
		},
		{
			"bufferView":14,
			"componentType":5126,
			"count":600,
			"type":"VEC2"
		},
		{
			"bufferView":15,
			"componentType":5126,
			"count":600,
			"type":"VEC4"
		},
		{
			"bufferView":16,
			"componentType":5126,
			"count":600,
			"type":"VEC3"
		},
		{
			"bufferView":17,
			"componentType":5123,
			"count":960,
			"type":"SCALAR"
		},
		{
			"bufferView":18,
			"componentType":5126,
			"count":1240,
			"max":[
				0.4996574819087982,
				0.1983652114868164,
				0.1260964721441269
			],
			"min":[
				-0.4991469085216522,
				0.03289473429322243,
				-0.1260964721441269
			],
			"type":"VEC3"
		},
		{
			"bufferView":19,
			"componentType":5126,
			"count":1240,
			"type":"VEC3"
		},
		{
			"bufferView":20,
			"componentType":5126,
			"count":1240,
			"type":"VEC2"
		},
		{
			"bufferView":21,
			"componentType":5126,
			"count":1240,
			"type":"VEC4"
		},
		{
			"bufferView":22,
			"componentType":5126,
			"count":1240,
			"type":"VEC3"
		},
		{
			"bufferView":23,
			"componentType":5123,
			"count":2160,
			"type":"SCALAR"
		},
		{
			"bufferView":24,
			"componentType":5126,
			"count":3034,
			"max":[
				0.2862838804721832,
				0.17045453190803528,
				0.09718898683786392
			],
			"min":[
				-0.33612439036369324,
				0.061802227050065994,
				-0.08791865408420563
			],
			"type":"VEC3"
		},
		{
			"bufferView":25,
			"componentType":5126,
			"count":3034,
			"type":"VEC3"
		},
		{
			"bufferView":26,
			"componentType":5126,
			"count":3034,
			"type":"VEC2"
		},
		{
			"bufferView":27,
			"componentType":5126,
			"count":3034,
			"type":"VEC4"
		},
		{
			"bufferView":28,
			"componentType":5126,
			"count":3034,
			"type":"VEC3"
		},
		{
			"bufferView":29,
			"componentType":5123,
			"count":4476,
			"type":"SCALAR"
		},
		{
			"bufferView":30,
			"componentType":5126,
			"count":252,
			"max":[
				0.27840906381607056,
				0.16049639880657196,
				0.08004385977983475
			],
			"min":[
				-0.32824960350990295,
				0.08105063438415527,
				-0.08004385977983475
			],
			"type":"VEC3"
		},
		{
			"bufferView":31,
			"componentType":5126,
			"count":252,
			"type":"VEC3"
		},
		{
			"bufferView":32,
			"componentType":5126,
			"count":252,
			"type":"VEC2"
		},
		{
			"bufferView":33,
			"componentType":5126,
			"count":252,
			"type":"VEC4"
		},
		{
			"bufferView":34,
			"componentType":5126,
			"count":252,
			"type":"VEC3"
		},
		{
			"bufferView":35,
			"componentType":5123,
			"count":252,
			"type":"SCALAR"
		},
		{
			"bufferView":36,
			"componentType":5126,
			"count":2564,
			"max":[
				0.3988237679004669,
				0.19238436222076416,
				0.10561465471982956
			],
			"min":[
				-0.4146730303764343,
				0.034788671880960464,
				-0.10561465471982956
			],
			"type":"VEC3"
		},
		{
			"bufferView":37,
			"componentType":5126,
			"count":2564,
			"type":"VEC3"
		},
		{
			"bufferView":38,
			"componentType":5126,
			"count":2564,
			"type":"VEC2"
		},
		{
			"bufferView":39,
			"componentType":5126,
			"count":2564,
			"type":"VEC4"
		},
		{
			"bufferView":40,
			"componentType":5126,
			"count":2564,
			"type":"VEC3"
		},
		{
			"bufferView":41,
			"componentType":5123,
			"count":11112,
			"type":"SCALAR"
		},
		{
			"bufferView":42,
			"componentType":5126,
			"count":8000,
			"max":[
				0.5,
				0.22073794901371002,
				0.12308113276958466
			],
			"min":[
				-0.5,
				0.060805417597293854,
				-0.12308113276958466
			],
			"type":"VEC3"
		},
		{
			"bufferView":43,
			"componentType":5126,
			"count":8000,
			"type":"VEC3"
		},
		{
			"bufferView":44,
			"componentType":5126,
			"count":8000,
			"type":"VEC2"
		},
		{
			"bufferView":45,
			"componentType":5126,
			"count":8000,
			"type":"VEC4"
		},
		{
			"bufferView":46,
			"componentType":5126,
			"count":8000,
			"type":"VEC3"
		},
		{
			"bufferView":47,
			"componentType":5123,
			"count":16380,
			"type":"SCALAR"
		}
	],
	"bufferViews":[
		{
			"buffer":0,
			"byteLength":1104,
			"byteOffset":0,
			"target":34962
		},
		{
			"buffer":0,
			"byteLength":1104,
			"byteOffset":1104,
			"target":34962
		},
		{
			"buffer":0,
			"byteLength":736,
			"byteOffset":2208,
			"target":34962
		},
		{
			"buffer":0,
			"byteLength":1472,
			"byteOffset":2944,
			"target":34962
		},
		{
			"buffer":0,
			"byteLength":1104,
			"byteOffset":4416,
			"target":34962
		},
		{
			"buffer":0,
			"byteLength":660,
			"byteOffset":5520,
			"target":34963
		},
		{
			"buffer":0,
			"byteLength":936,
			"byteOffset":6180,
			"target":34962
		},
		{
			"buffer":0,
			"byteLength":936,
			"byteOffset":7116,
			"target":34962
		},
		{
			"buffer":0,
			"byteLength":624,
			"byteOffset":8052,
			"target":34962
		},
		{
			"buffer":0,
			"byteLength":1248,
			"byteOffset":8676,
			"target":34962
		},
		{
			"buffer":0,
			"byteLength":936,
			"byteOffset":9924,
			"target":34962
		},
		{
			"buffer":0,
			"byteLength":576,
			"byteOffset":10860,
			"target":34963
		},
		{
			"buffer":0,
			"byteLength":7200,
			"byteOffset":11436,
			"target":34962
		},
		{
			"buffer":0,
			"byteLength":7200,
			"byteOffset":18636,
			"target":34962
		},
		{
			"buffer":0,
			"byteLength":4800,
			"byteOffset":25836,
			"target":34962
		},
		{
			"buffer":0,
			"byteLength":9600,
			"byteOffset":30636,
			"target":34962
		},
		{
			"buffer":0,
			"byteLength":7200,
			"byteOffset":40236,
			"target":34962
		},
		{
			"buffer":0,
			"byteLength":1920,
			"byteOffset":47436,
			"target":34963
		},
		{
			"buffer":0,
			"byteLength":14880,
			"byteOffset":49356,
			"target":34962
		},
		{
			"buffer":0,
			"byteLength":14880,
			"byteOffset":64236,
			"target":34962
		},
		{
			"buffer":0,
			"byteLength":9920,
			"byteOffset":79116,
			"target":34962
		},
		{
			"buffer":0,
			"byteLength":19840,
			"byteOffset":89036,
			"target":34962
		},
		{
			"buffer":0,
			"byteLength":14880,
			"byteOffset":108876,
			"target":34962
		},
		{
			"buffer":0,
			"byteLength":4320,
			"byteOffset":123756,
			"target":34963
		},
		{
			"buffer":0,
			"byteLength":36408,
			"byteOffset":128076,
			"target":34962
		},
		{
			"buffer":0,
			"byteLength":36408,
			"byteOffset":164484,
			"target":34962
		},
		{
			"buffer":0,
			"byteLength":24272,
			"byteOffset":200892,
			"target":34962
		},
		{
			"buffer":0,
			"byteLength":48544,
			"byteOffset":225164,
			"target":34962
		},
		{
			"buffer":0,
			"byteLength":36408,
			"byteOffset":273708,
			"target":34962
		},
		{
			"buffer":0,
			"byteLength":8952,
			"byteOffset":310116,
			"target":34963
		},
		{
			"buffer":0,
			"byteLength":3024,
			"byteOffset":319068,
			"target":34962
		},
		{
			"buffer":0,
			"byteLength":3024,
			"byteOffset":322092,
			"target":34962
		},
		{
			"buffer":0,
			"byteLength":2016,
			"byteOffset":325116,
			"target":34962
		},
		{
			"buffer":0,
			"byteLength":4032,
			"byteOffset":327132,
			"target":34962
		},
		{
			"buffer":0,
			"byteLength":3024,
			"byteOffset":331164,
			"target":34962
		},
		{
			"buffer":0,
			"byteLength":504,
			"byteOffset":334188,
			"target":34963
		},
		{
			"buffer":0,
			"byteLength":30768,
			"byteOffset":334692,
			"target":34962
		},
		{
			"buffer":0,
			"byteLength":30768,
			"byteOffset":365460,
			"target":34962
		},
		{
			"buffer":0,
			"byteLength":20512,
			"byteOffset":396228,
			"target":34962
		},
		{
			"buffer":0,
			"byteLength":41024,
			"byteOffset":416740,
			"target":34962
		},
		{
			"buffer":0,
			"byteLength":30768,
			"byteOffset":457764,
			"target":34962
		},
		{
			"buffer":0,
			"byteLength":22224,
			"byteOffset":488532,
			"target":34963
		},
		{
			"buffer":0,
			"byteLength":96000,
			"byteOffset":510756,
			"target":34962
		},
		{
			"buffer":0,
			"byteLength":96000,
			"byteOffset":606756,
			"target":34962
		},
		{
			"buffer":0,
			"byteLength":64000,
			"byteOffset":702756,
			"target":34962
		},
		{
			"buffer":0,
			"byteLength":128000,
			"byteOffset":766756,
			"target":34962
		},
		{
			"buffer":0,
			"byteLength":96000,
			"byteOffset":894756,
			"target":34962
		},
		{
			"buffer":0,
			"byteLength":32760,
			"byteOffset":990756,
			"target":34963
		}
	],
	"samplers":[
		{
			"magFilter":9729,
			"minFilter":9987,
			"wrapS":33071,
			"wrapT":33071
		}
	],
	"buffers":[
		{
			"byteLength":1023516,
			"uri":"steam_ferry.bin"
		}
	]
}
